<?xml version="1.0" encoding="utf-8"?>
<!-- Generator: Adobe Illustrator 14.0.0, SVG Export Plug-In . SVG Version: 6.00 Build 43363)  -->
<!DOCTYPE svg PUBLIC "-//W3C//DTD SVG 1.1//EN" "http://www.w3.org/Graphics/SVG/1.1/DTD/svg11.dtd">
<svg version="1.1" id="Camada_1" xmlns="http://www.w3.org/2000/svg" xmlns:xlink="http://www.w3.org/1999/xlink" x="0px" y="0px"
	 width="774px" height="250px" viewBox="0 0 774 250" enable-background="new 0 0 774 250" xml:space="preserve">
<g>
	<g>
		<g>
			<path fill="#1F5221" d="M11.748,115.949c2.67-0.429,6.151-0.716,9.774-0.716c6.15,0,10.156,1.147,13.207,3.435
				c3.337,2.479,5.435,6.435,5.435,12.109c0,6.15-2.239,10.396-5.292,13.016c-3.385,2.816-8.582,4.15-14.876,4.15
				c-3.766,0-6.484-0.24-8.249-0.479L11.748,115.949L11.748,115.949L11.748,115.949z M18.996,142.125
				c0.619,0.143,1.669,0.143,2.527,0.143c6.627,0.049,10.966-3.574,10.966-11.252c0-6.674-3.91-10.206-10.205-10.206
				c-1.572,0-2.669,0.144-3.289,0.286L18.996,142.125L18.996,142.125z"/>
			<path fill="#1F5221" d="M50.279,138.264c0.189,3.004,3.194,4.432,6.579,4.432c2.479,0,4.481-0.332,6.437-1.002l0.954,4.916
				c-2.384,0.998-5.292,1.475-8.44,1.475c-7.914,0-12.444-4.572-12.444-11.865c0-5.916,3.671-12.447,11.777-12.447
				c7.533,0,10.394,5.865,10.394,11.634c0,1.238-0.143,2.338-0.238,2.859L50.279,138.264L50.279,138.264z M58.812,133.305
				c0-1.766-0.763-4.721-4.101-4.721c-3.052,0-4.291,2.813-4.481,4.721H58.812z"/>
			<path fill="#1F5221" d="M69.829,141.316c1.335,0.809,4.101,1.715,6.246,1.715c2.192,0,3.098-0.715,3.098-1.906
				c0-1.236-0.714-1.813-3.385-2.717c-4.863-1.621-6.722-4.244-6.675-7.01c0-4.389,3.719-7.676,9.488-7.676
				c2.718,0,5.103,0.667,6.532,1.381l-1.239,5.006c-1.049-0.57-3.099-1.336-5.053-1.336c-1.765,0-2.765,0.715-2.765,1.861
				s0.905,1.717,3.766,2.717c4.434,1.525,6.246,3.816,6.293,7.201c0,4.385-3.385,7.58-10.06,7.58c-3.051,0-5.769-0.717-7.534-1.668
				L69.829,141.316z"/>
			<path fill="#1F5221" d="M108.069,146.988c-1.288,0.619-3.719,1.096-6.484,1.096c-7.533,0-12.349-4.625-12.349-11.92
				c0-6.813,4.672-12.395,13.35-12.395c1.907,0,4.004,0.335,5.531,0.907l-1.145,5.386c-0.858-0.379-2.146-0.713-4.052-0.713
				c-3.813,0-6.293,2.717-6.246,6.529c0,4.244,2.861,6.531,6.388,6.531c1.716,0,3.052-0.285,4.148-0.764L108.069,146.988z"/>
			<path fill="#1F5221" d="M112.076,131.971c0-3.438-0.048-5.676-0.191-7.679h6.199l0.287,4.291h0.19
				c1.192-3.436,4.005-4.86,6.294-4.86c0.667,0,1.001,0.047,1.525,0.142v6.816c-0.572-0.096-1.144-0.189-1.955-0.189
				c-2.671,0-4.481,1.432-4.959,3.672c-0.095,0.479-0.143,1.049-0.143,1.621v11.824h-7.247V131.971L112.076,131.971z"/>
			<path fill="#1F5221" d="M137.683,117.808c0,2.004-1.479,3.623-3.91,3.623c-2.289,0-3.766-1.619-3.766-3.623
				c0-2.051,1.526-3.624,3.861-3.624C136.204,114.185,137.634,115.757,137.683,117.808z M130.196,147.607v-23.316h7.247v23.316
				H130.196L130.196,147.607z"/>
			<path fill="#1F5221" d="M143.262,132.113c0-3.051-0.096-5.627-0.191-7.82h6.294l0.334,3.242h0.096
				c1.715-2.432,4.385-3.767,7.771-3.767c5.102,0,9.679,4.433,9.679,11.873c0,8.484-5.387,12.492-10.584,12.492
				c-2.813,0-5.005-1.146-6.055-2.672h-0.095v11.586h-7.247v-24.936h-0.002L143.262,132.113L143.262,132.113z M150.509,137.596
				c0,0.572,0.048,1.047,0.144,1.525c0.477,1.953,2.146,3.432,4.243,3.432c3.146,0,5.006-2.619,5.006-6.578
				c0-3.719-1.669-6.531-4.911-6.531c-2.051,0-3.862,1.523-4.338,3.67c-0.095,0.383-0.143,0.859-0.143,1.289L150.509,137.596
				L150.509,137.596L150.509,137.596z"/>
			<path fill="#1F5221" d="M179.882,117.999v6.292h5.197v5.341h-5.197v8.438c0,2.813,0.716,4.102,2.86,4.102
				c1.002,0,1.479-0.047,2.146-0.189l0.048,5.482c-0.906,0.334-2.67,0.619-4.674,0.619c-2.335,0-4.29-0.813-5.483-2.004
				c-1.335-1.383-2.003-3.625-2.003-6.912v-9.535h-3.1v-5.341h3.1v-4.34L179.882,117.999z"/>
			<path fill="#1F5221" d="M212.069,135.688c0,8.535-6.055,12.447-12.301,12.447c-6.819,0-12.063-4.484-12.063-12.018
				c0-7.582,4.959-12.396,12.492-12.396C207.3,123.722,212.069,128.631,212.069,135.688z M195.19,135.926
				c0,4.006,1.67,7.01,4.768,7.01c2.86,0,4.625-2.814,4.625-7.059c0-3.432-1.335-6.959-4.625-6.959
				C196.524,128.918,195.19,132.492,195.19,135.926z"/>
			<path fill="#1F5221" d="M216.553,131.971c0-3.438-0.046-5.676-0.19-7.679h6.198l0.287,4.291h0.191
				c1.191-3.436,4.004-4.86,6.293-4.86c0.667,0,1,0.047,1.525,0.142v6.816c-0.572-0.096-1.144-0.189-1.955-0.189
				c-2.671,0-4.482,1.432-4.959,3.672c-0.096,0.479-0.143,1.049-0.143,1.621v11.824h-7.248L216.553,131.971L216.553,131.971z"/>
			<path fill="#1F5221" d="M239.87,138.264c0.191,3.004,3.195,4.432,6.579,4.432c2.481,0,4.481-0.332,6.437-1.002l0.954,4.916
				c-2.384,0.998-5.293,1.475-8.439,1.475c-7.915,0-12.444-4.572-12.444-11.865c0-5.916,3.672-12.447,11.777-12.447
				c7.533,0,10.393,5.865,10.393,11.634c0,1.238-0.143,2.338-0.238,2.859L239.87,138.264L239.87,138.264z M248.405,133.305
				c0-1.766-0.764-4.721-4.1-4.721c-3.051,0-4.291,2.813-4.481,4.721H248.405z"/>
			<path fill="#1F5221" d="M259.423,141.316c1.334,0.809,4.099,1.715,6.244,1.715c2.194,0,3.101-0.715,3.101-1.906
				c0-1.236-0.717-1.813-3.385-2.717c-4.863-1.621-6.723-4.244-6.676-7.01c0-4.389,3.72-7.676,9.489-7.676
				c2.718,0,5.102,0.667,6.532,1.381l-1.239,5.006c-1.05-0.57-3.101-1.336-5.054-1.336c-1.765,0-2.766,0.715-2.766,1.861
				s0.906,1.717,3.768,2.717c4.434,1.525,6.246,3.816,6.292,7.201c0,4.385-3.384,7.58-10.06,7.58c-3.051,0-5.77-0.717-7.533-1.668
				L259.423,141.316z"/>
			<path fill="#1F5221" d="M295.374,138.264c0.192,3.004,3.195,4.432,6.581,4.432c2.479,0,4.481-0.332,6.437-1.002l0.954,4.916
				c-2.385,0.998-5.292,1.475-8.438,1.475c-7.915,0-12.444-4.572-12.444-11.865c0-5.916,3.671-12.447,11.777-12.447
				c7.533,0,10.394,5.865,10.394,11.634c0,1.238-0.144,2.338-0.238,2.859L295.374,138.264L295.374,138.264z M303.909,133.305
				c0-1.766-0.762-4.721-4.099-4.721c-3.052,0-4.291,2.813-4.482,4.721H303.909z"/>
			<path fill="#1F5221" d="M314.974,131.732c0-2.91-0.096-5.342-0.188-7.439h6.293l0.333,3.242h0.144
				c0.954-1.523,3.291-3.767,7.2-3.767c4.77,0,8.345,3.195,8.345,10.062v13.777h-7.248v-12.92c0-3.004-1.048-5.055-3.67-5.055
				c-2.003,0-3.193,1.383-3.72,2.719c-0.188,0.477-0.239,1.145-0.239,1.813v13.445h-7.247L314.974,131.732L314.974,131.732z"/>
			<path fill="#1F5221" d="M376.342,146.746c-1.287,0.623-4.339,1.387-8.201,1.387c-11.107,0-16.831-6.961-16.831-16.115
				c0-10.966,7.82-17.021,17.549-17.021c3.764,0,6.626,0.713,7.914,1.43l-1.526,5.722c-1.431-0.621-3.48-1.191-6.104-1.191
				c-5.722,0-10.202,3.478-10.202,10.631c0,6.436,3.813,10.488,10.251,10.488c2.238,0,4.624-0.43,6.103-1.051L376.342,146.746z"/>
			<path fill="#1F5221" d="M388.218,117.808c0,2.004-1.479,3.623-3.91,3.623c-2.29,0-3.767-1.619-3.767-3.623
				c0-2.051,1.526-3.624,3.861-3.624C386.739,114.185,388.168,115.757,388.218,117.808z M380.73,147.607v-23.316h7.247v23.316
				H380.73L380.73,147.607z"/>
			<path fill="#1F5221" d="M399.374,138.264c0.188,3.004,3.193,4.432,6.579,4.432c2.478,0,4.479-0.332,6.435-1.002l0.955,4.916
				c-2.384,0.998-5.294,1.475-8.438,1.475c-7.915,0-12.444-4.572-12.444-11.865c0-5.916,3.671-12.447,11.775-12.447
				c7.531,0,10.395,5.865,10.395,11.634c0,1.238-0.143,2.338-0.237,2.859L399.374,138.264L399.374,138.264z M407.907,133.305
				c0-1.766-0.766-4.721-4.104-4.721c-3.051,0-4.289,2.813-4.479,4.721H407.907z"/>
			<path fill="#1F5221" d="M418.975,131.732c0-2.91-0.096-5.342-0.189-7.439h6.294l0.336,3.242h0.139
				c0.955-1.523,3.291-3.767,7.203-3.767c4.77,0,8.343,3.195,8.343,10.062v13.777h-7.244v-12.92c0-3.004-1.053-5.055-3.673-5.055
				c-2.003,0-3.192,1.383-3.719,2.719c-0.19,0.477-0.24,1.145-0.24,1.813v13.445h-7.241V131.73L418.975,131.732L418.975,131.732z"/>
			<path fill="#1F5221" d="M464.416,146.988c-1.287,0.619-3.721,1.096-6.485,1.096c-7.53,0-12.352-4.625-12.352-11.92
				c0-6.813,4.675-12.395,13.353-12.395c1.904,0,4.003,0.335,5.528,0.907l-1.144,5.386c-0.856-0.379-2.146-0.713-4.055-0.713
				c-3.813,0-6.295,2.717-6.242,6.529c0,4.244,2.859,6.531,6.389,6.531c1.715,0,3.052-0.285,4.146-0.764L464.416,146.988z"/>
			<path fill="#1F5221" d="M475.907,117.808c0,2.004-1.479,3.623-3.908,3.623c-2.288,0-3.768-1.619-3.768-3.623
				c0-2.051,1.523-3.624,3.858-3.624C474.431,114.185,475.861,115.757,475.907,117.808z M468.421,147.607v-23.316h7.247v23.316
				H468.421L468.421,147.607z"/>
			<path fill="#1F5221" d="M500.892,141.982c0,2.193,0.099,4.34,0.387,5.625h-6.534l-0.432-2.336h-0.144
				c-1.526,1.857-3.909,2.861-6.675,2.861c-4.718,0-7.532-3.436-7.532-7.154c0-6.055,5.438-8.914,13.685-8.914v-0.285
				c0-1.289-0.668-3.053-4.243-3.053c-2.387,0-4.908,0.813-6.438,1.764l-1.336-4.674c1.621-0.906,4.818-2.095,9.063-2.095
				c7.771,0,10.198,4.576,10.198,10.105v8.152L500.892,141.982L500.892,141.982z M493.885,136.596c-3.813,0-6.771,0.902-6.771,3.67
				c0,1.859,1.238,2.766,2.859,2.766c1.765,0,3.289-1.189,3.771-2.672c0.092-0.381,0.142-0.811,0.142-1.236L493.885,136.596
				L493.885,136.596L493.885,136.596z"/>
			<path fill="#1F5221" d="M506.617,141.316c1.335,0.809,4.101,1.715,6.245,1.715c2.189,0,3.102-0.715,3.102-1.906
				c0-1.236-0.718-1.813-3.388-2.717c-4.862-1.621-6.721-4.244-6.674-7.01c0-4.389,3.717-7.676,9.483-7.676
				c2.723,0,5.104,0.667,6.532,1.381l-1.24,5.006c-1.048-0.57-3.099-1.336-5.053-1.336c-1.765,0-2.766,0.715-2.766,1.861
				s0.902,1.717,3.765,2.717c4.438,1.525,6.249,3.816,6.295,7.201c0,4.385-3.383,7.58-10.06,7.58c-3.055,0-5.771-0.717-7.532-1.668
				L506.617,141.316z"/>
			<path fill="#1F5221" d="M559.592,113.756v26.89c0,2.623,0.096,5.391,0.189,6.961h-6.438l-0.284-3.385h-0.143
				c-1.433,2.574-4.293,3.912-7.297,3.912c-5.529,0-9.964-4.723-9.964-11.971c-0.05-7.865,4.858-12.442,10.438-12.442
				c2.91,0,5.104,1.047,6.151,2.622h0.094v-12.587H559.592L559.592,113.756z M552.343,134.162c0-0.381,0-0.906-0.094-1.336
				c-0.43-1.906-2.003-3.525-4.243-3.525c-3.339,0-5.008,2.955-5.008,6.627c0,3.957,1.955,6.436,4.96,6.436
				c2.097,0,3.813-1.43,4.245-3.479c0.094-0.525,0.142-1.098,0.142-1.67v-3.053H552.343L552.343,134.162z"/>
			<path fill="#1F5221" d="M570.99,138.264c0.188,3.004,3.19,4.432,6.579,4.432c2.478,0,4.479-0.332,6.437-1.002l0.953,4.916
				c-2.384,0.998-5.291,1.475-8.439,1.475c-7.914,0-12.438-4.572-12.438-11.865c0-5.916,3.671-12.447,11.774-12.447
				c7.531,0,10.394,5.865,10.394,11.634c0,1.238-0.146,2.338-0.237,2.859L570.99,138.264L570.99,138.264z M579.523,133.305
				c0-1.766-0.767-4.721-4.102-4.721c-3.054,0-4.29,2.813-4.48,4.721H579.523z"/>
			<path fill="#1F5221" d="M600.222,113.756h7.245v33.851h-7.245V113.756z"/>
			<path fill="#1F5221" d="M632.74,141.982c0,2.193,0.095,4.34,0.381,5.625h-6.53l-0.433-2.336h-0.144
				c-1.522,1.857-3.907,2.861-6.674,2.861c-4.721,0-7.533-3.436-7.533-7.154c0-6.055,5.438-8.914,13.686-8.914v-0.285
				c0-1.289-0.67-3.053-4.244-3.053c-2.383,0-4.913,0.813-6.438,1.764l-1.335-4.674c1.619-0.906,4.814-2.095,9.062-2.095
				c7.771,0,10.203,4.576,10.203,10.105V141.982L632.74,141.982z M625.73,136.596c-3.814,0-6.771,0.902-6.771,3.67
				c0,1.859,1.239,2.766,2.86,2.766c1.765,0,3.291-1.189,3.767-2.672c0.096-0.381,0.146-0.811,0.146-1.236L625.73,136.596
				L625.73,136.596z"/>
			<path fill="#1F5221" d="M648.623,140.121c1.906,1.002,4.958,2.004,8.056,2.004c3.339,0,5.104-1.385,5.104-3.482
				c0-2-1.525-3.146-5.391-4.479c-5.34-1.908-8.867-4.863-8.867-9.537c0-5.481,4.627-9.631,12.156-9.631
				c3.67,0,6.293,0.713,8.2,1.62l-1.62,5.818c-1.242-0.62-3.578-1.525-6.676-1.525c-3.146,0-4.672,1.477-4.672,3.099
				c0,2.05,1.765,2.957,5.959,4.527c5.676,2.102,8.298,5.057,8.298,9.586c0,5.389-4.103,9.963-12.922,9.963
				c-3.671,0-7.294-1-9.107-2.002L648.623,140.121z"/>
			<path fill="#1F5221" d="M693.679,141.982c0,2.193,0.1,4.34,0.382,5.625h-6.527l-0.432-2.336h-0.146
				c-1.524,1.857-3.908,2.861-6.674,2.861c-4.72,0-7.535-3.436-7.535-7.154c0-6.055,5.438-8.914,13.688-8.914v-0.285
				c0-1.289-0.668-3.053-4.248-3.053c-2.384,0-4.906,0.813-6.435,1.764l-1.335-4.674c1.621-0.906,4.816-2.095,9.061-2.095
				c7.771,0,10.202,4.576,10.202,10.105v8.152L693.679,141.982L693.679,141.982z M686.671,136.596c-3.813,0-6.771,0.902-6.771,3.67
				c0,1.859,1.235,2.766,2.856,2.766c1.769,0,3.291-1.189,3.771-2.672c0.095-0.381,0.142-0.811,0.142-1.236v-2.525L686.671,136.596
				L686.671,136.596z"/>
			<path fill="#1F5221" d="M699.452,113.756h7.247v33.851h-7.247V113.756z"/>
			<path fill="#1F5221" d="M734.547,140.121c0,3.053,0.094,5.529,0.188,7.484h-6.29l-0.336-3.289h-0.146
				c-0.902,1.432-3.096,3.814-7.294,3.814c-4.768,0-8.201-2.957-8.201-10.158v-13.685h7.247v12.542c0,3.385,1.1,5.436,3.672,5.436
				c2.003,0,3.195-1.381,3.625-2.525c0.189-0.43,0.286-0.953,0.286-1.572v-13.875h7.246v15.828H734.547L734.547,140.121z"/>
			<path fill="#1F5221" d="M762.965,113.756v26.89c0,2.623,0.096,5.391,0.189,6.961h-6.438l-0.286-3.385h-0.143
				c-1.43,2.574-4.288,3.912-7.296,3.912c-5.529,0-9.962-4.723-9.962-11.971c-0.049-7.865,4.859-12.442,10.438-12.442
				c2.908,0,5.103,1.047,6.151,2.622h0.094v-12.587H762.965L762.965,113.756z M755.718,134.162c0-0.381,0-0.906-0.094-1.336
				c-0.429-1.906-2.003-3.525-4.244-3.525c-3.338,0-5.006,2.955-5.006,6.627c0,3.957,1.954,6.436,4.958,6.436
				c2.098,0,3.814-1.43,4.244-3.479c0.094-0.525,0.142-1.098,0.142-1.67V134.162L755.718,134.162z"/>
		</g>
		<g>
			<g>
				<g>
					<path fill="#FFFFFF" stroke="#999999" stroke-width="0.9741" d="M54.574,68.78c-5.034,3.873-11.054,5.918-17.235,5.345
						C23.056,72.796,13.35,57.989,15.658,41.052c1.046-7.667,4.388-14.437,9.043-19.45c0,0-9.913,7.525-11.755,19.934
						C9.727,63.222,22.17,81.123,39.983,82.779c8.699,0.81,17.146-2.551,23.853-8.649L54.574,68.78z"/>
					<path fill="#FFFFFF" stroke="#999999" stroke-width="0.9741" d="M86.795,18.369C70.374,4.777,47.899,6.564,37.56,21.161
						c-5.614,7.925-6.614,18.155-3.669,27.938l8.884-6.077c-1.481-7.035-0.409-14.163,3.6-19.823
						c8.292-11.706,25.969-12.707,39.482-2.239c6.117,4.738,10.308,11.018,12.323,17.555C98.18,38.515,97.529,27.255,86.795,18.369z
						"/>
					<path fill="#FFFFFF" stroke="#999999" stroke-width="0.9741" d="M92.968,49.084c-3.68-8.006-10.9-13.671-19.636-16.402v10.675
						c5.972,2.407,10.838,6.637,13.463,12.344c5.992,13.033-1.979,28.846-17.801,35.313c-7.163,2.93-14.697,3.42-21.365,1.896
						c0,0,5.805,4.811,23.141,0.212C91.374,87.655,100.44,65.338,92.968,49.084z"/>
					
						<linearGradient id="SVGID_1_" gradientUnits="userSpaceOnUse" x1="-496.4404" y1="-949.2417" x2="-537.8326" y2="-965.4142" gradientTransform="matrix(1 0 0 -1 565.04 -915.6602)">
						<stop  offset="0" style="stop-color:#FFFFFF"/>
						<stop  offset="1" style="stop-color:#1F5221"/>
					</linearGradient>
					<path fill="url(#SVGID_1_)" stroke="#999999" stroke-width="0.9741" d="M47.295,43.815c7.558-3.09,15.539-3.484,22.47-1.639
						V31.745c-8.167-1.738-17.336-1.046-26.054,2.516c-8.428,3.445-15.048,9.025-19.31,15.543l8.24,5.285
						C36.063,50.379,41.058,46.365,47.295,43.815z"/>
					
						<linearGradient id="SVGID_2_" gradientUnits="userSpaceOnUse" x1="-499.5259" y1="-983.3496" x2="-491.61" y2="-940.9431" gradientTransform="matrix(1 0 0 -1 565.04 -915.6602)">
						<stop  offset="0" style="stop-color:#FFFFFF"/>
						<stop  offset="1" style="stop-color:#1F5221"/>
					</linearGradient>
					<path fill="url(#SVGID_2_)" stroke="#999999" stroke-width="0.9741" d="M73.642,23.038l-8.698,4.493
						c2.37,5.321,3.35,11.651,2.438,18.329c-1.102,8.085-4.745,15.188-9.805,20.267l8.993,5.259
						c5.604-6.207,9.603-14.506,10.878-23.854C78.678,38.51,77.157,29.987,73.642,23.038z"/>
					
						<linearGradient id="SVGID_3_" gradientUnits="userSpaceOnUse" x1="-524.4951" y1="-962.3843" x2="-495.1509" y2="-998.0002" gradientTransform="matrix(1 0 0 -1 565.04 -915.6602)">
						<stop  offset="0" style="stop-color:#FFFFFF"/>
						<stop  offset="1" style="stop-color:#1F5221"/>
					</linearGradient>
					<path fill="url(#SVGID_3_)" stroke="#999999" stroke-width="0.9741" d="M55.831,63.352
						c-6.161-4.773-10.384-11.106-12.379-17.694c-3.281,1.814-6.125,4.06-8.47,6.591c2.785,7.09,7.652,13.781,14.368,18.982
						c7.198,5.576,15.339,8.521,23.115,8.951l0.459-9.78C67.132,69.795,61.16,67.479,55.831,63.352z"/>
				</g>
				<g>
					<path fill="#1F5221" d="M113.404,13.329h26.662c13.877,0,24.33,3.203,31.362,9.607c7.031,6.404,10.546,16.313,10.546,29.724
						c0,13.413-3.516,23.473-10.546,30.18c-7.032,6.704-17.485,10.059-31.362,10.059h-26.662V13.329z M130.321,78.626h9.605
						c9.7,0,16.151-2.228,19.353-6.683c1.717-2.32,3.028-5.069,3.934-8.25c0.905-3.178,1.357-6.854,1.357-11.033
						c0-4.084-0.452-7.634-1.357-10.65c-0.905-3.017-2.217-5.639-3.934-7.867c-3.341-4.456-9.792-6.683-19.353-6.683h-9.605V78.626z
						"/>
					<path fill="#1F5221" d="M221.166,94.149c-4.827,0-9.119-0.684-12.878-2.052c-3.759-1.369-6.926-3.343-9.502-5.917
						c-2.576-2.576-4.524-5.709-5.847-9.396c-1.323-3.69-1.984-7.879-1.984-12.566c0-4.734,0.673-8.969,2.02-12.705
						c1.346-3.734,3.283-6.903,5.813-9.502c2.529-2.599,5.615-4.583,9.259-5.953c3.643-1.368,7.784-2.053,12.426-2.053
						c4.5,0,8.55,0.65,12.147,1.949c3.595,1.3,6.648,3.203,9.154,5.708c2.505,2.506,4.431,5.604,5.777,9.293
						c1.345,3.688,2.019,7.926,2.019,12.705v4.037h-41.49c0.046,2.877,0.406,5.338,1.08,7.379c0.672,2.043,1.588,3.725,2.75,5.047
						c1.159,1.323,2.517,2.287,4.072,2.891s3.282,0.904,5.187,0.904c3.108,0,5.662-0.649,7.657-1.949
						c1.994-1.299,3.341-3.411,4.038-6.336h15.593c-0.557,3.018-1.625,5.674-3.202,7.972c-1.579,2.296-3.55,4.224-5.918,5.778
						c-2.366,1.556-5.082,2.739-8.144,3.549C228.127,93.745,224.787,94.149,221.166,94.149z M233,57.952
						c-0.372-4.918-1.612-8.551-3.725-10.894c-2.111-2.344-5.046-3.516-8.806-3.516c-3.435,0-6.277,1.277-8.527,3.829
						c-2.251,2.552-3.493,6.08-3.724,10.58L233,57.952L233,57.952z"/>
					<path fill="#1F5221" d="M296,94.149c-5.616,0-10.767-0.894-15.454-2.68c-4.688-1.783-8.703-4.533-12.043-8.248
						c-3.436-3.759-5.952-8.121-7.554-13.087c-1.601-4.966-2.401-10.628-2.401-16.987c0-12.714,3.317-22.763,9.954-30.142
						c3.434-3.712,7.471-6.483,12.112-8.317c4.641-1.833,9.77-2.75,15.384-2.75c4.456,0,8.54,0.534,12.253,1.602
						c3.712,1.067,7.1,2.714,10.163,4.943c3.759,2.783,6.521,5.964,8.284,9.537c1.763,3.573,2.898,7.611,3.411,12.112h-16.986
						c-0.557-4.315-2.32-7.692-5.29-10.128c-2.97-2.438-6.916-3.655-11.835-3.655c-3.017,0-5.768,0.592-8.249,1.775
						c-2.483,1.184-4.595,2.914-6.334,5.186c-1.741,2.274-3.087,5.082-4.038,8.423c-0.952,3.342-1.427,7.147-1.427,11.417
						c0,4.27,0.464,8.064,1.393,11.382c0.928,3.318,2.25,6.126,3.969,8.423c1.716,2.297,3.804,4.039,6.265,5.221
						c2.458,1.185,5.221,1.775,8.284,1.775c4.918,0,8.864-1.264,11.835-3.793c2.969-2.529,4.776-6.162,5.429-10.895h16.847
						c-0.511,4.641-1.636,8.76-3.376,12.356c-1.738,3.597-4.143,6.695-7.205,9.293c-3.063,2.507-6.521,4.339-10.373,5.499
						C305.165,93.57,300.827,94.149,296,94.149z"/>
					<path fill="#1F5221" d="M374.176,94.149c-10.813,0-19.283-2.296-25.409-6.891c-6.125-4.594-9.443-11.557-9.954-20.885h16.291
						c0.557,4.781,2.424,8.354,5.604,10.721c3.179,2.367,7.529,3.551,13.053,3.551c5.059,0,9.063-0.881,12.009-2.646
						c2.946-1.762,4.419-4.314,4.419-7.656c0-1.484-0.356-2.738-1.075-3.76c-0.724-1.02-1.813-1.914-3.272-2.68
						c-1.462-0.766-3.285-1.473-5.465-2.123c-2.182-0.65-4.758-1.346-7.726-2.089l-2.995-0.835
						c-3.761-0.975-7.333-1.961-10.722-2.959s-6.357-2.32-8.909-3.969c-2.554-1.646-4.583-3.781-6.093-6.403
						c-1.508-2.622-2.262-6.022-2.262-10.199c0-3.992,0.835-7.46,2.506-10.408c1.671-2.946,3.936-5.384,6.787-7.309
						c2.854-1.926,6.161-3.352,9.919-4.282c3.76-0.926,7.729-1.392,11.905-1.392c4.825,0,9.199,0.568,13.122,1.706
						c3.922,1.138,7.285,2.773,10.096,4.908c2.81,2.136,4.998,4.746,6.576,7.831c1.578,3.087,2.437,6.579,2.578,10.477h-16.433
						c-0.418-3.759-1.982-6.601-4.697-8.527c-2.716-1.924-6.463-2.889-11.242-2.889c-4.595,0-8.122,0.825-10.581,2.472
						c-2.461,1.647-3.691,3.91-3.691,6.788c0,1.346,0.313,2.495,0.94,3.445c0.627,0.95,1.601,1.787,2.923,2.505
						c1.323,0.721,3.017,1.381,5.083,1.984c2.064,0.603,4.536,1.252,7.414,1.949c2.877,0.649,5.674,1.3,8.389,1.948
						c2.714,0.649,5.27,1.393,7.657,2.228c2.394,0.836,4.57,1.822,6.545,2.959c1.974,1.138,3.654,2.519,5.047,4.143
						c1.394,1.625,2.48,3.55,3.271,5.777c0.787,2.228,1.184,4.851,1.184,7.866c0,3.944-0.774,7.45-2.332,10.511
						c-1.555,3.064-3.76,5.64-6.61,7.728c-2.854,2.089-6.303,3.679-10.34,4.77C383.643,93.604,379.141,94.149,374.176,94.149z"/>
					<path fill="#1F5221" d="M448.313,13.329l-23.041,79.569h-13.573l22.973-79.569H448.313z"/>
					<path fill="#1F5221" d="M540.551,92.899h-15.246V30.037l-18.934,62.862h-15.453l-19.354-62.862v62.862H456.18v-79.57h24.367
						l17.959,60.146l17.82-60.146h24.227v79.569L540.551,92.899L540.551,92.899z"/>
					<path fill="#1F5221" d="M582.736,94.149c-4.828,0-9.119-0.684-12.879-2.052c-3.761-1.369-6.931-3.343-9.507-5.917
						c-2.571-2.576-4.521-5.709-5.846-9.396c-1.32-3.69-1.979-7.879-1.979-12.566c0-4.734,0.672-8.969,2.018-12.705
						c1.346-3.734,3.283-6.903,5.813-9.502c2.529-2.599,5.614-4.583,9.26-5.953c3.645-1.368,7.783-2.053,12.428-2.053
						c4.502,0,8.549,0.65,12.146,1.949c3.596,1.3,6.647,3.203,9.151,5.708c2.508,2.506,4.433,5.604,5.779,9.293
						c1.348,3.688,2.018,7.926,2.018,12.705v4.037H569.65c0.047,2.877,0.401,5.338,1.078,7.379c0.672,2.043,1.59,3.725,2.75,5.047
						c1.157,1.323,2.518,2.287,4.069,2.891c1.556,0.604,3.281,0.904,5.188,0.904c3.106,0,5.66-0.649,7.658-1.949
						c1.991-1.299,3.342-3.411,4.034-6.336h15.597c-0.562,3.018-1.625,5.674-3.203,7.972c-1.578,2.296-3.549,4.224-5.916,5.778
						c-2.367,1.556-5.082,2.739-8.146,3.549C589.697,93.745,586.355,94.149,582.736,94.149z M594.57,57.952
						c-0.373-4.918-1.611-8.551-3.728-10.894c-2.108-2.344-5.047-3.516-8.807-3.516c-3.437,0-6.275,1.277-8.525,3.829
						c-2.252,2.552-3.494,6.08-3.725,10.58L594.57,57.952L594.57,57.952z"/>
					<path fill="#1F5221" d="M654.021,94.149c-10.816,0-19.285-2.296-25.41-6.891c-6.127-4.594-9.445-11.557-9.955-20.885h16.289
						c0.557,4.781,2.426,8.354,5.604,10.721c3.18,2.367,7.531,3.551,13.053,3.551c5.06,0,9.063-0.881,12.011-2.646
						c2.944-1.762,4.422-4.314,4.422-7.656c0-1.484-0.361-2.738-1.08-3.76c-0.719-1.02-1.812-1.914-3.271-2.68
						c-1.461-0.766-3.28-1.473-5.465-2.123c-2.182-0.65-4.758-1.346-7.727-2.089l-2.996-0.835
						c-3.758-0.975-7.332-1.961-10.724-2.959c-3.389-0.998-6.354-2.32-8.905-3.969c-2.556-1.646-4.584-3.781-6.097-6.403
						c-1.506-2.622-2.262-6.022-2.262-10.199c0-3.992,0.836-7.46,2.506-10.408c1.67-2.946,3.938-5.384,6.787-7.309
						c2.855-1.926,6.162-3.352,9.92-4.282c3.76-0.926,7.729-1.392,11.904-1.392c4.828,0,9.201,0.568,13.123,1.706
						c3.92,1.138,7.283,2.773,10.094,4.908c2.807,2.136,5,4.746,6.578,7.831c1.576,3.087,2.436,6.579,2.576,10.477h-16.433
						c-0.416-3.759-1.979-6.601-4.696-8.527c-2.715-1.924-6.463-2.889-11.242-2.889c-4.594,0-8.121,0.825-10.58,2.472
						c-2.461,1.647-3.689,3.91-3.689,6.788c0,1.346,0.313,2.495,0.938,3.445c0.627,0.95,1.602,1.787,2.926,2.505
						c1.32,0.721,3.019,1.381,5.08,1.984c2.063,0.603,4.537,1.252,7.416,1.949c2.875,0.649,5.672,1.3,8.389,1.948
						c2.716,0.649,5.267,1.393,7.654,2.228c2.392,0.836,4.572,1.822,6.545,2.959c1.976,1.138,3.654,2.519,5.047,4.143
						c1.396,1.625,2.484,3.55,3.273,5.777c0.784,2.228,1.182,4.851,1.182,7.866c0,3.944-0.772,7.45-2.332,10.511
						c-1.555,3.064-3.756,5.64-6.608,7.728c-2.854,2.089-6.304,3.679-10.34,4.77C663.488,93.604,658.984,94.149,654.021,94.149z"/>
					<path fill="#1F5221" d="M765.262,92.899h-16.848V58.231h-31.951v34.668h-16.916v-79.57h16.916v30.839h31.951V13.329h16.848
						V92.899z"/>
				</g>
			</g>
		</g>
	</g>
	<rect x="277.907" y="166.527" fill="#FFFF00" width="218.186" height="74.348"/>
	<g>
		<path d="M305.337,179.354h23.23v4.672h-17.599v14.334h16.255v4.607h-16.255v19.52h-5.632L305.337,179.354L305.337,179.354z"/>
		<path d="M340.985,182.809c0,1.92-1.344,3.455-3.584,3.455c-2.048,0-3.392-1.535-3.392-3.455s1.408-3.521,3.52-3.521
			C339.577,179.287,340.985,180.824,340.985,182.809z M334.714,222.486v-30.975h5.632v30.975H334.714z"/>
		<path d="M349.689,199.895c0-3.264-0.064-5.822-0.256-8.383h4.991l0.32,5.119h0.128c1.536-2.881,5.12-5.76,10.239-5.76
			c4.288,0,10.943,2.561,10.943,13.184v18.432h-5.632v-17.854c0-4.992-1.855-9.152-7.167-9.152c-3.648,0-6.528,2.625-7.552,5.76
			c-0.256,0.703-0.384,1.664-0.384,2.623v18.623h-5.632v-22.592H349.689z"/>
		<path d="M411.896,177.049v37.438c0,2.752,0.128,5.887,0.256,8h-4.992l-0.256-5.377h-0.191c-1.664,3.457-5.376,6.08-10.432,6.08
			c-7.487,0-13.313-6.336-13.313-15.742c-0.063-10.303,6.4-16.574,13.889-16.574c4.8,0,7.936,2.238,9.344,4.67h0.127v-18.492h5.568
			V177.049z M406.327,204.119c0-0.703-0.063-1.664-0.256-2.367c-0.832-3.52-3.903-6.465-8.127-6.465
			c-5.824,0-9.279,5.121-9.279,11.904c0,6.27,3.136,11.455,9.151,11.455c3.775,0,7.23-2.561,8.255-6.721
			c0.191-0.768,0.256-1.535,0.256-2.432V204.119z"/>
		<path d="M424.44,208.023c0.129,7.615,4.928,10.75,10.622,10.75c4.032,0,6.527-0.703,8.576-1.6l1.023,4.031
			c-1.984,0.896-5.439,1.984-10.367,1.984c-9.535,0-15.23-6.336-15.23-15.68s5.505-16.639,14.527-16.639
			c10.174,0,12.799,8.83,12.799,14.525c0,1.152-0.063,1.984-0.191,2.625H424.44V208.023z M440.952,203.99
			c0.063-3.52-1.474-9.086-7.81-9.086c-5.76,0-8.19,5.184-8.639,9.086H440.952z"/>
		<path d="M453.368,201.176c0-3.648-0.064-6.783-0.256-9.664h4.928l0.256,6.145h0.192c1.406-4.16,4.862-6.783,8.64-6.783
			c0.576,0,1.023,0.063,1.535,0.127v5.313c-0.576-0.127-1.152-0.127-1.92-0.127c-3.967,0-6.783,2.941-7.551,7.166
			c-0.13,0.77-0.192,1.729-0.192,2.625v16.51h-5.632V201.176z"/>
	</g>
</g>
</svg>
