<?xml version="1.0" encoding="utf-8"?>
<!-- Generator: Adobe Illustrator 14.0.0, SVG Export Plug-In . SVG Version: 6.00 Build 43363)  -->
<!DOCTYPE svg PUBLIC "-//W3C//DTD SVG 1.1//EN" "http://www.w3.org/Graphics/SVG/1.1/DTD/svg11.dtd">
<svg version="1.1" id="Camada_1" xmlns="http://www.w3.org/2000/svg" xmlns:xlink="http://www.w3.org/1999/xlink" x="0px" y="0px"
	 width="774px" height="250px" viewBox="0 0 774 250" enable-background="new 0 0 774 250" xml:space="preserve">
<g>
	<g>
		<g>
			<path fill="#1F5221" d="M24.573,104.446v15.859h15.31v-15.859h9.271v41.11h-9.271v-17.141h-15.31v17.141h-9.271v-41.11H24.573
				L24.573,104.446z"/>
			<path fill="#1F5221" d="M64.223,133.539c0.305,3.9,4.086,5.729,8.418,5.729c3.172,0,5.732-0.426,8.233-1.275l1.22,6.277
				c-3.05,1.281-6.771,1.895-10.796,1.895c-10.125,0-15.92-5.854-15.92-15.248c0-7.563,4.757-15.921,15.065-15.921
				c9.638,0,13.297,7.503,13.297,14.886c0,1.586-0.183,2.986-0.304,3.721L64.223,133.539z M75.141,127.199
				c0-2.197-0.977-6.04-5.185-6.04c-3.965,0-5.551,3.599-5.795,6.04H75.141z"/>
			<path fill="#1F5221" d="M114.118,138.359c0,2.807,0.123,5.551,0.488,7.197h-8.356l-0.549-2.988h-0.183
				c-1.952,2.379-5.001,3.66-8.54,3.66c-6.038,0-9.638-4.393-9.638-9.148c0-7.748,6.953-11.402,17.507-11.402v-0.365
				c0-1.587-0.854-3.843-5.43-3.843c-3.05,0-6.282,1.036-8.233,2.192l-1.708-5.917c2.072-1.159,6.16-2.685,11.589-2.685
				c9.941,0,13.053,5.855,13.053,12.873V138.359L114.118,138.359z M105.152,131.467c-4.88,0-8.661,1.158-8.661,4.695
				c0,2.379,1.585,3.537,3.659,3.537c2.257,0,4.209-1.523,4.818-3.414c0.123-0.486,0.184-1.037,0.184-1.586V131.467L105.152,131.467
				z"/>
			<path fill="#1F5221" d="M121.5,102.248h9.271v43.309H121.5V102.248z"/>
			<path fill="#1F5221" d="M148.582,107.618v8.112h6.649v6.83h-6.649v10.858c0,3.6,0.915,5.246,3.66,5.246
				c1.282,0,1.891-0.063,2.745-0.246l0.062,7.018c-1.159,0.428-3.416,0.793-5.978,0.793c-2.988,0-5.49-1.037-7.015-2.564
				c-1.708-1.77-2.562-4.635-2.562-8.844v-12.261h-3.964v-6.832h3.964v-5.611L148.582,107.618z"/>
			<path fill="#1F5221" d="M160.599,102.248h9.271v17.079h0.122c0.976-1.341,2.196-2.378,3.66-3.11
				c1.401-0.732,3.109-1.159,4.816-1.159c5.917,0,10.433,4.087,10.433,13.116v17.383h-9.271V129.15c0-3.904-1.342-6.588-4.816-6.588
				c-2.44,0-3.967,1.586-4.638,3.295c-0.244,0.549-0.305,1.34-0.305,2.012v17.689H160.6L160.599,102.248L160.599,102.248z"/>
			<path fill="#1F5221" d="M209.275,136.041c2.438,1.281,6.343,2.563,10.308,2.563c4.27,0,6.527-1.77,6.527-4.514
				c0-2.5-1.952-4.023-6.895-5.732c-6.831-2.439-11.344-6.221-11.344-12.261c0-7.014,5.917-12.32,15.553-12.32
				c4.697,0,8.051,0.915,10.491,2.074l-2.074,7.442c-1.585-0.792-4.574-1.952-8.539-1.952c-4.023,0-5.978,1.891-5.978,3.964
				c0,2.624,2.257,3.782,7.624,5.856c7.258,2.686,10.614,6.465,10.614,12.322c0,6.891-5.246,12.748-16.53,12.748
				c-4.696,0-9.332-1.281-11.65-2.564L209.275,136.041z"/>
			<path fill="#1F5221" d="M263.989,144.824c-1.647,0.793-4.758,1.404-8.296,1.404c-9.638,0-15.797-5.916-15.797-15.311
				c0-8.724,5.977-15.861,17.077-15.861c2.438,0,5.123,0.427,7.074,1.159l-1.464,6.893c-1.098-0.488-2.745-0.915-5.184-0.915
				c-4.881,0-8.055,3.478-7.992,8.356c0,5.488,3.661,8.418,8.173,8.418c2.196,0,3.904-0.365,5.307-0.979L263.989,144.824z"/>
			<path fill="#1F5221" d="M273.688,111.827c-3.109,0-5.122-2.196-5.122-4.941c0-2.805,2.072-4.94,5.244-4.94
				c3.174,0,5.124,2.135,5.187,4.94c0,2.746-2.013,4.941-5.246,4.941H273.688z M269.113,145.557v-29.828h9.271v29.828H269.113z"/>
			<path fill="#1F5221" d="M292.962,133.539c0.304,3.9,4.086,5.729,8.417,5.729c3.172,0,5.734-0.426,8.234-1.275l1.22,6.277
				c-3.049,1.281-6.77,1.895-10.795,1.895c-10.125,0-15.92-5.854-15.92-15.248c0-7.563,4.757-15.921,15.064-15.921
				c9.639,0,13.298,7.503,13.298,14.886c0,1.586-0.188,2.986-0.309,3.721L292.962,133.539z M303.88,127.199
				c0-2.197-0.976-6.04-5.184-6.04c-3.965,0-5.55,3.599-5.795,6.04H303.88z"/>
			<path fill="#1F5221" d="M318.033,125.245c0-3.721-0.122-6.832-0.244-9.515h8.051l0.426,4.146h0.188
				c1.22-1.952,4.209-4.818,9.209-4.818c6.1,0,10.675,4.087,10.675,12.872v17.627h-9.271v-16.527c0-3.844-1.344-6.467-4.694-6.467
				c-2.563,0-4.087,1.771-4.757,3.477c-0.245,0.609-0.31,1.469-0.31,2.318v17.199h-9.271L318.033,125.245L318.033,125.245z"/>
			<path fill="#1F5221" d="M376.164,144.824c-1.647,0.793-4.758,1.404-8.296,1.404c-9.636,0-15.797-5.916-15.797-15.311
				c0-8.724,5.978-15.861,17.079-15.861c2.438,0,5.123,0.427,7.07,1.159l-1.464,6.893c-1.098-0.488-2.745-0.915-5.184-0.915
				c-4.88,0-8.053,3.478-7.991,8.356c0,5.488,3.661,8.418,8.173,8.418c2.196,0,3.904-0.365,5.311-0.979L376.164,144.824z"/>
			<path fill="#1F5221" d="M387.755,133.539c0.304,3.9,4.086,5.729,8.417,5.729c3.171,0,5.733-0.426,8.233-1.275l1.22,6.277
				c-3.048,1.281-6.771,1.895-10.794,1.895c-10.126,0-15.921-5.854-15.921-15.248c0-7.563,4.757-15.921,15.063-15.921
				c9.643,0,13.302,7.503,13.302,14.886c0,1.586-0.188,2.986-0.309,3.721L387.755,133.539z M398.673,127.199
				c0-2.197-0.977-6.04-5.187-6.04c-3.963,0-5.549,3.599-5.795,6.04H398.673z"/>
			<path fill="#1F5221" d="M412.764,137.506c1.708,1.035,5.247,2.195,7.991,2.195c2.808,0,3.965-0.916,3.965-2.438
				c0-1.588-0.916-2.318-4.331-3.479c-6.221-2.018-8.601-5.434-8.54-8.905c0-5.613,4.764-9.821,12.145-9.821
				c3.477,0,6.521,0.854,8.354,1.77l-1.587,6.343c-1.341-0.672-3.964-1.646-6.465-1.646c-2.257,0-3.537,0.914-3.537,2.379
				s1.159,2.193,4.818,3.48c5.671,1.891,7.986,4.816,8.052,9.145c0,5.609-4.332,9.697-12.87,9.697c-3.902,0-7.38-0.916-9.638-2.137
				L412.764,137.506z"/>
			<path fill="#1F5221" d="M451.925,105.056c3.416-0.61,7.868-0.914,12.504-0.914c7.868,0,12.992,1.28,16.896,4.27
				c4.271,3.172,6.954,8.295,6.954,15.616c0,7.867-2.867,13.296-6.771,16.65c-4.331,3.598-10.979,5.307-19.029,5.307
				c-4.814,0-8.297-0.305-10.553-0.609L451.925,105.056L451.925,105.056z M461.195,138.541c0.792,0.186,2.136,0.186,3.229,0.186
				c8.479,0.061,14.029-4.574,14.029-14.396c0-8.849-5.002-13.058-13.054-13.058c-2.019,0-3.416,0.184-4.209,0.366L461.195,138.541
				L461.195,138.541z"/>
			<path fill="#1F5221" d="M501.516,133.539c0.311,3.9,4.088,5.729,8.418,5.729c3.177,0,5.732-0.426,8.233-1.275l1.22,6.277
				c-3.05,1.281-6.771,1.895-10.796,1.895c-10.126,0-15.92-5.854-15.92-15.248c0-7.563,4.759-15.921,15.066-15.921
				c9.637,0,13.296,7.503,13.296,14.886c0,1.586-0.188,2.986-0.31,3.721L501.516,133.539z M512.434,127.199
				c0-2.197-0.976-6.04-5.185-6.04c-3.964,0-5.55,3.599-5.795,6.04H512.434z"/>
			<path fill="#1F5221" d="M526.524,137.506c1.706,1.035,5.24,2.195,7.985,2.195c2.812,0,3.964-0.916,3.964-2.438
				c0-1.588-0.909-2.318-4.325-3.479c-6.227-2.018-8.604-5.434-8.539-8.905c0-5.613,4.757-9.821,12.138-9.821
				c3.477,0,6.526,0.854,8.354,1.77l-1.585,6.343c-1.341-0.672-3.964-1.646-6.465-1.646c-2.258,0-3.538,0.914-3.538,2.379
				s1.159,2.193,4.818,3.48c5.672,1.891,7.99,4.816,8.053,9.145c0,5.609-4.333,9.697-12.87,9.697c-3.898,0-7.381-0.916-9.638-2.137
				L526.524,137.506z"/>
			<path fill="#1F5221" d="M575.443,144.824c-1.647,0.793-4.764,1.404-8.295,1.404c-9.645,0-15.805-5.916-15.805-15.311
				c0-8.724,5.979-15.861,17.079-15.861c2.439,0,5.123,0.427,7.075,1.159l-1.463,6.893c-1.102-0.488-2.747-0.915-5.188-0.915
				c-4.879,0-8.052,3.478-7.984,8.356c0,5.488,3.654,8.418,8.173,8.418c2.19,0,3.899-0.365,5.306-0.979L575.443,144.824z"/>
			<path fill="#1F5221" d="M580.629,125.551c0-4.393-0.061-7.26-0.243-9.822h7.935l0.36,5.551h0.245
				c1.524-4.393,5.123-6.222,8.057-6.222c0.853,0,1.276,0.062,1.946,0.183v8.723c-0.793-0.121-1.521-0.244-2.562-0.244
				c-3.416,0-5.733,1.771-6.345,4.696c-0.122,0.607-0.188,1.281-0.188,2.074v15.063h-9.271L580.629,125.551z"/>
			<path fill="#1F5221" d="M608.199,111.827c-3.109,0-5.123-2.196-5.123-4.941c0-2.805,2.074-4.94,5.246-4.94
				s5.123,2.135,5.184,4.94c0,2.746-2.012,4.941-5.244,4.941H608.199z M603.626,145.557v-29.828h9.271v29.828H603.626z"/>
			<path fill="#1F5221" d="M620.339,125.732c0-3.903-0.124-7.196-0.245-10.001h8.053l0.432,4.146h0.122
				c2.19-3.11,5.605-4.818,9.938-4.818c6.525,0,12.382,5.673,12.382,15.189c0,10.854-6.893,15.979-13.539,15.979
				c-3.602,0-6.401-1.463-7.742-3.414h-0.122v14.82h-9.271L620.339,125.732L620.339,125.732z M629.61,132.746
				c0,0.729,0.061,1.344,0.183,1.951c0.61,2.502,2.745,4.395,5.429,4.395c4.025,0,6.404-3.355,6.404-8.418
				c0-4.758-2.135-8.358-6.282-8.358c-2.624,0-4.938,1.954-5.55,4.7c-0.122,0.486-0.184,1.098-0.184,1.645V132.746L629.61,132.746z"
				/>
			<path fill="#1F5221" d="M667.184,107.618v8.112h6.648v6.83h-6.648v10.858c0,3.6,0.915,5.246,3.659,5.246
				c1.281,0,1.896-0.063,2.745-0.246l0.063,7.018c-1.16,0.428-3.416,0.793-5.979,0.793c-2.989,0-5.49-1.037-7.015-2.564
				c-1.708-1.77-2.563-4.635-2.563-8.844v-12.261h-3.966v-6.832h3.966v-5.611L667.184,107.618z"/>
			<path fill="#1F5221" d="M692.62,146.229c-8.722,0-15.433-5.734-15.433-15.371c0-9.638,6.345-15.798,15.979-15.798
				c9.09,0,15.188,6.282,15.188,15.31c0,10.857-7.742,15.859-15.677,15.859H692.62L692.62,146.229z M692.802,139.578
				c3.661,0,5.919-3.604,5.919-8.967c0-4.395-1.71-8.909-5.919-8.909c-4.391,0-6.098,4.515-6.098,8.966
				c0,5.064,2.135,8.902,6.037,8.902h0.061V139.578L692.802,139.578z"/>
			<path fill="#1F5221" d="M714.152,125.551c0-4.393-0.063-7.26-0.243-9.822h7.929l0.366,5.551h0.244
				c1.521-4.393,5.124-6.222,8.051-6.222c0.854,0,1.282,0.062,1.952,0.183v8.723c-0.793-0.121-1.525-0.244-2.563-0.244
				c-3.414,0-5.729,1.771-6.346,4.696c-0.121,0.607-0.182,1.281-0.182,2.074v15.063h-9.271L714.152,125.551z"/>
			<path fill="#1F5221" d="M737.21,137.506c1.707,1.035,5.246,2.195,7.991,2.195c2.806,0,3.964-0.916,3.964-2.438
				c0-1.588-0.916-2.318-4.33-3.479c-6.222-2.018-8.601-5.434-8.54-8.905c0-5.613,4.758-9.821,12.139-9.821
				c3.479,0,6.526,0.854,8.355,1.77l-1.586,6.343c-1.342-0.672-3.965-1.646-6.465-1.646c-2.258,0-3.538,0.914-3.538,2.379
				s1.159,2.193,4.813,3.48c5.677,1.891,7.99,4.816,8.058,9.145c0,5.609-4.332,9.697-12.869,9.697c-3.904,0-7.381-0.916-9.639-2.137
				L737.21,137.506z"/>
		</g>
		<g>
			<g>
				<g>
					<path fill="#FFFFFF" stroke="#999999" stroke-width="0.9741" d="M54.574,67.28c-5.034,3.873-11.054,5.918-17.235,5.345
						C23.056,71.296,13.35,56.489,15.658,39.552c1.046-7.667,4.388-14.437,9.043-19.45c0,0-9.913,7.525-11.755,19.934
						C9.727,61.722,22.17,79.623,39.983,81.279c8.699,0.81,17.146-2.551,23.853-8.649L54.574,67.28z"/>
					<path fill="#FFFFFF" stroke="#999999" stroke-width="0.9741" d="M86.795,16.869C70.374,3.277,47.899,5.064,37.56,19.661
						c-5.614,7.925-6.614,18.155-3.669,27.938l8.884-6.077c-1.481-7.035-0.409-14.163,3.6-19.823
						C54.667,9.993,72.344,8.992,85.857,19.46c6.117,4.738,10.308,11.018,12.323,17.555C98.18,37.015,97.529,25.755,86.795,16.869z"
						/>
					<path fill="#FFFFFF" stroke="#999999" stroke-width="0.9741" d="M92.968,47.584c-3.68-8.006-10.9-13.671-19.636-16.402v10.675
						c5.972,2.407,10.838,6.637,13.463,12.344c5.992,13.033-1.979,28.846-17.801,35.313c-7.163,2.93-14.697,3.42-21.365,1.896
						c0,0,5.805,4.811,23.141,0.212C91.374,86.155,100.44,63.838,92.968,47.584z"/>
					
						<linearGradient id="SVGID_1_" gradientUnits="userSpaceOnUse" x1="-496.4414" y1="-947.7417" x2="-537.8337" y2="-963.9142" gradientTransform="matrix(1 0 0 -1 565.04 -915.6602)">
						<stop  offset="0" style="stop-color:#FFFFFF"/>
						<stop  offset="1" style="stop-color:#1F5221"/>
					</linearGradient>
					<path fill="url(#SVGID_1_)" stroke="#999999" stroke-width="0.9741" d="M47.295,42.315c7.558-3.09,15.539-3.484,22.47-1.639
						V30.245c-8.167-1.738-17.336-1.046-26.054,2.516c-8.428,3.445-15.048,9.025-19.31,15.543l8.24,5.285
						C36.063,48.879,41.058,44.865,47.295,42.315z"/>
					
						<linearGradient id="SVGID_2_" gradientUnits="userSpaceOnUse" x1="-499.5259" y1="-981.8511" x2="-491.6097" y2="-939.4427" gradientTransform="matrix(1 0 0 -1 565.04 -915.6602)">
						<stop  offset="0" style="stop-color:#FFFFFF"/>
						<stop  offset="1" style="stop-color:#1F5221"/>
					</linearGradient>
					<path fill="url(#SVGID_2_)" stroke="#999999" stroke-width="0.9741" d="M73.642,21.538l-8.698,4.493
						c2.37,5.321,3.35,11.651,2.438,18.329c-1.102,8.085-4.745,15.188-9.805,20.267l8.993,5.259
						c5.604-6.207,9.603-14.506,10.878-23.854C78.678,37.01,77.157,28.487,73.642,21.538z"/>
					
						<linearGradient id="SVGID_3_" gradientUnits="userSpaceOnUse" x1="-524.4946" y1="-960.8838" x2="-495.1511" y2="-996.4991" gradientTransform="matrix(1 0 0 -1 565.04 -915.6602)">
						<stop  offset="0" style="stop-color:#FFFFFF"/>
						<stop  offset="1" style="stop-color:#1F5221"/>
					</linearGradient>
					<path fill="url(#SVGID_3_)" stroke="#999999" stroke-width="0.9741" d="M55.831,61.852
						c-6.161-4.773-10.384-11.106-12.379-17.694c-3.281,1.814-6.125,4.06-8.47,6.591c2.785,7.09,7.652,13.781,14.368,18.982
						c7.198,5.576,15.339,8.521,23.115,8.951l0.459-9.78C67.132,68.295,61.16,65.979,55.831,61.852z"/>
				</g>
				<g>
					<path fill="#1F5221" d="M113.404,11.829h26.662c13.877,0,24.33,3.203,31.362,9.607c7.031,6.404,10.546,16.313,10.546,29.724
						c0,13.413-3.516,23.473-10.546,30.18c-7.032,6.704-17.485,10.059-31.362,10.059h-26.662V11.829z M130.321,77.126h9.605
						c9.7,0,16.151-2.228,19.353-6.683c1.717-2.32,3.028-5.069,3.934-8.25c0.905-3.178,1.357-6.854,1.357-11.033
						c0-4.084-0.452-7.634-1.357-10.65c-0.905-3.017-2.217-5.639-3.934-7.867c-3.341-4.456-9.792-6.683-19.353-6.683h-9.605V77.126z
						"/>
					<path fill="#1F5221" d="M221.166,92.649c-4.827,0-9.119-0.684-12.878-2.052c-3.759-1.369-6.926-3.343-9.502-5.917
						c-2.576-2.576-4.524-5.709-5.847-9.396c-1.323-3.69-1.984-7.879-1.984-12.566c0-4.734,0.673-8.969,2.02-12.705
						c1.346-3.734,3.283-6.903,5.813-9.502c2.529-2.599,5.615-4.583,9.259-5.953c3.643-1.368,7.784-2.053,12.426-2.053
						c4.5,0,8.55,0.65,12.147,1.949c3.595,1.3,6.648,3.203,9.154,5.708c2.505,2.506,4.431,5.604,5.777,9.293
						c1.345,3.688,2.019,7.926,2.019,12.705v4.037h-41.49c0.046,2.877,0.406,5.338,1.08,7.379c0.672,2.043,1.588,3.725,2.75,5.047
						c1.159,1.323,2.517,2.287,4.072,2.891s3.282,0.904,5.187,0.904c3.108,0,5.662-0.649,7.657-1.949
						c1.994-1.299,3.341-3.411,4.038-6.336h15.593c-0.557,3.018-1.625,5.674-3.202,7.972c-1.579,2.296-3.55,4.224-5.918,5.778
						c-2.366,1.556-5.082,2.739-8.144,3.549C228.127,92.245,224.787,92.649,221.166,92.649z M233,56.452
						c-0.372-4.918-1.612-8.551-3.725-10.894c-2.111-2.344-5.046-3.516-8.806-3.516c-3.435,0-6.277,1.277-8.527,3.829
						c-2.251,2.552-3.493,6.08-3.724,10.58L233,56.452L233,56.452z"/>
					<path fill="#1F5221" d="M296,92.649c-5.616,0-10.767-0.894-15.454-2.68c-4.688-1.783-8.703-4.533-12.043-8.248
						c-3.436-3.759-5.952-8.121-7.554-13.087c-1.601-4.966-2.401-10.628-2.401-16.987c0-12.714,3.317-22.763,9.954-30.142
						c3.434-3.712,7.471-6.483,12.112-8.317c4.641-1.833,9.77-2.75,15.384-2.75c4.456,0,8.54,0.534,12.253,1.602
						c3.712,1.067,7.1,2.714,10.163,4.943c3.759,2.783,6.521,5.964,8.284,9.537c1.763,3.573,2.898,7.611,3.411,12.112h-16.986
						c-0.557-4.315-2.32-7.692-5.29-10.128c-2.97-2.438-6.916-3.655-11.835-3.655c-3.017,0-5.768,0.592-8.249,1.775
						c-2.483,1.184-4.595,2.914-6.334,5.186c-1.741,2.274-3.087,5.082-4.038,8.423c-0.952,3.342-1.427,7.147-1.427,11.417
						c0,4.27,0.464,8.064,1.393,11.382c0.928,3.318,2.25,6.126,3.969,8.423c1.716,2.297,3.804,4.039,6.265,5.221
						c2.458,1.185,5.221,1.775,8.284,1.775c4.918,0,8.864-1.264,11.835-3.793c2.969-2.529,4.776-6.162,5.429-10.895h16.847
						c-0.511,4.641-1.636,8.76-3.376,12.356c-1.738,3.597-4.143,6.695-7.205,9.293c-3.063,2.507-6.521,4.339-10.373,5.499
						C305.165,92.07,300.827,92.649,296,92.649z"/>
					<path fill="#1F5221" d="M374.176,92.649c-10.813,0-19.283-2.296-25.409-6.891c-6.125-4.594-9.443-11.557-9.954-20.885h16.291
						c0.557,4.781,2.424,8.354,5.604,10.721c3.179,2.367,7.529,3.551,13.053,3.551c5.059,0,9.063-0.881,12.009-2.646
						c2.946-1.762,4.419-4.314,4.419-7.656c0-1.484-0.356-2.738-1.075-3.76c-0.724-1.02-1.813-1.914-3.272-2.68
						c-1.462-0.766-3.285-1.473-5.465-2.123c-2.182-0.65-4.758-1.346-7.726-2.089l-2.995-0.835
						c-3.761-0.975-7.333-1.961-10.722-2.959s-6.357-2.32-8.909-3.969c-2.554-1.646-4.583-3.781-6.093-6.403
						c-1.508-2.622-2.262-6.022-2.262-10.199c0-3.992,0.835-7.46,2.506-10.408c1.671-2.946,3.936-5.384,6.787-7.309
						c2.854-1.926,6.161-3.352,9.919-4.282c3.76-0.926,7.729-1.392,11.905-1.392c4.825,0,9.199,0.568,13.122,1.706
						c3.922,1.138,7.285,2.773,10.096,4.908c2.81,2.136,4.998,4.746,6.576,7.831c1.578,3.087,2.437,6.579,2.578,10.477h-16.433
						c-0.418-3.759-1.982-6.601-4.697-8.527c-2.716-1.924-6.463-2.889-11.242-2.889c-4.595,0-8.122,0.825-10.581,2.472
						c-2.461,1.647-3.691,3.91-3.691,6.788c0,1.346,0.313,2.495,0.94,3.445c0.627,0.95,1.601,1.787,2.923,2.505
						c1.323,0.721,3.017,1.381,5.083,1.984c2.064,0.603,4.536,1.252,7.414,1.949c2.877,0.649,5.674,1.3,8.389,1.948
						c2.714,0.649,5.27,1.393,7.657,2.228c2.394,0.836,4.57,1.822,6.545,2.959c1.974,1.138,3.654,2.519,5.047,4.143
						c1.394,1.625,2.48,3.55,3.271,5.777c0.787,2.228,1.184,4.851,1.184,7.866c0,3.944-0.774,7.45-2.332,10.511
						c-1.555,3.064-3.76,5.64-6.61,7.728c-2.854,2.089-6.303,3.679-10.34,4.77C383.643,92.104,379.141,92.649,374.176,92.649z"/>
					<path fill="#1F5221" d="M448.313,11.829l-23.041,79.569h-13.573l22.973-79.569H448.313z"/>
					<path fill="#1F5221" d="M540.551,91.399h-15.246V28.537l-18.934,62.862h-15.453l-19.354-62.862v62.862H456.18v-79.57h24.367
						l17.959,60.146l17.82-60.146h24.227v79.569L540.551,91.399L540.551,91.399z"/>
					<path fill="#1F5221" d="M582.736,92.649c-4.828,0-9.119-0.684-12.879-2.052c-3.761-1.369-6.931-3.343-9.507-5.917
						c-2.571-2.576-4.521-5.709-5.846-9.396c-1.32-3.69-1.979-7.879-1.979-12.566c0-4.734,0.672-8.969,2.018-12.705
						c1.346-3.734,3.283-6.903,5.813-9.502c2.529-2.599,5.614-4.583,9.26-5.953c3.645-1.368,7.783-2.053,12.428-2.053
						c4.502,0,8.549,0.65,12.146,1.949c3.596,1.3,6.647,3.203,9.151,5.708c2.508,2.506,4.433,5.604,5.779,9.293
						c1.348,3.688,2.018,7.926,2.018,12.705v4.037H569.65c0.047,2.877,0.401,5.338,1.078,7.379c0.672,2.043,1.59,3.725,2.75,5.047
						c1.157,1.323,2.518,2.287,4.069,2.891c1.556,0.604,3.281,0.904,5.188,0.904c3.106,0,5.66-0.649,7.658-1.949
						c1.991-1.299,3.342-3.411,4.034-6.336h15.597c-0.562,3.018-1.625,5.674-3.203,7.972c-1.578,2.296-3.549,4.224-5.916,5.778
						c-2.367,1.556-5.082,2.739-8.146,3.549C589.697,92.245,586.355,92.649,582.736,92.649z M594.57,56.452
						c-0.373-4.918-1.611-8.551-3.728-10.894c-2.108-2.344-5.047-3.516-8.807-3.516c-3.437,0-6.275,1.277-8.525,3.829
						c-2.252,2.552-3.494,6.08-3.725,10.58L594.57,56.452L594.57,56.452z"/>
					<path fill="#1F5221" d="M654.021,92.649c-10.816,0-19.285-2.296-25.41-6.891c-6.127-4.594-9.445-11.557-9.955-20.885h16.289
						c0.557,4.781,2.426,8.354,5.604,10.721c3.18,2.367,7.531,3.551,13.053,3.551c5.06,0,9.063-0.881,12.011-2.646
						c2.944-1.762,4.422-4.314,4.422-7.656c0-1.484-0.361-2.738-1.08-3.76c-0.719-1.02-1.812-1.914-3.271-2.68
						c-1.461-0.766-3.28-1.473-5.465-2.123c-2.182-0.65-4.758-1.346-7.727-2.089l-2.996-0.835
						c-3.758-0.975-7.332-1.961-10.724-2.959c-3.389-0.998-6.354-2.32-8.905-3.969c-2.556-1.646-4.584-3.781-6.097-6.403
						c-1.506-2.622-2.262-6.022-2.262-10.199c0-3.992,0.836-7.46,2.506-10.408c1.67-2.946,3.938-5.384,6.787-7.309
						c2.855-1.926,6.162-3.352,9.92-4.282c3.76-0.926,7.729-1.392,11.904-1.392c4.828,0,9.201,0.568,13.123,1.706
						c3.92,1.138,7.283,2.773,10.094,4.908c2.807,2.136,5,4.746,6.578,7.831c1.576,3.087,2.436,6.579,2.576,10.477h-16.433
						c-0.416-3.759-1.979-6.601-4.696-8.527c-2.715-1.924-6.463-2.889-11.242-2.889c-4.594,0-8.121,0.825-10.58,2.472
						c-2.461,1.647-3.689,3.91-3.689,6.788c0,1.346,0.313,2.495,0.938,3.445c0.627,0.95,1.602,1.787,2.926,2.505
						c1.32,0.721,3.019,1.381,5.08,1.984c2.063,0.603,4.537,1.252,7.416,1.949c2.875,0.649,5.672,1.3,8.389,1.948
						c2.716,0.649,5.267,1.393,7.654,2.228c2.392,0.836,4.572,1.822,6.545,2.959c1.976,1.138,3.654,2.519,5.047,4.143
						c1.396,1.625,2.484,3.55,3.273,5.777c0.784,2.228,1.182,4.851,1.182,7.866c0,3.944-0.772,7.45-2.332,10.511
						c-1.555,3.064-3.756,5.64-6.608,7.728c-2.854,2.089-6.304,3.679-10.34,4.77C663.488,92.104,658.984,92.649,654.021,92.649z"/>
					<path fill="#1F5221" d="M765.262,91.399h-16.848V56.731h-31.951v34.668h-16.916v-79.57h16.916v30.839h31.951V11.829h16.848
						V91.399z"/>
				</g>
			</g>
		</g>
	</g>
	<rect x="277.907" y="168.027" fill="#FFFF00" width="218.186" height="74.348"/>
	<g>
		<path d="M305.337,180.854h23.23v4.672h-17.599v14.334h16.255v4.607h-16.255v19.52h-5.632L305.337,180.854L305.337,180.854z"/>
		<path d="M340.985,184.309c0,1.92-1.344,3.455-3.584,3.455c-2.048,0-3.392-1.535-3.392-3.455s1.408-3.521,3.52-3.521
			C339.577,180.787,340.985,182.324,340.985,184.309z M334.714,223.986v-30.975h5.632v30.975H334.714z"/>
		<path d="M349.689,201.395c0-3.264-0.064-5.822-0.256-8.383h4.991l0.32,5.119h0.128c1.536-2.881,5.12-5.76,10.239-5.76
			c4.288,0,10.943,2.561,10.943,13.184v18.432h-5.632v-17.854c0-4.992-1.855-9.152-7.167-9.152c-3.648,0-6.528,2.625-7.552,5.76
			c-0.256,0.703-0.384,1.664-0.384,2.623v18.623h-5.632v-22.592H349.689z"/>
		<path d="M411.896,178.549v37.438c0,2.752,0.128,5.887,0.256,8h-4.992l-0.256-5.377h-0.191c-1.664,3.457-5.376,6.08-10.432,6.08
			c-7.487,0-13.313-6.336-13.313-15.742c-0.063-10.303,6.4-16.574,13.889-16.574c4.8,0,7.936,2.238,9.344,4.67h0.127v-18.492h5.568
			V178.549z M406.327,205.619c0-0.703-0.063-1.664-0.256-2.367c-0.832-3.52-3.903-6.465-8.127-6.465
			c-5.824,0-9.279,5.121-9.279,11.904c0,6.27,3.136,11.455,9.151,11.455c3.775,0,7.23-2.561,8.255-6.721
			c0.191-0.768,0.256-1.535,0.256-2.432V205.619z"/>
		<path d="M424.44,209.523c0.129,7.615,4.928,10.75,10.622,10.75c4.032,0,6.527-0.703,8.576-1.6l1.023,4.031
			c-1.984,0.896-5.439,1.984-10.367,1.984c-9.535,0-15.23-6.336-15.23-15.68s5.505-16.639,14.527-16.639
			c10.174,0,12.799,8.83,12.799,14.525c0,1.152-0.063,1.984-0.191,2.625H424.44V209.523z M440.952,205.49
			c0.063-3.52-1.474-9.086-7.81-9.086c-5.76,0-8.19,5.184-8.639,9.086H440.952z"/>
		<path d="M453.368,202.676c0-3.648-0.064-6.783-0.256-9.664h4.928l0.256,6.145h0.192c1.406-4.16,4.862-6.783,8.64-6.783
			c0.576,0,1.023,0.063,1.535,0.127v5.313c-0.576-0.127-1.152-0.127-1.92-0.127c-3.967,0-6.783,2.941-7.551,7.166
			c-0.13,0.77-0.192,1.729-0.192,2.625v16.51h-5.632V202.676z"/>
	</g>
</g>
</svg>
