<?xml version="1.0" encoding="utf-8"?>
<!-- Generator: Adobe Illustrator 14.0.0, SVG Export Plug-In . SVG Version: 6.00 Build 43363)  -->
<!DOCTYPE svg PUBLIC "-//W3C//DTD SVG 1.1//EN" "http://www.w3.org/Graphics/SVG/1.1/DTD/svg11.dtd">
<svg version="1.1" id="Camada_1" xmlns="http://www.w3.org/2000/svg" xmlns:xlink="http://www.w3.org/1999/xlink" x="0px" y="0px"
	 width="774px" height="250px" viewBox="0 0 774 250" enable-background="new 0 0 774 250" xml:space="preserve">
<g>
	<rect x="277.907" y="164.379" fill="#FFFF00" width="218.186" height="74.348"/>
	<g>
		<g>
			<path fill="#1F5221" d="M12.84,115.842c2.647-0.426,6.101-0.709,9.695-0.709c6.102,0,10.073,1.135,13.101,3.405
				c3.311,2.461,5.392,6.385,5.392,12.013c0,6.103-2.223,10.312-5.249,12.909c-3.358,2.791-8.514,4.116-14.756,4.116
				c-3.736,0-6.432-0.236-8.181-0.473L12.84,115.842L12.84,115.842z M20.029,141.805c0.615,0.142,1.656,0.142,2.506,0.142
				c6.573,0.049,10.877-3.546,10.877-11.161c0-6.619-3.877-10.12-10.121-10.12c-1.561,0-2.648,0.142-3.263,0.284L20.029,141.805
				L20.029,141.805z"/>
			<path fill="#1F5221" d="M51.051,137.975c0.189,2.979,3.169,4.396,6.527,4.396c2.459,0,4.445-0.331,6.384-0.993l0.946,4.871
				c-2.365,0.994-5.249,1.469-8.371,1.469c-7.85,0-12.345-4.541-12.345-11.774c0-5.865,3.643-12.344,11.682-12.344
				c7.472,0,10.311,5.814,10.311,11.539c0,1.229-0.142,2.315-0.236,2.838H51.051z M59.518,133.055c0-1.75-0.756-4.685-4.067-4.685
				c-3.027,0-4.257,2.792-4.446,4.685H59.518z"/>
			<path fill="#1F5221" d="M70.442,141c1.323,0.805,4.067,1.703,6.195,1.703c2.176,0,3.074-0.709,3.074-1.891
				c0-1.23-0.709-1.797-3.357-2.697c-4.824-1.605-6.668-4.21-6.621-6.95c0-4.353,3.689-7.614,9.411-7.614
				c2.696,0,5.062,0.662,6.48,1.371l-1.229,4.964c-1.041-0.563-3.074-1.324-5.013-1.324c-1.75,0-2.743,0.711-2.743,1.847
				s0.898,1.702,3.736,2.694c4.397,1.516,6.195,3.783,6.242,7.144c0,4.354-3.358,7.521-9.979,7.521
				c-3.027,0-5.722-0.711-7.473-1.654L70.442,141z"/>
			<path fill="#1F5221" d="M108.37,146.629c-1.277,0.616-3.689,1.09-6.432,1.09c-7.472,0-12.25-4.59-12.25-11.824
				c0-6.764,4.635-12.294,13.242-12.294c1.892,0,3.973,0.33,5.486,0.896l-1.136,5.347c-0.851-0.379-2.128-0.711-4.02-0.711
				c-3.783,0-6.243,2.694-6.195,6.479c0,4.208,2.836,6.479,6.336,6.479c1.703,0,3.028-0.283,4.115-0.759L108.37,146.629z"/>
			<path fill="#1F5221" d="M112.341,131.731c0-3.404-0.048-5.626-0.189-7.613h6.148l0.284,4.254h0.189
				c1.183-3.402,3.973-4.822,6.243-4.822c0.661,0,0.993,0.049,1.513,0.144v6.765c-0.568-0.096-1.136-0.188-1.939-0.188
				c-2.648,0-4.445,1.418-4.918,3.64c-0.095,0.475-0.142,1.042-0.142,1.607v11.729h-7.188L112.341,131.731L112.341,131.731z"/>
			<path fill="#1F5221" d="M137.737,117.686c0,1.986-1.467,3.594-3.877,3.594c-2.271,0-3.737-1.608-3.737-3.594
				c0-2.035,1.514-3.594,3.831-3.594C136.27,114.092,137.689,115.653,137.737,117.686z M130.311,147.243v-23.125h7.188v23.125
				H130.311z"/>
			<path fill="#1F5221" d="M143.269,131.873c0-3.027-0.095-5.581-0.189-7.755h6.243l0.332,3.216h0.094
				c1.702-2.412,4.351-3.734,7.709-3.734c5.059,0,9.6,4.396,9.6,11.774c0,8.417-5.343,12.392-10.499,12.392
				c-2.79,0-4.965-1.137-6.006-2.647h-0.095v11.493h-7.188L143.269,131.873L143.269,131.873z M150.457,137.311
				c0,0.566,0.048,1.041,0.143,1.515c0.473,1.938,2.128,3.406,4.209,3.406c3.121,0,4.965-2.604,4.965-6.525
				c0-3.69-1.655-6.481-4.871-6.481c-2.034,0-3.831,1.517-4.303,3.646c-0.095,0.378-0.143,0.851-0.143,1.274V137.311z"/>
			<path fill="#1F5221" d="M179.588,117.875v6.242h5.154v5.297h-5.154v8.37c0,2.79,0.708,4.068,2.838,4.068
				c0.993,0,1.466-0.049,2.127-0.189l0.047,5.438c-0.897,0.332-2.648,0.615-4.634,0.615c-2.317,0-4.256-0.805-5.439-1.983
				c-1.324-1.372-1.986-3.599-1.986-6.858v-9.458h-3.074v-5.297h3.074v-4.304L179.588,117.875z"/>
			<path fill="#1F5221" d="M194.202,137.975c0.188,2.979,3.168,4.396,6.526,4.396c2.46,0,4.446-0.331,6.385-0.993l0.945,4.871
				c-2.364,0.994-5.249,1.469-8.371,1.469c-7.85,0-12.344-4.541-12.344-11.774c0-5.865,3.642-12.344,11.682-12.344
				c7.472,0,10.31,5.814,10.31,11.539c0,1.229-0.142,2.315-0.236,2.838H194.202z M202.667,133.055c0-1.75-0.757-4.685-4.068-4.685
				c-3.027,0-4.256,2.792-4.446,4.685H202.667z"/>
			<path fill="#1F5221" d="M235.44,139.818c0,3.025,0.095,5.486,0.189,7.425h-6.243l-0.331-3.265h-0.142
				c-0.898,1.422-3.074,3.785-7.236,3.785c-4.729,0-8.135-2.934-8.135-10.073v-13.573h7.188v12.437c0,3.358,1.088,5.394,3.642,5.394
				c1.986,0,3.169-1.371,3.595-2.507c0.189-0.426,0.284-0.944,0.284-1.561v-13.763h7.189V139.818L235.44,139.818z"/>
			<path fill="#1F5221" d="M241.209,131.731c0-3.404-0.048-5.626-0.189-7.613h6.148l0.283,4.254h0.189
				c1.183-3.402,3.973-4.822,6.243-4.822c0.662,0,0.993,0.049,1.513,0.144v6.765c-0.567-0.096-1.135-0.188-1.938-0.188
				c-2.648,0-4.447,1.418-4.919,3.64c-0.095,0.475-0.142,1.042-0.142,1.607v11.729h-7.188V131.731L241.209,131.731z"/>
			<path fill="#1F5221" d="M259.132,141c1.324,0.805,4.067,1.703,6.195,1.703c2.177,0,3.074-0.709,3.074-1.891
				c0-1.23-0.71-1.797-3.357-2.697c-4.824-1.605-6.668-4.21-6.621-6.95c0-4.353,3.688-7.614,9.412-7.614
				c2.696,0,5.061,0.662,6.479,1.371l-1.229,4.964c-1.04-0.563-3.073-1.324-5.013-1.324c-1.75,0-2.743,0.711-2.743,1.847
				s0.898,1.702,3.736,2.694c4.398,1.516,6.195,3.783,6.243,7.144c0,4.354-3.357,7.521-9.979,7.521
				c-3.027,0-5.722-0.711-7.472-1.654L259.132,141z"/>
			<path fill="#1F5221" d="M294.789,137.975c0.19,2.979,3.169,4.396,6.528,4.396c2.458,0,4.446-0.331,6.384-0.993l0.946,4.871
				c-2.364,0.994-5.25,1.469-8.374,1.469c-7.85,0-12.344-4.541-12.344-11.774c0-5.865,3.642-12.344,11.682-12.344
				c7.472,0,10.31,5.814,10.31,11.539c0,1.229-0.142,2.315-0.236,2.838H294.789z M303.255,133.055c0-1.75-0.756-4.685-4.068-4.685
				c-3.026,0-4.256,2.792-4.445,4.685H303.255z"/>
			<path fill="#1F5221" d="M314.227,131.495c0-2.885-0.095-5.299-0.188-7.377h6.243l0.331,3.216h0.142
				c0.947-1.514,3.264-3.734,7.144-3.734c4.729,0,8.275,3.167,8.275,9.979v13.668h-7.188V134.43c0-2.979-1.041-5.013-3.643-5.013
				c-1.984,0-3.169,1.37-3.688,2.694c-0.188,0.473-0.236,1.136-0.236,1.797v13.339h-7.188v-15.751L314.227,131.495L314.227,131.495z
				"/>
			<path fill="#1F5221" d="M351.965,139.818c1.893,0.994,4.918,1.986,7.992,1.986c3.311,0,5.062-1.373,5.062-3.453
				c0-1.983-1.513-3.12-5.344-4.445c-5.297-1.891-8.797-4.821-8.797-9.458c0-5.439,4.587-9.553,12.062-9.553
				c3.641,0,6.241,0.708,8.134,1.607l-1.608,5.771c-1.229-0.615-3.547-1.513-6.621-1.513c-3.122,0-4.635,1.466-4.635,3.075
				c0,2.033,1.749,2.932,5.911,4.493c5.628,2.081,8.229,5.014,8.229,9.505c0,5.345-4.065,9.886-12.814,9.886
				c-3.644,0-7.235-0.992-9.033-1.983L351.965,139.818z"/>
			<path fill="#1F5221" d="M394.717,146.629c-1.273,0.616-3.688,1.09-6.433,1.09c-7.472,0-12.249-4.59-12.249-11.824
				c0-6.764,4.634-12.294,13.242-12.294c1.892,0,3.973,0.33,5.483,0.896l-1.135,5.347c-0.853-0.379-2.129-0.711-4.021-0.711
				c-3.784,0-6.244,2.694-6.196,6.479c0,4.208,2.838,6.479,6.337,6.479c1.703,0,3.027-0.283,4.115-0.759L394.717,146.629z"/>
			<path fill="#1F5221" d="M406.114,117.686c0,1.986-1.468,3.594-3.879,3.594c-2.271,0-3.736-1.608-3.736-3.594
				c0-2.035,1.513-3.594,3.831-3.594C404.646,114.092,406.066,115.653,406.114,117.686z M398.688,147.243v-23.125h7.189v23.125
				H398.688z"/>
			<path fill="#1F5221" d="M417.179,137.975c0.188,2.979,3.169,4.396,6.526,4.396c2.459,0,4.446-0.331,6.385-0.993l0.945,4.871
				c-2.364,0.994-5.25,1.469-8.371,1.469c-7.852,0-12.345-4.541-12.345-11.774c0-5.865,3.643-12.344,11.683-12.344
				c7.472,0,10.311,5.814,10.311,11.539c0,1.229-0.145,2.315-0.235,2.838H417.179z M425.645,133.055c0-1.75-0.756-4.685-4.065-4.685
				c-3.026,0-4.255,2.792-4.444,4.685H425.645z"/>
			<path fill="#1F5221" d="M436.616,131.495c0-2.885-0.097-5.299-0.189-7.377h6.242l0.332,3.216h0.142
				c0.946-1.514,3.266-3.734,7.145-3.734c4.729,0,8.273,3.167,8.273,9.979v13.668h-7.188V134.43c0-2.979-1.042-5.013-3.643-5.013
				c-1.987,0-3.173,1.37-3.689,2.694c-0.188,0.473-0.236,1.136-0.236,1.797v13.339h-7.188L436.616,131.495L436.616,131.495z"/>
			<path fill="#1F5221" d="M481.685,146.629c-1.272,0.616-3.688,1.09-6.432,1.09c-7.473,0-12.25-4.59-12.25-11.824
				c0-6.764,4.636-12.294,13.243-12.294c1.891,0,3.974,0.33,5.486,0.896l-1.138,5.347c-0.852-0.379-2.13-0.711-4.021-0.711
				c-3.783,0-6.242,2.694-6.196,6.479c0,4.208,2.838,6.479,6.34,6.479c1.7,0,3.025-0.283,4.114-0.759L481.685,146.629z"/>
			<path fill="#1F5221" d="M490.669,137.975c0.189,2.979,3.17,4.396,6.527,4.396c2.46,0,4.442-0.331,6.384-0.993l0.947,4.871
				c-2.365,0.994-5.25,1.469-8.373,1.469c-7.853,0-12.344-4.541-12.344-11.774c0-5.865,3.644-12.344,11.683-12.344
				c7.473,0,10.31,5.814,10.31,11.539c0,1.229-0.143,2.315-0.233,2.838H490.669z M499.135,133.055c0-1.75-0.756-4.685-4.063-4.685
				c-3.027,0-4.259,2.792-4.445,4.685H499.135z"/>
			<path fill="#1F5221" d="M510.06,141c1.326,0.805,4.068,1.703,6.197,1.703c2.175,0,3.073-0.709,3.073-1.891
				c0-1.23-0.71-1.797-3.357-2.697c-4.821-1.605-6.669-4.21-6.622-6.95c0-4.353,3.688-7.614,9.412-7.614
				c2.695,0,5.063,0.662,6.479,1.371l-1.229,4.964c-1.041-0.563-3.07-1.324-5.013-1.324c-1.75,0-2.742,0.711-2.742,1.847
				s0.897,1.702,3.734,2.694c4.396,1.516,6.197,3.783,6.242,7.144c0,4.354-3.356,7.521-9.979,7.521
				c-3.026,0-5.723-0.711-7.474-1.654L510.06,141z"/>
			<path fill="#1F5221" d="M562.602,113.666v26.672c0,2.604,0.097,5.346,0.189,6.904h-6.385l-0.285-3.357h-0.143
				c-1.422,2.558-4.259,3.879-7.236,3.879c-5.486,0-9.884-4.683-9.884-11.869c-0.048-7.805,4.821-12.345,10.355-12.345
				c2.885,0,5.063,1.041,6.104,2.604h0.094v-12.486L562.602,113.666L562.602,113.666z M555.412,133.906c0-0.376,0-0.896-0.095-1.324
				c-0.429-1.891-1.985-3.499-4.209-3.499c-3.313,0-4.969,2.933-4.969,6.574c0,3.925,1.938,6.385,4.917,6.385
				c2.082,0,3.784-1.42,4.212-3.452c0.095-0.521,0.144-1.089,0.144-1.656V133.906L555.412,133.906z"/>
			<path fill="#1F5221" d="M573.902,137.975c0.188,2.979,3.168,4.396,6.522,4.396c2.461,0,4.447-0.331,6.386-0.993l0.947,4.871
				c-2.365,0.994-5.251,1.469-8.373,1.469c-7.852,0-12.344-4.541-12.344-11.774c0-5.865,3.643-12.344,11.683-12.344
				c7.475,0,10.312,5.814,10.312,11.539c0,1.229-0.146,2.315-0.236,2.838H573.902z M582.368,133.055c0-1.75-0.755-4.685-4.066-4.685
				c-3.025,0-4.258,2.792-4.442,4.685H582.368z"/>
			<path fill="#1F5221" d="M602.893,113.666h7.188v33.58h-7.188V113.666z"/>
			<path fill="#1F5221" d="M635.146,141.664c0,2.176,0.095,4.305,0.377,5.581h-6.479l-0.426-2.317h-0.145
				c-1.515,1.847-3.879,2.838-6.619,2.838c-4.685,0-7.474-3.404-7.474-7.097c0-6.006,5.394-8.843,13.57-8.843v-0.284
				c0-1.276-0.66-3.026-4.209-3.026c-2.364,0-4.871,0.808-6.384,1.748l-1.325-4.633c1.605-0.896,4.774-2.08,8.985-2.08
				c7.709,0,10.119,4.537,10.119,10.024v8.089H635.146z M628.193,136.319c-3.784,0-6.719,0.897-6.719,3.64
				c0,1.846,1.229,2.744,2.84,2.744c1.748,0,3.263-1.182,3.733-2.648c0.095-0.377,0.146-0.804,0.146-1.229V136.319z"/>
			<path fill="#1F5221" d="M650.893,139.818c1.896,0.994,4.918,1.986,7.993,1.986c3.313,0,5.063-1.373,5.063-3.453
				c0-1.983-1.518-3.12-5.346-4.445c-5.3-1.891-8.798-4.821-8.798-9.458c0-5.439,4.587-9.553,12.063-9.553
				c3.641,0,6.243,0.708,8.136,1.607l-1.609,5.771c-1.229-0.615-3.547-1.513-6.618-1.513c-3.122,0-4.637,1.466-4.637,3.075
				c0,2.033,1.75,2.932,5.912,4.493c5.626,2.081,8.229,5.014,8.229,9.505c0,5.345-4.068,9.886-12.818,9.886
				c-3.641,0-7.232-0.992-9.032-1.983L650.893,139.818z"/>
			<path fill="#1F5221" d="M695.584,141.664c0,2.176,0.095,4.305,0.378,5.581h-6.479l-0.427-2.317h-0.143
				c-1.517,1.847-3.878,2.838-6.622,2.838c-4.684,0-7.471-3.404-7.471-7.097c0-6.006,5.39-8.843,13.569-8.843v-0.284
				c0-1.276-0.661-3.026-4.211-3.026c-2.362,0-4.87,0.808-6.384,1.748l-1.325-4.633c1.609-0.896,4.776-2.08,8.986-2.08
				c7.709,0,10.121,4.537,10.121,10.024v8.089H695.584z M688.631,136.319c-3.783,0-6.715,0.897-6.715,3.64
				c0,1.846,1.229,2.744,2.837,2.744c1.75,0,3.265-1.182,3.736-2.648c0.096-0.377,0.142-0.804,0.142-1.229V136.319z"/>
			<path fill="#1F5221" d="M701.306,131.495c0-2.885-0.095-5.299-0.188-7.377h6.242l0.332,3.216h0.143
				c0.945-1.514,3.263-3.734,7.142-3.734c4.729,0,8.276,3.167,8.276,9.979v13.668h-7.188V134.43c0-2.979-1.041-5.013-3.643-5.013
				c-1.987,0-3.17,1.37-3.688,2.694c-0.189,0.473-0.238,1.136-0.238,1.797v13.339h-7.188v-15.751L701.306,131.495L701.306,131.495z"
				/>
			<path fill="#1F5221" d="M736.773,117.875v6.242h5.153v5.297h-5.153v8.37c0,2.79,0.71,4.068,2.838,4.068
				c0.994,0,1.467-0.049,2.13-0.189l0.046,5.438c-0.898,0.332-2.646,0.615-4.635,0.615c-2.317,0-4.256-0.805-5.438-1.983
				c-1.326-1.372-1.987-3.599-1.987-6.858v-9.458h-3.07v-5.297h3.07v-4.304L736.773,117.875z"/>
			<path fill="#1F5221" d="M751.388,137.975c0.188,2.979,3.169,4.396,6.527,4.396c2.458,0,4.445-0.331,6.384-0.993l0.946,4.871
				c-2.365,0.994-5.25,1.469-8.372,1.469c-7.854,0-12.345-4.541-12.345-11.774c0-5.865,3.642-12.344,11.683-12.344
				c7.472,0,10.311,5.814,10.311,11.539c0,1.229-0.143,2.315-0.235,2.838H751.388z M759.854,133.055c0-1.75-0.756-4.685-4.064-4.685
				c-3.026,0-4.258,2.792-4.446,4.685H759.854z M763.778,114.044l-5.771,7.189h-4.918l4.067-7.189H763.778z"/>
		</g>
		<g>
			<g>
				<g>
					<path fill="#FFFFFF" stroke="#999999" stroke-width="0.9741" d="M54.574,70.929c-5.034,3.873-11.054,5.918-17.235,5.345
						C23.056,74.945,13.35,60.138,15.658,43.201c1.046-7.667,4.388-14.437,9.043-19.45c0,0-9.913,7.525-11.755,19.934
						C9.727,65.371,22.17,83.271,39.983,84.928c8.699,0.81,17.146-2.551,23.853-8.649L54.574,70.929z"/>
					<path fill="#FFFFFF" stroke="#999999" stroke-width="0.9741" d="M86.795,20.518C70.374,6.926,47.899,8.713,37.56,23.31
						c-5.614,7.925-6.614,18.155-3.669,27.938l8.884-6.077c-1.481-7.035-0.409-14.163,3.6-19.823
						c8.292-11.706,25.969-12.707,39.482-2.239c6.117,4.738,10.308,11.018,12.323,17.555C98.18,40.664,97.529,29.404,86.795,20.518z
						"/>
					<path fill="#FFFFFF" stroke="#999999" stroke-width="0.9741" d="M92.968,51.233c-3.68-8.006-10.9-13.671-19.636-16.402v10.675
						c5.972,2.407,10.838,6.637,13.463,12.344c5.992,13.033-1.979,28.846-17.801,35.313c-7.163,2.93-14.697,3.42-21.365,1.896
						c0,0,5.805,4.811,23.141,0.212C91.374,89.804,100.44,67.487,92.968,51.233z"/>
					
						<linearGradient id="SVGID_1_" gradientUnits="userSpaceOnUse" x1="-496.4419" y1="-951.3901" x2="-537.8329" y2="-967.5621" gradientTransform="matrix(1 0 0 -1 565.04 -915.6602)">
						<stop  offset="0" style="stop-color:#FFFFFF"/>
						<stop  offset="1" style="stop-color:#1F5221"/>
					</linearGradient>
					<path fill="url(#SVGID_1_)" stroke="#999999" stroke-width="0.9741" d="M47.295,45.964c7.558-3.09,15.539-3.484,22.47-1.639
						V33.894c-8.167-1.738-17.336-1.046-26.054,2.516c-8.428,3.445-15.048,9.025-19.31,15.543l8.24,5.285
						C36.063,52.528,41.058,48.513,47.295,45.964z"/>
					
						<linearGradient id="SVGID_2_" gradientUnits="userSpaceOnUse" x1="-499.5259" y1="-985.499" x2="-491.6099" y2="-943.0916" gradientTransform="matrix(1 0 0 -1 565.04 -915.6602)">
						<stop  offset="0" style="stop-color:#FFFFFF"/>
						<stop  offset="1" style="stop-color:#1F5221"/>
					</linearGradient>
					<path fill="url(#SVGID_2_)" stroke="#999999" stroke-width="0.9741" d="M73.642,25.187l-8.698,4.493
						c2.37,5.321,3.35,11.651,2.438,18.329c-1.102,8.085-4.745,15.188-9.805,20.267l8.993,5.259
						c5.604-6.207,9.603-14.506,10.878-23.854C78.678,40.659,77.157,32.136,73.642,25.187z"/>
					
						<linearGradient id="SVGID_3_" gradientUnits="userSpaceOnUse" x1="-524.4946" y1="-964.5317" x2="-495.1506" y2="-1000.1478" gradientTransform="matrix(1 0 0 -1 565.04 -915.6602)">
						<stop  offset="0" style="stop-color:#FFFFFF"/>
						<stop  offset="1" style="stop-color:#1F5221"/>
					</linearGradient>
					<path fill="url(#SVGID_3_)" stroke="#999999" stroke-width="0.9741" d="M55.831,65.5c-6.161-4.774-10.384-11.107-12.379-17.695
						c-3.281,1.814-6.125,4.06-8.47,6.591c2.785,7.09,7.652,13.781,14.368,18.982c7.198,5.576,15.339,8.521,23.115,8.951l0.459-9.78
						C67.132,71.944,61.16,69.627,55.831,65.5z"/>
				</g>
				<g>
					<path fill="#1F5221" d="M113.404,15.478h26.662c13.877,0,24.33,3.203,31.362,9.607c7.031,6.404,10.546,16.313,10.546,29.724
						c0,13.413-3.516,23.473-10.546,30.18c-7.032,6.704-17.485,10.059-31.362,10.059h-26.662V15.478z M130.321,80.775h9.605
						c9.7,0,16.151-2.228,19.353-6.683c1.717-2.32,3.028-5.069,3.934-8.25c0.905-3.178,1.357-6.856,1.357-11.033
						c0-4.084-0.452-7.634-1.357-10.65c-0.905-3.017-2.217-5.639-3.934-7.867c-3.341-4.456-9.792-6.683-19.353-6.683h-9.605V80.775z
						"/>
					<path fill="#1F5221" d="M221.166,96.298c-4.827,0-9.119-0.684-12.878-2.052c-3.759-1.369-6.926-3.343-9.502-5.917
						c-2.576-2.576-4.524-5.709-5.847-9.396c-1.323-3.69-1.984-7.879-1.984-12.566c0-4.734,0.673-8.969,2.02-12.705
						c1.346-3.734,3.283-6.903,5.813-9.502c2.529-2.599,5.615-4.583,9.259-5.953c3.643-1.368,7.784-2.053,12.426-2.053
						c4.5,0,8.55,0.65,12.147,1.949c3.595,1.3,6.648,3.203,9.154,5.708c2.505,2.506,4.431,5.604,5.777,9.293
						c1.345,3.688,2.019,7.926,2.019,12.705v4.037h-41.49c0.046,2.877,0.406,5.338,1.08,7.379c0.672,2.043,1.588,3.725,2.75,5.047
						c1.159,1.323,2.517,2.287,4.072,2.891s3.282,0.904,5.187,0.904c3.108,0,5.662-0.649,7.657-1.949
						c1.994-1.299,3.341-3.411,4.038-6.336h15.593c-0.557,3.018-1.625,5.674-3.202,7.972c-1.579,2.296-3.55,4.224-5.918,5.778
						c-2.366,1.556-5.082,2.739-8.144,3.549C228.127,95.893,224.787,96.298,221.166,96.298z M233,60.1
						c-0.372-4.918-1.612-8.551-3.725-10.894c-2.111-2.344-5.046-3.516-8.806-3.516c-3.435,0-6.277,1.277-8.527,3.829
						c-2.251,2.552-3.493,6.08-3.724,10.58L233,60.1L233,60.1z"/>
					<path fill="#1F5221" d="M296,96.298c-5.616,0-10.767-0.894-15.454-2.68c-4.688-1.783-8.703-4.533-12.043-8.248
						c-3.436-3.759-5.952-8.121-7.554-13.087c-1.601-4.966-2.401-10.628-2.401-16.987c0-12.714,3.317-22.763,9.954-30.142
						c3.434-3.712,7.471-6.483,12.112-8.317c4.641-1.833,9.77-2.75,15.384-2.75c4.456,0,8.54,0.534,12.253,1.604
						c3.712,1.067,7.1,2.714,10.163,4.943c3.759,2.783,6.521,5.964,8.284,9.537c1.763,3.573,2.898,7.611,3.411,12.112h-16.986
						c-0.557-4.315-2.32-7.692-5.29-10.128c-2.97-2.437-6.916-3.655-11.835-3.655c-3.017,0-5.768,0.592-8.249,1.775
						c-2.483,1.184-4.595,2.914-6.334,5.186c-1.741,2.274-3.087,5.082-4.038,8.423c-0.952,3.342-1.427,7.147-1.427,11.417
						s0.464,8.064,1.393,11.382c0.928,3.318,2.25,6.126,3.969,8.423c1.716,2.297,3.804,4.039,6.265,5.221
						c2.458,1.185,5.221,1.775,8.284,1.775c4.918,0,8.864-1.264,11.835-3.793c2.969-2.529,4.776-6.162,5.429-10.895h16.847
						c-0.511,4.641-1.636,8.76-3.376,12.356c-1.738,3.597-4.143,6.695-7.205,9.293c-3.063,2.507-6.521,4.339-10.373,5.499
						C305.165,95.719,300.827,96.298,296,96.298z"/>
					<path fill="#1F5221" d="M374.176,96.298c-10.813,0-19.283-2.296-25.409-6.891c-6.125-4.594-9.443-11.557-9.954-20.885h16.291
						c0.557,4.781,2.424,8.354,5.604,10.721c3.179,2.367,7.529,3.551,13.053,3.551c5.059,0,9.063-0.881,12.009-2.646
						c2.946-1.762,4.419-4.314,4.419-7.656c0-1.484-0.356-2.738-1.075-3.76c-0.724-1.021-1.813-1.914-3.272-2.68
						s-3.285-1.473-5.465-2.123c-2.182-0.65-4.758-1.346-7.726-2.089l-2.995-0.835c-3.761-0.975-7.333-1.961-10.722-2.959
						c-3.389-0.998-6.357-2.32-8.909-3.969c-2.554-1.646-4.583-3.781-6.093-6.403c-1.508-2.622-2.262-6.022-2.262-10.199
						c0-3.992,0.835-7.46,2.506-10.408c1.671-2.946,3.936-5.384,6.787-7.309c2.854-1.926,6.161-3.352,9.919-4.282
						c3.76-0.926,7.729-1.392,11.905-1.392c4.825,0,9.199,0.568,13.122,1.706c3.922,1.138,7.285,2.773,10.096,4.908
						c2.81,2.136,4.998,4.746,6.576,7.831c1.578,3.087,2.437,6.579,2.578,10.477h-16.433c-0.418-3.759-1.982-6.601-4.697-8.527
						c-2.716-1.924-6.463-2.889-11.242-2.889c-4.595,0-8.122,0.825-10.581,2.472c-2.461,1.647-3.691,3.91-3.691,6.788
						c0,1.346,0.313,2.495,0.94,3.445c0.627,0.95,1.601,1.787,2.923,2.505c1.323,0.721,3.017,1.381,5.083,1.984
						c2.064,0.603,4.536,1.252,7.414,1.949c2.877,0.649,5.674,1.3,8.389,1.948c2.714,0.649,5.27,1.393,7.657,2.228
						c2.394,0.836,4.57,1.822,6.545,2.959c1.974,1.138,3.654,2.519,5.047,4.143c1.394,1.625,2.48,3.55,3.271,5.777
						c0.787,2.228,1.184,4.851,1.184,7.866c0,3.944-0.774,7.45-2.332,10.511c-1.555,3.064-3.76,5.64-6.61,7.728
						c-2.854,2.089-6.303,3.679-10.34,4.77C383.643,95.752,379.141,96.298,374.176,96.298z"/>
					<path fill="#1F5221" d="M448.313,15.478l-23.041,79.569h-13.573l22.973-79.569H448.313z"/>
					<path fill="#1F5221" d="M540.551,95.048h-15.246V32.186l-18.934,62.862h-15.453l-19.354-62.862v62.862H456.18v-79.57h24.367
						l17.959,60.146l17.82-60.146h24.227v79.569L540.551,95.048L540.551,95.048z"/>
					<path fill="#1F5221" d="M582.736,96.298c-4.828,0-9.119-0.684-12.879-2.052c-3.761-1.369-6.931-3.343-9.507-5.917
						c-2.571-2.576-4.521-5.709-5.846-9.396c-1.32-3.69-1.979-7.879-1.979-12.566c0-4.734,0.672-8.969,2.018-12.705
						c1.346-3.734,3.283-6.903,5.813-9.502c2.529-2.599,5.614-4.583,9.26-5.953c3.645-1.368,7.783-2.053,12.428-2.053
						c4.502,0,8.549,0.65,12.146,1.949c3.596,1.3,6.647,3.203,9.151,5.708c2.508,2.506,4.433,5.604,5.779,9.293
						c1.348,3.688,2.018,7.926,2.018,12.705v4.037H569.65c0.047,2.877,0.401,5.338,1.078,7.379c0.672,2.043,1.59,3.725,2.75,5.047
						c1.157,1.323,2.518,2.287,4.069,2.891c1.556,0.604,3.281,0.904,5.188,0.904c3.106,0,5.66-0.649,7.658-1.949
						c1.991-1.299,3.342-3.411,4.034-6.336h15.597c-0.562,3.018-1.625,5.674-3.203,7.972c-1.578,2.296-3.549,4.224-5.916,5.778
						c-2.367,1.556-5.082,2.739-8.146,3.549C589.697,95.893,586.355,96.298,582.736,96.298z M594.57,60.1
						c-0.373-4.918-1.611-8.551-3.728-10.894c-2.108-2.344-5.047-3.516-8.807-3.516c-3.437,0-6.275,1.277-8.525,3.829
						c-2.252,2.552-3.494,6.08-3.725,10.58L594.57,60.1L594.57,60.1z"/>
					<path fill="#1F5221" d="M654.021,96.298c-10.816,0-19.285-2.296-25.41-6.891c-6.127-4.594-9.445-11.557-9.955-20.885h16.289
						c0.557,4.781,2.426,8.354,5.604,10.721c3.18,2.367,7.531,3.551,13.053,3.551c5.06,0,9.063-0.881,12.011-2.646
						c2.944-1.762,4.422-4.314,4.422-7.656c0-1.484-0.361-2.738-1.08-3.76c-0.719-1.022-1.812-1.914-3.271-2.68
						s-3.28-1.473-5.465-2.123c-2.182-0.65-4.758-1.346-7.727-2.089l-2.996-0.835c-3.758-0.975-7.332-1.961-10.724-2.959
						c-3.389-0.998-6.354-2.32-8.905-3.969c-2.556-1.646-4.584-3.781-6.097-6.403c-1.506-2.622-2.262-6.022-2.262-10.199
						c0-3.992,0.836-7.46,2.506-10.408c1.67-2.946,3.938-5.384,6.787-7.309c2.855-1.926,6.162-3.352,9.92-4.282
						c3.76-0.926,7.729-1.392,11.904-1.392c4.828,0,9.201,0.568,13.123,1.706c3.92,1.138,7.283,2.773,10.094,4.908
						c2.807,2.136,5,4.746,6.578,7.831c1.576,3.087,2.436,6.579,2.576,10.477h-16.433c-0.416-3.759-1.979-6.601-4.696-8.527
						c-2.715-1.924-6.463-2.889-11.242-2.889c-4.594,0-8.121,0.825-10.58,2.472c-2.461,1.647-3.689,3.91-3.689,6.788
						c0,1.346,0.313,2.495,0.938,3.445c0.627,0.95,1.602,1.787,2.926,2.505c1.32,0.721,3.019,1.381,5.08,1.984
						c2.063,0.603,4.537,1.252,7.416,1.949c2.875,0.649,5.672,1.3,8.389,1.948c2.716,0.649,5.267,1.393,7.654,2.228
						c2.392,0.836,4.572,1.822,6.545,2.959c1.976,1.138,3.654,2.519,5.047,4.143c1.396,1.625,2.484,3.55,3.273,5.777
						c0.784,2.228,1.182,4.851,1.182,7.866c0,3.944-0.772,7.45-2.332,10.511c-1.555,3.064-3.756,5.64-6.608,7.728
						c-2.854,2.089-6.304,3.679-10.34,4.77C663.488,95.752,658.984,96.298,654.021,96.298z"/>
					<path fill="#1F5221" d="M765.262,95.048h-16.848V60.38h-31.951v34.668h-16.916v-79.57h16.916v30.839h31.951V15.478h16.848
						V95.048z"/>
				</g>
			</g>
		</g>
	</g>
	<g>
		<path d="M307.256,177.204h23.23v4.672h-17.599v14.335h16.255v4.607h-16.255v19.52h-5.631V177.204z"/>
		<path d="M342.905,180.66c0,1.92-1.344,3.455-3.584,3.455c-2.048,0-3.392-1.535-3.392-3.455s1.408-3.521,3.521-3.521
			C341.497,177.139,342.905,178.676,342.905,180.66z M336.633,220.338v-30.975h5.631v30.975H336.633z"/>
		<path d="M351.609,197.746c0-3.264-0.064-5.822-0.256-8.383h4.992l0.32,5.119h0.128c1.536-2.881,5.12-5.76,10.239-5.76
			c4.288,0,10.943,2.561,10.943,13.184v18.432h-5.631v-17.854c0-4.992-1.855-9.151-7.167-9.151c-3.648,0-6.528,2.624-7.552,5.76
			c-0.256,0.703-0.384,1.664-0.384,2.623v18.623h-5.631L351.609,197.746L351.609,197.746z"/>
		<path d="M413.814,174.9v37.438c0,2.752,0.128,5.887,0.256,8h-4.992l-0.256-5.377h-0.191c-1.664,3.456-5.376,6.08-10.432,6.08
			c-7.487,0-13.312-6.336-13.312-15.742c-0.063-10.304,6.4-16.574,13.888-16.574c4.8,0,7.936,2.238,9.344,4.67h0.127v-18.493
			L413.814,174.9L413.814,174.9z M408.246,201.971c0-0.703-0.063-1.664-0.256-2.367c-0.832-3.521-3.903-6.465-8.127-6.465
			c-5.824,0-9.279,5.121-9.279,11.903c0,6.271,3.136,11.455,9.151,11.455c3.775,0,7.23-2.56,8.255-6.72
			c0.191-0.768,0.256-1.535,0.256-2.432V201.971z"/>
		<path d="M426.359,205.874c0.129,7.615,4.928,10.751,10.623,10.751c4.031,0,6.526-0.703,8.575-1.6l1.023,4.031
			c-1.984,0.896-5.439,1.983-10.367,1.983c-9.535,0-15.229-6.336-15.229-15.679c0-9.344,5.504-16.639,14.526-16.639
			c10.174,0,12.799,8.83,12.799,14.525c0,1.152-0.063,1.984-0.191,2.624h-21.759V205.874z M442.871,201.842
			c0.063-3.52-1.473-9.086-7.809-9.086c-5.761,0-8.191,5.184-8.64,9.086H442.871z"/>
		<path d="M455.287,199.026c0-3.647-0.064-6.783-0.256-9.663h4.928l0.256,6.145h0.192c1.407-4.16,4.862-6.783,8.64-6.783
			c0.576,0,1.023,0.063,1.535,0.127v5.313c-0.576-0.128-1.152-0.128-1.92-0.128c-3.967,0-6.783,2.942-7.551,7.167
			c-0.129,0.77-0.192,1.729-0.192,2.624v16.511h-5.632V199.026z"/>
	</g>
</g>
</svg>
