<?xml version="1.0" encoding="utf-8"?>
<!-- Generator: Adobe Illustrator 14.0.0, SVG Export Plug-In . SVG Version: 6.00 Build 43363)  -->
<!DOCTYPE svg PUBLIC "-//W3C//DTD SVG 1.1//EN" "http://www.w3.org/Graphics/SVG/1.1/DTD/svg11.dtd">
<svg version="1.1" id="Camada_1" xmlns="http://www.w3.org/2000/svg" xmlns:xlink="http://www.w3.org/1999/xlink" x="0px" y="0px"
	 width="774px" height="250px" viewBox="0 0 774 250" enable-background="new 0 0 774 250" xml:space="preserve">
<g>
	<g>
		<g>
			<path fill="#FFFFFF" d="M22.724,104.446v15.859h15.31v-15.859h9.271v41.11h-9.271v-17.141h-15.31v17.141h-9.271v-41.11H22.724
				L22.724,104.446z"/>
			<path fill="#FFFFFF" d="M62.374,133.539c0.305,3.9,4.086,5.73,8.418,5.73c3.172,0,5.732-0.428,8.233-1.277l1.22,6.277
				c-3.05,1.281-6.771,1.895-10.796,1.895c-10.125,0-15.92-5.854-15.92-15.248c0-7.563,4.757-15.921,15.065-15.921
				c9.638,0,13.297,7.503,13.297,14.886c0,1.586-0.183,2.986-0.304,3.721L62.374,133.539z M73.292,127.199
				c0-2.197-0.977-6.04-5.185-6.04c-3.965,0-5.551,3.599-5.795,6.04H73.292z"/>
			<path fill="#FFFFFF" d="M112.269,138.359c0,2.807,0.123,5.551,0.488,7.197H104.4l-0.549-2.988h-0.183
				c-1.952,2.379-5.001,3.66-8.54,3.66c-6.038,0-9.638-4.393-9.638-9.148c0-7.748,6.953-11.402,17.507-11.402v-0.366
				c0-1.587-0.854-3.843-5.43-3.843c-3.05,0-6.282,1.036-8.233,2.193l-1.708-5.917c2.072-1.159,6.16-2.685,11.589-2.685
				c9.941,0,13.053,5.855,13.053,12.873V138.359L112.269,138.359z M103.302,131.467c-4.88,0-8.661,1.158-8.661,4.695
				c0,2.379,1.585,3.537,3.659,3.537c2.257,0,4.209-1.523,4.818-3.414c0.123-0.486,0.184-1.037,0.184-1.586V131.467L103.302,131.467
				z"/>
			<path fill="#FFFFFF" d="M119.65,102.248h9.271v43.309h-9.271V102.248z"/>
			<path fill="#FFFFFF" d="M146.732,107.618v8.112h6.649v6.83h-6.649v10.858c0,3.6,0.915,5.246,3.66,5.246
				c1.282,0,1.891-0.063,2.745-0.246l0.062,7.018c-1.159,0.428-3.416,0.793-5.978,0.793c-2.988,0-5.49-1.037-7.015-2.564
				c-1.708-1.77-2.562-4.635-2.562-8.844v-12.261h-3.964v-6.832h3.964v-5.611L146.732,107.618z"/>
			<path fill="#FFFFFF" d="M158.75,102.248h9.271v17.079h0.122c0.976-1.341,2.196-2.378,3.66-3.11
				c1.401-0.732,3.109-1.159,4.816-1.159c5.917,0,10.433,4.087,10.433,13.116v17.383h-9.271V129.15c0-3.904-1.342-6.588-4.816-6.588
				c-2.44,0-3.967,1.586-4.638,3.295c-0.244,0.549-0.305,1.34-0.305,2.012v17.689h-9.271L158.75,102.248L158.75,102.248z"/>
			<path fill="#FFFFFF" d="M207.425,136.041c2.438,1.281,6.343,2.563,10.308,2.563c4.27,0,6.527-1.77,6.527-4.514
				c0-2.5-1.952-4.023-6.895-5.732c-6.831-2.439-11.344-6.221-11.344-12.261c0-7.014,5.917-12.32,15.553-12.32
				c4.697,0,8.051,0.915,10.491,2.074l-2.074,7.442c-1.585-0.792-4.574-1.952-8.539-1.952c-4.023,0-5.978,1.891-5.978,3.964
				c0,2.624,2.257,3.782,7.624,5.856c7.258,2.686,10.614,6.465,10.614,12.322c0,6.891-5.246,12.748-16.53,12.748
				c-4.696,0-9.332-1.281-11.65-2.564L207.425,136.041z"/>
			<path fill="#FFFFFF" d="M262.14,144.824c-1.647,0.793-4.758,1.404-8.296,1.404c-9.638,0-15.797-5.916-15.797-15.311
				c0-8.724,5.977-15.861,17.077-15.861c2.438,0,5.123,0.427,7.074,1.159l-1.464,6.893c-1.098-0.488-2.745-0.915-5.184-0.915
				c-4.881,0-8.055,3.478-7.992,8.356c0,5.488,3.661,8.418,8.173,8.418c2.196,0,3.904-0.365,5.307-0.979L262.14,144.824z"/>
			<path fill="#FFFFFF" d="M271.838,111.827c-3.109,0-5.122-2.196-5.122-4.941c0-2.805,2.072-4.94,5.244-4.94
				c3.174,0,5.124,2.135,5.187,4.94c0,2.746-2.013,4.941-5.246,4.941H271.838z M267.264,145.557v-29.828h9.271v29.828H267.264z"/>
			<path fill="#FFFFFF" d="M291.112,133.539c0.304,3.9,4.086,5.73,8.417,5.73c3.172,0,5.734-0.428,8.234-1.277l1.22,6.277
				c-3.049,1.281-6.77,1.895-10.795,1.895c-10.125,0-15.92-5.854-15.92-15.248c0-7.563,4.757-15.921,15.064-15.921
				c9.639,0,13.298,7.503,13.298,14.886c0,1.586-0.187,2.986-0.308,3.721L291.112,133.539z M302.03,127.199
				c0-2.197-0.976-6.04-5.184-6.04c-3.965,0-5.55,3.599-5.795,6.04H302.03z"/>
			<path fill="#FFFFFF" d="M316.184,125.245c0-3.721-0.122-6.832-0.244-9.515h8.051l0.426,4.146h0.188
				c1.22-1.952,4.209-4.818,9.209-4.818c6.1,0,10.675,4.087,10.675,12.872v17.627h-9.271v-16.527c0-3.844-1.343-6.467-4.694-6.467
				c-2.563,0-4.087,1.771-4.757,3.477c-0.245,0.609-0.309,1.467-0.309,2.318v17.199h-9.271L316.184,125.245L316.184,125.245z"/>
			<path fill="#FFFFFF" d="M374.314,144.824c-1.647,0.793-4.758,1.404-8.296,1.404c-9.636,0-15.797-5.916-15.797-15.311
				c0-8.724,5.978-15.861,17.079-15.861c2.438,0,5.123,0.427,7.071,1.159l-1.464,6.893c-1.098-0.488-2.745-0.915-5.184-0.915
				c-4.88,0-8.053,3.478-7.991,8.356c0,5.488,3.661,8.418,8.173,8.418c2.196,0,3.904-0.365,5.31-0.979L374.314,144.824z"/>
			<path fill="#FFFFFF" d="M385.905,133.539c0.304,3.9,4.086,5.73,8.417,5.73c3.171,0,5.733-0.428,8.233-1.277l1.22,6.277
				c-3.048,1.281-6.771,1.895-10.794,1.895c-10.126,0-15.921-5.854-15.921-15.248c0-7.563,4.757-15.921,15.063-15.921
				c9.642,0,13.301,7.503,13.301,14.886c0,1.586-0.187,2.986-0.308,3.721L385.905,133.539z M396.823,127.199
				c0-2.197-0.977-6.04-5.187-6.04c-3.963,0-5.549,3.599-5.795,6.04H396.823z"/>
			<path fill="#FFFFFF" d="M410.914,137.506c1.708,1.035,5.247,2.195,7.991,2.195c2.808,0,3.965-0.916,3.965-2.438
				c0-1.588-0.916-2.318-4.331-3.479c-6.221-2.018-8.601-5.434-8.54-8.905c0-5.613,4.763-9.821,12.144-9.821
				c3.477,0,6.522,0.854,8.354,1.77l-1.587,6.343c-1.341-0.672-3.964-1.646-6.465-1.646c-2.257,0-3.537,0.914-3.537,2.379
				s1.159,2.193,4.818,3.48c5.671,1.891,7.987,4.816,8.052,9.145c0,5.609-4.332,9.697-12.87,9.697c-3.903,0-7.38-0.916-9.638-2.137
				L410.914,137.506z"/>
			<path fill="#FFFFFF" d="M450.075,105.056c3.416-0.61,7.868-0.914,12.504-0.914c7.868,0,12.992,1.28,16.896,4.27
				c4.271,3.172,6.954,8.295,6.954,15.616c0,7.867-2.867,13.296-6.771,16.65c-4.331,3.598-10.979,5.307-19.029,5.307
				c-4.815,0-8.297-0.305-10.553-0.609L450.075,105.056L450.075,105.056z M459.346,138.541c0.792,0.186,2.136,0.186,3.229,0.186
				c8.479,0.061,14.029-4.574,14.029-14.396c0-8.848-5.002-13.057-13.054-13.057c-2.018,0-3.416,0.184-4.209,0.366L459.346,138.541
				L459.346,138.541z"/>
			<path fill="#FFFFFF" d="M499.666,133.539c0.31,3.9,4.088,5.73,8.418,5.73c3.176,0,5.732-0.428,8.233-1.277l1.22,6.277
				c-3.05,1.281-6.771,1.895-10.796,1.895c-10.126,0-15.92-5.854-15.92-15.248c0-7.563,4.759-15.921,15.066-15.921
				c9.637,0,13.296,7.503,13.296,14.886c0,1.586-0.187,2.986-0.309,3.721L499.666,133.539z M510.584,127.199
				c0-2.197-0.976-6.04-5.185-6.04c-3.964,0-5.55,3.599-5.795,6.04H510.584z"/>
			<path fill="#FFFFFF" d="M524.675,137.506c1.706,1.035,5.241,2.195,7.986,2.195c2.811,0,3.964-0.916,3.964-2.438
				c0-1.588-0.91-2.318-4.326-3.479c-6.226-2.018-8.604-5.434-8.539-8.905c0-5.613,4.757-9.821,12.138-9.821
				c3.477,0,6.526,0.854,8.354,1.77l-1.585,6.343c-1.341-0.672-3.964-1.646-6.465-1.646c-2.258,0-3.538,0.914-3.538,2.379
				s1.159,2.193,4.818,3.48c5.672,1.891,7.99,4.816,8.053,9.145c0,5.609-4.333,9.697-12.87,9.697c-3.899,0-7.381-0.916-9.638-2.137
				L524.675,137.506z"/>
			<path fill="#FFFFFF" d="M573.594,144.824c-1.647,0.793-4.763,1.404-8.295,1.404c-9.644,0-15.804-5.916-15.804-15.311
				c0-8.724,5.979-15.861,17.079-15.861c2.439,0,5.123,0.427,7.075,1.159l-1.463,6.893c-1.101-0.488-2.747-0.915-5.188-0.915
				c-4.879,0-8.052,3.478-7.985,8.356c0,5.488,3.655,8.418,8.173,8.418c2.191,0,3.9-0.365,5.306-0.979L573.594,144.824z"/>
			<path fill="#FFFFFF" d="M578.779,125.551c0-4.393-0.061-7.26-0.243-9.822h7.934l0.361,5.551h0.245
				c1.524-4.393,5.123-6.222,8.056-6.222c0.853,0,1.277,0.062,1.947,0.183v8.723c-0.793-0.121-1.521-0.244-2.562-0.244
				c-3.416,0-5.733,1.771-6.345,4.696c-0.122,0.609-0.188,1.281-0.188,2.074v15.063h-9.271L578.779,125.551z"/>
			<path fill="#FFFFFF" d="M606.35,111.827c-3.109,0-5.123-2.196-5.123-4.941c0-2.805,2.074-4.94,5.246-4.94s5.123,2.135,5.184,4.94
				c0,2.746-2.012,4.941-5.244,4.941H606.35z M601.776,145.557v-29.828h9.271v29.828H601.776z"/>
			<path fill="#FFFFFF" d="M618.489,125.732c0-3.903-0.124-7.196-0.245-10.001h8.053l0.431,4.146h0.122
				c2.191-3.11,5.606-4.818,9.938-4.818c6.525,0,12.381,5.673,12.381,15.189c0,10.854-6.892,15.979-13.539,15.979
				c-3.601,0-6.401-1.463-7.742-3.414h-0.122v14.82h-9.271L618.489,125.732L618.489,125.732z M627.761,132.746
				c0,0.73,0.061,1.344,0.183,1.951c0.61,2.502,2.745,4.395,5.429,4.395c4.025,0,6.404-3.355,6.404-8.418
				c0-4.758-2.135-8.358-6.282-8.358c-2.624,0-4.938,1.954-5.55,4.7c-0.122,0.486-0.184,1.098-0.184,1.645V132.746L627.761,132.746z
				"/>
			<path fill="#FFFFFF" d="M665.334,107.618v8.112h6.648v6.83h-6.648v10.858c0,3.6,0.915,5.246,3.659,5.246
				c1.281,0,1.896-0.063,2.745-0.246l0.063,7.018c-1.16,0.428-3.416,0.793-5.979,0.793c-2.989,0-5.49-1.037-7.015-2.564
				c-1.708-1.77-2.563-4.635-2.563-8.844v-12.261h-3.966v-6.832h3.966v-5.611L665.334,107.618z"/>
			<path fill="#FFFFFF" d="M690.771,146.229c-8.722,0-15.433-5.734-15.433-15.371c0-9.638,6.345-15.798,15.979-15.798
				c9.09,0,15.188,6.282,15.188,15.31c0,10.857-7.743,15.859-15.677,15.859H690.771L690.771,146.229z M690.952,139.578
				c3.661,0,5.919-3.602,5.919-8.967c0-4.395-1.71-8.908-5.919-8.908c-4.391,0-6.098,4.516-6.098,8.967
				c0,5.063,2.135,8.902,6.037,8.902h0.061V139.578L690.952,139.578z"/>
			<path fill="#FFFFFF" d="M712.303,125.551c0-4.393-0.063-7.26-0.243-9.822h7.929l0.366,5.551h0.244
				c1.521-4.393,5.124-6.222,8.051-6.222c0.854,0,1.282,0.062,1.952,0.183v8.723c-0.793-0.121-1.525-0.244-2.563-0.244
				c-3.414,0-5.729,1.771-6.346,4.696c-0.121,0.609-0.182,1.281-0.182,2.074v15.063h-9.271L712.303,125.551z"/>
			<path fill="#FFFFFF" d="M735.36,137.506c1.707,1.035,5.246,2.195,7.991,2.195c2.806,0,3.964-0.916,3.964-2.438
				c0-1.588-0.916-2.318-4.33-3.479c-6.222-2.018-8.601-5.434-8.54-8.905c0-5.613,4.758-9.821,12.139-9.821
				c3.479,0,6.526,0.854,8.355,1.77l-1.586,6.343c-1.342-0.672-3.965-1.646-6.465-1.646c-2.258,0-3.538,0.914-3.538,2.379
				s1.159,2.193,4.813,3.48c5.677,1.891,7.99,4.816,8.057,9.145c0,5.609-4.332,9.697-12.869,9.697c-3.904,0-7.381-0.916-9.639-2.137
				L735.36,137.506z"/>
		</g>
		<g>
			<g>
				<g>
					<path fill="#FFFFFF" stroke="#999999" stroke-width="0.9741" d="M52.725,67.28c-5.034,3.873-11.054,5.918-17.235,5.345
						C21.207,71.296,11.5,56.489,13.809,39.552c1.046-7.667,4.388-14.437,9.043-19.45c0,0-9.913,7.525-11.755,19.934
						C7.877,61.722,20.32,79.623,38.133,81.279c8.699,0.81,17.146-2.551,23.853-8.649L52.725,67.28z"/>
					<path fill="#FFFFFF" stroke="#999999" stroke-width="0.9741" d="M84.945,16.869C68.524,3.277,46.049,5.064,35.71,19.661
						c-5.614,7.925-6.614,18.155-3.669,27.938l8.884-6.077c-1.481-7.035-0.409-14.163,3.6-19.823
						C52.817,9.993,70.494,8.992,84.007,19.46c6.117,4.738,10.308,11.018,12.323,17.555C96.331,37.015,95.679,25.755,84.945,16.869z
						"/>
					<path fill="#FFFFFF" stroke="#999999" stroke-width="0.9741" d="M91.118,47.584c-3.68-8.006-10.9-13.671-19.636-16.402v10.675
						c5.972,2.407,10.838,6.637,13.463,12.344c5.992,13.033-1.979,28.846-17.801,35.313c-7.163,2.93-14.697,3.42-21.365,1.896
						c0,0,5.805,4.811,23.141,0.212C89.524,86.155,98.59,63.838,91.118,47.584z"/>
					
						<linearGradient id="SVGID_1_" gradientUnits="userSpaceOnUse" x1="-404.291" y1="1001.7412" x2="-445.6833" y2="1017.9138" gradientTransform="matrix(1 0 0 1 471.04 -969.6602)">
						<stop  offset="0" style="stop-color:#FFFFFF"/>
						<stop  offset="1" style="stop-color:#1F5221"/>
					</linearGradient>
					<path fill="url(#SVGID_1_)" stroke="#999999" stroke-width="0.9741" d="M45.445,42.315c7.558-3.09,15.539-3.484,22.47-1.639
						V30.245c-8.167-1.738-17.336-1.046-26.054,2.516c-8.428,3.445-15.048,9.025-19.31,15.543l8.24,5.285
						C34.213,48.879,39.208,44.865,45.445,42.315z"/>
					
						<linearGradient id="SVGID_2_" gradientUnits="userSpaceOnUse" x1="-407.376" y1="1035.8516" x2="-399.4599" y2="993.4437" gradientTransform="matrix(1 0 0 1 471.04 -969.6602)">
						<stop  offset="0" style="stop-color:#FFFFFF"/>
						<stop  offset="1" style="stop-color:#1F5221"/>
					</linearGradient>
					<path fill="url(#SVGID_2_)" stroke="#999999" stroke-width="0.9741" d="M71.792,21.538l-8.698,4.493
						c2.37,5.321,3.35,11.651,2.438,18.329c-1.102,8.085-4.745,15.188-9.805,20.267l8.993,5.259
						c5.604-6.207,9.603-14.506,10.878-23.854C76.829,37.01,75.308,28.487,71.792,21.538z"/>
					
						<linearGradient id="SVGID_3_" gradientUnits="userSpaceOnUse" x1="-432.3457" y1="1014.8838" x2="-403.0015" y2="1050.4999" gradientTransform="matrix(1 0 0 1 471.04 -969.6602)">
						<stop  offset="0" style="stop-color:#FFFFFF"/>
						<stop  offset="1" style="stop-color:#1F5221"/>
					</linearGradient>
					<path fill="url(#SVGID_3_)" stroke="#999999" stroke-width="0.9741" d="M53.981,61.852
						c-6.161-4.773-10.384-11.106-12.379-17.694c-3.281,1.814-6.125,4.06-8.47,6.591c2.785,7.09,7.652,13.781,14.368,18.982
						c7.198,5.576,15.339,8.521,23.115,8.951l0.459-9.78C65.282,68.295,59.311,65.979,53.981,61.852z"/>
				</g>
				<g>
					<path fill="#FFFFFF" d="M111.554,11.829h26.662c13.877,0,24.33,3.203,31.362,9.607c7.031,6.404,10.546,16.313,10.546,29.724
						c0,13.413-3.516,23.473-10.546,30.18c-7.032,6.704-17.485,10.059-31.362,10.059h-26.662V11.829z M128.471,77.126h9.605
						c9.7,0,16.151-2.228,19.353-6.683c1.717-2.32,3.028-5.069,3.934-8.25c0.905-3.178,1.357-6.854,1.357-11.033
						c0-4.084-0.452-7.634-1.357-10.65c-0.905-3.017-2.217-5.639-3.934-7.867c-3.341-4.456-9.792-6.683-19.353-6.683h-9.605V77.126z
						"/>
					<path fill="#FFFFFF" d="M219.316,92.649c-4.827,0-9.119-0.684-12.878-2.052c-3.759-1.369-6.926-3.343-9.502-5.917
						c-2.576-2.576-4.524-5.709-5.847-9.396c-1.323-3.69-1.984-7.879-1.984-12.566c0-4.734,0.673-8.969,2.02-12.705
						c1.346-3.734,3.283-6.903,5.813-9.502c2.529-2.599,5.615-4.583,9.259-5.953c3.643-1.368,7.784-2.053,12.426-2.053
						c4.5,0,8.55,0.65,12.147,1.949c3.595,1.3,6.648,3.203,9.154,5.708c2.505,2.506,4.431,5.604,5.777,9.293
						c1.345,3.688,2.019,7.926,2.019,12.705v4.037h-41.49c0.046,2.877,0.406,5.338,1.08,7.379c0.672,2.043,1.588,3.725,2.75,5.047
						c1.159,1.323,2.517,2.287,4.072,2.891s3.282,0.904,5.187,0.904c3.108,0,5.662-0.649,7.657-1.949
						c1.994-1.299,3.341-3.411,4.038-6.336h15.593c-0.557,3.018-1.625,5.674-3.202,7.972c-1.579,2.296-3.55,4.224-5.918,5.778
						c-2.366,1.556-5.082,2.739-8.144,3.549C226.277,92.245,222.938,92.649,219.316,92.649z M231.15,56.452
						c-0.372-4.918-1.612-8.551-3.725-10.894c-2.111-2.344-5.046-3.516-8.806-3.516c-3.435,0-6.277,1.277-8.527,3.829
						c-2.251,2.552-3.493,6.08-3.724,10.58L231.15,56.452L231.15,56.452z"/>
					<path fill="#FFFFFF" d="M294.15,92.649c-5.616,0-10.767-0.894-15.454-2.68c-4.688-1.783-8.703-4.533-12.043-8.248
						c-3.436-3.759-5.952-8.121-7.554-13.087c-1.601-4.966-2.401-10.628-2.401-16.987c0-12.714,3.317-22.763,9.954-30.142
						c3.434-3.712,7.471-6.483,12.112-8.317c4.641-1.833,9.77-2.75,15.384-2.75c4.456,0,8.54,0.534,12.253,1.602
						c3.712,1.067,7.1,2.714,10.163,4.943c3.759,2.783,6.521,5.964,8.284,9.537c1.763,3.573,2.899,7.611,3.411,12.112h-16.986
						c-0.557-4.315-2.32-7.692-5.29-10.128c-2.97-2.438-6.916-3.655-11.835-3.655c-3.017,0-5.768,0.592-8.249,1.775
						c-2.483,1.184-4.595,2.914-6.334,5.186c-1.741,2.274-3.087,5.082-4.038,8.423c-0.952,3.342-1.427,7.147-1.427,11.417
						c0,4.27,0.464,8.064,1.393,11.382c0.928,3.318,2.25,6.126,3.969,8.423c1.716,2.297,3.804,4.039,6.265,5.221
						c2.458,1.185,5.221,1.775,8.284,1.775c4.918,0,8.864-1.264,11.835-3.793c2.969-2.529,4.777-6.162,5.429-10.895h16.847
						c-0.511,4.641-1.636,8.76-3.376,12.356c-1.739,3.597-4.143,6.695-7.205,9.293c-3.063,2.507-6.521,4.339-10.373,5.499
						C303.315,92.07,298.978,92.649,294.15,92.649z"/>
					<path fill="#FFFFFF" d="M372.326,92.649c-10.813,0-19.283-2.296-25.409-6.891c-6.125-4.594-9.444-11.557-9.954-20.885h16.291
						c0.556,4.781,2.423,8.354,5.603,10.721c3.179,2.367,7.529,3.551,13.053,3.551c5.058,0,9.063-0.881,12.009-2.646
						c2.946-1.762,4.418-4.314,4.418-7.656c0-1.484-0.356-2.738-1.076-3.76c-0.721-1.02-1.811-1.914-3.271-2.68
						c-1.462-0.766-3.285-1.473-5.465-2.123c-2.182-0.65-4.758-1.346-7.726-2.089l-2.995-0.835
						c-3.76-0.975-7.333-1.961-10.721-2.959c-3.389-0.998-6.358-2.32-8.91-3.969c-2.553-1.646-4.583-3.781-6.092-6.403
						c-1.508-2.622-2.262-6.022-2.262-10.199c0-3.992,0.835-7.46,2.506-10.408c1.671-2.946,3.934-5.384,6.787-7.309
						c2.854-1.926,6.161-3.352,9.919-4.282c3.76-0.926,7.729-1.392,11.905-1.392c4.825,0,9.199,0.568,13.122,1.706
						c3.922,1.138,7.285,2.773,10.096,4.908c2.809,2.136,4.998,4.746,6.576,7.831c1.578,3.087,2.436,6.579,2.578,10.477h-16.432
						c-0.418-3.759-1.983-6.601-4.699-8.527c-2.715-1.924-6.463-2.889-11.242-2.889c-4.595,0-8.122,0.825-10.581,2.472
						c-2.461,1.647-3.691,3.91-3.691,6.788c0,1.346,0.313,2.495,0.94,3.445c0.627,0.95,1.601,1.787,2.923,2.505
						c1.323,0.721,3.017,1.381,5.083,1.984c2.064,0.603,4.536,1.252,7.414,1.949c2.877,0.649,5.674,1.3,8.389,1.948
						c2.714,0.649,5.269,1.393,7.657,2.228c2.393,0.836,4.57,1.822,6.545,2.959c1.973,1.138,3.654,2.519,5.047,4.143
						c1.393,1.625,2.48,3.55,3.271,5.777c0.787,2.228,1.184,4.851,1.184,7.866c0,3.944-0.775,7.45-2.332,10.511
						c-1.555,3.064-3.76,5.64-6.611,7.728c-2.854,2.089-6.303,3.679-10.34,4.77C381.793,92.104,377.292,92.649,372.326,92.649z"/>
					<path fill="#FFFFFF" d="M446.463,11.829l-23.041,79.569h-13.574l22.973-79.569H446.463z"/>
					<path fill="#FFFFFF" d="M538.701,91.399h-15.246V28.537l-18.934,62.862h-15.453l-19.354-62.862v62.862H454.33v-79.57h24.367
						l17.959,60.146l17.82-60.146h24.227v79.569L538.701,91.399L538.701,91.399z"/>
					<path fill="#FFFFFF" d="M580.887,92.649c-4.828,0-9.119-0.684-12.879-2.052c-3.76-1.369-6.93-3.343-9.506-5.917
						c-2.572-2.576-4.521-5.709-5.846-9.396c-1.32-3.69-1.98-7.879-1.98-12.566c0-4.734,0.672-8.969,2.018-12.705
						c1.346-3.734,3.283-6.903,5.813-9.502c2.53-2.599,5.615-4.583,9.26-5.953c3.645-1.368,7.783-2.053,12.428-2.053
						c4.502,0,8.549,0.65,12.146,1.949c3.596,1.3,6.648,3.203,9.152,5.708c2.508,2.506,4.432,5.604,5.779,9.293
						c1.348,3.688,2.018,7.926,2.018,12.705v4.037h-41.488c0.047,2.877,0.402,5.338,1.078,7.379c0.672,2.043,1.59,3.725,2.75,5.047
						c1.158,1.323,2.518,2.287,4.07,2.891c1.555,0.604,3.281,0.904,5.188,0.904c3.107,0,5.66-0.649,7.658-1.949
						c1.992-1.299,3.342-3.411,4.035-6.336h15.596c-0.561,3.018-1.625,5.674-3.203,7.972c-1.578,2.296-3.549,4.224-5.916,5.778
						c-2.367,1.556-5.082,2.739-8.146,3.549C587.848,92.245,584.506,92.649,580.887,92.649z M592.721,56.452
						c-0.373-4.918-1.611-8.551-3.727-10.894c-2.109-2.344-5.047-3.516-8.807-3.516c-3.436,0-6.275,1.277-8.525,3.829
						c-2.252,2.552-3.494,6.08-3.725,10.58L592.721,56.452L592.721,56.452z"/>
					<path fill="#FFFFFF" d="M652.172,92.649c-10.816,0-19.285-2.296-25.41-6.891c-6.127-4.594-9.445-11.557-9.955-20.885h16.289
						c0.557,4.781,2.426,8.354,5.604,10.721c3.18,2.367,7.531,3.551,13.053,3.551c5.059,0,9.063-0.881,12.01-2.646
						c2.945-1.762,4.422-4.314,4.422-7.656c0-1.484-0.361-2.738-1.08-3.76c-0.719-1.02-1.811-1.914-3.271-2.68
						c-1.461-0.766-3.281-1.473-5.465-2.123c-2.182-0.65-4.758-1.346-7.727-2.089l-2.996-0.835
						c-3.758-0.975-7.332-1.961-10.723-2.959c-3.389-0.998-6.355-2.32-8.906-3.969c-2.555-1.646-4.584-3.781-6.096-6.403
						c-1.506-2.622-2.262-6.022-2.262-10.199c0-3.992,0.836-7.46,2.506-10.408c1.67-2.946,3.938-5.384,6.787-7.309
						c2.855-1.926,6.162-3.352,9.92-4.282c3.76-0.926,7.729-1.392,11.904-1.392c4.828,0,9.201,0.568,13.123,1.706
						c3.92,1.138,7.283,2.773,10.094,4.908c2.807,2.136,5,4.746,6.578,7.831c1.576,3.087,2.436,6.579,2.576,10.477h-16.432
						c-0.416-3.759-1.98-6.601-4.697-8.527c-2.715-1.924-6.463-2.889-11.242-2.889c-4.594,0-8.121,0.825-10.58,2.472
						c-2.461,1.647-3.689,3.91-3.689,6.788c0,1.346,0.313,2.495,0.938,3.445c0.627,0.95,1.602,1.787,2.926,2.505
						c1.32,0.721,3.018,1.381,5.08,1.984c2.064,0.603,4.537,1.252,7.416,1.949c2.875,0.649,5.672,1.3,8.39,1.948
						c2.713,0.649,5.265,1.393,7.653,2.228c2.392,0.836,4.572,1.822,6.545,2.959c1.974,1.138,3.654,2.519,5.047,4.143
						c1.395,1.625,2.484,3.55,3.273,5.777c0.785,2.228,1.182,4.851,1.182,7.866c0,3.944-0.773,7.45-2.332,10.511
						c-1.555,3.064-3.756,5.64-6.609,7.728c-2.854,2.089-6.302,3.679-10.339,4.77C661.639,92.104,657.135,92.649,652.172,92.649z"/>
					<path fill="#FFFFFF" d="M763.412,91.399h-16.848V56.731h-31.951v34.668h-16.916v-79.57h16.916v30.839h31.951V11.829h16.848
						V91.399z"/>
				</g>
			</g>
		</g>
	</g>
	<rect x="276.058" y="168.027" fill="#FFFF00" width="218.186" height="74.348"/>
	<g>
		<path d="M303.487,180.854h23.23v4.672h-17.599v14.334h16.255v4.607h-16.255v19.52h-5.632L303.487,180.854L303.487,180.854z"/>
		<path d="M339.135,184.309c0,1.92-1.344,3.455-3.584,3.455c-2.048,0-3.392-1.535-3.392-3.455s1.408-3.521,3.52-3.521
			C337.728,180.787,339.135,182.324,339.135,184.309z M332.864,223.986v-30.975h5.632v30.975H332.864z"/>
		<path d="M347.839,201.395c0-3.264-0.064-5.822-0.256-8.383h4.991l0.32,5.119h0.128c1.536-2.881,5.12-5.76,10.239-5.76
			c4.288,0,10.943,2.561,10.943,13.184v18.432h-5.632v-17.854c0-4.992-1.855-9.152-7.167-9.152c-3.648,0-6.528,2.625-7.552,5.76
			c-0.256,0.703-0.384,1.664-0.384,2.623v18.623h-5.632v-22.592H347.839z"/>
		<path d="M410.047,178.549v37.438c0,2.752,0.128,5.887,0.256,8h-4.992l-0.256-5.377h-0.191c-1.664,3.457-5.376,6.08-10.432,6.08
			c-7.487,0-13.313-6.336-13.313-15.742c-0.063-10.303,6.4-16.574,13.889-16.574c4.8,0,7.936,2.238,9.344,4.67h0.127v-18.492h5.568
			V178.549z M404.478,205.619c0-0.703-0.063-1.664-0.256-2.367c-0.832-3.52-3.903-6.465-8.127-6.465
			c-5.824,0-9.279,5.121-9.279,11.904c0,6.27,3.136,11.455,9.151,11.455c3.775,0,7.23-2.561,8.255-6.721
			c0.191-0.768,0.256-1.535,0.256-2.432V205.619z"/>
		<path d="M422.591,209.523c0.129,7.615,4.928,10.75,10.622,10.75c4.032,0,6.527-0.703,8.576-1.6l1.023,4.031
			c-1.984,0.896-5.439,1.984-10.367,1.984c-9.535,0-15.23-6.336-15.23-15.68s5.505-16.639,14.527-16.639
			c10.174,0,12.799,8.83,12.799,14.525c0,1.152-0.063,1.984-0.191,2.625h-21.759V209.523z M439.103,205.49
			c0.063-3.52-1.474-9.086-7.81-9.086c-5.76,0-8.19,5.184-8.639,9.086H439.103z"/>
		<path d="M451.519,202.676c0-3.648-0.064-6.783-0.256-9.664h4.928l0.256,6.145h0.192c1.406-4.16,4.862-6.783,8.64-6.783
			c0.576,0,1.023,0.063,1.535,0.127v5.313c-0.576-0.127-1.152-0.127-1.92-0.127c-3.967,0-6.783,2.941-7.551,7.166
			c-0.13,0.77-0.192,1.729-0.192,2.625v16.51h-5.632V202.676z"/>
	</g>
</g>
</svg>
