<?xml version="1.0" encoding="utf-8"?>
<!-- Generator: Adobe Illustrator 14.0.0, SVG Export Plug-In . SVG Version: 6.00 Build 43363)  -->
<!DOCTYPE svg PUBLIC "-//W3C//DTD SVG 1.1//EN" "http://www.w3.org/Graphics/SVG/1.1/DTD/svg11.dtd">
<svg version="1.1" id="Camada_1" xmlns="http://www.w3.org/2000/svg" xmlns:xlink="http://www.w3.org/1999/xlink" x="0px" y="0px"
	 width="774px" height="250px" viewBox="0 0 774 250" enable-background="new 0 0 774 250" xml:space="preserve">
<g>
	<g>
		<g>
			<path fill="#FFFFFF" d="M10.244,115.824c2.67-0.429,6.151-0.716,9.774-0.716c6.15,0,10.156,1.147,13.207,3.435
				c3.337,2.479,5.435,6.435,5.435,12.109c0,6.15-2.239,10.396-5.292,13.016c-3.385,2.816-8.582,4.15-14.876,4.15
				c-3.766,0-6.484-0.24-8.249-0.479L10.244,115.824L10.244,115.824L10.244,115.824z M17.492,142
				c0.619,0.143,1.669,0.143,2.527,0.143c6.627,0.049,10.966-3.574,10.966-11.252c0-6.674-3.91-10.206-10.205-10.206
				c-1.572,0-2.669,0.144-3.289,0.286L17.492,142L17.492,142z"/>
			<path fill="#FFFFFF" d="M48.774,138.139c0.189,3.004,3.194,4.432,6.579,4.432c2.479,0,4.481-0.332,6.437-1.002l0.954,4.916
				c-2.384,0.998-5.292,1.475-8.44,1.475c-7.914,0-12.444-4.574-12.444-11.867c0-5.914,3.671-12.446,11.777-12.446
				c7.533,0,10.394,5.866,10.394,11.633c0,1.24-0.143,2.338-0.238,2.861L48.774,138.139L48.774,138.139z M57.308,133.18
				c0-1.766-0.763-4.721-4.101-4.721c-3.052,0-4.291,2.813-4.481,4.721H57.308z"/>
			<path fill="#FFFFFF" d="M68.325,141.191c1.335,0.809,4.101,1.715,6.246,1.715c2.192,0,3.098-0.715,3.098-1.906
				c0-1.238-0.714-1.813-3.385-2.717c-4.863-1.621-6.722-4.244-6.675-7.01c0-4.389,3.719-7.676,9.488-7.676
				c2.718,0,5.103,0.667,6.532,1.381l-1.239,5.006c-1.049-0.57-3.099-1.336-5.053-1.336c-1.765,0-2.765,0.715-2.765,1.861
				s0.905,1.717,3.766,2.717c4.434,1.525,6.246,3.816,6.293,7.201c0,4.385-3.385,7.58-10.06,7.58c-3.051,0-5.769-0.717-7.534-1.668
				L68.325,141.191z"/>
			<path fill="#FFFFFF" d="M106.564,146.863c-1.288,0.619-3.719,1.096-6.484,1.096c-7.533,0-12.349-4.625-12.349-11.92
				c0-6.814,4.672-12.395,13.35-12.395c1.907,0,4.004,0.335,5.531,0.907l-1.145,5.386c-0.858-0.379-2.146-0.713-4.052-0.713
				c-3.813,0-6.293,2.717-6.246,6.529c0,4.244,2.861,6.531,6.388,6.531c1.716,0,3.052-0.285,4.148-0.762L106.564,146.863z"/>
			<path fill="#FFFFFF" d="M110.572,131.846c0-3.438-0.048-5.676-0.191-7.679h6.199l0.287,4.291h0.19
				c1.192-3.435,4.005-4.86,6.294-4.86c0.667,0,1.001,0.047,1.525,0.142v6.816c-0.572-0.096-1.144-0.189-1.955-0.189
				c-2.671,0-4.481,1.43-4.959,3.672c-0.095,0.479-0.143,1.049-0.143,1.621v11.824h-7.247V131.846L110.572,131.846z"/>
			<path fill="#FFFFFF" d="M136.179,117.683c0,2.004-1.479,3.623-3.91,3.623c-2.289,0-3.766-1.619-3.766-3.623
				c0-2.051,1.526-3.624,3.861-3.624C134.7,114.06,136.129,115.632,136.179,117.683z M128.691,147.482v-23.316h7.247v23.316H128.691
				L128.691,147.482z"/>
			<path fill="#FFFFFF" d="M141.757,131.988c0-3.051-0.096-5.627-0.191-7.82h6.294l0.334,3.242h0.096
				c1.715-2.432,4.385-3.767,7.771-3.767c5.102,0,9.679,4.433,9.679,11.873c0,8.484-5.387,12.492-10.584,12.492
				c-2.813,0-5.005-1.146-6.055-2.672h-0.095v11.586h-7.247v-24.936h-0.002L141.757,131.988L141.757,131.988z M149.004,137.471
				c0,0.572,0.048,1.047,0.144,1.525c0.477,1.953,2.146,3.432,4.243,3.432c3.146,0,5.006-2.619,5.006-6.578
				c0-3.719-1.669-6.531-4.911-6.531c-2.051,0-3.862,1.523-4.338,3.67c-0.095,0.383-0.143,0.859-0.143,1.289L149.004,137.471
				L149.004,137.471L149.004,137.471z"/>
			<path fill="#FFFFFF" d="M178.377,117.874v6.292h5.197v5.341h-5.197v8.438c0,2.813,0.716,4.102,2.86,4.102
				c1.002,0,1.479-0.047,2.146-0.189l0.048,5.482c-0.906,0.334-2.67,0.619-4.674,0.619c-2.335,0-4.29-0.813-5.483-2.004
				c-1.335-1.383-2.003-3.625-2.003-6.912v-9.535h-3.1v-5.341h3.1v-4.34L178.377,117.874z"/>
			<path fill="#FFFFFF" d="M210.564,135.563c0,8.535-6.055,12.447-12.301,12.447c-6.819,0-12.063-4.484-12.063-12.018
				c0-7.582,4.959-12.396,12.492-12.396C205.795,123.597,210.564,128.506,210.564,135.563z M193.686,135.801
				c0,4.006,1.67,7.01,4.768,7.01c2.86,0,4.625-2.814,4.625-7.059c0-3.432-1.335-6.959-4.625-6.959
				C195.02,128.793,193.686,132.367,193.686,135.801z"/>
			<path fill="#FFFFFF" d="M215.048,131.846c0-3.438-0.046-5.676-0.19-7.679h6.198l0.287,4.291h0.191
				c1.191-3.435,4.004-4.86,6.293-4.86c0.667,0,1,0.047,1.525,0.142v6.816c-0.572-0.096-1.144-0.189-1.955-0.189
				c-2.671,0-4.482,1.43-4.959,3.672c-0.096,0.479-0.143,1.049-0.143,1.621v11.824h-7.248L215.048,131.846L215.048,131.846z"/>
			<path fill="#FFFFFF" d="M238.366,138.139c0.191,3.004,3.195,4.432,6.579,4.432c2.481,0,4.481-0.332,6.437-1.002l0.954,4.916
				c-2.384,0.998-5.293,1.475-8.439,1.475c-7.915,0-12.444-4.574-12.444-11.867c0-5.914,3.672-12.446,11.777-12.446
				c7.533,0,10.393,5.866,10.393,11.633c0,1.24-0.143,2.338-0.238,2.861L238.366,138.139L238.366,138.139z M246.901,133.18
				c0-1.766-0.764-4.721-4.1-4.721c-3.051,0-4.291,2.813-4.481,4.721H246.901z"/>
			<path fill="#FFFFFF" d="M257.918,141.191c1.334,0.809,4.099,1.715,6.244,1.715c2.194,0,3.101-0.715,3.101-1.906
				c0-1.238-0.717-1.813-3.385-2.717c-4.863-1.621-6.723-4.244-6.676-7.01c0-4.389,3.72-7.676,9.489-7.676
				c2.718,0,5.102,0.667,6.532,1.381l-1.239,5.006c-1.05-0.57-3.101-1.336-5.054-1.336c-1.765,0-2.766,0.715-2.766,1.861
				s0.906,1.717,3.768,2.717c4.434,1.525,6.246,3.816,6.292,7.201c0,4.385-3.384,7.58-10.06,7.58c-3.051,0-5.77-0.717-7.533-1.668
				L257.918,141.191z"/>
			<path fill="#FFFFFF" d="M293.87,138.139c0.192,3.004,3.195,4.432,6.581,4.432c2.479,0,4.481-0.332,6.437-1.002l0.954,4.916
				c-2.385,0.998-5.292,1.475-8.438,1.475c-7.915,0-12.444-4.574-12.444-11.867c0-5.914,3.671-12.446,11.777-12.446
				c7.533,0,10.394,5.866,10.394,11.633c0,1.24-0.144,2.338-0.239,2.861L293.87,138.139L293.87,138.139z M302.405,133.18
				c0-1.766-0.762-4.721-4.099-4.721c-3.052,0-4.291,2.813-4.482,4.721H302.405z"/>
			<path fill="#FFFFFF" d="M313.47,131.607c0-2.91-0.096-5.342-0.189-7.439h6.293l0.333,3.242h0.144
				c0.954-1.523,3.291-3.767,7.2-3.767c4.769,0,8.345,3.195,8.345,10.062v13.777h-7.248v-12.92c0-3.004-1.048-5.055-3.67-5.055
				c-2.003,0-3.194,1.383-3.72,2.719c-0.189,0.477-0.239,1.145-0.239,1.813v13.445h-7.247L313.47,131.607L313.47,131.607z"/>
			<path fill="#FFFFFF" d="M374.837,146.621c-1.287,0.623-4.339,1.387-8.201,1.387c-11.108,0-16.831-6.961-16.831-16.115
				c0-10.966,7.82-17.021,17.548-17.021c3.764,0,6.626,0.713,7.914,1.43l-1.526,5.722c-1.431-0.621-3.48-1.191-6.103-1.191
				c-5.722,0-10.203,3.478-10.203,10.631c0,6.436,3.813,10.488,10.251,10.488c2.239,0,4.624-0.428,6.103-1.049L374.837,146.621z"/>
			<path fill="#FFFFFF" d="M386.713,117.683c0,2.004-1.479,3.623-3.91,3.623c-2.29,0-3.767-1.619-3.767-3.623
				c0-2.051,1.526-3.624,3.861-3.624C385.235,114.06,386.664,115.632,386.713,117.683z M379.226,147.482v-23.316h7.249v23.316
				H379.226L379.226,147.482z"/>
			<path fill="#FFFFFF" d="M397.869,138.139c0.189,3.004,3.193,4.432,6.58,4.432c2.477,0,4.48-0.332,6.434-1.002l0.955,4.916
				c-2.383,0.998-5.293,1.475-8.438,1.475c-7.914,0-12.443-4.574-12.443-11.867c0-5.914,3.67-12.446,11.775-12.446
				c7.531,0,10.395,5.866,10.395,11.633c0,1.24-0.143,2.338-0.238,2.861L397.869,138.139L397.869,138.139z M406.402,133.18
				c0-1.766-0.764-4.721-4.102-4.721c-3.051,0-4.289,2.813-4.479,4.721H406.402z"/>
			<path fill="#FFFFFF" d="M417.471,131.607c0-2.91-0.096-5.342-0.191-7.439h6.295l0.336,3.242h0.139
				c0.955-1.523,3.291-3.767,7.203-3.767c4.768,0,8.342,3.195,8.342,10.062v13.777h-7.244v-12.92c0-3.004-1.053-5.055-3.672-5.055
				c-2.004,0-3.193,1.383-3.719,2.719c-0.191,0.477-0.24,1.145-0.24,1.813v13.445h-7.242v-15.879L417.471,131.607L417.471,131.607z"
				/>
			<path fill="#FFFFFF" d="M462.912,146.863c-1.287,0.619-3.721,1.096-6.486,1.096c-7.531,0-12.352-4.625-12.352-11.92
				c0-6.814,4.676-12.395,13.354-12.395c1.904,0,4.002,0.335,5.527,0.907l-1.143,5.386c-0.857-0.379-2.146-0.713-4.055-0.713
				c-3.813,0-6.295,2.717-6.242,6.529c0,4.244,2.859,6.531,6.389,6.531c1.715,0,3.051-0.285,4.145-0.762L462.912,146.863z"/>
			<path fill="#FFFFFF" d="M474.402,117.683c0,2.004-1.479,3.623-3.908,3.623c-2.287,0-3.768-1.619-3.768-3.623
				c0-2.051,1.525-3.624,3.859-3.624C472.926,114.06,474.357,115.632,474.402,117.683z M466.916,147.482v-23.316h7.248v23.316
				H466.916L466.916,147.482z"/>
			<path fill="#FFFFFF" d="M499.387,141.857c0,2.193,0.098,4.34,0.387,5.625h-6.535l-0.43-2.336h-0.145
				c-1.525,1.857-3.908,2.861-6.674,2.861c-4.719,0-7.533-3.436-7.533-7.154c0-6.055,5.438-8.914,13.686-8.914v-0.285
				c0-1.289-0.668-3.053-4.244-3.053c-2.387,0-4.908,0.813-6.438,1.764l-1.336-4.674c1.621-0.906,4.818-2.095,9.061-2.095
				c7.771,0,10.199,4.576,10.199,10.105v8.152L499.387,141.857L499.387,141.857z M492.381,136.471c-3.814,0-6.773,0.902-6.773,3.67
				c0,1.859,1.24,2.766,2.861,2.766c1.764,0,3.289-1.191,3.77-2.672c0.092-0.381,0.143-0.811,0.143-1.236V136.471L492.381,136.471
				L492.381,136.471z"/>
			<path fill="#FFFFFF" d="M505.113,141.191c1.334,0.809,4.1,1.715,6.244,1.715c2.191,0,3.102-0.715,3.102-1.906
				c0-1.238-0.717-1.813-3.387-2.717c-4.863-1.621-6.721-4.244-6.674-7.01c0-4.389,3.717-7.676,9.484-7.676
				c2.721,0,5.104,0.667,6.531,1.381l-1.24,5.006c-1.047-0.57-3.098-1.336-5.053-1.336c-1.764,0-2.766,0.715-2.766,1.861
				s0.904,1.717,3.766,2.717c4.438,1.525,6.248,3.816,6.295,7.201c0,4.385-3.383,7.58-10.061,7.58c-3.053,0-5.77-0.717-7.531-1.668
				L505.113,141.191z"/>
			<path fill="#FFFFFF" d="M558.088,113.631v26.89c0,2.623,0.096,5.391,0.189,6.961h-6.438l-0.285-3.385h-0.143
				c-1.432,2.574-4.293,3.912-7.297,3.912c-5.529,0-9.963-4.723-9.963-11.971c-0.051-7.865,4.859-12.442,10.438-12.442
				c2.91,0,5.104,1.047,6.15,2.622h0.094v-12.587H558.088L558.088,113.631z M550.838,134.037c0-0.381,0-0.906-0.094-1.336
				c-0.43-1.906-2.002-3.525-4.242-3.525c-3.34,0-5.008,2.955-5.008,6.627c0,3.957,1.955,6.436,4.959,6.436
				c2.098,0,3.814-1.43,4.246-3.479c0.094-0.525,0.141-1.098,0.141-1.67v-3.053H550.838L550.838,134.037z"/>
			<path fill="#FFFFFF" d="M569.486,138.139c0.188,3.004,3.191,4.432,6.578,4.432c2.479,0,4.479-0.332,6.438-1.002l0.953,4.916
				c-2.385,0.998-5.291,1.475-8.439,1.475c-7.914,0-12.439-4.574-12.439-11.867c0-5.914,3.67-12.446,11.775-12.446
				c7.531,0,10.393,5.866,10.393,11.633c0,1.24-0.146,2.338-0.238,2.861L569.486,138.139L569.486,138.139z M578.02,133.18
				c0-1.766-0.766-4.721-4.102-4.721c-3.053,0-4.289,2.813-4.48,4.721H578.02z"/>
			<path fill="#FFFFFF" d="M598.717,113.631h7.246v33.851h-7.246V113.631z"/>
			<path fill="#FFFFFF" d="M631.236,141.857c0,2.193,0.094,4.34,0.381,5.625h-6.531l-0.432-2.336h-0.143
				c-1.523,1.857-3.908,2.861-6.674,2.861c-4.721,0-7.533-3.436-7.533-7.154c0-6.055,5.436-8.914,13.684-8.914v-0.285
				c0-1.289-0.67-3.053-4.244-3.053c-2.383,0-4.912,0.813-6.438,1.764l-1.334-4.674c1.619-0.906,4.814-2.095,9.061-2.095
				c7.77,0,10.203,4.576,10.203,10.105V141.857L631.236,141.857z M624.227,136.471c-3.814,0-6.771,0.902-6.771,3.67
				c0,1.859,1.238,2.766,2.859,2.766c1.766,0,3.291-1.191,3.768-2.672c0.096-0.381,0.145-0.811,0.145-1.236V136.471L624.227,136.471
				z"/>
			<path fill="#FFFFFF" d="M647.119,139.996c1.906,1.002,4.957,2.004,8.055,2.004c3.34,0,5.104-1.385,5.104-3.482
				c0-2-1.525-3.146-5.389-4.479c-5.34-1.908-8.869-4.863-8.869-9.537c0-5.481,4.627-9.631,12.158-9.631
				c3.67,0,6.293,0.713,8.199,1.62l-1.619,5.818c-1.242-0.62-3.578-1.525-6.676-1.525c-3.146,0-4.672,1.477-4.672,3.099
				c0,2.05,1.764,2.957,5.959,4.527c5.676,2.102,8.297,5.057,8.297,9.586c0,5.389-4.102,9.963-12.922,9.963
				c-3.67,0-7.293-1-9.107-2.002L647.119,139.996z"/>
			<path fill="#FFFFFF" d="M692.174,141.857c0,2.193,0.1,4.34,0.383,5.625h-6.529l-0.43-2.336h-0.146
				c-1.523,1.857-3.908,2.861-6.674,2.861c-4.719,0-7.535-3.436-7.535-7.154c0-6.055,5.439-8.914,13.689-8.914v-0.285
				c0-1.289-0.668-3.053-4.248-3.053c-2.385,0-4.908,0.813-6.436,1.764l-1.334-4.674c1.621-0.906,4.816-2.095,9.061-2.095
				c7.77,0,10.201,4.576,10.201,10.105v8.154L692.174,141.857L692.174,141.857z M685.166,136.471c-3.813,0-6.77,0.902-6.77,3.67
				c0,1.859,1.236,2.766,2.857,2.766c1.768,0,3.291-1.191,3.77-2.672c0.094-0.381,0.141-0.811,0.141-1.236v-2.525L685.166,136.471
				L685.166,136.471z"/>
			<path fill="#FFFFFF" d="M697.947,113.631h7.248v33.851h-7.248V113.631z"/>
			<path fill="#FFFFFF" d="M733.043,139.996c0,3.053,0.094,5.531,0.188,7.484h-6.289l-0.336-3.289h-0.146
				c-0.902,1.432-3.096,3.814-7.295,3.814c-4.768,0-8.201-2.957-8.201-10.156v-13.685h7.248v12.542c0,3.385,1.1,5.434,3.672,5.434
				c2.002,0,3.195-1.381,3.625-2.525c0.189-0.428,0.285-0.953,0.285-1.572v-13.875h7.246v15.828H733.043L733.043,139.996z"/>
			<path fill="#FFFFFF" d="M761.461,113.631v26.89c0,2.623,0.096,5.391,0.189,6.961h-6.439l-0.285-3.385h-0.143
				c-1.43,2.574-4.289,3.912-7.297,3.912c-5.529,0-9.961-4.723-9.961-11.971c-0.049-7.865,4.861-12.442,10.439-12.442
				c2.908,0,5.102,1.047,6.15,2.622h0.094v-12.587H761.461L761.461,113.631z M754.213,134.037c0-0.381,0-0.906-0.094-1.336
				c-0.428-1.906-2.002-3.525-4.244-3.525c-3.338,0-5.006,2.955-5.006,6.627c0,3.957,1.955,6.436,4.959,6.436
				c2.098,0,3.814-1.43,4.244-3.479c0.094-0.525,0.141-1.098,0.141-1.67V134.037L754.213,134.037z"/>
		</g>
		<g>
			<g>
				<g>
					<path fill="#FFFFFF" stroke="#999999" stroke-width="0.9741" d="M53.07,68.655C48.036,72.528,42.016,74.573,35.834,74
						c-14.283-1.329-23.989-16.136-21.681-33.073c1.046-7.667,4.388-14.437,9.043-19.45c0,0-9.913,7.525-11.755,19.934
						c-3.219,21.686,9.224,39.587,27.037,41.243c8.699,0.81,17.146-2.551,23.853-8.649L53.07,68.655z"/>
					<path fill="#FFFFFF" stroke="#999999" stroke-width="0.9741" d="M85.291,18.244C68.87,4.652,46.395,6.439,36.056,21.036
						c-5.614,7.925-6.614,18.155-3.669,27.938l8.884-6.077c-1.481-7.035-0.409-14.163,3.6-19.823
						c8.292-11.706,25.969-12.707,39.482-2.239c6.117,4.738,10.308,11.018,12.323,17.555C96.676,38.39,96.024,27.13,85.291,18.244z"
						/>
					<path fill="#FFFFFF" stroke="#999999" stroke-width="0.9741" d="M91.463,48.959c-3.68-8.006-10.9-13.671-19.636-16.402v10.675
						c5.972,2.407,10.838,6.637,13.463,12.344c5.992,13.033-1.979,28.846-17.801,35.313c-7.163,2.93-14.697,3.42-21.365,1.896
						c0,0,5.805,4.811,23.141,0.212C89.87,87.53,98.936,65.213,91.463,48.959z"/>
					
						<linearGradient id="SVGID_1_" gradientUnits="userSpaceOnUse" x1="-403.9453" y1="1003.1172" x2="-445.3375" y2="1019.2897" gradientTransform="matrix(1 0 0 1 471.04 -969.6602)">
						<stop  offset="0" style="stop-color:#FFFFFF"/>
						<stop  offset="1" style="stop-color:#1F5221"/>
					</linearGradient>
					<path fill="url(#SVGID_1_)" stroke="#999999" stroke-width="0.9741" d="M45.791,43.69c7.558-3.09,15.539-3.484,22.47-1.639
						V31.62c-8.167-1.738-17.336-1.046-26.054,2.516c-8.428,3.445-15.048,9.025-19.31,15.543l8.24,5.285
						C34.559,50.254,39.554,46.24,45.791,43.69z"/>
					
						<linearGradient id="SVGID_2_" gradientUnits="userSpaceOnUse" x1="-407.0303" y1="1037.2266" x2="-399.1142" y2="994.8187" gradientTransform="matrix(1 0 0 1 471.04 -969.6602)">
						<stop  offset="0" style="stop-color:#FFFFFF"/>
						<stop  offset="1" style="stop-color:#1F5221"/>
					</linearGradient>
					<path fill="url(#SVGID_2_)" stroke="#999999" stroke-width="0.9741" d="M72.138,22.913l-8.698,4.493
						c2.37,5.321,3.35,11.651,2.438,18.329c-1.102,8.085-4.745,15.188-9.805,20.267l8.993,5.259
						c5.604-6.207,9.603-14.506,10.878-23.854C77.174,38.385,75.653,29.862,72.138,22.913z"/>
					
						<linearGradient id="SVGID_3_" gradientUnits="userSpaceOnUse" x1="-432" y1="1016.2588" x2="-402.6558" y2="1051.8748" gradientTransform="matrix(1 0 0 1 471.04 -969.6602)">
						<stop  offset="0" style="stop-color:#FFFFFF"/>
						<stop  offset="1" style="stop-color:#1F5221"/>
					</linearGradient>
					<path fill="url(#SVGID_3_)" stroke="#999999" stroke-width="0.9741" d="M54.327,63.227
						c-6.161-4.773-10.384-11.106-12.379-17.694c-3.281,1.814-6.125,4.06-8.47,6.591c2.785,7.09,7.652,13.781,14.368,18.982
						c7.198,5.576,15.339,8.521,23.115,8.951l0.459-9.78C65.627,69.67,59.656,67.354,54.327,63.227z"/>
				</g>
				<g>
					<path fill="#FFFFFF" d="M111.899,13.204h26.662c13.877,0,24.33,3.203,31.362,9.607c7.031,6.404,10.546,16.313,10.546,29.724
						c0,13.413-3.516,23.473-10.546,30.18c-7.032,6.704-17.485,10.059-31.362,10.059h-26.662V13.204z M128.816,78.501h9.605
						c9.7,0,16.151-2.228,19.353-6.683c1.717-2.32,3.028-5.069,3.934-8.25c0.905-3.178,1.357-6.854,1.357-11.033
						c0-4.084-0.452-7.634-1.357-10.65c-0.905-3.017-2.217-5.639-3.934-7.867c-3.341-4.456-9.792-6.683-19.353-6.683h-9.605V78.501z
						"/>
					<path fill="#FFFFFF" d="M219.662,94.024c-4.827,0-9.119-0.684-12.878-2.052c-3.759-1.369-6.926-3.343-9.502-5.917
						c-2.576-2.576-4.524-5.709-5.847-9.396c-1.323-3.69-1.984-7.879-1.984-12.566c0-4.734,0.673-8.969,2.02-12.705
						c1.346-3.734,3.283-6.903,5.813-9.502c2.529-2.599,5.615-4.583,9.259-5.953c3.643-1.368,7.784-2.053,12.426-2.053
						c4.5,0,8.55,0.65,12.147,1.949c3.595,1.3,6.648,3.203,9.154,5.708c2.505,2.506,4.431,5.604,5.777,9.293
						c1.345,3.688,2.019,7.926,2.019,12.705v4.037h-41.49c0.046,2.877,0.406,5.338,1.08,7.379c0.672,2.043,1.588,3.725,2.75,5.047
						c1.159,1.323,2.517,2.287,4.072,2.891s3.282,0.904,5.187,0.904c3.108,0,5.662-0.649,7.657-1.949
						c1.994-1.299,3.341-3.411,4.038-6.336h15.593c-0.557,3.018-1.625,5.674-3.202,7.972c-1.579,2.296-3.55,4.224-5.918,5.778
						c-2.366,1.556-5.082,2.739-8.144,3.549C226.623,93.62,223.283,94.024,219.662,94.024z M231.496,57.827
						c-0.372-4.918-1.612-8.551-3.725-10.894c-2.111-2.344-5.046-3.516-8.806-3.516c-3.435,0-6.277,1.277-8.527,3.829
						c-2.251,2.552-3.493,6.08-3.724,10.58L231.496,57.827L231.496,57.827z"/>
					<path fill="#FFFFFF" d="M294.496,94.024c-5.616,0-10.767-0.894-15.454-2.68c-4.688-1.783-8.703-4.533-12.043-8.248
						c-3.436-3.759-5.952-8.121-7.554-13.087c-1.601-4.966-2.401-10.628-2.401-16.987c0-12.714,3.317-22.763,9.954-30.142
						c3.434-3.712,7.471-6.483,12.112-8.317c4.641-1.833,9.77-2.75,15.384-2.75c4.456,0,8.54,0.534,12.253,1.602
						c3.712,1.067,7.1,2.714,10.163,4.943c3.759,2.783,6.521,5.964,8.284,9.537c1.763,3.573,2.899,7.611,3.411,12.112h-16.986
						c-0.557-4.315-2.32-7.692-5.29-10.128c-2.97-2.438-6.916-3.655-11.835-3.655c-3.017,0-5.768,0.592-8.249,1.775
						c-2.483,1.184-4.595,2.914-6.334,5.186c-1.741,2.274-3.087,5.082-4.038,8.423c-0.952,3.342-1.427,7.147-1.427,11.417
						c0,4.27,0.464,8.064,1.393,11.382c0.928,3.318,2.25,6.126,3.969,8.423c1.716,2.297,3.804,4.039,6.265,5.221
						c2.458,1.185,5.221,1.775,8.284,1.775c4.918,0,8.864-1.264,11.835-3.793c2.969-2.529,4.777-6.162,5.429-10.895h16.847
						c-0.511,4.641-1.636,8.76-3.376,12.356c-1.739,3.597-4.143,6.695-7.205,9.293c-3.063,2.507-6.521,4.339-10.373,5.499
						C303.661,93.445,299.323,94.024,294.496,94.024z"/>
					<path fill="#FFFFFF" d="M372.671,94.024c-10.813,0-19.283-2.296-25.409-6.891c-6.125-4.594-9.444-11.557-9.954-20.885H353.6
						c0.556,4.781,2.423,8.354,5.603,10.721c3.179,2.367,7.529,3.551,13.053,3.551c5.058,0,9.063-0.881,12.009-2.646
						c2.946-1.762,4.419-4.314,4.419-7.656c0-1.484-0.357-2.738-1.076-3.76c-0.721-1.02-1.811-1.914-3.272-2.68
						c-1.462-0.766-3.285-1.473-5.465-2.123c-2.182-0.65-4.758-1.346-7.726-2.089l-2.995-0.835
						c-3.76-0.975-7.333-1.961-10.721-2.959c-3.389-0.998-6.358-2.32-8.91-3.969c-2.553-1.646-4.583-3.781-6.092-6.403
						c-1.508-2.622-2.262-6.022-2.262-10.199c0-3.992,0.835-7.46,2.506-10.408c1.671-2.946,3.934-5.384,6.787-7.309
						c2.854-1.926,6.161-3.352,9.919-4.282c3.76-0.926,7.729-1.392,11.905-1.392c4.825,0,9.199,0.568,13.122,1.706
						c3.922,1.138,7.286,2.773,10.096,4.908c2.809,2.136,4.998,4.746,6.576,7.831c1.578,3.087,2.436,6.579,2.578,10.477h-16.432
						c-0.418-3.759-1.983-6.601-4.699-8.527c-2.715-1.924-6.463-2.889-11.242-2.889c-4.595,0-8.122,0.825-10.581,2.472
						c-2.461,1.647-3.691,3.91-3.691,6.788c0,1.346,0.313,2.495,0.94,3.445c0.627,0.95,1.601,1.787,2.923,2.505
						c1.323,0.721,3.017,1.381,5.083,1.984c2.064,0.603,4.536,1.252,7.414,1.949c2.877,0.649,5.674,1.3,8.389,1.948
						c2.714,0.649,5.269,1.393,7.657,2.228c2.393,0.836,4.57,1.822,6.545,2.959c1.973,1.138,3.654,2.519,5.047,4.143
						c1.393,1.625,2.48,3.55,3.271,5.777c0.787,2.228,1.184,4.851,1.184,7.866c0,3.944-0.775,7.45-2.332,10.511
						c-1.555,3.064-3.76,5.64-6.611,7.728c-2.855,2.089-6.303,3.679-10.34,4.77C382.139,93.479,377.637,94.024,372.671,94.024z"/>
					<path fill="#FFFFFF" d="M446.809,13.204l-23.041,79.569h-13.574l22.973-79.569H446.809z"/>
					<path fill="#FFFFFF" d="M539.047,92.774h-15.246V29.912l-18.934,62.862h-15.453l-19.354-62.862v62.862h-15.385v-79.57h24.367
						l17.959,60.146l17.82-60.146h24.227v79.569L539.047,92.774L539.047,92.774z"/>
					<path fill="#FFFFFF" d="M581.232,94.024c-4.828,0-9.119-0.684-12.879-2.052c-3.76-1.369-6.93-3.343-9.506-5.917
						c-2.572-2.576-4.521-5.709-5.846-9.396c-1.32-3.69-1.98-7.879-1.98-12.566c0-4.734,0.672-8.969,2.018-12.705
						c1.346-3.734,3.283-6.903,5.813-9.502c2.529-2.599,5.615-4.583,9.26-5.953c3.645-1.368,7.783-2.053,12.428-2.053
						c4.502,0,8.549,0.65,12.146,1.949c3.596,1.3,6.648,3.203,9.152,5.708c2.508,2.506,4.432,5.604,5.779,9.293
						c1.348,3.688,2.018,7.926,2.018,12.705v4.037h-41.488c0.047,2.877,0.402,5.338,1.078,7.379c0.672,2.043,1.59,3.725,2.75,5.047
						c1.158,1.323,2.518,2.287,4.07,2.891c1.555,0.604,3.281,0.904,5.188,0.904c3.107,0,5.66-0.649,7.658-1.949
						c1.992-1.299,3.342-3.411,4.035-6.336h15.596c-0.561,3.018-1.625,5.674-3.203,7.972c-1.578,2.296-3.549,4.224-5.916,5.778
						c-2.367,1.556-5.082,2.739-8.146,3.549C588.193,93.62,584.852,94.024,581.232,94.024z M593.066,57.827
						c-0.373-4.918-1.611-8.551-3.727-10.894c-2.109-2.344-5.047-3.516-8.807-3.516c-3.436,0-6.275,1.277-8.525,3.829
						c-2.252,2.552-3.494,6.08-3.725,10.58L593.066,57.827L593.066,57.827z"/>
					<path fill="#FFFFFF" d="M652.518,94.024c-10.816,0-19.285-2.296-25.41-6.891c-6.127-4.594-9.445-11.557-9.955-20.885h16.289
						c0.557,4.781,2.426,8.354,5.604,10.721c3.18,2.367,7.531,3.551,13.053,3.551c5.059,0,9.063-0.881,12.01-2.646
						c2.945-1.762,4.422-4.314,4.422-7.656c0-1.484-0.361-2.738-1.08-3.76c-0.719-1.02-1.811-1.914-3.271-2.68
						c-1.461-0.766-3.281-1.473-5.465-2.123c-2.182-0.65-4.758-1.346-7.727-2.089l-2.996-0.835
						c-3.758-0.975-7.332-1.961-10.723-2.959c-3.389-0.998-6.355-2.32-8.906-3.969c-2.555-1.646-4.584-3.781-6.096-6.403
						c-1.506-2.622-2.262-6.022-2.262-10.199c0-3.992,0.836-7.46,2.506-10.408c1.67-2.946,3.938-5.384,6.787-7.309
						c2.855-1.926,6.162-3.352,9.92-4.282c3.76-0.926,7.729-1.392,11.904-1.392c4.828,0,9.201,0.568,13.123,1.706
						c3.92,1.138,7.283,2.773,10.094,4.908c2.807,2.136,5,4.746,6.578,7.831c1.576,3.087,2.436,6.579,2.576,10.477h-16.432
						c-0.416-3.759-1.98-6.601-4.697-8.527c-2.715-1.924-6.463-2.889-11.242-2.889c-4.594,0-8.121,0.825-10.58,2.472
						c-2.461,1.647-3.689,3.91-3.689,6.788c0,1.346,0.313,2.495,0.938,3.445c0.627,0.95,1.602,1.787,2.926,2.505
						c1.32,0.721,3.018,1.381,5.08,1.984c2.064,0.603,4.537,1.252,7.416,1.949c2.875,0.649,5.672,1.3,8.391,1.948
						c2.713,0.649,5.264,1.393,7.652,2.228c2.393,0.836,4.572,1.822,6.545,2.959c1.975,1.138,3.654,2.519,5.047,4.143
						c1.395,1.625,2.484,3.55,3.273,5.777c0.785,2.228,1.182,4.851,1.182,7.866c0,3.944-0.773,7.45-2.332,10.511
						c-1.555,3.064-3.756,5.64-6.609,7.728c-2.854,2.089-6.301,3.679-10.338,4.77C661.984,93.479,657.48,94.024,652.518,94.024z"/>
					<path fill="#FFFFFF" d="M763.758,92.774H746.91V58.106h-31.951v34.668h-16.916v-79.57h16.916v30.839h31.951V13.204h16.848
						V92.774z"/>
				</g>
			</g>
		</g>
	</g>
	<rect x="276.403" y="166.654" fill="#FFFF00" width="218.185" height="74.346"/>
	<g>
		<path d="M303.833,179.479h23.23v4.672h-17.599v14.336h16.255v4.607h-16.255v19.518h-5.632L303.833,179.479L303.833,179.479z"/>
		<path d="M339.48,182.936c0,1.92-1.344,3.455-3.584,3.455c-2.048,0-3.392-1.535-3.392-3.455s1.408-3.521,3.52-3.521
			C338.073,179.414,339.48,180.951,339.48,182.936z M333.209,222.611v-30.973h5.632v30.973H333.209z"/>
		<path d="M348.185,200.021c0-3.264-0.064-5.824-0.256-8.383h4.991l0.32,5.119h0.128c1.536-2.881,5.12-5.76,10.239-5.76
			c4.288,0,10.943,2.561,10.943,13.184v18.43h-5.632v-17.854c0-4.992-1.855-9.152-7.167-9.152c-3.648,0-6.528,2.625-7.552,5.76
			c-0.256,0.703-0.384,1.664-0.384,2.623v18.623h-5.632v-22.59H348.185z"/>
		<path d="M410.393,177.176v37.438c0,2.75,0.127,5.887,0.256,7.998h-4.992l-0.256-5.375h-0.191c-1.664,3.455-5.377,6.08-10.432,6.08
			c-7.488,0-13.313-6.336-13.313-15.744c-0.063-10.303,6.401-16.574,13.889-16.574c4.799,0,7.936,2.24,9.344,4.672h0.127v-18.494
			H410.393L410.393,177.176z M404.822,204.244c0-0.703-0.063-1.664-0.256-2.367c-0.832-3.52-3.902-6.465-8.127-6.465
			c-5.824,0-9.279,5.121-9.279,11.904c0,6.27,3.136,11.455,9.152,11.455c3.775,0,7.23-2.561,8.254-6.721
			c0.191-0.768,0.256-1.535,0.256-2.432V204.244z"/>
		<path d="M422.936,208.148c0.129,7.615,4.928,10.752,10.623,10.752c4.031,0,6.527-0.705,8.576-1.6l1.023,4.029
			c-1.984,0.896-5.439,1.984-10.367,1.984c-9.535,0-15.23-6.336-15.23-15.678c0-9.346,5.504-16.641,14.527-16.641
			c10.174,0,12.799,8.832,12.799,14.527c0,1.152-0.064,1.984-0.191,2.623h-21.76V208.148z M439.447,204.117
			c0.063-3.52-1.473-9.088-7.809-9.088c-5.76,0-8.191,5.186-8.639,9.088H439.447z"/>
		<path d="M451.863,201.301c0-3.646-0.064-6.783-0.256-9.662h4.928l0.256,6.143h0.193c1.406-4.16,4.861-6.783,8.639-6.783
			c0.576,0,1.023,0.064,1.535,0.129v5.313c-0.576-0.129-1.152-0.129-1.92-0.129c-3.967,0-6.783,2.943-7.551,7.168
			c-0.129,0.768-0.191,1.729-0.191,2.623v16.512h-5.633V201.301z"/>
	</g>
</g>
</svg>
