<?xml version="1.0" encoding="utf-8"?>
<!-- Generator: Adobe Illustrator 14.0.0, SVG Export Plug-In . SVG Version: 6.00 Build 43363)  -->
<!DOCTYPE svg PUBLIC "-//W3C//DTD SVG 1.1//EN" "http://www.w3.org/Graphics/SVG/1.1/DTD/svg11.dtd">
<svg version="1.1" id="Camada_1" xmlns="http://www.w3.org/2000/svg" xmlns:xlink="http://www.w3.org/1999/xlink" x="0px" y="0px"
	 width="774px" height="250px" viewBox="0 0 774 250" enable-background="new 0 0 774 250" xml:space="preserve">
<g>
	<g>
		<g>
			<path fill="#FFFFFF" d="M11.335,112.886c2.863-0.46,6.595-0.768,10.48-0.768c6.596,0,10.889,1.228,14.162,3.683
				c3.578,2.657,5.828,6.899,5.828,12.986c0,6.593-2.403,11.146-5.675,13.954c-3.63,3.017-9.202,4.448-15.951,4.448
				c-4.039,0-6.953-0.254-8.845-0.51L11.335,112.886L11.335,112.886z M19.106,140.951c0.665,0.152,1.789,0.152,2.709,0.152
				c7.105,0.054,11.759-3.832,11.759-12.064c0-7.155-4.192-10.939-10.94-10.939c-1.688,0-2.863,0.154-3.528,0.307V140.951z"/>
			<path fill="#FFFFFF" d="M52.645,136.813c0.205,3.221,3.425,4.754,7.054,4.754c2.659,0,4.806-0.358,6.902-1.074l1.022,5.265
				c-2.557,1.074-5.675,1.586-9.049,1.586c-8.487,0-13.343-4.907-13.343-12.729c0-6.341,3.937-13.343,12.627-13.343
				c8.078,0,11.145,6.287,11.145,12.474c0,1.33-0.153,2.505-0.255,3.067H52.645L52.645,136.813z M61.796,131.494
				c0-1.895-0.818-5.061-4.398-5.061c-3.271,0-4.6,3.015-4.805,5.061H61.796z"/>
			<path fill="#FFFFFF" d="M73.605,140.083c1.432,0.868,4.397,1.841,6.698,1.841c2.352,0,3.324-0.767,3.324-2.046
				c0-1.329-0.768-1.94-3.631-2.914c-5.215-1.737-7.209-4.548-7.157-7.516c0-4.701,3.988-8.23,10.173-8.23
				c2.915,0,5.471,0.716,7.004,1.483l-1.329,5.367c-1.125-0.612-3.323-1.43-5.419-1.43c-1.892,0-2.966,0.766-2.966,1.992
				s0.971,1.842,4.039,2.912c4.754,1.637,6.697,4.09,6.748,7.723c0,4.699-3.63,8.127-10.787,8.127c-3.272,0-6.186-0.767-8.077-1.787
				L73.605,140.083z"/>
			<path fill="#FFFFFF" d="M114.606,146.167c-1.381,0.664-3.987,1.176-6.954,1.176c-8.078,0-13.241-4.96-13.241-12.782
				c0-7.309,5.01-13.289,14.314-13.289c2.045,0,4.294,0.357,5.93,0.972l-1.228,5.776c-0.92-0.41-2.3-0.768-4.345-0.768
				c-4.09,0-6.749,2.915-6.697,7.002c0,4.553,3.067,7.006,6.851,7.006c1.841,0,3.272-0.307,4.448-0.818L114.606,146.167z"/>
			<path fill="#FFFFFF" d="M118.901,130.063c0-3.684-0.051-6.086-0.205-8.23h6.646l0.308,4.602h0.204
				c1.278-3.682,4.295-5.216,6.749-5.216c0.715,0,1.073,0.054,1.636,0.154v7.31c-0.614-0.102-1.228-0.203-2.097-0.203
				c-2.863,0-4.806,1.535-5.317,3.938c-0.103,0.509-0.153,1.123-0.153,1.733v12.682h-7.77L118.901,130.063L118.901,130.063z"/>
			<path fill="#FFFFFF" d="M146.355,114.878c0,2.149-1.586,3.887-4.193,3.887c-2.454,0-4.038-1.738-4.038-3.887
				c0-2.197,1.636-3.885,4.141-3.885C144.77,110.994,146.303,112.681,146.355,114.878z M138.328,146.831v-24.999h7.771v24.999
				H138.328z"/>
			<path fill="#FFFFFF" d="M161.025,115.083v6.749h5.573v5.727h-5.573v9.047c0,3.019,0.767,4.396,3.067,4.396
				c1.074,0,1.584-0.051,2.3-0.203l0.052,5.881c-0.971,0.357-2.862,0.663-5.01,0.663c-2.505,0-4.601-0.87-5.879-2.146
				c-1.432-1.483-2.147-3.889-2.147-7.415v-10.224h-3.324v-5.728h3.324v-4.653L161.025,115.083z"/>
			<path fill="#FFFFFF" d="M195.535,134.051c0,9.15-6.493,13.344-13.19,13.344c-7.311,0-12.934-4.807-12.934-12.884
				c0-8.128,5.317-13.293,13.394-13.293C190.422,121.218,195.535,126.482,195.535,134.051z M177.438,134.307
				c0,4.295,1.789,7.518,5.111,7.518c3.068,0,4.96-3.018,4.96-7.568c0-3.681-1.433-7.464-4.96-7.464
				C178.869,126.79,177.438,130.625,177.438,134.307z"/>
			<path fill="#FFFFFF" d="M200.341,130.063c0-3.684-0.051-6.086-0.205-8.23h6.647l0.305,4.602h0.205
				c1.278-3.682,4.294-5.216,6.749-5.216c0.716,0,1.074,0.054,1.635,0.154v7.31c-0.612-0.102-1.227-0.203-2.095-0.203
				c-2.864,0-4.806,1.535-5.318,3.938c-0.103,0.509-0.153,1.123-0.153,1.733v12.682h-7.77V130.063z"/>
			<path fill="#FFFFFF" d="M225.341,136.813c0.204,3.221,3.426,4.754,7.054,4.754c2.659,0,4.807-0.358,6.903-1.074l1.022,5.265
				c-2.556,1.074-5.674,1.586-9.048,1.586c-8.487,0-13.343-4.907-13.343-12.729c0-6.341,3.936-13.343,12.627-13.343
				c8.078,0,11.145,6.287,11.145,12.474c0,1.33-0.153,2.505-0.255,3.067H225.341L225.341,136.813z M234.493,131.494
				c0-1.895-0.818-5.061-4.397-5.061c-3.271,0-4.601,3.015-4.805,5.061H234.493z"/>
			<path fill="#FFFFFF" d="M246.302,140.083c1.432,0.868,4.396,1.841,6.698,1.841c2.351,0,3.323-0.767,3.323-2.046
				c0-1.329-0.768-1.94-3.63-2.914c-5.216-1.737-7.209-4.548-7.158-7.516c0-4.701,3.988-8.23,10.172-8.23
				c2.915,0,5.471,0.716,7.005,1.483l-1.329,5.367c-1.125-0.612-3.323-1.43-5.42-1.43c-1.891,0-2.964,0.766-2.964,1.992
				s0.97,1.842,4.038,2.912c4.755,1.637,6.697,4.09,6.749,7.723c0,4.699-3.631,8.127-10.787,8.127c-3.272,0-6.187-0.767-8.078-1.787
				L246.302,140.083z"/>
			<path fill="#FFFFFF" d="M284.85,136.813c0.204,3.221,3.425,4.754,7.056,4.754c2.658,0,4.805-0.358,6.901-1.074l1.023,5.265
				c-2.556,1.074-5.674,1.586-9.05,1.586c-8.487,0-13.343-4.907-13.343-12.729c0-6.341,3.936-13.343,12.627-13.343
				c8.077,0,11.144,6.287,11.144,12.474c0,1.33-0.153,2.505-0.254,3.067H284.85L284.85,136.813z M294.001,131.494
				c0-1.895-0.818-5.061-4.396-5.061c-3.272,0-4.601,3.015-4.805,5.061H294.001z"/>
			<path fill="#FFFFFF" d="M305.862,129.809c0-3.119-0.102-5.729-0.203-7.977h6.595l0.308,3.375h0.153
				c1.072-1.637,3.322-3.989,7.566-3.989c3.271,0,5.776,1.688,6.852,4.296h0.102c0.972-1.33,2.046-2.352,3.272-3.067
				c1.38-0.765,2.913-1.229,4.754-1.229c4.807,0,8.436,3.374,8.436,10.892v14.724h-7.565v-13.601c0-3.631-1.177-5.726-3.683-5.726
				c-1.839,0-3.066,1.228-3.629,2.71c-0.153,0.563-0.256,1.328-0.256,1.994v14.62H321v-14.058c0-3.121-1.125-5.269-3.63-5.269
				c-1.995,0-3.17,1.532-3.631,2.763c-0.254,0.611-0.306,1.328-0.306,1.996v14.565h-7.566v-17.021H305.862L305.862,129.809z"/>
			<path fill="#FFFFFF" d="M385.666,145.912c-1.38,0.664-4.65,1.48-8.792,1.48c-11.911,0-18.046-7.461-18.046-17.277
				c0-11.76,8.385-18.252,18.813-18.252c4.038,0,7.104,0.767,8.483,1.534l-1.635,6.134c-1.534-0.663-3.731-1.278-6.545-1.278
				c-6.135,0-10.938,3.731-10.938,11.399c0,6.902,4.091,11.248,10.99,11.248c2.403,0,4.96-0.459,6.543-1.125L385.666,145.912z"/>
			<path fill="#FFFFFF" d="M398.397,114.878c0,2.149-1.585,3.887-4.192,3.887c-2.453,0-4.039-1.738-4.039-3.887
				c0-2.197,1.637-3.885,4.145-3.885C396.812,110.994,398.345,112.681,398.397,114.878z M390.37,146.831v-24.999h7.772v24.999
				H390.37z"/>
			<path fill="#FFFFFF" d="M410.359,136.813c0.205,3.221,3.426,4.754,7.057,4.754c2.657,0,4.806-0.358,6.9-1.074l1.021,5.265
				c-2.557,1.074-5.676,1.586-9.05,1.586c-8.483,0-13.344-4.907-13.344-12.729c0-6.341,3.938-13.343,12.627-13.343
				c8.079,0,11.146,6.287,11.146,12.474c0,1.33-0.152,2.505-0.257,3.067H410.359L410.359,136.813z M417.926,110.942l5.062,7.771
				h-5.062l-2.56-4.448h-0.101l-2.606,4.448h-5.063l5.11-7.771H417.926z M419.512,131.494c0-1.895-0.818-5.061-4.397-5.061
				c-3.271,0-4.601,3.015-4.806,5.061H419.512z"/>
			<path fill="#FFFFFF" d="M431.372,129.809c0-3.119-0.102-5.729-0.204-7.977h6.749l0.357,3.477h0.154
				c1.021-1.638,3.525-4.037,7.719-4.037c5.112,0,8.948,3.426,8.948,10.787v14.772h-7.771v-13.854c0-3.22-1.124-5.418-3.938-5.418
				c-2.147,0-3.427,1.48-3.986,2.914c-0.204,0.51-0.256,1.229-0.256,1.943v14.415h-7.771L431.372,129.809L431.372,129.809z"/>
			<path fill="#FFFFFF" d="M480.095,146.167c-1.382,0.664-3.988,1.176-6.953,1.176c-8.078,0-13.241-4.96-13.241-12.782
				c0-7.309,5.01-13.289,14.314-13.289c2.045,0,4.295,0.357,5.931,0.972l-1.229,5.776c-0.92-0.41-2.3-0.768-4.347-0.768
				c-4.09,0-6.748,2.915-6.695,7.002c0,4.553,3.066,7.006,6.851,7.006c1.842,0,3.271-0.307,4.447-0.818L480.095,146.167z"/>
			<path fill="#FFFFFF" d="M492.414,114.878c0,2.149-1.585,3.887-4.19,3.887c-2.453,0-4.038-1.738-4.038-3.887
				c0-2.197,1.637-3.885,4.142-3.885C490.829,110.994,492.363,112.681,492.414,114.878z M484.389,146.831v-24.999h7.771v24.999
				H484.389z"/>
			<path fill="#FFFFFF" d="M519.204,140.799c0,2.352,0.103,4.651,0.409,6.032h-7.006l-0.46-2.504h-0.153
				c-1.635,1.991-4.189,3.065-7.158,3.065c-5.061,0-8.075-3.682-8.075-7.67c0-6.492,5.827-9.56,14.674-9.56v-0.308
				c0-1.381-0.717-3.271-4.551-3.271c-2.56,0-5.268,0.867-6.901,1.892l-1.433-5.011c1.737-0.971,5.161-2.25,9.713-2.25
				c8.335,0,10.94,4.907,10.94,10.839L519.204,140.799L519.204,140.799z M511.689,135.021c-4.092,0-7.261,0.971-7.261,3.937
				c0,1.993,1.329,2.966,3.065,2.966c1.894,0,3.526-1.277,4.037-2.863c0.104-0.408,0.156-0.871,0.156-1.33L511.689,135.021
				L511.689,135.021z"/>
			<path fill="#FFFFFF" d="M525.338,140.083c1.434,0.868,4.397,1.841,6.697,1.841c2.354,0,3.322-0.767,3.322-2.046
				c0-1.329-0.766-1.94-3.629-2.914c-5.216-1.737-7.209-4.548-7.16-7.516c0-4.701,3.988-8.23,10.176-8.23
				c2.912,0,5.471,0.716,7.003,1.483l-1.327,5.367c-1.128-0.612-3.323-1.43-5.42-1.43c-1.892,0-2.967,0.766-2.967,1.992
				s0.973,1.842,4.039,2.912c4.753,1.637,6.696,4.09,6.747,7.723c0,4.699-3.63,8.127-10.786,8.127c-3.271,0-6.184-0.767-8.076-1.787
				L525.338,140.083z"/>
			<path fill="#FFFFFF" d="M582.137,110.535v28.833c0,2.813,0.103,5.776,0.205,7.464h-6.901l-0.308-3.63h-0.153
				c-1.532,2.762-4.601,4.19-7.821,4.19c-5.932,0-10.687-5.061-10.687-12.832c-0.05-8.435,5.217-13.346,11.195-13.346
				c3.117,0,5.471,1.129,6.595,2.813h0.104v-13.494L582.137,110.535L582.137,110.535z M574.366,132.416c0-0.411,0-0.975-0.103-1.434
				c-0.458-2.045-2.147-3.783-4.549-3.783c-3.581,0-5.369,3.169-5.369,7.107c0,4.24,2.098,6.899,5.314,6.899
				c2.25,0,4.091-1.534,4.553-3.731c0.101-0.563,0.151-1.178,0.151-1.791L574.366,132.416L574.366,132.416z"/>
			<path fill="#FFFFFF" d="M609.182,140.799c0,2.352,0.102,4.651,0.408,6.032h-7.005l-0.459-2.504h-0.153
				c-1.638,1.991-4.191,3.065-7.158,3.065c-5.061,0-8.076-3.682-8.076-7.67c0-6.492,5.827-9.56,14.672-9.56v-0.308
				c0-1.381-0.716-3.271-4.549-3.271c-2.558,0-5.267,0.867-6.901,1.892l-1.433-5.011c1.738-0.971,5.163-2.252,9.712-2.252
				c8.336,0,10.941,4.909,10.941,10.841L609.182,140.799L609.182,140.799z M601.668,135.021c-4.092,0-7.262,0.971-7.262,3.937
				c0,1.993,1.331,2.966,3.068,2.966c1.892,0,3.525-1.277,4.038-2.863c0.104-0.408,0.153-0.871,0.153-1.33L601.668,135.021
				L601.668,135.021z"/>
			<path fill="#FFFFFF" d="M626.207,138.807c2.043,1.071,5.315,2.146,8.642,2.146c3.579,0,5.471-1.48,5.471-3.729
				c0-2.147-1.635-3.375-5.776-4.807c-5.727-2.048-9.51-5.217-9.51-10.227c0-5.88,4.959-10.327,13.036-10.327
				c3.938,0,6.75,0.767,8.793,1.739l-1.737,6.235c-1.328-0.665-3.832-1.635-7.156-1.635c-3.374,0-5.01,1.586-5.01,3.322
				c0,2.197,1.892,3.168,6.39,4.855c6.085,2.25,8.896,5.422,8.896,10.277c0,5.775-4.396,10.685-13.854,10.685
				c-3.938,0-7.82-1.073-9.764-2.146L626.207,138.807z"/>
			<path fill="#FFFFFF" d="M674.52,140.799c0,2.352,0.102,4.651,0.409,6.032h-7.005l-0.459-2.504h-0.155
				c-1.636,1.991-4.191,3.065-7.156,3.065c-5.063,0-8.077-3.682-8.077-7.67c0-6.492,5.827-9.56,14.671-9.56v-0.308
				c0-1.381-0.715-3.271-4.549-3.271c-2.557,0-5.268,0.867-6.901,1.892l-1.432-5.011c1.738-0.971,5.163-2.252,9.713-2.252
				c8.333,0,10.941,4.909,10.941,10.841V140.799L674.52,140.799z M667.004,135.021c-4.091,0-7.26,0.971-7.26,3.937
				c0,1.993,1.33,2.966,3.067,2.966c1.893,0,3.526-1.277,4.038-2.863c0.102-0.408,0.154-0.871,0.154-1.33V135.021L667.004,135.021z"
				/>
			<path fill="#FFFFFF" d="M704.273,138.807c0,3.271,0.102,5.928,0.206,8.024h-6.751l-0.357-3.524h-0.15
				c-0.974,1.53-3.323,4.086-7.823,4.086c-5.11,0-8.793-3.168-8.793-10.889v-14.672h7.77v13.445c0,3.631,1.178,5.826,3.938,5.826
				c2.146,0,3.424-1.481,3.886-2.707c0.204-0.461,0.306-1.023,0.306-1.688v-14.877h7.771L704.273,138.807L704.273,138.807z
				 M700.898,110.942l-6.234,7.771h-5.316l4.396-7.771H700.898z"/>
			<path fill="#FFFFFF" d="M734.744,110.535v28.833c0,2.813,0.103,5.776,0.204,7.464h-6.901l-0.307-3.63h-0.154
				c-1.531,2.762-4.601,4.19-7.821,4.19c-5.93,0-10.685-5.061-10.685-12.832c-0.052-8.435,5.212-13.346,11.193-13.346
				c3.12,0,5.472,1.129,6.597,2.813h0.103v-13.494L734.744,110.535L734.744,110.535z M726.972,132.416c0-0.411,0-0.975-0.104-1.434
				c-0.459-2.045-2.146-3.783-4.549-3.783c-3.579,0-5.368,3.169-5.368,7.107c0,4.24,2.098,6.899,5.316,6.899
				c2.249,0,4.091-1.534,4.549-3.731c0.104-0.563,0.154-1.178,0.154-1.791L726.972,132.416L726.972,132.416z"/>
			<path fill="#FFFFFF" d="M746.963,136.813c0.203,3.221,3.428,4.754,7.059,4.754c2.656,0,4.803-0.358,6.898-1.074l1.021,5.265
				c-2.555,1.074-5.674,1.586-9.048,1.586c-8.486,0-13.345-4.907-13.345-12.729c0-6.341,3.938-13.343,12.627-13.343
				c8.08,0,11.146,6.287,11.146,12.474c0,1.33-0.154,2.505-0.255,3.067H746.963L746.963,136.813z M756.114,131.494
				c0-1.895-0.817-5.061-4.396-5.061c-3.271,0-4.603,3.015-4.807,5.061H756.114z"/>
		</g>
		<g>
			<g>
				<g>
					<path fill="#FFFFFF" stroke="#999999" stroke-width="0.9741" d="M52.725,71.11c-5.034,3.873-11.054,5.918-17.235,5.345
						C21.207,75.127,11.5,60.319,13.809,43.383c1.046-7.667,4.388-14.437,9.043-19.45c0,0-9.913,7.525-11.755,19.934
						C7.877,65.553,20.32,83.454,38.133,85.109c8.699,0.81,17.146-2.551,23.853-8.649L52.725,71.11z"/>
					<path fill="#FFFFFF" stroke="#999999" stroke-width="0.9741" d="M84.945,20.7C68.524,7.107,46.049,8.895,35.71,23.492
						c-5.614,7.925-6.614,18.155-3.669,27.938l8.884-6.077c-1.481-7.035-0.409-14.163,3.6-19.823
						c8.291-11.705,25.969-12.707,39.482-2.239c6.117,4.738,10.308,11.018,12.323,17.555C96.331,40.846,95.679,29.585,84.945,20.7z"
						/>
					<path fill="#FFFFFF" stroke="#999999" stroke-width="0.9741" d="M91.118,51.415c-3.68-8.006-10.9-13.671-19.636-16.402v10.675
						c5.972,2.407,10.838,6.637,13.463,12.344c5.992,13.033-1.979,28.846-17.801,35.313c-7.163,2.93-14.697,3.42-21.365,1.896
						c0,0,5.805,4.811,23.141,0.212C89.524,89.985,98.59,67.669,91.118,51.415z"/>
					
						<linearGradient id="SVGID_1_" gradientUnits="userSpaceOnUse" x1="-404.2915" y1="1005.5723" x2="-445.6815" y2="1021.7437" gradientTransform="matrix(1 0 0 1 471.04 -969.6602)">
						<stop  offset="0" style="stop-color:#FFFFFF"/>
						<stop  offset="1" style="stop-color:#1F5221"/>
					</linearGradient>
					<path fill="url(#SVGID_1_)" stroke="#999999" stroke-width="0.9741" d="M45.445,46.145c7.558-3.09,15.539-3.484,22.47-1.639
						v-10.43c-8.167-1.738-17.336-1.046-26.054,2.516c-8.428,3.445-15.048,9.025-19.31,15.543l8.24,5.285
						C34.213,52.71,39.208,48.695,45.445,46.145z"/>
					
						<linearGradient id="SVGID_2_" gradientUnits="userSpaceOnUse" x1="-407.3755" y1="1039.6807" x2="-399.4595" y2="997.2733" gradientTransform="matrix(1 0 0 1 471.04 -969.6602)">
						<stop  offset="0" style="stop-color:#FFFFFF"/>
						<stop  offset="1" style="stop-color:#1F5221"/>
					</linearGradient>
					<path fill="url(#SVGID_2_)" stroke="#999999" stroke-width="0.9741" d="M71.792,25.369l-8.698,4.493
						c2.37,5.321,3.35,11.651,2.438,18.329c-1.102,8.085-4.745,15.188-9.805,20.267l8.993,5.259
						c5.604-6.207,9.603-14.506,10.878-23.854C76.829,40.841,75.308,32.318,71.792,25.369z"/>
					
						<linearGradient id="SVGID_3_" gradientUnits="userSpaceOnUse" x1="-432.3452" y1="1018.7148" x2="-403.0011" y2="1054.3309" gradientTransform="matrix(1 0 0 1 471.04 -969.6602)">
						<stop  offset="0" style="stop-color:#FFFFFF"/>
						<stop  offset="1" style="stop-color:#1F5221"/>
					</linearGradient>
					<path fill="url(#SVGID_3_)" stroke="#999999" stroke-width="0.9741" d="M53.981,65.683
						C47.82,60.91,43.597,54.577,41.603,47.989c-3.281,1.814-6.125,4.06-8.47,6.591c2.785,7.09,7.652,13.781,14.368,18.982
						c7.198,5.576,15.339,8.521,23.115,8.951l0.459-9.78C65.282,72.126,59.311,69.81,53.981,65.683z"/>
				</g>
				<g>
					<path fill="#FFFFFF" d="M111.554,15.66h26.662c13.877,0,24.33,3.203,31.362,9.607c7.031,6.404,10.546,16.313,10.546,29.724
						c0,13.413-3.516,23.473-10.546,30.18c-7.032,6.704-17.485,10.059-31.362,10.059h-26.662V15.66z M128.471,80.957h9.605
						c9.7,0,16.151-2.228,19.353-6.683c1.717-2.32,3.028-5.069,3.934-8.25c0.905-3.178,1.357-6.856,1.357-11.033
						c0-4.084-0.452-7.634-1.357-10.65c-0.905-3.017-2.217-5.639-3.934-7.867c-3.341-4.456-9.792-6.683-19.353-6.683h-9.605V80.957z
						"/>
					<path fill="#FFFFFF" d="M219.316,96.479c-4.827,0-9.119-0.684-12.878-2.052c-3.759-1.369-6.926-3.343-9.502-5.917
						c-2.576-2.576-4.524-5.709-5.847-9.396c-1.323-3.69-1.984-7.879-1.984-12.566c0-4.734,0.673-8.969,2.02-12.705
						c1.346-3.734,3.283-6.903,5.813-9.502c2.529-2.599,5.615-4.583,9.259-5.953c3.643-1.368,7.784-2.053,12.426-2.053
						c4.5,0,8.55,0.65,12.147,1.949c3.595,1.3,6.648,3.203,9.154,5.708c2.505,2.506,4.431,5.604,5.777,9.293
						c1.345,3.688,2.019,7.926,2.019,12.705v4.037h-41.49c0.046,2.877,0.406,5.338,1.08,7.379c0.672,2.043,1.588,3.725,2.75,5.047
						c1.159,1.323,2.517,2.287,4.072,2.891c1.555,0.604,3.282,0.904,5.187,0.904c3.108,0,5.662-0.649,7.657-1.949
						c1.994-1.299,3.341-3.411,4.038-6.336h15.593c-0.557,3.018-1.625,5.674-3.202,7.972c-1.579,2.296-3.55,4.224-5.918,5.778
						c-2.366,1.556-5.082,2.739-8.144,3.549C226.277,96.075,222.938,96.479,219.316,96.479z M231.15,60.282
						c-0.372-4.918-1.612-8.551-3.725-10.894c-2.111-2.344-5.046-3.516-8.806-3.516c-3.435,0-6.277,1.277-8.527,3.829
						c-2.251,2.552-3.493,6.08-3.724,10.58L231.15,60.282L231.15,60.282z"/>
					<path fill="#FFFFFF" d="M294.15,96.479c-5.616,0-10.767-0.894-15.454-2.68c-4.688-1.783-8.703-4.533-12.043-8.248
						c-3.436-3.759-5.952-8.121-7.554-13.087c-1.601-4.966-2.401-10.628-2.401-16.987c0-12.714,3.317-22.763,9.954-30.142
						c3.434-3.712,7.471-6.483,12.112-8.317c4.641-1.833,9.77-2.75,15.384-2.75c4.456,0,8.54,0.534,12.253,1.602
						c3.712,1.067,7.1,2.714,10.163,4.943c3.759,2.783,6.521,5.964,8.284,9.537c1.763,3.573,2.899,7.611,3.411,12.112h-16.986
						c-0.557-4.315-2.32-7.692-5.29-10.128c-2.97-2.437-6.916-3.655-11.835-3.655c-3.017,0-5.768,0.592-8.249,1.775
						c-2.483,1.184-4.595,2.914-6.334,5.186c-1.741,2.274-3.087,5.082-4.038,8.423c-0.952,3.342-1.427,7.147-1.427,11.417
						s0.464,8.064,1.393,11.382c0.928,3.318,2.25,6.126,3.969,8.423c1.716,2.297,3.804,4.039,6.265,5.221
						c2.458,1.185,5.221,1.775,8.284,1.775c4.918,0,8.864-1.264,11.835-3.793c2.969-2.529,4.777-6.162,5.429-10.896h16.847
						c-0.511,4.641-1.636,8.76-3.376,12.356c-1.739,3.597-4.143,6.695-7.205,9.293c-3.063,2.507-6.521,4.339-10.373,5.499
						C303.315,95.9,298.978,96.479,294.15,96.479z"/>
					<path fill="#FFFFFF" d="M372.326,96.479c-10.813,0-19.283-2.296-25.409-6.891c-6.125-4.594-9.444-11.557-9.954-20.885h16.291
						c0.556,4.781,2.423,8.354,5.603,10.721c3.179,2.367,7.529,3.551,13.053,3.551c5.058,0,9.063-0.881,12.009-2.646
						c2.946-1.762,4.418-4.314,4.418-7.656c0-1.484-0.356-2.738-1.076-3.76c-0.721-1.02-1.811-1.914-3.271-2.68
						s-3.285-1.473-5.465-2.123c-2.182-0.65-4.758-1.346-7.726-2.089l-2.995-0.835c-3.76-0.975-7.333-1.961-10.721-2.959
						c-3.389-0.998-6.358-2.32-8.91-3.969c-2.553-1.646-4.583-3.781-6.092-6.403c-1.508-2.622-2.262-6.022-2.262-10.199
						c0-3.992,0.835-7.46,2.506-10.408c1.671-2.946,3.934-5.384,6.787-7.309c2.854-1.926,6.161-3.352,9.919-4.282
						c3.76-0.926,7.729-1.392,11.905-1.392c4.825,0,9.199,0.568,13.122,1.706c3.922,1.138,7.285,2.773,10.096,4.908
						c2.809,2.136,4.998,4.746,6.576,7.831c1.578,3.087,2.436,6.579,2.578,10.477h-16.432c-0.418-3.759-1.983-6.601-4.699-8.527
						c-2.715-1.924-6.463-2.889-11.242-2.889c-4.595,0-8.122,0.825-10.581,2.472c-2.461,1.647-3.691,3.91-3.691,6.788
						c0,1.346,0.313,2.495,0.94,3.445c0.627,0.95,1.601,1.787,2.923,2.505c1.323,0.721,3.017,1.381,5.083,1.984
						c2.064,0.603,4.536,1.252,7.414,1.949c2.877,0.649,5.674,1.3,8.389,1.948c2.714,0.649,5.269,1.393,7.657,2.228
						c2.393,0.836,4.57,1.822,6.545,2.959c1.973,1.138,3.654,2.519,5.047,4.143c1.393,1.625,2.48,3.55,3.271,5.777
						c0.787,2.228,1.184,4.851,1.184,7.866c0,3.944-0.775,7.45-2.332,10.511c-1.555,3.064-3.76,5.64-6.611,7.728
						c-2.854,2.089-6.303,3.679-10.34,4.77C381.793,95.935,377.292,96.479,372.326,96.479z"/>
					<path fill="#FFFFFF" d="M446.463,15.66l-23.041,79.569h-13.574L432.82,15.66H446.463z"/>
					<path fill="#FFFFFF" d="M538.701,95.229h-15.246V32.368L504.521,95.23h-15.453l-19.354-62.862V95.23H454.33V15.66h24.367
						l17.959,60.146l17.82-60.146h24.227v79.569H538.701z"/>
					<path fill="#FFFFFF" d="M580.887,96.479c-4.828,0-9.119-0.684-12.879-2.052c-3.76-1.369-6.93-3.343-9.506-5.917
						c-2.572-2.576-4.521-5.709-5.846-9.396c-1.32-3.69-1.98-7.879-1.98-12.566c0-4.734,0.672-8.969,2.018-12.705
						c1.346-3.734,3.283-6.903,5.813-9.502c2.53-2.599,5.615-4.583,9.26-5.953c3.645-1.368,7.783-2.053,12.428-2.053
						c4.502,0,8.549,0.65,12.146,1.949c3.596,1.3,6.648,3.203,9.152,5.708c2.508,2.506,4.432,5.604,5.779,9.293
						c1.348,3.688,2.018,7.926,2.018,12.705v4.037h-41.488c0.047,2.877,0.402,5.338,1.078,7.379c0.672,2.043,1.59,3.725,2.75,5.047
						c1.158,1.323,2.518,2.287,4.07,2.891c1.555,0.604,3.281,0.904,5.188,0.904c3.107,0,5.66-0.649,7.658-1.949
						c1.992-1.299,3.342-3.411,4.035-6.336h15.596c-0.561,3.018-1.625,5.674-3.203,7.972c-1.578,2.296-3.549,4.224-5.916,5.778
						c-2.367,1.556-5.082,2.739-8.146,3.549C587.848,96.075,584.506,96.479,580.887,96.479z M592.721,60.282
						c-0.373-4.918-1.611-8.551-3.727-10.894c-2.109-2.344-5.047-3.516-8.807-3.516c-3.436,0-6.275,1.277-8.525,3.829
						c-2.252,2.552-3.494,6.08-3.725,10.58L592.721,60.282L592.721,60.282z"/>
					<path fill="#FFFFFF" d="M652.172,96.479c-10.816,0-19.285-2.296-25.41-6.891c-6.127-4.594-9.445-11.557-9.955-20.885h16.289
						c0.557,4.781,2.426,8.354,5.604,10.721c3.18,2.367,7.531,3.551,13.053,3.551c5.059,0,9.063-0.881,12.01-2.646
						c2.945-1.762,4.422-4.314,4.422-7.656c0-1.484-0.361-2.738-1.08-3.76c-0.719-1.02-1.811-1.914-3.271-2.68
						s-3.281-1.473-5.465-2.123c-2.182-0.65-4.758-1.346-7.727-2.089l-2.996-0.835c-3.758-0.975-7.332-1.961-10.723-2.959
						c-3.389-0.998-6.355-2.32-8.906-3.969c-2.555-1.646-4.584-3.781-6.096-6.403c-1.506-2.622-2.262-6.022-2.262-10.199
						c0-3.992,0.836-7.46,2.506-10.408c1.67-2.946,3.938-5.384,6.787-7.309c2.855-1.926,6.162-3.352,9.92-4.282
						c3.76-0.926,7.729-1.392,11.904-1.392c4.828,0,9.201,0.568,13.123,1.706c3.92,1.138,7.283,2.773,10.094,4.908
						c2.807,2.136,5,4.746,6.578,7.831c1.576,3.087,2.436,6.579,2.576,10.477h-16.432c-0.416-3.759-1.98-6.601-4.697-8.527
						c-2.715-1.924-6.463-2.889-11.242-2.889c-4.594,0-8.121,0.825-10.58,2.472c-2.461,1.647-3.689,3.91-3.689,6.788
						c0,1.346,0.313,2.495,0.938,3.445c0.627,0.95,1.602,1.787,2.926,2.505c1.32,0.721,3.018,1.381,5.08,1.984
						c2.064,0.603,4.537,1.252,7.416,1.949c2.875,0.649,5.672,1.3,8.39,1.948c2.713,0.649,5.265,1.393,7.653,2.228
						c2.392,0.836,4.572,1.822,6.545,2.959c1.974,1.138,3.654,2.519,5.047,4.143c1.395,1.625,2.484,3.55,3.273,5.777
						c0.785,2.228,1.182,4.851,1.182,7.866c0,3.944-0.773,7.45-2.332,10.511c-1.555,3.064-3.756,5.64-6.609,7.728
						c-2.854,2.089-6.302,3.679-10.339,4.77C661.639,95.935,657.135,96.479,652.172,96.479z"/>
					<path fill="#FFFFFF" d="M763.412,95.229h-16.848V60.562h-31.951V95.23h-16.916V15.66h16.916v30.839h31.951V15.66h16.848V95.229
						z"/>
				</g>
			</g>
		</g>
	</g>
	<rect x="276.058" y="164.197" fill="#FFFF00" width="218.186" height="74.348"/>
	<g>
		<path d="M303.487,177.023h23.23v4.672h-17.599v14.334h16.255v4.606h-16.255v19.521h-5.632L303.487,177.023L303.487,177.023z"/>
		<path d="M339.135,180.479c0,1.92-1.344,3.455-3.584,3.455c-2.048,0-3.392-1.535-3.392-3.455s1.408-3.52,3.52-3.52
			C337.728,176.959,339.135,178.494,339.135,180.479z M332.864,220.156v-30.975h5.632v30.975H332.864z"/>
		<path d="M347.839,197.564c0-3.265-0.064-5.822-0.256-8.383h4.991l0.32,5.118h0.128c1.536-2.879,5.12-5.758,10.239-5.758
			c4.288,0,10.943,2.56,10.943,13.183v18.432h-5.632v-17.855c0-4.992-1.855-9.15-7.167-9.15c-3.648,0-6.528,2.623-7.552,5.761
			c-0.256,0.703-0.384,1.662-0.384,2.623v18.623h-5.632v-22.593H347.839z"/>
		<path d="M410.047,174.719v37.438c0,2.752,0.128,5.887,0.256,8h-4.992l-0.256-5.377h-0.191c-1.664,3.456-5.376,6.079-10.432,6.079
			c-7.487,0-13.313-6.336-13.313-15.741c-0.063-10.304,6.4-16.574,13.889-16.574c4.8,0,7.936,2.238,9.344,4.67h0.127v-18.493h5.568
			V174.719z M404.478,201.789c0-0.703-0.063-1.664-0.256-2.367c-0.832-3.52-3.903-6.465-8.127-6.465
			c-5.824,0-9.279,5.121-9.279,11.904c0,6.271,3.136,11.455,9.151,11.455c3.775,0,7.23-2.562,8.255-6.721
			c0.191-0.769,0.256-1.535,0.256-2.433V201.789z"/>
		<path d="M422.591,205.693c0.129,7.615,4.928,10.75,10.622,10.75c4.032,0,6.527-0.703,8.576-1.601l1.023,4.031
			c-1.984,0.896-5.439,1.983-10.367,1.983c-9.535,0-15.23-6.336-15.23-15.678c0-9.344,5.505-16.639,14.527-16.639
			c10.174,0,12.799,8.83,12.799,14.525c0,1.151-0.063,1.983-0.191,2.625h-21.759V205.693z M439.103,201.66
			c0.063-3.52-1.474-9.086-7.81-9.086c-5.76,0-8.19,5.184-8.639,9.086H439.103z"/>
		<path d="M451.519,198.846c0-3.647-0.064-6.783-0.256-9.664h4.928l0.256,6.146h0.192c1.406-4.16,4.862-6.783,8.64-6.783
			c0.576,0,1.023,0.063,1.535,0.127v5.313c-0.576-0.129-1.152-0.129-1.92-0.129c-3.967,0-6.783,2.942-7.551,7.168
			c-0.13,0.768-0.192,1.729-0.192,2.623v16.512h-5.632V198.846z"/>
	</g>
</g>
</svg>
