<?xml version="1.0" encoding="utf-8"?>
<!-- Generator: Adobe Illustrator 14.0.0, SVG Export Plug-In . SVG Version: 6.00 Build 43363)  -->
<!DOCTYPE svg PUBLIC "-//W3C//DTD SVG 1.1//EN" "http://www.w3.org/Graphics/SVG/1.1/DTD/svg11.dtd">
<svg version="1.1" id="Camada_1" xmlns="http://www.w3.org/2000/svg" xmlns:xlink="http://www.w3.org/1999/xlink" x="0px" y="0px"
	 width="1600px" height="600px" viewBox="0 0 1600 600" enable-background="new 0 0 1600 600" xml:space="preserve">
<g>
	
		<linearGradient id="SVGID_1_" gradientUnits="userSpaceOnUse" x1="96.1753" y1="404.9824" x2="96.1753" y2="57.1304" gradientTransform="matrix(0.9993 2.876764e-005 -0.1688 0.9923 68.6777 1.2019)">
		<stop  offset="0" style="stop-color:#465099"/>
		<stop  offset="1" style="stop-color:#666FE4"/>
	</linearGradient>
	<path fill="url(#SVGID_1_)" d="M160.995,343.143c7.251,0.001,12.073,5.754,10.848,12.945l-5.796,34.038
		c-1.225,7.192-8.006,12.943-15.257,12.942l-108.774-0.003c-7.252,0-12.073-5.751-10.849-12.942L85.542,70.837
		c1.225-7.191,8.005-12.945,15.258-12.944l108.774,0.003c7.251,0,12.073,5.753,10.848,12.945l-5.388,31.641
		c-1.225,7.191-8.006,12.943-15.257,12.943l-50.762-0.001l-15.838,93.004l34.324,0.001c7.252,0,12.073,5.753,10.849,12.944
		l-4.082,23.971c-1.225,7.191-8.006,12.943-15.258,12.943l-34.325-0.001l-14.451,84.854L160.995,343.143z"/>
	
		<linearGradient id="SVGID_2_" gradientUnits="userSpaceOnUse" x1="268.3145" y1="404.9824" x2="268.3145" y2="62.6294" gradientTransform="matrix(0.9993 2.876764e-005 -0.1688 0.9923 68.6777 1.2019)">
		<stop  offset="0" style="stop-color:#465099"/>
		<stop  offset="1" style="stop-color:#666FE4"/>
	</linearGradient>
	<path fill="url(#SVGID_2_)" d="M414.243,76.1L308.389,390.334c-2.156,7.079-9.782,12.738-16.919,12.739l-46.152-0.002
		c-7.137,0.001-12.833-5.661-12.58-12.739l1.178-314.238c0.254-7.078,5.976-12.74,13.113-12.74l44.25,0.001
		c7.137,0,12.357,5.663,12.104,12.741c-14.877,199.112-14.877,199.112-15.62,211.852c3.597-12.739,3.597-12.739,57.013-211.851
		c2.158-7.078,9.308-12.74,16.444-12.74l44.249,0.001C412.605,63.359,416.399,69.021,414.243,76.1z"/>
	
		<linearGradient id="SVGID_3_" gradientUnits="userSpaceOnUse" x1="416.1108" y1="404.9824" x2="416.1108" y2="62.6299" gradientTransform="matrix(0.9993 2.876764e-005 -0.1688 0.9923 68.6777 1.2019)">
		<stop  offset="0" style="stop-color:#465099"/>
		<stop  offset="1" style="stop-color:#666FE4"/>
	</linearGradient>
	<path fill="url(#SVGID_3_)" d="M452.08,390.338c-1.206,7.078-7.88,12.739-15.016,12.739l-41.871-0.001
		c-7.138,0-11.882-5.661-10.677-12.739L438.031,76.1c1.206-7.078,7.879-12.74,15.017-12.739l41.87,0.001
		c7.136,0,11.882,5.663,10.676,12.741L452.08,390.338z"/>
	
		<linearGradient id="SVGID_4_" gradientUnits="userSpaceOnUse" x1="559.1699" y1="404.9824" x2="559.1699" y2="62.6294" gradientTransform="matrix(0.9993 2.876764e-005 -0.1688 0.9923 68.6777 1.2019)">
		<stop  offset="0" style="stop-color:#465099"/>
		<stop  offset="1" style="stop-color:#666FE4"/>
	</linearGradient>
	<path fill="url(#SVGID_4_)" d="M682.75,144.994l-30.052,176.464c-3.938,23.12-16.039,43.879-34.391,59.448
		c-17.16,14.155-38.034,22.175-59.445,22.175l-66.611-0.002c-7.137-0.001-11.882-5.661-10.677-12.739l53.515-314.237
		c1.206-7.078,7.88-12.74,15.017-12.74l66.611,0.002c21.411,0.001,39.553,8.023,51.891,22.179
		C681.658,101.114,686.688,121.875,682.75,144.994z M616.639,133.669c1.688-9.91-2.266-14.628-9.404-14.627l-11.419-0.001
		l-38.892,228.364l11.42,0.001c8.088,0,12.698-4.718,14.386-14.626L616.639,133.669z"/>
	
		<linearGradient id="SVGID_5_" gradientUnits="userSpaceOnUse" x1="764.2124" y1="384.8555" x2="764.2124" y2="138.0562" gradientTransform="matrix(0.9993 2.876764e-005 -0.1688 0.9923 68.6777 1.2019)">
		<stop  offset="0" style="stop-color:#465099"/>
		<stop  offset="1" style="stop-color:#666FE4"/>
	</linearGradient>
	<path fill="url(#SVGID_5_)" d="M830.179,287.632c-1.496,8.789,8.035,9.589,11.867,8.39c5.105-1.597,10.886-4.794,17.421-14.781
		c5.86-8.389,8.912-21.573,9.349-35.955l0.067-0.4c0.159-41.149-26.09-73.909-64.36-73.91c-4.834,0-9.806,0.799-14.776,1.597
		c-22.503,4.394-42.548,20.375-58.036,40.35c-14.949,19.175-23.258,41.947-23.845,64.318c-0.228,41.549,25.889,72.711,64.162,72.712
		c4.833,0,8.931-0.399,14.372-1.598c6.247-1.198,12.964-2.795,20.357-5.993l14.714,27.168c-11.831,5.593-23.39,9.588-35.011,11.586
		c-7.524,1.598-14.037,1.996-21.289,1.998c-7.251,0-13.963-0.801-20.943-2.399c-13.555-3.197-25.966-8.389-35.68-17.581
		c-10.658-8.389-18.491-19.175-24.233-32.759c-6.012-14.382-8.999-29.963-8.626-46.342c0.039-16.779,3.298-33.559,9.578-49.139
		c5.405-15.181,13.899-29.564,24.739-43.546l0.068-0.4c10.705-13.183,22.682-24.369,36.599-32.758
		c13.583-8.789,28.705-14.781,43.751-17.978c7.524-1.597,14.037-1.997,20.888-1.997c7.654,0,14.365,0.8,21.345,2.397
		c13.556,3.197,25.898,8.79,35.612,17.979c10.522,9.189,18.888,21.574,24.365,34.358c5.677,13.983,8.328,29.164,8.359,45.544
		c-0.249,20.375-5.8,41.148-15.978,58.327c-5.123,8.788-11.652,16.378-18.581,21.571h-0.403
		c-9.889,8.39-19.295,11.586-29.768,11.585c-10.878,0-23.964-3.597-27.982-8.392c-5.692-6.791-6.287-10.385-6.68-15.18
		c-2.831,4.795-7.807,7.989-11.233,9.188c-6.452,2.399-9.339,2.797-14.979,2.797c-14.101-0.001-24.564-4.795-32.662-16.381
		c-8.236-10.787-11.358-25.569-8.637-41.548c2.722-15.981,10.88-30.763,22.856-41.948s24.073-15.979,38.174-15.979
		c8.46,0,19.598,3.197,18.237,11.187l1.7-9.987l29.41,0.001L830.179,287.632z M802.979,260.466
		c2.178-12.785-1.483-26.767-13.166-26.768c-11.684,0-21.72,13.981-23.897,26.767c-2.177,12.784,3.096,26.767,14.78,26.766
		C792.377,287.231,800.802,273.25,802.979,260.466z"/>
	
		<linearGradient id="SVGID_6_" gradientUnits="userSpaceOnUse" x1="961.4492" y1="404.9824" x2="961.4492" y2="57.1304" gradientTransform="matrix(0.9993 2.876764e-005 -0.1688 0.9923 68.6777 1.2019)">
		<stop  offset="0" style="stop-color:#465099"/>
		<stop  offset="1" style="stop-color:#666FE4"/>
	</linearGradient>
	<path fill="url(#SVGID_6_)" d="M1025.701,343.168c7.252,0,12.072,5.753,10.847,12.945l-5.796,34.038
		c-1.226,7.191-8.006,12.942-15.258,12.942l-108.773-0.003c-7.252-0.001-12.074-5.753-10.85-12.943l54.375-319.286
		c1.226-7.19,8.007-12.944,15.26-12.943l108.772,0.003c7.252,0,12.073,5.754,10.849,12.944l-5.389,31.641
		c-1.226,7.191-8.006,12.944-15.257,12.944l-50.762-0.001l-15.837,93.004l34.323,0.001c7.251,0,12.073,5.753,10.848,12.944
		l-4.082,23.971c-1.225,7.19-8.006,12.943-15.258,12.943l-34.323-0.001l-14.451,84.855L1025.701,343.168z"/>
	
		<linearGradient id="SVGID_7_" gradientUnits="userSpaceOnUse" x1="1118.3418" y1="404.9824" x2="1118.3418" y2="115.1074" gradientTransform="matrix(0.9993 2.876764e-005 -0.1688 0.9923 68.6777 1.2019)">
		<stop  offset="0" style="stop-color:#465099"/>
		<stop  offset="1" style="stop-color:#666FE4"/>
	</linearGradient>
	<path fill="url(#SVGID_7_)" d="M1184.454,403.099l-37.465-0.001c-5.238-0.001-9.796-3.994-10.12-9.188l2.963-33.958l-29.006-0.001
		l-8.602,33.958c-2.498,5.194-8.011,9.188-13.65,9.188l-37.468-0.001c-5.641,0-9.255-4.794-7.026-10.786l90.033-266.067
		c1.824-5.993,8.685-10.787,14.324-10.787l18.128,0l0.403,0l18.129,0.001c6.043,0,10.867,4.794,11.055,10.787l-0.596,266.07
		C1195.342,398.306,1190.497,403.1,1184.454,403.099z M1143.082,317.204l8.715-112.659l-29.662,112.658L1143.082,317.204z"/>
	
		<linearGradient id="SVGID_8_" gradientUnits="userSpaceOnUse" x1="1268.5684" y1="410.6201" x2="1268.5684" y2="111.4844" gradientTransform="matrix(0.9993 2.876764e-005 -0.1688 0.9923 68.6777 1.2019)">
		<stop  offset="0" style="stop-color:#465099"/>
		<stop  offset="1" style="stop-color:#666FE4"/>
	</linearGradient>
	<path fill="url(#SVGID_8_)" d="M1350.164,312.415l-5.714,33.559c-3.13,18.378-12.094,33.16-28.508,46.742
		c-12.714,10.785-28.505,15.98-49.855,15.979c-20.547-0.001-33.026-4.796-42.4-15.982c-11.787-13.583-15.714-28.365-12.586-46.743
		l5.986-35.153c1.022-5.995,6.673-10.789,12.716-10.788l33.84,0c6.043,0,10.061,4.793,9.039,10.788l-6.463,37.954
		c-1.361,7.988,6.158,8.788,8.576,8.788c2.015,0,9.804-0.799,11.164-8.788l5.987-35.157c2.111-12.385-1.312-13.583-12.763-26.767
		l-35.503-37.555c-9.039-10.786-12.509-21.174-9.515-38.752c0.136-0.799,6.123-35.956,6.123-35.956
		c3.129-18.377,12.159-33.558,28.574-47.141c13.116-10.788,27.228-15.58,48.176-15.58c20.547,0,33.025,4.794,42.469,15.582
		c11.787,13.583,15.647,28.765,12.519,47.142l-5.239,30.762c-1.021,5.993-6.673,10.787-12.715,10.787l-34.646-0.001
		c-6.043,0-10.062-4.794-9.04-10.787l5.714-33.557c1.293-7.592-4.073-9.189-6.895-9.189c-3.626,0-9.135,1.597-10.359,8.79
		l-5.715,33.557c-2.314,13.583,4.933,15.981,12.969,25.57l36.512,36.356C1353.326,279.657,1353.907,290.444,1350.164,312.415z"/>
	
		<linearGradient id="SVGID_9_" gradientUnits="userSpaceOnUse" x1="1421.2012" y1="404.9824" x2="1421.2012" y2="115.1074" gradientTransform="matrix(0.9993 2.876764e-005 -0.1688 0.9923 68.6777 1.2019)">
		<stop  offset="0" style="stop-color:#465099"/>
		<stop  offset="1" style="stop-color:#666FE4"/>
	</linearGradient>
	<path fill="url(#SVGID_9_)" d="M1450.164,392.32c-1.02,5.991-6.67,10.786-12.712,10.785l-34.243-0.001
		c-6.045,0.001-10.062-4.794-9.042-10.786l18.575-109.064l-25.164-157.405c-0.658-5.593,3.382-10.387,9.424-10.387l34.646,0.001
		c6.043,0,11.269,4.795,11.928,10.388l9.612,85.494l38.731-85.493c2.563-5.594,9.424-10.388,15.467-10.388l34.646,0.001
		c6.045,0.001,8.45,4.795,5.886,10.389l-79.315,158.202L1450.164,392.32z"/>
</g>
<g>
	<path fill="#999999" d="M67.94,446.399v13.199c0,1.65-1.32,2.971-2.97,2.971h-9.68c-1.65,0-2.97-1.32-2.97-2.971v-14.08
		c0-2.31-1.98-2.529-2.75-2.529s-2.75,0.22-2.75,2.529v48.951c0,2.31,2.2,2.529,2.97,2.529s2.53-0.22,2.97-2.529v-14.521
		c-1.87,0-3.19-1.32-3.19-2.97v-2.75c0-1.65,1.32-2.971,2.97-2.971h12.43c1.65,0,2.97,1.32,2.97,2.971v35.09h-4.4
		c0,0-0.55-3.85-0.77-3.63c-3.3,3.3-6.38,5.17-13.2,5.17c-4.84,0-9.46-0.99-12.76-4.29c-3.63-3.63-5.61-7.59-5.61-12.98v-47.189
		c0-5.391,1.98-9.461,5.61-12.98c3.3-3.3,7.92-4.29,12.76-4.29c4.84,0,9.46,0.99,12.76,4.29
		C65.96,436.938,67.94,441.009,67.94,446.399z"/>
	<path fill="#999999" d="M141.64,433.199v60.06c0,5.28-1.98,9.79-5.5,13.311c-3.41,3.3-8.03,4.29-12.87,4.29s-9.57-0.99-12.87-4.29
		c-3.52-3.521-5.5-8.03-5.5-13.311v-60.06c0-1.65,1.32-2.971,2.97-2.971h9.57c1.65,0,2.97,1.32,2.97,2.971v61.38
		c0,2.2,2.09,2.42,2.86,2.42s2.86-0.22,2.86-2.42v-61.38c0-1.65,1.32-2.971,2.97-2.971h9.57
		C140.32,430.229,141.64,431.549,141.64,433.199z"/>
	<path fill="#999999" d="M196.089,506.35c0,1.649-1.32,2.97-2.97,2.97h-9.68c-1.65,0-2.97-1.32-2.97-2.97v-73.261
		c0-1.65,1.32-2.97,2.97-2.97h9.68c1.65,0,2.97,1.319,2.97,2.97V506.35z"/>
	<path fill="#999999" d="M272.758,449.149v41.14c0,5.391-1.98,10.23-5.61,13.86c-3.41,3.3-7.92,5.17-12.87,5.17h-15.4
		c-1.65,0-2.97-1.32-2.97-2.97v-73.261c0-1.65,1.32-2.97,2.97-2.97h15.4c4.95,0,9.46,1.87,12.87,5.17
		C270.778,438.919,272.758,443.759,272.758,449.149z M257.028,446.509c0-2.31-1.1-3.41-2.75-3.41h-2.64v53.24h2.64
		c1.87,0,2.75-1.1,2.75-3.409V446.509z"/>
	<path fill="#999999" d="M338.427,495.569c1.65,0,2.97,1.32,2.97,2.97v7.811c0,1.649-1.32,2.97-2.97,2.97h-24.75
		c-1.65,0-2.97-1.32-2.97-2.97v-73.261c0-1.65,1.32-2.97,2.97-2.97h24.75c1.65,0,2.97,1.319,2.97,2.97v7.26
		c0,1.65-1.32,2.971-2.97,2.971h-11.55v21.34h7.81c1.65,0,2.97,1.32,2.97,2.97v5.5c0,1.65-1.32,2.971-2.97,2.971h-7.81v19.47
		H338.427z"/>
	<path fill="#999999" d="M415.867,449.149v41.14c0,5.391-1.98,10.23-5.61,13.86c-3.41,3.3-7.92,5.17-12.87,5.17h-15.4
		c-1.65,0-2.97-1.32-2.97-2.97v-73.261c0-1.65,1.32-2.97,2.97-2.97h15.4c4.95,0,9.46,1.87,12.87,5.17
		C413.887,438.919,415.867,443.759,415.867,449.149z M400.137,446.509c0-2.31-1.1-3.41-2.75-3.41h-2.64v53.24h2.64
		c1.87,0,2.75-1.1,2.75-3.409V446.509z"/>
	<path fill="#999999" d="M533.125,495.569c1.65,0,2.97,1.32,2.97,2.97v7.811c0,1.649-1.32,2.97-2.97,2.97h-24.75
		c-1.65,0-2.97-1.32-2.97-2.97v-73.261c0-1.65,1.32-2.97,2.97-2.97h24.75c1.65,0,2.97,1.319,2.97,2.97v7.26
		c0,1.65-1.32,2.971-2.97,2.971h-11.55v21.34h7.81c1.65,0,2.97,1.32,2.97,2.97v5.5c0,1.65-1.32,2.971-2.97,2.971h-7.81v19.47
		H533.125z"/>
	<path fill="#999999" d="M614.084,433.089l-12.1,73.261c-0.22,1.649-1.76,2.97-3.41,2.97h-10.67c-1.65,0-3.19-1.32-3.41-2.97
		l-12.1-73.261c-0.22-1.65,0.88-2.97,2.53-2.97h10.23c1.65,0,3.08,1.319,3.3,2.97c4.4,46.42,4.4,46.42,4.73,49.391
		c0.33-2.971,0.33-2.971,4.84-49.391c0.22-1.65,1.65-2.97,3.3-2.97h10.23C613.205,430.119,614.304,431.438,614.084,433.089z"/>
	<path fill="#999999" d="M668.204,506.35c0,1.649-1.32,2.97-2.97,2.97h-9.68c-1.65,0-2.97-1.32-2.97-2.97v-73.261
		c0-1.65,1.32-2.97,2.97-2.97h9.68c1.65,0,2.97,1.319,2.97,2.97V506.35z"/>
	<path fill="#999999" d="M744.873,449.149v41.14c0,5.391-1.98,10.23-5.61,13.86c-3.41,3.3-7.92,5.17-12.87,5.17h-15.4
		c-1.65,0-2.97-1.32-2.97-2.97v-73.261c0-1.65,1.32-2.97,2.97-2.97h15.4c4.95,0,9.46,1.87,12.87,5.17
		C742.893,438.919,744.873,443.759,744.873,449.149z M729.143,446.509c0-2.31-1.1-3.41-2.75-3.41h-2.64v53.24h2.64
		c1.87,0,2.75-1.1,2.75-3.409V446.509z"/>
	<path fill="#999999" d="M810.542,495.569c1.649,0,2.97,1.32,2.97,2.97v7.811c0,1.649-1.32,2.97-2.97,2.97h-24.75
		c-1.65,0-2.97-1.32-2.97-2.97v-73.261c0-1.65,1.32-2.97,2.97-2.97h24.75c1.649,0,2.97,1.319,2.97,2.97v7.26
		c0,1.65-1.32,2.971-2.97,2.971h-11.55v21.34h7.81c1.65,0,2.97,1.32,2.97,2.97v5.5c0,1.65-1.319,2.971-2.97,2.971h-7.81v19.47
		H810.542z"/>
	<path fill="#999999" d="M888.752,433.089v73.261c0,1.649-1.319,2.97-2.97,2.97h-8.25c-1.65,0-3.3-1.32-3.63-2.86l-9.021-40.04
		v39.931c0,1.649-1.319,2.97-2.97,2.97h-7.81c-1.65,0-2.971-1.32-2.971-2.97v-73.261c0-1.65,1.32-2.97,2.971-2.97h8.689
		c1.65,0,3.19,1.319,3.521,2.859c8.029,38.831,8.029,38.831,8.689,41.69v-41.58c0-1.65,1.32-2.97,2.971-2.97h7.81
		C887.433,430.119,888.752,431.438,888.752,433.089z"/>
	<path fill="#999999" d="M963.661,446.399v13.09c0,1.649-1.32,2.97-2.971,2.97h-9.68c-1.649,0-2.97-1.32-2.97-2.97v-13.971
		c0-2.31-1.98-2.529-2.75-2.529c-0.771,0-2.75,0.22-2.75,2.529v48.951c0,2.31,1.979,2.529,2.75,2.529c0.77,0,2.75-0.22,2.75-2.529
		v-13.421c0-1.649,1.32-2.97,2.97-2.97h9.68c1.65,0,2.971,1.32,2.971,2.97v12.54c0,5.391-1.98,9.351-5.61,12.98
		c-3.3,3.3-7.92,4.29-12.76,4.29s-9.46-0.99-12.761-4.29c-3.63-3.63-5.609-7.59-5.609-12.98v-47.189
		c0-5.391,1.979-9.461,5.609-12.98c3.301-3.3,7.921-4.29,12.761-4.29s9.46,0.99,12.76,4.29
		C961.681,436.938,963.661,441.009,963.661,446.399z"/>
	<path fill="#999999" d="M1029.111,495.569c1.649,0,2.97,1.32,2.97,2.97v7.811c0,1.649-1.32,2.97-2.97,2.97h-24.75
		c-1.65,0-2.971-1.32-2.971-2.97v-73.261c0-1.65,1.32-2.97,2.971-2.97h24.75c1.649,0,2.97,1.319,2.97,2.97v7.26
		c0,1.65-1.32,2.971-2.97,2.971h-11.551v21.34h7.811c1.65,0,2.97,1.32,2.97,2.97v5.5c0,1.65-1.319,2.971-2.97,2.971h-7.811v19.47
		H1029.111z"/>
	<path fill="#999999" d="M1156.71,484.35v9.239c0,5.061-1.761,9.131-5.61,12.87c-2.97,2.971-7.04,4.4-12.87,4.4
		c-5.61,0-9.24-1.32-12.32-4.4c-3.85-3.739-5.609-7.81-5.609-12.87v-9.68c0-1.65,1.319-2.97,2.97-2.97h9.24
		c1.649,0,2.97,1.319,2.97,2.97v10.45c0,2.2,2.09,2.42,2.75,2.42c0.55,0,2.64-0.22,2.64-2.42v-9.68c0-3.41-0.989-3.74-4.729-7.37
		l-11.44-10.341c-2.97-2.97-4.399-5.83-4.399-10.67c0-0.22,0-9.899,0-9.899c0-5.061,1.76-9.24,5.609-12.98
		c3.08-2.97,6.71-4.29,12.431-4.29c5.609,0,9.239,1.32,12.319,4.29c3.851,3.74,5.61,7.92,5.61,12.98v8.47
		c0,1.65-1.32,2.97-2.97,2.97h-9.46c-1.65,0-2.971-1.319-2.971-2.97v-9.24c0-2.09-1.54-2.53-2.31-2.53c-0.99,0-2.42,0.44-2.42,2.42
		v9.24c0,3.74,2.09,4.4,4.729,7.04l11.66,10.011C1156.05,475.329,1156.71,478.299,1156.71,484.35z"/>
	<path fill="#999999" d="M1222.379,495.569c1.649,0,2.97,1.32,2.97,2.97v7.811c0,1.649-1.32,2.97-2.97,2.97h-24.75
		c-1.65,0-2.971-1.32-2.971-2.97v-73.261c0-1.65,1.32-2.97,2.971-2.97h24.75c1.649,0,2.97,1.319,2.97,2.97v7.26
		c0,1.65-1.32,2.971-2.97,2.971h-11.551v21.34h7.811c1.65,0,2.97,1.32,2.97,2.97v5.5c0,1.65-1.319,2.971-2.97,2.971h-7.811v19.47
		H1222.379z"/>
	<path fill="#999999" d="M1300.588,509.319h-10.229c-1.431,0-2.86-1.1-3.19-2.53l-0.77-9.35h-7.92l-0.771,9.35
		c-0.439,1.431-1.76,2.53-3.3,2.53h-10.23c-1.54,0-2.75-1.32-2.42-2.97l12.21-73.261c0.221-1.65,1.87-2.97,3.41-2.97h4.95h0.11h4.95
		c1.649,0,3.189,1.319,3.52,2.97l12.21,73.261C1303.338,507.999,1302.238,509.319,1300.588,509.319z M1285.298,485.669l-2.859-31.02
		l-2.86,31.02H1285.298z"/>
	<path fill="#999999" d="M1375.167,509.319h-11.88c-0.77,0-1.32-1.76-1.32-3.96v-23.87c0-2.2-0.77-3.3-2.75-3.3h-2.75v25.63v2.53
		c0,1.649-1.319,2.97-2.97,2.97c-2.31,0-5.06,0-9.68,0c-1.65,0-2.971-1.32-2.971-2.97v-73.261c0-1.65,1.32-2.97,2.971-2.97h15.399
		c4.84,0,9.46,1.87,12.87,5.279c3.521,3.521,5.5,8.36,5.5,13.751v10.12c0,4.84-2.529,9.46-5.5,12.869c4.07,3.19,5.5,8.03,5.5,12.87
		v20.131C1377.587,507.229,1379.567,509.319,1375.167,509.319z M1361.967,446.509c0-2.2-0.66-3.41-2.75-3.41h-2.75v22.11h2.75
		c2.09,0,2.75-1.1,2.75-3.3V446.509z"/>
	<path fill="#999999" d="M1451.947,446.399v13.09c0,1.649-1.32,2.97-2.971,2.97h-9.68c-1.65,0-2.97-1.32-2.97-2.97v-13.971
		c0-2.31-1.98-2.529-2.75-2.529c-0.771,0-2.75,0.22-2.75,2.529v48.951c0,2.31,1.979,2.529,2.75,2.529c0.77,0,2.75-0.22,2.75-2.529
		v-13.421c0-1.649,1.319-2.97,2.97-2.97h9.68c1.65,0,2.971,1.32,2.971,2.97v12.54c0,5.391-1.98,9.351-5.61,12.98
		c-3.3,3.3-7.92,4.29-12.76,4.29s-9.46-0.99-12.761-4.29c-3.63-3.63-5.609-7.59-5.609-12.98v-47.189
		c0-5.391,1.979-9.461,5.609-12.98c3.301-3.3,7.921-4.29,12.761-4.29s9.46,0.99,12.76,4.29
		C1449.967,436.938,1451.947,441.009,1451.947,446.399z"/>
	<path fill="#999999" d="M1527.736,433.089v73.261c0,1.649-1.32,2.97-2.97,2.97h-10.23c-1.65,0-2.97-1.32-2.97-2.97V476.1h-5.721
		v30.25c0,1.649-1.319,2.97-2.97,2.97h-10.229c-1.65,0-2.971-1.32-2.971-2.97v-73.261c0-1.65,1.32-2.97,2.971-2.97h10.229
		c1.65,0,2.97,1.319,2.97,2.97v31.57h5.721v-31.57c0-1.65,1.319-2.97,2.97-2.97h10.23
		C1526.416,430.119,1527.736,431.438,1527.736,433.089z"/>
</g>
</svg>
