<?xml version="1.0" encoding="utf-8"?>
<!-- Generator: Adobe Illustrator 14.0.0, SVG Export Plug-In . SVG Version: 6.00 Build 43363)  -->
<!DOCTYPE svg PUBLIC "-//W3C//DTD SVG 1.1//EN" "http://www.w3.org/Graphics/SVG/1.1/DTD/svg11.dtd">
<svg version="1.1" id="Camada_1" xmlns="http://www.w3.org/2000/svg" xmlns:xlink="http://www.w3.org/1999/xlink" x="0px" y="0px"
	 width="1600px" height="600px" viewBox="0 0 1600 600" enable-background="new 0 0 1600 600" xml:space="preserve">
<g>
	
		<linearGradient id="SVGID_1_" gradientUnits="userSpaceOnUse" x1="96.1753" y1="404.9824" x2="96.1753" y2="57.1304" gradientTransform="matrix(0.9993 2.876764e-005 -0.1688 0.9923 68.6777 1.2019)">
		<stop  offset="0" style="stop-color:#465099"/>
		<stop  offset="1" style="stop-color:#666FE4"/>
	</linearGradient>
	<path fill="url(#SVGID_1_)" d="M160.995,343.143c7.251,0.001,12.073,5.754,10.848,12.945l-5.796,34.038
		c-1.225,7.192-8.006,12.943-15.257,12.942l-108.774-0.003c-7.252,0-12.073-5.751-10.849-12.942L85.542,70.837
		c1.225-7.191,8.005-12.945,15.258-12.944l108.774,0.003c7.251,0,12.073,5.753,10.848,12.945l-5.388,31.641
		c-1.225,7.191-8.006,12.943-15.257,12.943l-50.762-0.001l-15.838,93.004l34.324,0.001c7.252,0,12.073,5.753,10.849,12.944
		l-4.082,23.971c-1.225,7.191-8.006,12.943-15.258,12.943l-34.325-0.001l-14.451,84.854L160.995,343.143z"/>
	
		<linearGradient id="SVGID_2_" gradientUnits="userSpaceOnUse" x1="268.3145" y1="404.9824" x2="268.3145" y2="62.6294" gradientTransform="matrix(0.9993 2.876764e-005 -0.1688 0.9923 68.6777 1.2019)">
		<stop  offset="0" style="stop-color:#465099"/>
		<stop  offset="1" style="stop-color:#666FE4"/>
	</linearGradient>
	<path fill="url(#SVGID_2_)" d="M414.243,76.1L308.389,390.334c-2.156,7.079-9.782,12.738-16.919,12.739l-46.152-0.002
		c-7.137,0.001-12.833-5.661-12.58-12.739l1.178-314.238c0.254-7.078,5.976-12.74,13.113-12.74l44.25,0.001
		c7.137,0,12.357,5.663,12.104,12.741c-14.877,199.112-14.877,199.112-15.62,211.852c3.597-12.739,3.597-12.739,57.013-211.851
		c2.158-7.078,9.308-12.74,16.444-12.74l44.249,0.001C412.605,63.359,416.399,69.021,414.243,76.1z"/>
	
		<linearGradient id="SVGID_3_" gradientUnits="userSpaceOnUse" x1="416.1108" y1="404.9824" x2="416.1108" y2="62.6299" gradientTransform="matrix(0.9993 2.876764e-005 -0.1688 0.9923 68.6777 1.2019)">
		<stop  offset="0" style="stop-color:#465099"/>
		<stop  offset="1" style="stop-color:#666FE4"/>
	</linearGradient>
	<path fill="url(#SVGID_3_)" d="M452.08,390.338c-1.206,7.078-7.88,12.739-15.016,12.739l-41.871-0.001
		c-7.138,0-11.882-5.661-10.677-12.739L438.031,76.1c1.206-7.078,7.879-12.74,15.017-12.739l41.87,0.001
		c7.136,0,11.882,5.663,10.676,12.741L452.08,390.338z"/>
	
		<linearGradient id="SVGID_4_" gradientUnits="userSpaceOnUse" x1="559.1699" y1="404.9824" x2="559.1699" y2="62.6294" gradientTransform="matrix(0.9993 2.876764e-005 -0.1688 0.9923 68.6777 1.2019)">
		<stop  offset="0" style="stop-color:#465099"/>
		<stop  offset="1" style="stop-color:#666FE4"/>
	</linearGradient>
	<path fill="url(#SVGID_4_)" d="M682.75,144.994l-30.052,176.464c-3.938,23.12-16.039,43.879-34.391,59.448
		c-17.16,14.155-38.034,22.175-59.445,22.175l-66.611-0.002c-7.137-0.001-11.882-5.661-10.677-12.739l53.515-314.237
		c1.206-7.078,7.88-12.74,15.017-12.74l66.611,0.002c21.411,0.001,39.553,8.023,51.891,22.179
		C681.658,101.114,686.688,121.875,682.75,144.994z M616.639,133.669c1.688-9.91-2.266-14.628-9.404-14.627l-11.419-0.001
		l-38.892,228.364l11.42,0.001c8.088,0,12.698-4.718,14.386-14.626L616.639,133.669z"/>
	
		<linearGradient id="SVGID_5_" gradientUnits="userSpaceOnUse" x1="764.2124" y1="384.8555" x2="764.2124" y2="138.0562" gradientTransform="matrix(0.9993 2.876764e-005 -0.1688 0.9923 68.6777 1.2019)">
		<stop  offset="0" style="stop-color:#465099"/>
		<stop  offset="1" style="stop-color:#666FE4"/>
	</linearGradient>
	<path fill="url(#SVGID_5_)" d="M830.179,287.632c-1.496,8.789,8.035,9.589,11.867,8.39c5.105-1.597,10.886-4.794,17.421-14.781
		c5.86-8.389,8.912-21.573,9.349-35.955l0.067-0.4c0.159-41.149-26.09-73.909-64.36-73.91c-4.834,0-9.806,0.799-14.776,1.597
		c-22.503,4.394-42.548,20.375-58.036,40.35c-14.949,19.175-23.258,41.947-23.845,64.318c-0.228,41.549,25.889,72.711,64.162,72.712
		c4.833,0,8.931-0.399,14.372-1.598c6.247-1.198,12.964-2.795,20.357-5.993l14.714,27.168c-11.831,5.593-23.39,9.588-35.011,11.586
		c-7.524,1.598-14.037,1.996-21.289,1.998c-7.251,0-13.963-0.801-20.943-2.399c-13.555-3.197-25.966-8.389-35.68-17.581
		c-10.658-8.389-18.491-19.175-24.233-32.759c-6.012-14.382-8.999-29.963-8.626-46.342c0.039-16.779,3.298-33.559,9.578-49.139
		c5.405-15.181,13.899-29.564,24.739-43.546l0.068-0.4c10.705-13.183,22.682-24.369,36.599-32.758
		c13.583-8.789,28.705-14.781,43.751-17.978c7.524-1.597,14.037-1.997,20.888-1.997c7.654,0,14.365,0.8,21.345,2.397
		c13.556,3.197,25.898,8.79,35.612,17.979c10.522,9.189,18.888,21.574,24.365,34.358c5.677,13.983,8.328,29.164,8.359,45.544
		c-0.249,20.375-5.8,41.148-15.978,58.327c-5.123,8.788-11.652,16.378-18.581,21.571h-0.403
		c-9.889,8.39-19.295,11.586-29.768,11.585c-10.878,0-23.964-3.597-27.982-8.392c-5.692-6.791-6.287-10.385-6.68-15.18
		c-2.831,4.795-7.807,7.989-11.233,9.188c-6.452,2.399-9.339,2.797-14.979,2.797c-14.101-0.001-24.564-4.795-32.662-16.381
		c-8.236-10.787-11.358-25.569-8.637-41.548c2.722-15.981,10.88-30.763,22.856-41.948s24.073-15.979,38.174-15.979
		c8.46,0,19.598,3.197,18.237,11.187l1.7-9.987l29.41,0.001L830.179,287.632z M802.979,260.466
		c2.178-12.785-1.483-26.767-13.166-26.768c-11.684,0-21.72,13.981-23.897,26.767c-2.177,12.784,3.096,26.767,14.78,26.766
		C792.377,287.231,800.802,273.25,802.979,260.466z"/>
	
		<linearGradient id="SVGID_6_" gradientUnits="userSpaceOnUse" x1="961.4492" y1="404.9824" x2="961.4492" y2="57.1304" gradientTransform="matrix(0.9993 2.876764e-005 -0.1688 0.9923 68.6777 1.2019)">
		<stop  offset="0" style="stop-color:#465099"/>
		<stop  offset="1" style="stop-color:#666FE4"/>
	</linearGradient>
	<path fill="url(#SVGID_6_)" d="M1025.701,343.168c7.252,0,12.072,5.753,10.847,12.945l-5.796,34.038
		c-1.226,7.191-8.006,12.942-15.258,12.942l-108.773-0.003c-7.252-0.001-12.074-5.753-10.85-12.943l54.375-319.286
		c1.226-7.19,8.007-12.944,15.26-12.943l108.772,0.003c7.252,0,12.073,5.754,10.849,12.944l-5.389,31.641
		c-1.226,7.191-8.006,12.944-15.257,12.944l-50.762-0.001l-15.837,93.004l34.323,0.001c7.251,0,12.073,5.753,10.848,12.944
		l-4.082,23.971c-1.225,7.19-8.006,12.943-15.258,12.943l-34.323-0.001l-14.451,84.855L1025.701,343.168z"/>
	
		<linearGradient id="SVGID_7_" gradientUnits="userSpaceOnUse" x1="1118.3418" y1="404.9824" x2="1118.3418" y2="115.1074" gradientTransform="matrix(0.9993 2.876764e-005 -0.1688 0.9923 68.6777 1.2019)">
		<stop  offset="0" style="stop-color:#465099"/>
		<stop  offset="1" style="stop-color:#666FE4"/>
	</linearGradient>
	<path fill="url(#SVGID_7_)" d="M1184.454,403.099l-37.465-0.001c-5.238-0.001-9.796-3.994-10.12-9.188l2.963-33.958l-29.006-0.001
		l-8.602,33.958c-2.498,5.194-8.011,9.188-13.65,9.188l-37.468-0.001c-5.641,0-9.255-4.794-7.026-10.786l90.033-266.067
		c1.824-5.993,8.685-10.787,14.324-10.787l18.128,0l0.403,0l18.129,0.001c6.043,0,10.867,4.794,11.055,10.787l-0.596,266.07
		C1195.342,398.306,1190.497,403.1,1184.454,403.099z M1143.082,317.204l8.715-112.659l-29.662,112.658L1143.082,317.204z"/>
	
		<linearGradient id="SVGID_8_" gradientUnits="userSpaceOnUse" x1="1268.5684" y1="410.6201" x2="1268.5684" y2="111.4844" gradientTransform="matrix(0.9993 2.876764e-005 -0.1688 0.9923 68.6777 1.2019)">
		<stop  offset="0" style="stop-color:#465099"/>
		<stop  offset="1" style="stop-color:#666FE4"/>
	</linearGradient>
	<path fill="url(#SVGID_8_)" d="M1350.164,312.415l-5.714,33.559c-3.13,18.378-12.094,33.16-28.508,46.742
		c-12.714,10.785-28.505,15.98-49.855,15.979c-20.547-0.001-33.026-4.796-42.4-15.982c-11.787-13.583-15.714-28.365-12.586-46.743
		l5.986-35.153c1.022-5.995,6.673-10.789,12.716-10.788l33.84,0c6.043,0,10.061,4.793,9.039,10.788l-6.463,37.954
		c-1.361,7.988,6.158,8.788,8.576,8.788c2.015,0,9.804-0.799,11.164-8.788l5.987-35.157c2.111-12.385-1.312-13.583-12.763-26.767
		l-35.503-37.555c-9.039-10.786-12.509-21.174-9.515-38.752c0.136-0.799,6.123-35.956,6.123-35.956
		c3.129-18.377,12.159-33.558,28.574-47.141c13.116-10.788,27.228-15.58,48.176-15.58c20.547,0,33.025,4.794,42.469,15.582
		c11.787,13.583,15.647,28.765,12.519,47.142l-5.239,30.762c-1.021,5.993-6.673,10.787-12.715,10.787l-34.646-0.001
		c-6.043,0-10.062-4.794-9.04-10.787l5.714-33.557c1.293-7.592-4.073-9.189-6.895-9.189c-3.626,0-9.135,1.597-10.359,8.79
		l-5.715,33.557c-2.314,13.583,4.933,15.981,12.969,25.57l36.512,36.356C1353.326,279.657,1353.907,290.444,1350.164,312.415z"/>
	
		<linearGradient id="SVGID_9_" gradientUnits="userSpaceOnUse" x1="1421.2012" y1="404.9824" x2="1421.2012" y2="115.1074" gradientTransform="matrix(0.9993 2.876764e-005 -0.1688 0.9923 68.6777 1.2019)">
		<stop  offset="0" style="stop-color:#465099"/>
		<stop  offset="1" style="stop-color:#666FE4"/>
	</linearGradient>
	<path fill="url(#SVGID_9_)" d="M1450.164,392.32c-1.02,5.991-6.67,10.786-12.712,10.785l-34.243-0.001
		c-6.045,0.001-10.062-4.794-9.042-10.786l18.575-109.064l-25.164-157.405c-0.658-5.593,3.382-10.387,9.424-10.387l34.646,0.001
		c6.043,0,11.269,4.795,11.928,10.388l9.612,85.494l38.731-85.493c2.563-5.594,9.424-10.388,15.467-10.388l34.646,0.001
		c6.045,0.001,8.45,4.795,5.886,10.389l-79.315,158.202L1450.164,392.32z"/>
</g>
<g>
	<path fill="#999999" d="M70.104,481.172v8.824c0,5.473-2.011,10.499-5.585,14.073c-3.462,3.352-8.824,5.25-13.738,5.25H35.031
		c-1.675,0-3.016-1.341-3.016-3.016v-74.389c0-1.675,1.34-3.016,3.016-3.016h14.855c4.915,0,10.276,1.898,13.738,5.361
		c3.574,3.574,5.585,8.601,5.585,13.962v7.595c0,4.468-2.234,8.713-4.915,12.063C67.535,471.455,70.104,476.146,70.104,481.172z
		 M47.988,462.743h2.122c2.122,0,3.127-1.341,3.127-3.352v-13.85c0-2.234-1.34-3.351-3.351-3.351h-1.898V462.743z M54.131,477.598
		c0-2.233-1.564-3.462-3.239-3.462c-0.335,0-2.904,0-2.904,0v22.004h2.792c2.569,0,3.351-1.117,3.351-3.463V477.598z"/>
	<path fill="#999999" d="M133.544,432.027v60.984c0,5.361-2.01,9.941-5.584,13.516c-3.463,3.351-8.154,4.355-13.068,4.355
		s-9.718-1.005-13.068-4.355c-3.574-3.574-5.585-8.154-5.585-13.516v-60.984c0-1.676,1.341-3.017,3.016-3.017h9.717
		c1.675,0,3.016,1.341,3.016,3.017v62.325c0,2.233,2.122,2.457,2.904,2.457c0.782,0,2.904-0.224,2.904-2.457v-62.325
		c0-1.676,1.34-3.017,3.016-3.017h9.717C132.204,429.011,133.544,430.352,133.544,432.027z"/>
	<path fill="#999999" d="M196.875,483.965v9.382c0,5.139-1.787,9.271-5.696,13.068c-3.016,3.016-7.148,4.468-13.068,4.468
		c-5.696,0-9.382-1.34-12.51-4.468c-3.909-3.798-5.696-7.93-5.696-13.068v-9.829c0-1.675,1.34-3.016,3.016-3.016h9.382
		c1.675,0,3.016,1.341,3.016,3.016v10.611c0,2.234,2.122,2.457,2.792,2.457c0.559,0,2.681-0.223,2.681-2.457V484.3
		c0-3.463-1.005-3.798-4.803-7.483l-11.616-10.499c-3.016-3.017-4.468-5.92-4.468-10.835c0-0.223,0-10.053,0-10.053
		c0-5.138,1.787-9.382,5.696-13.18c3.127-3.016,6.813-4.355,12.621-4.355c5.697,0,9.383,1.34,12.51,4.355
		c3.91,3.798,5.697,8.042,5.697,13.18v8.601c0,1.676-1.34,3.017-3.016,3.017h-9.605c-1.675,0-3.016-1.341-3.016-3.017v-9.382
		c0-2.122-1.564-2.569-2.346-2.569c-1.005,0-2.457,0.447-2.457,2.458v9.382c0,3.798,2.122,4.468,4.803,7.148l11.839,10.164
		C196.205,474.806,196.875,477.821,196.875,483.965z"/>
	<path fill="#999999" d="M260.763,445.43v13.292c0,1.676-1.34,3.016-3.016,3.016h-9.829c-1.675,0-3.016-1.34-3.016-3.016v-14.185
		c0-2.346-2.011-2.569-2.792-2.569s-2.792,0.224-2.792,2.569v49.703c0,2.346,2.011,2.569,2.792,2.569s2.792-0.224,2.792-2.569
		v-13.626c0-1.676,1.34-3.017,3.016-3.017h9.829c1.676,0,3.016,1.341,3.016,3.017v12.732c0,5.474-2.01,9.494-5.696,13.181
		c-3.351,3.351-8.042,4.355-12.957,4.355s-9.605-1.005-12.957-4.355c-3.686-3.687-5.696-7.707-5.696-13.181V445.43
		c0-5.473,2.011-9.605,5.696-13.18c3.351-3.351,8.042-4.355,12.957-4.355s9.606,1.005,12.957,4.355
		C258.752,435.824,260.763,439.957,260.763,445.43z"/>
	<path fill="#999999" d="M324.428,509.319h-10.388c-1.452,0-2.904-1.117-3.239-2.569l-0.782-9.494h-8.042l-0.782,9.494
		c-0.447,1.452-1.787,2.569-3.351,2.569h-10.388c-1.563,0-2.792-1.341-2.457-3.016l12.398-74.389
		c0.224-1.675,1.899-3.016,3.462-3.016h5.026h0.112h5.026c1.675,0,3.239,1.341,3.574,3.016l12.398,74.389
		C327.221,507.979,326.104,509.319,324.428,509.319z M308.902,485.305l-2.904-31.497l-2.904,31.497H308.902z"/>
	<path fill="#999999" d="M431.876,445.43v13.404c0,1.675-1.341,3.016-3.016,3.016h-9.829c-1.675,0-3.016-1.341-3.016-3.016v-14.297
		c0-2.346-2.01-2.569-2.792-2.569c-0.782,0-2.792,0.224-2.792,2.569v49.703c0,2.346,2.233,2.569,3.016,2.569
		c0.782,0,2.569-0.224,3.016-2.569v-14.743c-1.899,0-3.239-1.341-3.239-3.016v-2.793c0-1.675,1.34-3.016,3.016-3.016h12.622
		c1.675,0,3.016,1.341,3.016,3.016v35.631h-4.468c0,0-0.559-3.909-0.782-3.686c-3.351,3.351-6.478,5.249-13.403,5.249
		c-4.915,0-9.605-1.005-12.957-4.355c-3.686-3.687-5.696-7.707-5.696-13.181V445.43c0-5.473,2.01-9.605,5.696-13.18
		c3.351-3.351,8.042-4.355,12.957-4.355s9.606,1.005,12.957,4.355C429.865,435.824,431.876,439.957,431.876,445.43z"/>
	<path fill="#999999" d="M495.541,432.027v60.984c0,5.361-2.011,9.941-5.585,13.516c-3.462,3.351-8.153,4.355-13.068,4.355
		s-9.717-1.005-13.068-4.355c-3.574-3.574-5.584-8.154-5.584-13.516v-60.984c0-1.676,1.34-3.017,3.016-3.017h9.717
		c1.675,0,3.016,1.341,3.016,3.017v62.325c0,2.233,2.123,2.457,2.904,2.457s2.904-0.224,2.904-2.457v-62.325
		c0-1.676,1.34-3.017,3.016-3.017h9.718C494.201,429.011,495.541,430.352,495.541,432.027z"/>
	<path fill="#999999" d="M539.66,506.304c0,1.675-1.34,3.016-3.016,3.016h-9.829c-1.676,0-3.016-1.341-3.016-3.016v-74.389
		c0-1.675,1.34-3.016,3.016-3.016h9.829c1.675,0,3.016,1.341,3.016,3.016V506.304z"/>
	<path fill="#999999" d="M607.123,509.319h-10.388c-1.452,0-2.904-1.117-3.239-2.569l-0.782-9.494h-8.042l-0.782,9.494
		c-0.447,1.452-1.787,2.569-3.351,2.569h-10.388c-1.563,0-2.792-1.341-2.457-3.016l12.398-74.389
		c0.224-1.675,1.899-3.016,3.462-3.016h5.026h0.112h5.026c1.675,0,3.239,1.341,3.574,3.016l12.398,74.389
		C609.915,507.979,608.798,509.319,607.123,509.319z M591.597,485.305l-2.904-31.497l-2.904,31.497H591.597z"/>
	<path fill="#999999" d="M674.249,448.223v41.773c0,5.473-2.01,10.388-5.696,14.073c-3.462,3.352-8.042,5.25-13.068,5.25h-15.637
		c-1.676,0-3.016-1.341-3.016-3.016v-74.389c0-1.675,1.34-3.016,3.016-3.016h15.637c5.026,0,9.606,1.898,13.068,5.25
		C672.239,437.835,674.249,442.75,674.249,448.223z M658.277,445.542c0-2.346-1.117-3.463-2.792-3.463h-2.681v54.061h2.681
		c1.899,0,2.792-1.117,2.792-3.463V445.542z"/>
	<path fill="#999999" d="M737.468,509.319H727.08c-1.452,0-2.904-1.117-3.239-2.569l-0.782-9.494h-8.042l-0.782,9.494
		c-0.447,1.452-1.787,2.569-3.351,2.569h-10.387c-1.564,0-2.792-1.341-2.458-3.016l12.398-74.389
		c0.224-1.675,1.899-3.016,3.463-3.016h5.026h0.112h5.026c1.675,0,3.239,1.341,3.574,3.016l12.398,74.389
		C740.26,507.979,739.143,509.319,737.468,509.319z M721.942,485.305l-2.904-31.497l-2.904,31.497H721.942z"/>
	<path fill="#999999" d="M845.81,448.223v41.773c0,5.473-2.011,10.388-5.696,14.073c-3.463,3.352-8.042,5.25-13.068,5.25h-15.638
		c-1.675,0-3.016-1.341-3.016-3.016v-74.389c0-1.675,1.341-3.016,3.016-3.016h15.638c5.026,0,9.605,1.898,13.068,5.25
		C843.799,437.835,845.81,442.75,845.81,448.223z M829.837,445.542c0-2.346-1.117-3.463-2.792-3.463h-2.681v54.061h2.681
		c1.898,0,2.792-1.117,2.792-3.463V445.542z"/>
	<path fill="#999999" d="M901.32,495.357c1.675,0,3.016,1.341,3.016,3.016v7.931c0,1.675-1.341,3.016-3.016,3.016h-25.132
		c-1.675,0-3.016-1.341-3.016-3.016v-74.389c0-1.675,1.341-3.016,3.016-3.016h25.132c1.675,0,3.016,1.341,3.016,3.016v7.372
		c0,1.676-1.341,3.016-3.016,3.016h-11.729v21.669h7.931c1.675,0,3.016,1.34,3.016,3.016v5.585c0,1.675-1.341,3.016-3.016,3.016
		h-7.931v19.77H901.32z"/>
	<path fill="#999999" d="M1000.728,495.357c1.675,0,3.016,1.341,3.016,3.016v7.931c0,1.675-1.341,3.016-3.016,3.016h-25.132
		c-1.675,0-3.016-1.341-3.016-3.016v-74.389c0-1.675,1.341-3.016,3.016-3.016h25.132c1.675,0,3.016,1.341,3.016,3.016v7.372
		c0,1.676-1.341,3.016-3.016,3.016h-11.729v21.669h7.931c1.676,0,3.016,1.34,3.016,3.016v5.585c0,1.675-1.34,3.016-3.016,3.016
		h-7.931v19.77H1000.728z"/>
	<path fill="#999999" d="M1071.765,431.915l-12.286,74.389c-0.224,1.675-1.787,3.016-3.463,3.016h-10.834
		c-1.676,0-3.239-1.341-3.463-3.016l-12.286-74.389c-0.224-1.675,0.894-3.016,2.568-3.016h10.388c1.676,0,3.128,1.341,3.351,3.016
		c4.468,47.135,4.468,47.135,4.804,50.151c0.335-3.017,0.335-3.017,4.914-50.151c0.224-1.675,1.676-3.016,3.351-3.016h10.388
		C1070.871,428.899,1071.988,430.24,1071.765,431.915z"/>
	<path fill="#999999" d="M1115.548,506.304c0,1.675-1.34,3.016-3.016,3.016h-9.829c-1.675,0-3.016-1.341-3.016-3.016v-74.389
		c0-1.675,1.341-3.016,3.016-3.016h9.829c1.676,0,3.016,1.341,3.016,3.016V506.304z"/>
	<path fill="#999999" d="M1182.229,448.223v41.773c0,5.473-2.011,10.388-5.696,14.073c-3.463,3.352-8.042,5.25-13.068,5.25h-15.638
		c-1.675,0-3.016-1.341-3.016-3.016v-74.389c0-1.675,1.341-3.016,3.016-3.016h15.638c5.026,0,9.605,1.898,13.068,5.25
		C1180.219,437.835,1182.229,442.75,1182.229,448.223z M1166.257,445.542c0-2.346-1.117-3.463-2.792-3.463h-2.681v54.061h2.681
		c1.898,0,2.792-1.117,2.792-3.463V445.542z"/>
	<path fill="#999999" d="M1209.593,428.899h31.163v13.403h-14.744v21.669h10.946v11.616h-10.946v19.77h14.744v13.962h-31.163
		V428.899z M1235.841,419.74l-3.686,3.909c-0.335,0.335-0.894,0.447-1.229,0.112l-5.138-4.133c-0.336-0.335-1.006-0.335-1.341,0
		l-5.25,4.133c-0.335,0.335-0.894,0.223-1.229-0.112l-3.574-3.909c-0.335-0.335-0.224-0.894,0.112-1.229l9.94-7.595
		c0.335-0.335,1.005-0.335,1.341,0l9.94,7.595C1236.064,418.847,1236.176,419.405,1235.841,419.74z"/>
	<path fill="#999999" d="M1305.984,431.915v74.389c0,1.675-1.34,3.016-3.016,3.016h-8.377c-1.676,0-3.351-1.341-3.686-2.904
		l-9.159-40.656v40.545c0,1.675-1.341,3.016-3.016,3.016h-7.931c-1.675,0-3.016-1.341-3.016-3.016v-74.389
		c0-1.675,1.341-3.016,3.016-3.016h8.824c1.676,0,3.239,1.341,3.574,2.904c8.153,39.428,8.153,39.428,8.824,42.332v-42.221
		c0-1.675,1.34-3.016,3.016-3.016h7.93C1304.645,428.899,1305.984,430.24,1305.984,431.915z"/>
	<path fill="#999999" d="M1370.88,445.43v13.292c0,1.676-1.341,3.016-3.016,3.016h-9.829c-1.676,0-3.016-1.34-3.016-3.016v-14.185
		c0-2.346-2.011-2.569-2.793-2.569c-0.781,0-2.792,0.224-2.792,2.569v49.703c0,2.346,2.011,2.569,2.792,2.569
		c0.782,0,2.793-0.224,2.793-2.569v-13.626c0-1.676,1.34-3.017,3.016-3.017h9.829c1.675,0,3.016,1.341,3.016,3.017v12.732
		c0,5.474-2.011,9.494-5.696,13.181c-3.352,3.351-8.042,4.355-12.957,4.355c-4.914,0-9.605-1.005-12.956-4.355
		c-3.687-3.687-5.696-7.707-5.696-13.181V445.43c0-5.473,2.01-9.605,5.696-13.18c3.351-3.351,8.042-4.355,12.956-4.355
		c4.915,0,9.605,1.005,12.957,4.355C1368.869,435.824,1370.88,439.957,1370.88,445.43z"/>
	<path fill="#999999" d="M1414.774,506.304c0,1.675-1.34,3.016-3.016,3.016h-9.829c-1.675,0-3.016-1.341-3.016-3.016v-74.389
		c0-1.675,1.341-3.016,3.016-3.016h9.829c1.676,0,3.016,1.341,3.016,3.016V506.304z"/>
	<path fill="#999999" d="M1482.236,509.319h-10.387c-1.452,0-2.904-1.117-3.239-2.569l-0.782-9.494h-8.042l-0.782,9.494
		c-0.446,1.452-1.787,2.569-3.351,2.569h-10.388c-1.563,0-2.792-1.341-2.457-3.016l12.398-74.389
		c0.223-1.675,1.898-3.016,3.462-3.016h5.026h0.111h5.026c1.676,0,3.239,1.341,3.574,3.016l12.398,74.389
		C1485.029,507.979,1483.912,509.319,1482.236,509.319z M1466.711,485.305l-2.904-31.497l-2.903,31.497H1466.711z"/>
	<path fill="#999999" d="M1546.237,483.965v9.382c0,5.139-1.787,9.271-5.696,13.068c-3.016,3.016-7.148,4.468-13.068,4.468
		c-5.696,0-9.383-1.34-12.51-4.468c-3.909-3.798-5.696-7.93-5.696-13.068v-9.829c0-1.675,1.34-3.016,3.016-3.016h9.382
		c1.676,0,3.016,1.341,3.016,3.016v10.611c0,2.234,2.123,2.457,2.793,2.457c0.559,0,2.681-0.223,2.681-2.457V484.3
		c0-3.463-1.005-3.798-4.803-7.483l-11.616-10.499c-3.016-3.017-4.468-5.92-4.468-10.835c0-0.223,0-10.053,0-10.053
		c0-5.138,1.787-9.382,5.696-13.18c3.127-3.016,6.813-4.355,12.621-4.355c5.696,0,9.383,1.34,12.51,4.355
		c3.909,3.798,5.696,8.042,5.696,13.18v8.601c0,1.676-1.34,3.017-3.016,3.017h-9.605c-1.676,0-3.016-1.341-3.016-3.017v-9.382
		c0-2.122-1.563-2.569-2.346-2.569c-1.005,0-2.457,0.447-2.457,2.458v9.382c0,3.798,2.122,4.468,4.803,7.148l11.84,10.164
		C1545.567,474.806,1546.237,477.821,1546.237,483.965z"/>
</g>
</svg>
