<?xml version="1.0" encoding="utf-8"?>
<!-- Generator: Adobe Illustrator 14.0.0, SVG Export Plug-In . SVG Version: 6.00 Build 43363)  -->
<!DOCTYPE svg PUBLIC "-//W3C//DTD SVG 1.1//EN" "http://www.w3.org/Graphics/SVG/1.1/DTD/svg11.dtd">
<svg version="1.1" id="Camada_1" xmlns="http://www.w3.org/2000/svg" xmlns:xlink="http://www.w3.org/1999/xlink" x="0px" y="0px"
	 width="1600px" height="600px" viewBox="0 0 1600 600" enable-background="new 0 0 1600 600" xml:space="preserve">
<g>
	
		<linearGradient id="SVGID_1_" gradientUnits="userSpaceOnUse" x1="96.1753" y1="404.9824" x2="96.1753" y2="57.1304" gradientTransform="matrix(0.9993 2.876764e-005 -0.1688 0.9923 68.6777 1.2019)">
		<stop  offset="0" style="stop-color:#465099"/>
		<stop  offset="1" style="stop-color:#666FE4"/>
	</linearGradient>
	<path fill="url(#SVGID_1_)" d="M160.995,343.143c7.251,0.001,12.073,5.754,10.848,12.945l-5.796,34.038
		c-1.225,7.192-8.006,12.943-15.257,12.942l-108.774-0.003c-7.252,0-12.073-5.751-10.849-12.942L85.542,70.837
		c1.225-7.191,8.005-12.945,15.258-12.944l108.774,0.003c7.251,0,12.073,5.753,10.848,12.945l-5.388,31.641
		c-1.225,7.191-8.006,12.943-15.257,12.943l-50.762-0.001l-15.838,93.004l34.324,0.001c7.252,0,12.073,5.753,10.849,12.944
		l-4.082,23.971c-1.225,7.191-8.006,12.943-15.258,12.943l-34.325-0.001l-14.451,84.854L160.995,343.143z"/>
	
		<linearGradient id="SVGID_2_" gradientUnits="userSpaceOnUse" x1="268.3145" y1="404.9824" x2="268.3145" y2="62.6294" gradientTransform="matrix(0.9993 2.876764e-005 -0.1688 0.9923 68.6777 1.2019)">
		<stop  offset="0" style="stop-color:#465099"/>
		<stop  offset="1" style="stop-color:#666FE4"/>
	</linearGradient>
	<path fill="url(#SVGID_2_)" d="M414.243,76.1L308.389,390.334c-2.156,7.079-9.782,12.738-16.919,12.739l-46.152-0.002
		c-7.137,0.001-12.833-5.661-12.58-12.739l1.178-314.238c0.254-7.078,5.976-12.74,13.113-12.74l44.25,0.001
		c7.137,0,12.357,5.663,12.104,12.741c-14.877,199.112-14.877,199.112-15.62,211.852c3.597-12.739,3.597-12.739,57.013-211.851
		c2.158-7.078,9.308-12.74,16.444-12.74l44.249,0.001C412.605,63.359,416.399,69.021,414.243,76.1z"/>
	
		<linearGradient id="SVGID_3_" gradientUnits="userSpaceOnUse" x1="416.1108" y1="404.9824" x2="416.1108" y2="62.6299" gradientTransform="matrix(0.9993 2.876764e-005 -0.1688 0.9923 68.6777 1.2019)">
		<stop  offset="0" style="stop-color:#465099"/>
		<stop  offset="1" style="stop-color:#666FE4"/>
	</linearGradient>
	<path fill="url(#SVGID_3_)" d="M452.08,390.338c-1.206,7.078-7.88,12.739-15.016,12.739l-41.871-0.001
		c-7.138,0-11.882-5.661-10.677-12.739L438.031,76.1c1.206-7.078,7.879-12.74,15.017-12.739l41.87,0.001
		c7.136,0,11.882,5.663,10.676,12.741L452.08,390.338z"/>
	
		<linearGradient id="SVGID_4_" gradientUnits="userSpaceOnUse" x1="559.1699" y1="404.9824" x2="559.1699" y2="62.6294" gradientTransform="matrix(0.9993 2.876764e-005 -0.1688 0.9923 68.6777 1.2019)">
		<stop  offset="0" style="stop-color:#465099"/>
		<stop  offset="1" style="stop-color:#666FE4"/>
	</linearGradient>
	<path fill="url(#SVGID_4_)" d="M682.75,144.994l-30.052,176.464c-3.938,23.12-16.039,43.879-34.391,59.448
		c-17.16,14.155-38.034,22.175-59.445,22.175l-66.611-0.002c-7.137-0.001-11.882-5.661-10.677-12.739l53.515-314.237
		c1.206-7.078,7.88-12.74,15.017-12.74l66.611,0.002c21.411,0.001,39.553,8.023,51.891,22.179
		C681.658,101.114,686.688,121.875,682.75,144.994z M616.639,133.669c1.688-9.91-2.266-14.628-9.404-14.627l-11.419-0.001
		l-38.892,228.364l11.42,0.001c8.088,0,12.698-4.718,14.386-14.626L616.639,133.669z"/>
	
		<linearGradient id="SVGID_5_" gradientUnits="userSpaceOnUse" x1="764.2124" y1="384.8555" x2="764.2124" y2="138.0562" gradientTransform="matrix(0.9993 2.876764e-005 -0.1688 0.9923 68.6777 1.2019)">
		<stop  offset="0" style="stop-color:#465099"/>
		<stop  offset="1" style="stop-color:#666FE4"/>
	</linearGradient>
	<path fill="url(#SVGID_5_)" d="M830.179,287.632c-1.496,8.789,8.035,9.589,11.867,8.39c5.105-1.597,10.886-4.794,17.421-14.781
		c5.86-8.389,8.912-21.573,9.349-35.955l0.067-0.4c0.159-41.149-26.09-73.909-64.36-73.91c-4.834,0-9.806,0.799-14.776,1.597
		c-22.503,4.394-42.548,20.375-58.036,40.35c-14.949,19.175-23.258,41.947-23.845,64.318c-0.228,41.549,25.889,72.711,64.162,72.712
		c4.833,0,8.931-0.399,14.372-1.598c6.247-1.198,12.964-2.795,20.357-5.993l14.714,27.168c-11.831,5.593-23.39,9.588-35.011,11.586
		c-7.524,1.598-14.037,1.996-21.289,1.998c-7.251,0-13.963-0.801-20.943-2.399c-13.555-3.197-25.966-8.389-35.68-17.581
		c-10.658-8.389-18.491-19.175-24.233-32.759c-6.012-14.382-8.999-29.963-8.626-46.342c0.039-16.779,3.298-33.559,9.578-49.139
		c5.405-15.181,13.899-29.564,24.739-43.546l0.068-0.4c10.705-13.183,22.682-24.369,36.599-32.758
		c13.583-8.789,28.705-14.781,43.751-17.978c7.524-1.597,14.037-1.997,20.888-1.997c7.654,0,14.365,0.8,21.345,2.397
		c13.556,3.197,25.898,8.79,35.612,17.979c10.522,9.189,18.888,21.574,24.365,34.358c5.677,13.983,8.328,29.164,8.359,45.544
		c-0.249,20.375-5.8,41.148-15.978,58.327c-5.123,8.788-11.652,16.378-18.581,21.571h-0.403
		c-9.889,8.39-19.295,11.586-29.768,11.585c-10.878,0-23.964-3.597-27.982-8.392c-5.692-6.791-6.287-10.385-6.68-15.18
		c-2.831,4.795-7.807,7.989-11.233,9.188c-6.452,2.399-9.339,2.797-14.979,2.797c-14.101-0.001-24.564-4.795-32.662-16.381
		c-8.236-10.787-11.358-25.569-8.637-41.548c2.722-15.981,10.88-30.763,22.856-41.948s24.073-15.979,38.174-15.979
		c8.46,0,19.598,3.197,18.237,11.187l1.7-9.987l29.41,0.001L830.179,287.632z M802.979,260.466
		c2.178-12.785-1.483-26.767-13.166-26.768c-11.684,0-21.72,13.981-23.897,26.767c-2.177,12.784,3.096,26.767,14.78,26.766
		C792.377,287.231,800.802,273.25,802.979,260.466z"/>
	
		<linearGradient id="SVGID_6_" gradientUnits="userSpaceOnUse" x1="961.4492" y1="404.9824" x2="961.4492" y2="57.1304" gradientTransform="matrix(0.9993 2.876764e-005 -0.1688 0.9923 68.6777 1.2019)">
		<stop  offset="0" style="stop-color:#465099"/>
		<stop  offset="1" style="stop-color:#666FE4"/>
	</linearGradient>
	<path fill="url(#SVGID_6_)" d="M1025.701,343.168c7.252,0,12.072,5.753,10.847,12.945l-5.796,34.038
		c-1.226,7.191-8.006,12.942-15.258,12.942l-108.773-0.003c-7.252-0.001-12.074-5.753-10.85-12.943l54.375-319.286
		c1.226-7.19,8.007-12.944,15.26-12.943l108.772,0.003c7.252,0,12.073,5.754,10.849,12.944l-5.389,31.641
		c-1.226,7.191-8.006,12.944-15.257,12.944l-50.762-0.001l-15.837,93.004l34.323,0.001c7.251,0,12.073,5.753,10.848,12.944
		l-4.082,23.971c-1.225,7.19-8.006,12.943-15.258,12.943l-34.323-0.001l-14.451,84.855L1025.701,343.168z"/>
	
		<linearGradient id="SVGID_7_" gradientUnits="userSpaceOnUse" x1="1118.3418" y1="404.9824" x2="1118.3418" y2="115.1074" gradientTransform="matrix(0.9993 2.876764e-005 -0.1688 0.9923 68.6777 1.2019)">
		<stop  offset="0" style="stop-color:#465099"/>
		<stop  offset="1" style="stop-color:#666FE4"/>
	</linearGradient>
	<path fill="url(#SVGID_7_)" d="M1184.454,403.099l-37.465-0.001c-5.238-0.001-9.796-3.994-10.12-9.188l2.963-33.958l-29.006-0.001
		l-8.602,33.958c-2.498,5.194-8.011,9.188-13.65,9.188l-37.468-0.001c-5.641,0-9.255-4.794-7.026-10.786l90.033-266.067
		c1.824-5.993,8.685-10.787,14.324-10.787l18.128,0l0.403,0l18.129,0.001c6.043,0,10.867,4.794,11.055,10.787l-0.596,266.07
		C1195.342,398.306,1190.497,403.1,1184.454,403.099z M1143.082,317.204l8.715-112.659l-29.662,112.658L1143.082,317.204z"/>
	
		<linearGradient id="SVGID_8_" gradientUnits="userSpaceOnUse" x1="1268.5684" y1="410.6201" x2="1268.5684" y2="111.4844" gradientTransform="matrix(0.9993 2.876764e-005 -0.1688 0.9923 68.6777 1.2019)">
		<stop  offset="0" style="stop-color:#465099"/>
		<stop  offset="1" style="stop-color:#666FE4"/>
	</linearGradient>
	<path fill="url(#SVGID_8_)" d="M1350.164,312.415l-5.714,33.559c-3.13,18.378-12.094,33.16-28.508,46.742
		c-12.714,10.785-28.505,15.98-49.855,15.979c-20.547-0.001-33.026-4.796-42.4-15.982c-11.787-13.583-15.714-28.365-12.586-46.743
		l5.986-35.153c1.022-5.995,6.673-10.789,12.716-10.788l33.84,0c6.043,0,10.061,4.793,9.039,10.788l-6.463,37.954
		c-1.361,7.988,6.158,8.788,8.576,8.788c2.015,0,9.804-0.799,11.164-8.788l5.987-35.157c2.111-12.385-1.312-13.583-12.763-26.767
		l-35.503-37.555c-9.039-10.786-12.509-21.174-9.515-38.752c0.136-0.799,6.123-35.956,6.123-35.956
		c3.129-18.377,12.159-33.558,28.574-47.141c13.116-10.788,27.228-15.58,48.176-15.58c20.547,0,33.025,4.794,42.469,15.582
		c11.787,13.583,15.647,28.765,12.519,47.142l-5.239,30.762c-1.021,5.993-6.673,10.787-12.715,10.787l-34.646-0.001
		c-6.043,0-10.062-4.794-9.04-10.787l5.714-33.557c1.293-7.592-4.073-9.189-6.895-9.189c-3.626,0-9.135,1.597-10.359,8.79
		l-5.715,33.557c-2.314,13.583,4.933,15.981,12.969,25.57l36.512,36.356C1353.326,279.657,1353.907,290.444,1350.164,312.415z"/>
	
		<linearGradient id="SVGID_9_" gradientUnits="userSpaceOnUse" x1="1421.2012" y1="404.9824" x2="1421.2012" y2="115.1074" gradientTransform="matrix(0.9993 2.876764e-005 -0.1688 0.9923 68.6777 1.2019)">
		<stop  offset="0" style="stop-color:#465099"/>
		<stop  offset="1" style="stop-color:#666FE4"/>
	</linearGradient>
	<path fill="url(#SVGID_9_)" d="M1450.164,392.32c-1.02,5.991-6.67,10.786-12.712,10.785l-34.243-0.001
		c-6.045,0.001-10.062-4.794-9.042-10.786l18.575-109.064l-25.164-157.405c-0.658-5.593,3.382-10.387,9.424-10.387l34.646,0.001
		c6.043,0,11.269,4.795,11.928,10.388l9.612,85.494l38.731-85.493c2.563-5.594,9.424-10.388,15.467-10.388l34.646,0.001
		c6.045,0.001,8.45,4.795,5.886,10.389l-79.315,158.202L1450.164,392.32z"/>
</g>
<g>
	<path fill="#999999" d="M68.374,482.356v8.453c0,5.242-1.926,10.058-5.35,13.481c-3.317,3.209-8.453,5.028-13.161,5.028H34.778
		c-1.605,0-2.889-1.284-2.889-2.889v-71.259c0-1.604,1.284-2.889,2.889-2.889h14.23c4.708,0,9.844,1.819,13.161,5.136
		c3.424,3.424,5.35,8.238,5.35,13.374v7.276c0,4.279-2.14,8.345-4.708,11.555C65.913,473.048,68.374,477.542,68.374,482.356z
		 M47.189,464.702h2.033c2.033,0,2.996-1.283,2.996-3.209v-13.268c0-2.14-1.284-3.21-3.21-3.21h-1.819V464.702z M53.074,478.933
		c0-2.14-1.498-3.316-3.103-3.316c-0.321,0-2.782,0-2.782,0v21.078h2.675c2.461,0,3.21-1.07,3.21-3.317V478.933z"/>
	<path fill="#999999" d="M124.869,435.279v58.419c0,5.136-1.926,9.522-5.35,12.946c-3.317,3.21-7.811,4.173-12.519,4.173
		c-4.708,0-9.309-0.963-12.518-4.173c-3.424-3.424-5.35-7.811-5.35-12.946v-58.419c0-1.605,1.284-2.889,2.889-2.889h9.309
		c1.604,0,2.889,1.283,2.889,2.889v59.703c0,2.14,2.033,2.354,2.782,2.354s2.782-0.214,2.782-2.354v-59.703
		c0-1.605,1.284-2.889,2.889-2.889h9.309C123.585,432.391,124.869,433.674,124.869,435.279z M110.531,427.896
		c-0.214,0.428-0.856,0.749-1.284,0.749h-4.066c-0.428,0-0.749-0.321-0.642-0.856l2.568-11.234c0.107-0.428,0.642-0.855,1.07-0.855
		h8.773c0.428,0,0.642,0.32,0.428,0.749L110.531,427.896z"/>
	<path fill="#999999" d="M181.257,485.031v8.988c0,4.921-1.712,8.88-5.457,12.518c-2.889,2.89-6.848,4.28-12.518,4.28
		c-5.457,0-8.988-1.284-11.983-4.28c-3.745-3.638-5.457-7.597-5.457-12.518v-9.416c0-1.604,1.284-2.889,2.889-2.889h8.987
		c1.605,0,2.889,1.284,2.889,2.889v10.164c0,2.141,2.033,2.354,2.675,2.354c0.535,0,2.568-0.214,2.568-2.354v-9.415
		c0-3.316-0.963-3.638-4.601-7.169l-11.127-10.058c-2.889-2.889-4.28-5.67-4.28-10.378c0-0.214,0-9.63,0-9.63
		c0-4.922,1.712-8.987,5.457-12.625c2.996-2.889,6.526-4.173,12.09-4.173c5.457,0,8.987,1.284,11.983,4.173
		c3.745,3.638,5.457,7.703,5.457,12.625v8.239c0,1.604-1.284,2.889-2.889,2.889h-9.202c-1.605,0-2.889-1.284-2.889-2.889v-8.988
		c0-2.032-1.498-2.461-2.247-2.461c-0.963,0-2.354,0.429-2.354,2.354v8.987c0,3.638,2.033,4.279,4.601,6.848l11.341,9.736
		C180.615,476.258,181.257,479.146,181.257,485.031z"/>
	<path fill="#999999" d="M234.971,510.282c-2.461-0.642-4.494-1.604-5.564-2.889c-2.782,1.712-5.885,3.424-9.202,3.424
		c-4.708,0-9.094-0.963-12.411-4.173c-3.424-3.531-5.35-7.383-5.35-12.625v-45.901c0-5.242,1.926-9.201,5.35-12.625
		c3.317-3.21,7.704-4.173,12.411-4.173c4.708,0,9.202,0.963,12.412,4.173c3.531,3.424,5.457,7.383,5.457,12.625v45.901
		c0,2.567-0.856,4.707-2.14,6.419c0,0-0.642,0,1.391,0c2.033,0,2.033,1.498,2.033,1.498s0,3.103,0,6.313
		C239.357,511.353,236.254,510.496,234.971,510.282z M220.205,497.336c0.642,0,1.07-0.428,1.177-0.428
		c1.605-1.712-0.963-3.531-0.963-5.671h2.461v-43.975c0-2.247-1.819-2.461-2.675-2.461c-0.749,0-2.568,0.214-2.568,2.461v47.612
		C217.637,497.122,219.456,497.336,220.205,497.336z"/>
	<path fill="#999999" d="M296.28,435.279v58.419c0,5.136-1.926,9.522-5.35,12.946c-3.317,3.21-7.811,4.173-12.519,4.173
		c-4.708,0-9.309-0.963-12.519-4.173c-3.424-3.424-5.35-7.811-5.35-12.946v-58.419c0-1.605,1.284-2.889,2.889-2.889h9.308
		c1.605,0,2.889,1.283,2.889,2.889v59.703c0,2.14,2.033,2.354,2.782,2.354s2.782-0.214,2.782-2.354v-59.703
		c0-1.605,1.284-2.889,2.889-2.889h9.309C294.996,432.391,296.28,433.674,296.28,435.279z"/>
	<path fill="#999999" d="M345.18,495.945c1.605,0,2.889,1.283,2.889,2.889v7.597c0,1.604-1.284,2.889-2.889,2.889h-24.074
		c-1.605,0-2.889-1.284-2.889-2.889v-71.259c0-1.604,1.284-2.889,2.889-2.889h24.074c1.605,0,2.889,1.284,2.889,2.889v7.062
		c0,1.605-1.284,2.89-2.889,2.89h-11.234v20.757h7.597c1.604,0,2.889,1.283,2.889,2.889v5.35c0,1.604-1.284,2.889-2.889,2.889
		h-7.597v18.938H345.18z"/>
	<path fill="#999999" d="M405.527,450.793v40.017c0,5.242-1.926,9.95-5.457,13.481c-3.317,3.209-7.704,5.028-12.519,5.028h-14.979
		c-1.605,0-2.889-1.284-2.889-2.889v-71.259c0-1.604,1.284-2.889,2.889-2.889h14.979c4.815,0,9.202,1.819,12.519,5.028
		C403.601,440.843,405.527,445.551,405.527,450.793z M390.227,448.226c0-2.247-1.07-3.317-2.675-3.317h-2.568v51.786h2.568
		c1.819,0,2.675-1.07,2.675-3.317V448.226z"/>
	<path fill="#999999" d="M461.808,509.319h-9.951c-1.391,0-2.782-1.07-3.103-2.461l-0.749-9.095h-7.704l-0.749,9.095
		c-0.428,1.391-1.712,2.461-3.21,2.461h-9.95c-1.498,0-2.675-1.284-2.354-2.889l11.876-71.259c0.214-1.604,1.819-2.889,3.317-2.889
		h4.814h0.107h4.814c1.605,0,3.103,1.284,3.424,2.889l11.876,71.259C464.483,508.035,463.413,509.319,461.808,509.319z
		 M446.936,486.315l-2.782-30.173l-2.782,30.173H446.936z"/>
	<path fill="#999999" d="M556.18,448.118v12.84c0,1.604-1.284,2.889-2.889,2.889h-9.416c-1.605,0-2.889-1.284-2.889-2.889v-13.695
		c0-2.247-1.926-2.461-2.675-2.461c-0.749,0-2.675,0.214-2.675,2.461v47.612c0,2.247,2.14,2.461,2.889,2.461
		s2.461-0.214,2.889-2.461v-14.123c-1.819,0-3.103-1.284-3.103-2.889v-2.675c0-1.605,1.284-2.89,2.889-2.89h12.09
		c1.605,0,2.889,1.284,2.889,2.89v34.131h-4.28c0,0-0.535-3.745-0.749-3.531c-3.209,3.21-6.206,5.029-12.839,5.029
		c-4.708,0-9.201-0.963-12.411-4.173c-3.531-3.531-5.457-7.383-5.457-12.625v-45.901c0-5.242,1.926-9.201,5.457-12.625
		c3.21-3.21,7.704-4.173,12.411-4.173c4.708,0,9.202,0.963,12.412,4.173C554.254,438.917,556.18,442.876,556.18,448.118z"/>
	<path fill="#999999" d="M612.89,435.279v58.419c0,5.136-1.926,9.522-5.35,12.946c-3.317,3.21-7.811,4.173-12.519,4.173
		c-4.708,0-9.309-0.963-12.519-4.173c-3.424-3.424-5.35-7.811-5.35-12.946v-58.419c0-1.605,1.284-2.889,2.889-2.889h9.308
		c1.605,0,2.889,1.283,2.889,2.889v59.703c0,2.14,2.033,2.354,2.782,2.354s2.782-0.214,2.782-2.354v-59.703
		c0-1.605,1.284-2.889,2.889-2.889h9.309C611.605,432.391,612.89,433.674,612.89,435.279z"/>
	<path fill="#999999" d="M647.986,509.319h-9.416c-1.605,0-2.889-1.284-2.889-2.889v-71.259c0-1.604,1.284-2.889,2.889-2.889h9.416
		c1.605,0,2.889,1.284,2.889,2.889v71.259C650.875,508.035,649.591,509.319,647.986,509.319z"/>
	<path fill="#999999" d="M711.221,509.319h-9.95c-1.391,0-2.782-1.07-3.103-2.461l-0.749-9.095h-7.704l-0.749,9.095
		c-0.428,1.391-1.712,2.461-3.21,2.461h-9.95c-1.498,0-2.675-1.284-2.354-2.889l11.876-71.259c0.214-1.604,1.819-2.889,3.317-2.889
		h4.814h0.107h4.815c1.605,0,3.103,1.284,3.424,2.889l11.876,71.259C713.896,508.035,712.826,509.319,711.221,509.319z
		 M696.349,486.315l-2.782-30.173l-2.782,30.173H696.349z"/>
	<path fill="#999999" d="M771.247,450.793v40.017c0,5.242-1.926,9.95-5.457,13.481c-3.317,3.209-7.704,5.028-12.519,5.028h-14.979
		c-1.605,0-2.889-1.284-2.889-2.889v-71.259c0-1.604,1.284-2.889,2.889-2.889h14.979c4.815,0,9.202,1.819,12.519,5.028
		C769.321,440.843,771.247,445.551,771.247,450.793z M755.946,448.226c0-2.247-1.07-3.317-2.675-3.317h-2.568v51.786h2.568
		c1.819,0,2.675-1.07,2.675-3.317V448.226z"/>
	<path fill="#999999" d="M827.528,509.319h-9.951c-1.391,0-2.781-1.07-3.103-2.461l-0.749-9.095h-7.704l-0.748,9.095
		c-0.429,1.391-1.712,2.461-3.21,2.461h-9.951c-1.498,0-2.675-1.284-2.354-2.889l11.876-71.259c0.215-1.604,1.819-2.889,3.317-2.889
		h4.814h0.107h4.814c1.604,0,3.103,1.284,3.424,2.889l11.876,71.259C830.203,508.035,829.133,509.319,827.528,509.319z
		 M812.655,486.315l-2.781-30.173l-2.782,30.173H812.655z"/>
	<path fill="#999999" d="M922.756,450.793v40.017c0,5.242-1.926,9.95-5.457,13.481c-3.316,3.209-7.704,5.028-12.519,5.028h-14.979
		c-1.604,0-2.889-1.284-2.889-2.889v-71.259c0-1.604,1.284-2.889,2.889-2.889h14.979c4.814,0,9.202,1.819,12.519,5.028
		C920.83,440.843,922.756,445.551,922.756,450.793z M907.455,448.226c0-2.247-1.069-3.317-2.675-3.317h-2.567v51.786h2.567
		c1.819,0,2.675-1.07,2.675-3.317V448.226z"/>
	<path fill="#999999" d="M971.654,495.945c1.604,0,2.889,1.283,2.889,2.889v7.597c0,1.604-1.284,2.889-2.889,2.889H947.58
		c-1.604,0-2.889-1.284-2.889-2.889v-71.259c0-1.604,1.284-2.889,2.889-2.889h24.074c1.604,0,2.889,1.284,2.889,2.889v7.062
		c0,1.605-1.284,2.89-2.889,2.89H960.42v20.757h7.597c1.604,0,2.889,1.283,2.889,2.889v5.35c0,1.604-1.284,2.889-2.889,2.889h-7.597
		v18.938H971.654z"/>
	<path fill="#999999" d="M1058.323,495.945c1.604,0,2.889,1.283,2.889,2.889v7.597c0,1.604-1.284,2.889-2.889,2.889h-24.074
		c-1.604,0-2.889-1.284-2.889-2.889v-71.259c0-1.604,1.284-2.889,2.889-2.889h24.074c1.604,0,2.889,1.284,2.889,2.889v7.062
		c0,1.605-1.284,2.89-2.889,2.89h-11.234v20.757h7.597c1.604,0,2.889,1.283,2.889,2.889v5.35c0,1.604-1.284,2.889-2.889,2.889
		h-7.597v18.938H1058.323z"/>
	<path fill="#999999" d="M1122.095,435.172l-11.77,71.259c-0.214,1.604-1.712,2.889-3.317,2.889h-10.378
		c-1.605,0-3.104-1.284-3.317-2.889l-11.77-71.259c-0.214-1.604,0.856-2.889,2.461-2.889h9.951c1.604,0,2.995,1.284,3.21,2.889
		c4.279,45.152,4.279,45.152,4.601,48.041c0.32-2.889,0.32-2.889,4.707-48.041c0.215-1.604,1.605-2.889,3.21-2.889h9.951
		C1121.238,432.283,1122.309,433.567,1122.095,435.172z"/>
	<path fill="#999999" d="M1156.87,509.319h-9.415c-1.605,0-2.889-1.284-2.889-2.889v-71.259c0-1.604,1.283-2.889,2.889-2.889h9.415
		c1.605,0,2.89,1.284,2.89,2.889v71.259C1159.76,508.035,1158.476,509.319,1156.87,509.319z"/>
	<path fill="#999999" d="M1219.356,450.793v40.017c0,5.242-1.927,9.95-5.457,13.481c-3.317,3.209-7.704,5.028-12.519,5.028h-14.979
		c-1.604,0-2.889-1.284-2.889-2.889v-71.259c0-1.604,1.284-2.889,2.889-2.889h14.979c4.814,0,9.201,1.819,12.519,5.028
		C1217.43,440.843,1219.356,445.551,1219.356,450.793z M1204.056,448.226c0-2.247-1.069-3.317-2.675-3.317h-2.567v51.786h2.567
		c1.819,0,2.675-1.07,2.675-3.317V448.226z"/>
	<path fill="#999999" d="M1268.255,495.945c1.604,0,2.889,1.283,2.889,2.889v7.597c0,1.604-1.284,2.889-2.889,2.889h-24.074
		c-1.604,0-2.889-1.284-2.889-2.889v-71.259c0-1.604,1.284-2.889,2.889-2.889h24.074c1.604,0,2.889,1.284,2.889,2.889v7.062
		c0,1.605-1.284,2.89-2.889,2.89h-11.234v20.757h7.597c1.604,0,2.889,1.283,2.889,2.889v5.35c0,1.604-1.284,2.889-2.889,2.889
		h-7.597v18.938H1268.255z"/>
	<path fill="#999999" d="M1329.352,435.172v71.259c0,1.604-1.284,2.889-2.89,2.889h-8.024c-1.604,0-3.21-1.284-3.53-2.782
		l-8.774-38.945v38.839c0,1.604-1.283,2.889-2.889,2.889h-7.597c-1.604,0-2.889-1.284-2.889-2.889v-71.259
		c0-1.604,1.284-2.889,2.889-2.889h8.453c1.604,0,3.103,1.284,3.424,2.782c7.811,37.769,7.811,37.769,8.452,40.551v-40.444
		c0-1.604,1.284-2.889,2.889-2.889h7.597C1328.067,432.283,1329.352,433.567,1329.352,435.172z"/>
	<path fill="#999999" d="M1387.237,448.118v12.732c0,1.605-1.284,2.889-2.889,2.889h-9.416c-1.604,0-2.889-1.283-2.889-2.889
		v-13.588c0-2.247-1.926-2.461-2.675-2.461s-2.675,0.214-2.675,2.461v47.612c0,2.247,1.926,2.461,2.675,2.461
		s2.675-0.214,2.675-2.461v-13.054c0-1.604,1.284-2.889,2.889-2.889h9.416c1.604,0,2.889,1.284,2.889,2.889v12.198
		c0,5.242-1.926,9.094-5.457,12.625c-3.209,3.21-7.703,4.173-12.411,4.173s-9.201-0.963-12.411-4.173
		c-3.531-3.531-5.457-7.383-5.457-12.625v-45.901c0-5.242,1.926-9.201,5.457-12.625c3.21-3.21,7.703-4.173,12.411-4.173
		s9.202,0.963,12.411,4.173C1385.312,438.917,1387.237,442.876,1387.237,448.118z"/>
	<path fill="#999999" d="M1422.12,509.319h-9.415c-1.605,0-2.889-1.284-2.889-2.889v-71.259c0-1.604,1.283-2.889,2.889-2.889h9.415
		c1.605,0,2.89,1.284,2.89,2.889v71.259C1425.01,508.035,1423.726,509.319,1422.12,509.319z"/>
	<path fill="#999999" d="M1485.355,509.319h-9.951c-1.391,0-2.781-1.07-3.103-2.461l-0.749-9.095h-7.703l-0.749,9.095
		c-0.429,1.391-1.712,2.461-3.21,2.461h-9.951c-1.498,0-2.675-1.284-2.354-2.889l11.876-71.259c0.215-1.604,1.819-2.889,3.317-2.889
		h4.814h0.107h4.814c1.605,0,3.103,1.284,3.424,2.889l11.877,71.259C1488.03,508.035,1486.96,509.319,1485.355,509.319z
		 M1470.482,486.315l-2.781-30.173l-2.782,30.173H1470.482z"/>
	<path fill="#999999" d="M1542.92,485.031v8.988c0,4.921-1.712,8.88-5.456,12.518c-2.89,2.89-6.848,4.28-12.519,4.28
		c-5.457,0-8.987-1.284-11.983-4.28c-3.745-3.638-5.457-7.597-5.457-12.518v-9.416c0-1.604,1.284-2.889,2.889-2.889h8.988
		c1.604,0,2.889,1.284,2.889,2.889v10.164c0,2.141,2.032,2.354,2.675,2.354c0.535,0,2.567-0.214,2.567-2.354v-9.415
		c0-3.316-0.963-3.638-4.601-7.169l-11.127-10.058c-2.89-2.889-4.28-5.67-4.28-10.378c0-0.214,0-9.63,0-9.63
		c0-4.922,1.712-8.987,5.457-12.625c2.996-2.889,6.526-4.173,12.09-4.173c5.457,0,8.988,1.284,11.983,4.173
		c3.745,3.638,5.457,7.703,5.457,12.625v8.239c0,1.604-1.284,2.889-2.889,2.889h-9.201c-1.605,0-2.89-1.284-2.89-2.889v-8.988
		c0-2.032-1.498-2.461-2.247-2.461c-0.963,0-2.354,0.429-2.354,2.354v8.987c0,3.638,2.033,4.279,4.601,6.848l11.342,9.736
		C1542.278,476.258,1542.92,479.146,1542.92,485.031z"/>
</g>
</svg>
