<?xml version="1.0" encoding="utf-8"?>
<!-- Generator: Adobe Illustrator 14.0.0, SVG Export Plug-In . SVG Version: 6.00 Build 43363)  -->
<!DOCTYPE svg PUBLIC "-//W3C//DTD SVG 1.1//EN" "http://www.w3.org/Graphics/SVG/1.1/DTD/svg11.dtd">
<svg version="1.1" id="Camada_1" xmlns="http://www.w3.org/2000/svg" xmlns:xlink="http://www.w3.org/1999/xlink" x="0px" y="0px"
	 width="549px" height="45px" viewBox="0 0 549 45" enable-background="new 0 0 549 45" xml:space="preserve">
<g>
	<g>
		<path fill="#FFFFFF" d="M400.95,38.827V6.517h9.445c6.479,0,9.723,2.654,9.723,7.962c0,3.643-1.793,6.126-5.371,7.452v0.093
			c4.072,0.896,6.109,3.471,6.109,7.729c0,2.903-0.973,5.172-2.916,6.807c-1.791,1.512-4.17,2.267-7.131,2.267H400.95z
			 M406.692,10.869v9.164h3.053c1.389,0,2.508-0.454,3.355-1.363c0.85-0.911,1.273-2.062,1.273-3.45c0-1.39-0.438-2.463-1.316-3.218
			c-0.879-0.756-2.031-1.133-3.449-1.133H406.692z M406.692,24.385v9.908h3.268c1.531,0,2.738-0.439,3.613-1.318
			c0.875-0.881,1.309-2.092,1.309-3.636c0-3.302-1.701-4.954-5.105-4.954H406.692z"/>
		<rect x="426.735" y="6.517" fill="#FFFFFF" width="5.971" height="32.312"/>
		<path fill="#FFFFFF" d="M439.28,38.829V6.517h10.094c6.414,0,9.627,2.84,9.627,8.518c0,1.975-0.557,3.666-1.664,5.069
			c-1.117,1.405-2.643,2.245-4.586,2.522v0.141c1.605,0.247,2.793,1.497,3.566,3.749l4.211,12.314h-6.277l-3.184-10.508
			c-0.68-2.253-2.168-3.38-4.477-3.38h-1.34v13.888H439.28z M445.251,20.589h2.393c3.496,0,5.248-1.636,5.248-4.908
			c0-1.727-0.463-2.962-1.383-3.702c-0.797-0.618-2.086-0.926-3.865-0.926h-2.393V20.589z"/>
		<polygon fill="#FFFFFF" points="465.296,38.829 465.296,6.517 482.284,6.517 482.284,11.192 471.267,11.192 471.267,19.848 
			481.683,19.848 481.683,24.524 471.267,24.524 471.267,34.152 482.749,34.152 482.749,38.829 		"/>
		<polygon fill="#FFFFFF" points="513.995,38.829 513.995,11.887 505.802,38.829 501.589,38.829 493.769,11.887 493.769,38.829 
			488.397,38.829 488.397,6.517 497.171,6.517 503.886,30.641 503.989,30.632 510.886,6.517 519.364,6.517 519.364,38.829 		"/>
		<polygon fill="#FFFFFF" points="526.171,38.829 526.171,6.517 543.159,6.517 543.159,11.192 532.142,11.192 532.142,19.848 
			542.558,19.848 542.558,24.524 532.142,24.524 532.142,34.152 543.62,34.152 543.62,38.829 		"/>
	</g>
	<g>
		<path fill="#FFFFFF" d="M154.047,39.783c-10.065,0-18.254-7.958-18.254-17.738c0-9.782,8.188-17.738,18.254-17.738
			c10.064,0,18.251,7.957,18.251,17.738C172.298,31.824,164.111,39.783,154.047,39.783 M154.047,5.12
			c-9.605,0-17.418,7.592-17.418,16.924c0,9.333,7.813,16.925,17.418,16.925c9.604,0,17.416-7.592,17.416-16.925
			C171.463,12.712,163.65,5.12,154.047,5.12"/>
		<path fill="#FFFFFF" d="M154.047,34.908c-7.494,0-13.592-5.772-13.592-12.864c0-7.093,6.098-12.863,13.592-12.863
			c7.493,0,13.589,5.77,13.589,12.863C167.636,29.136,161.54,34.908,154.047,34.908 M154.047,10.088
			c-6.98,0-12.659,5.363-12.659,11.955s5.679,11.956,12.659,11.956c6.979,0,12.659-5.364,12.659-11.956
			S161.026,10.088,154.047,10.088"/>
		<polygon fill="#FFFFFF" points="139.63,15.873 139.868,16.74 140.739,16.74 140.106,17.229 140.344,17.988 139.591,17.388 
			138.858,18.042 139.153,17.229 138.402,16.745 139.274,16.762 		"/>
		<path fill="#FFFFFF" d="M140.433,18.118l-0.84-0.669l-0.703,0.628l-0.076-0.048l0.284-0.782l-0.857-0.551l1,0.021l0.396-0.988
			l0.267,0.966h0.97l-0.715,0.55L140.433,18.118z M138.56,16.793l0.65,0.417l-0.247,0.677l0.625-0.558l0.666,0.528l-0.201-0.646
			l0.553-0.426h-0.772l-0.212-0.77l-0.315,0.791L138.56,16.793z"/>
		<polygon fill="#FFFFFF" points="167.47,28.178 167.709,29.047 168.579,29.047 167.947,29.536 168.186,30.296 167.431,29.693 
			166.698,30.35 166.994,29.536 166.241,29.05 167.113,29.068 		"/>
		<path fill="#FFFFFF" d="M168.273,30.425l-0.841-0.673l-0.704,0.63l-0.076-0.048l0.285-0.781L166.081,29l1,0.02l0.399-0.988
			L167.744,29h0.969l-0.712,0.552L168.273,30.425z M166.4,29.098l0.651,0.417l-0.249,0.676l0.626-0.559l0.668,0.531l-0.202-0.646
			l0.553-0.425h-0.775l-0.21-0.771l-0.318,0.792L166.4,29.098z"/>
		<polygon fill="#FFFFFF" points="140.561,27.985 140.8,28.854 141.673,28.854 141.038,29.339 141.275,30.101 140.523,29.5 
			139.789,30.154 140.085,29.339 139.333,28.855 140.207,28.875 		"/>
		<path fill="#FFFFFF" d="M141.364,30.232l-0.839-0.671l-0.706,0.626l-0.074-0.048l0.284-0.779l-0.856-0.553l1.002,0.021
			l0.395-0.989l0.267,0.968h0.971l-0.715,0.551L141.364,30.232z M139.492,28.905l0.65,0.416l-0.247,0.678l0.625-0.558l0.666,0.529
			l-0.201-0.646l0.554-0.426h-0.774l-0.212-0.769l-0.316,0.792L139.492,28.905z"/>
		<polygon fill="#FFFFFF" points="168.552,15.249 168.869,16.117 169.662,16.117 169.029,16.604 169.267,17.365 168.552,16.72 
			167.78,17.419 168.075,16.604 167.323,16.119 168.196,16.139 		"/>
		<path fill="#FFFFFF" d="M169.36,17.511l-0.809-0.728l-0.739,0.67l-0.078-0.049l0.285-0.782l-0.857-0.548l1.002,0.02l0.39-0.975
			l0.348,0.955h0.896l-0.717,0.547L169.36,17.511z M167.483,16.169l0.65,0.416l-0.248,0.675l0.666-0.602l0.622,0.558l-0.198-0.629
			l0.553-0.425h-0.692l-0.287-0.785l-0.322,0.807L167.483,16.169z"/>
		<path fill="#FFFFFF" d="M155.12,22.039c0.073-0.003,0.148-0.005,0.218,0H155.12z"/>
		<polygon fill="#FFFFFF" points="144.8,32.123 145.181,32.461 143.364,34.372 142.956,34.007 143.451,31.931 143.445,31.926 
			142.148,33.288 141.766,32.946 143.586,31.036 144.017,31.422 143.528,33.446 143.535,33.452 		"/>
		<path fill="#FFFFFF" d="M154.726,8.466l-0.592-0.057l1.225-2.471l0.65,0.063l0.684,2.652l-0.609-0.057l-0.121-0.546l-0.994-0.094
			L154.726,8.466z M155.164,7.526l0.687,0.064l-0.23-1.044h-0.005L155.164,7.526z"/>
		<polygon fill="#FFFFFF" points="158.368,8.587 159.647,8.984 159.49,9.422 157.677,8.862 158.531,6.437 159.069,6.604 		"/>
		<path fill="#FFFFFF" d="M162.486,10.165c-0.388,0.565-0.908,0.585-1.478,0.237c-0.205-0.129-0.479-0.368-0.534-0.703
			c-0.031-0.208,0.04-0.41,0.181-0.631l0.976-1.42l0.479,0.295l-0.955,1.393c-0.203,0.3-0.111,0.542,0.106,0.678
			c0.323,0.201,0.558,0.132,0.734-0.128l0.97-1.413l0.479,0.296L162.486,10.165z"/>
		<polygon fill="#FFFFFF" points="163.709,12.204 163.271,11.863 164.702,10.244 164.073,9.75 164.379,9.402 166.074,10.729 
			165.768,11.078 165.139,10.583 		"/>
		<path fill="#FFFFFF" d="M151.734,7.865c0.027,0.142,0.148,0.402,0.637,0.334c0.262-0.038,0.546-0.14,0.499-0.412
			c-0.035-0.2-0.242-0.224-0.536-0.249l-0.297-0.021c-0.447-0.035-0.879-0.071-0.977-0.633c-0.047-0.283,0.026-0.809,0.893-0.935
			c0.817-0.115,1.122,0.367,1.179,0.679l-0.533,0.076c-0.032-0.112-0.125-0.377-0.612-0.306c-0.211,0.031-0.451,0.141-0.412,0.373
			c0.035,0.198,0.215,0.218,0.329,0.228l0.676,0.06c0.377,0.032,0.737,0.13,0.814,0.586c0.131,0.77-0.675,0.955-0.907,0.988
			c-0.972,0.141-1.231-0.375-1.287-0.691L151.734,7.865z"/>
		<path fill="#FFFFFF" d="M145.626,7.936c0.316-0.156,1.217-0.441,1.805,0.632c0.584,1.071-0.176,1.616-0.493,1.776
			c-0.314,0.157-1.218,0.441-1.804-0.631C144.549,8.639,145.31,8.095,145.626,7.936 M146.719,9.938
			c0.269-0.136,0.561-0.482,0.214-1.123c-0.35-0.639-0.817-0.611-1.086-0.475c-0.268,0.135-0.562,0.484-0.213,1.122
			C145.982,10.103,146.448,10.075,146.719,9.938"/>
		<path fill="#FFFFFF" d="M141.738,11.047l0.938-0.944c0.497-0.498,0.96-0.246,1.128-0.094c0.211,0.191,0.288,0.463,0.17,0.705
			c0.22-0.09,0.362-0.12,0.724,0.207c0.28,0.254,0.348,0.318,0.464,0.267l0.05,0.043l-0.431,0.433
			c-0.118-0.057-0.23-0.131-0.426-0.312c-0.263-0.239-0.381-0.316-0.667-0.026l-0.402,0.402l0.75,0.686l-0.379,0.381L141.738,11.047
			z M143.417,10.975c0.203-0.201,0.229-0.367,0.04-0.539c-0.104-0.092-0.296-0.186-0.524,0.043l-0.484,0.487l0.513,0.468
			L143.417,10.975z"/>
		<polygon fill="#FFFFFF" points="161.375,33.641 161.83,33.398 163.137,35.621 162.645,35.884 160.758,34.808 160.751,34.813 
			161.681,36.399 161.224,36.643 159.918,34.417 160.435,34.141 162.275,35.195 162.282,35.191 		"/>
		<path fill="#FFFFFF" d="M162.352,32.927l0.936-0.693c0.716-0.532,1.342-0.056,1.654,0.33c0.354,0.432,0.683,1.192-0.018,1.711
			l-0.919,0.68L162.352,32.927z M164.156,34.282l0.43-0.318c0.362-0.267,0.202-0.702-0.073-1.037
			c-0.488-0.599-0.825-0.427-1.015-0.287l-0.427,0.315L164.156,34.282z"/>
		<polygon fill="#FFFFFF" points="166.847,32.553 166.476,32.957 164.453,31.267 164.824,30.863 		"/>
		<polygon fill="#FFFFFF" points="167.709,13.473 166.845,12.386 166.395,12.712 167.188,13.709 166.812,13.982 166.014,12.987 
			165.457,13.387 166.363,14.521 165.982,14.797 164.746,13.244 166.89,11.692 168.09,13.197 		"/>
		<path fill="#FFFFFF" d="M146.586,33.449c0.291,0.197,0.973,0.827,0.256,1.818c-0.72,0.987-1.576,0.593-1.867,0.4
			c-0.294-0.195-0.973-0.828-0.254-1.814C145.439,32.863,146.293,33.256,146.586,33.449 M145.245,35.294
			c0.249,0.167,0.704,0.254,1.134-0.336c0.43-0.589,0.187-0.97-0.063-1.134c-0.25-0.168-0.706-0.253-1.135,0.334
			C144.752,34.75,144.996,35.13,145.245,35.294"/>
		<polygon fill="#FFFFFF" points="149.442,34.842 149.982,35.04 148.157,37.132 147.662,36.95 147.802,34.24 148.359,34.445 
			148.151,36.46 148.16,36.462 		"/>
		<polygon fill="#FFFFFF" points="150.354,37.758 149.811,37.621 150.502,35.159 151.05,35.296 		"/>
		<polygon fill="#FFFFFF" points="156.734,37.954 156.208,37.989 156.057,35.847 156.048,35.847 155.699,38.021 155.146,38.058 
			154.5,35.949 154.494,35.949 154.645,38.092 154.122,38.127 153.938,35.565 154.76,35.51 155.393,37.496 155.4,37.496 
			155.736,35.444 156.554,35.39 		"/>
		<path fill="#FFFFFF" d="M159.857,36.36c0.178,0.66-0.162,1.044-0.82,1.203c-0.24,0.058-0.613,0.09-0.913-0.103
			c-0.183-0.118-0.294-0.307-0.367-0.557l-0.446-1.658l0.558-0.137l0.437,1.626c0.094,0.347,0.347,0.45,0.603,0.388
			c0.374-0.09,0.48-0.301,0.398-0.606l-0.445-1.647l0.559-0.135L159.857,36.36z"/>
		<path fill="#FFFFFF" d="M142.011,14.8l-0.313,0.448l-2.227-1.451l0.689-0.981c0.295-0.415,0.746-0.486,1.183-0.202
			c0.201,0.131,0.635,0.57,0.228,1.15l-0.36,0.513L142.011,14.8z M141.117,13.61c0.235-0.336-0.013-0.495-0.111-0.562
			c-0.216-0.141-0.39-0.083-0.585,0.196l-0.251,0.354l0.653,0.428L141.117,13.61z"/>
		<path fill="#FFFFFF" d="M156.709,32.153c0.197,0.439-0.314,0.329-0.513,0.487h-0.163
			C156.064,32.389,156.347,31.978,156.709,32.153"/>
		<path fill="#FFFFFF" d="M153.81,24.315v0.173h-0.691C153.051,24.11,153.647,24.049,153.81,24.315"/>
		<polygon fill="#FFFFFF" points="155.013,19.829 155.346,19.434 156.234,19.361 156.642,19.29 156.456,19.648 155.975,19.829 
			156.049,19.648 155.493,19.613 155.197,19.829 		"/>
		<polygon fill="#FFFFFF" points="157.198,19.326 157.495,19.29 157.826,19.434 157.643,19.65 157.308,19.723 157.157,19.902 
			156.975,19.759 156.68,19.828 156.642,19.687 156.9,19.614 156.792,19.468 156.9,19.363 		"/>
		<polygon fill="#FFFFFF" points="158.114,19.667 158.297,19.521 158.633,19.556 158.557,19.735 158.073,19.843 		"/>
		<polygon fill="#FFFFFF" points="155.493,20.082 155.864,20.047 155.789,20.261 155.421,20.261 		"/>
		<polygon fill="#FFFFFF" points="158.011,20.028 158.231,19.863 158.352,19.979 158.207,20.098 		"/>
		<polygon fill="#FFFFFF" points="157.821,20.379 158.006,20.595 158.154,20.522 158.042,20.162 		"/>
		<polygon fill="#FFFFFF" points="158.497,20.515 158.608,20.37 158.274,20.19 		"/>
		<line fill="#FFFFFF" x1="158.497" y1="20.515" x2="158.608" y2="20.37"/>
		<polygon fill="#FFFFFF" points="158.87,20.354 159,20.404 158.947,20.933 158.767,20.454 		"/>
		<path fill="#FFFFFF" d="M152.953,12.256c0.132-0.142,0.034-0.752-0.18-0.814c-0.248,0.375,0.509,0.548,0,0.814H152.953z
			 M154.142,14.218c-0.032-0.295-0.106-0.916,0.177-1.306l0.169-0.167c-0.067,0.047-0.126,0.104-0.169,0.167l-0.343-0.326
			l0.166-0.17c-0.25,0.078-0.331-0.203-0.512-0.313c-0.233,0.61,1.249,1.396-0.166,1.458c-0.098-0.094-0.229-0.172-0.182-0.332
			h-0.164v0.175h0.164c-0.096,0.079-0.18,0.206-0.329,0.157c-0.016,0.188,0.034,0.393-0.18,0.488h0.345
			c0.097,0.095,0.229,0.17,0.164,0.329c0.231,0.064,0.577-0.14,0.693,0.157C153.926,14.394,154.057,14.315,154.142,14.218
			 M155.956,22.039c0.365-0.221,0.571-0.369,1.098-0.485c-0.051,0.156,0.081,0.236,0.163,0.33c0.376-0.421,0.609-0.075,0.892,0.155
			c0.139,0.117,0.29,0.203,0.477,0.157c0.009-0.052,0.035-0.102,0.066-0.157h0.183c0.254,0.606,1.214,0.961,1.299,1.636
			c0.591,0.283,1.418,0.044,1.875,0.642c1.203,1.303-1.444,1.774-1.019,3.109c-0.215,0.863-0.889,1.005-1.712,1.13
			c-0.265,0.66-0.792,0.927-1.366,1.304c-0.857-0.033-0.973,0.582-1.715,0.817c-0.263,0.847-0.988,1.083-1.2,1.961
			c0.134,0.267,0.591,0.11,0.51,0.485c-0.593,0.017-1.351-0.329-1.364-0.972c0.229-1.82,1.596-3.202,1.709-5.056
			c-0.919-0.66-1.069-1.914-1.019-3.095c0.592-0.295,0.461-0.876,0.674-1.302l-0.33-0.329c-0.344,0.488-0.577-0.251-1.034,0
			c-0.032-0.122-0.095-0.231-0.173-0.331c-0.19-0.235-0.478-0.428-0.687-0.659c-0.673-0.204-1.431-0.251-2.039-0.644
			c-0.774-0.063-0.331-0.91-1.023-1.144c-0.098,0.094-0.229,0.172-0.181,0.329c-1.102-0.282-0.658-1.462-1.186-2.121
			c0.117-0.464,0.138-0.896,0.037-1.304c-0.067-0.282-0.195-0.551-0.382-0.814c-1.086-1.162-2.29,0.848-3.59,0.158
			c0.478-0.032,0.873-0.253,1.187-0.644c-0.1-0.159-0.398-0.252-0.333-0.489l0.168-0.173l-0.168-0.157l0.168-0.159
			c-0.1-0.093-0.233-0.17-0.168-0.33c0.644-0.5,1.52-1.194,2.554-1.143c0.791-0.285,1.86,0.626,2.57-0.33
			c-0.361-0.018-0.742-0.535-0.347-0.802c0.246,0.031,0.51-0.392,0.693,0c0.212-0.109,0.163-0.316,0.163-0.503
			c0.56-0.298,1.168,0.627,1.367-0.156h0.345c-0.049,0.156,0.083,0.235,0.164,0.331l0.182-0.175l0.166,0.175
			c0.459-0.441,0.756,0.452,1.366,0.157c0.462,0.283,0.741,0.91,0.854,1.475c-0.179,0-0.393-0.048-0.508,0.156l0.69,0.661
			c0.213-0.111,0.163-0.314,0.163-0.505c0.824,0.412,1.32,1.242,1.715,1.967c-0.891,0.14-1.696,0.516-2.224,1.3
			c0.543,1.321-1.746,1.289-0.691,2.607l-0.339,0.333c-0.037-0.305-0.14-0.578-0.338-0.819c-0.888,0.549-2.437-0.549-2.221,1.147
			c0.229,0.188,0.215,0.47,0.511,0.643c0.428,0.189,0.577-0.328,0.854-0.486v-0.157h0.678c0.359,0.598-0.76,1.304,0.346,1.458
			c0,0.189,0.049,0.395-0.168,0.488c0.088,0.228,0.233,0.31,0.403,0.329c0.125,0.02,0.262,0.009,0.397,0h0.219
			c0.132,0.013,0.257,0.05,0.349,0.157C155.788,22.139,155.876,22.089,155.956,22.039"/>
		<path fill="#FFFFFF" d="M168.581,18.815c0.128-0.021,0.314-0.037,0.585-0.037c0.253,0,0.435,0.044,0.557,0.135
			c0.121,0.085,0.201,0.24,0.201,0.416c0,0.174-0.058,0.327-0.168,0.425c-0.146,0.122-0.353,0.176-0.59,0.176
			c-0.046,0-0.089-0.002-0.116-0.003v0.584h-0.469V18.815z M169.05,19.574c0.025,0.002,0.06,0.005,0.107,0.005
			c0.187,0,0.301-0.092,0.301-0.239c0-0.128-0.089-0.214-0.266-0.214c-0.072,0-0.119,0.005-0.143,0.009V19.574z"/>
		<path fill="#FFFFFF" d="M169.347,22.497l-0.1,0.399h-0.487l0.513-1.72h0.626l0.53,1.72h-0.512l-0.114-0.399H169.347z
			 M169.739,22.156l-0.083-0.308c-0.026-0.098-0.06-0.237-0.086-0.339h-0.006c-0.026,0.102-0.052,0.244-0.078,0.342l-0.074,0.305
			H169.739z"/>
		<polygon fill="#FFFFFF" points="168.968,23.629 168.968,24.266 169.541,24.266 169.541,23.629 170.011,23.629 170.011,25.35 
			169.541,25.35 169.541,24.667 168.968,24.667 168.968,25.35 168.492,25.35 168.492,23.629 		"/>
		<path fill="#FFFFFF" d="M169.594,26.905c0,0.553-0.341,0.905-0.886,0.905c-0.547,0-0.851-0.399-0.851-0.877
			c0-0.501,0.339-0.898,0.878-0.898C169.305,26.035,169.594,26.446,169.594,26.905 M168.36,26.925c0,0.323,0.144,0.52,0.372,0.52
			c0.226,0,0.363-0.216,0.363-0.525c0-0.296-0.139-0.521-0.366-0.521C168.504,26.399,168.36,26.611,168.36,26.925"/>
		<path fill="#FFFFFF" d="M139.759,20.546c0,0.555-0.34,0.905-0.885,0.905c-0.55,0-0.85-0.4-0.85-0.878
			c0-0.497,0.338-0.896,0.877-0.896C139.471,19.678,139.759,20.09,139.759,20.546 M138.523,20.568c0,0.322,0.145,0.52,0.373,0.52
			c0.227,0,0.362-0.217,0.362-0.526c0-0.295-0.139-0.52-0.365-0.52C138.668,20.042,138.523,20.251,138.523,20.568"/>
		<path fill="#FFFFFF" d="M138.025,22.473c0.125-0.022,0.313-0.036,0.583-0.036c0.255,0,0.435,0.043,0.558,0.133
			c0.121,0.088,0.201,0.242,0.201,0.417c0,0.174-0.059,0.327-0.17,0.423c-0.145,0.124-0.351,0.177-0.589,0.177
			c-0.046,0-0.088-0.001-0.114-0.004v0.583h-0.469V22.473z M138.494,23.231c0.025,0.003,0.056,0.006,0.105,0.006
			c0.187,0,0.302-0.092,0.302-0.24c0-0.127-0.087-0.216-0.267-0.216c-0.072,0-0.119,0.008-0.141,0.013V23.231z"/>
		<path fill="#FFFFFF" d="M138.784,26.12c0.107,0.054,0.284,0.109,0.46,0.109c0.161,0,0.241-0.056,0.241-0.142
			c0-0.084-0.08-0.132-0.278-0.2c-0.3-0.101-0.494-0.263-0.494-0.517c0-0.303,0.262-0.537,0.706-0.537
			c0.212,0,0.362,0.036,0.479,0.09L139.8,25.29c-0.077-0.034-0.208-0.083-0.387-0.083c-0.146,0-0.223,0.052-0.223,0.129
			c0,0.086,0.096,0.121,0.317,0.204c0.318,0.112,0.461,0.277,0.461,0.518c0,0.294-0.238,0.549-0.753,0.549
			c-0.213,0-0.42-0.056-0.518-0.107L138.784,26.12z"/>
		<path fill="#FFFFFF" d="M178.364,6.543c1.752,0,3.359,1.376,3.359,4.573c0,3.196-1.607,4.573-3.359,4.573
			s-3.359-1.376-3.359-4.573C175.005,7.92,176.612,6.543,178.364,6.543 M178.364,14.441c0.979,0,1.765-0.878,1.765-3.324
			c0-2.444-0.786-3.324-1.765-3.324s-1.764,0.88-1.764,3.324C176.601,13.563,177.386,14.441,178.364,14.441"/>
		<path fill="#FFFFFF" d="M182.932,10.085c0-0.408-0.013-0.791-0.05-1.082h1.354c0.013,0.395,0.047,0.802,0.047,1.196h0.026
			c0.18-0.51,0.651-1.299,1.581-1.299c0.098,0,0.17,0.024,0.253,0.039v1.476c-0.132-0.038-0.264-0.063-0.422-0.063
			c-0.616,0-1.292,0.393-1.292,1.618v3.591h-1.498V10.085z"/>
		<path fill="#FFFFFF" d="M187.136,16.58c0.35,0.203,1.051,0.561,1.838,0.561c1.411,0,1.641-1.033,1.641-2.063v-0.625h-0.024
			c-0.241,0.511-0.664,1.109-1.641,1.109c-0.871,0-2.177-0.614-2.177-3.263c0-1.807,0.617-3.401,2.247-3.401
			c0.906,0,1.329,0.548,1.644,1.121h0.049c0-0.344,0.034-0.675,0.047-1.017h1.354c-0.024,0.342-0.049,0.687-0.049,1.03v4.842
			c0,2.049-0.593,3.513-2.875,3.513c-0.99,0-1.776-0.267-2.137-0.406L187.136,16.58z M189.298,14.403
			c0.942,0,1.316-0.714,1.316-2.203c0-1.378-0.494-2.114-1.208-2.103c-0.784,0.014-1.087,0.778-1.087,2.114
			C188.319,13.753,188.79,14.403,189.298,14.403"/>
		<path fill="#FFFFFF" d="M193.659,9.386c0.422-0.205,1.014-0.485,1.969-0.485c1.934,0,2.379,0.992,2.379,2.636v2.866
			c0,0.473,0.049,0.905,0.086,1.16h-1.354c-0.071-0.255-0.083-0.575-0.083-0.892h-0.025c-0.376,0.534-0.845,0.991-1.739,0.991
			c-0.968,0-1.86-0.698-1.86-1.923c0-1.782,1.376-2.229,3.273-2.229h0.302v-0.242c0-0.649-0.302-1.248-1.16-1.248
			c-0.748,0-1.412,0.382-1.703,0.636L193.659,9.386z M196.606,12.352h-0.133c-1.281,0-2.041,0.281-2.041,1.236
			c0,0.597,0.374,1.005,0.954,1.005c0.895,0,1.22-0.701,1.22-1.871V12.352z"/>
		<path fill="#FFFFFF" d="M199.324,10.085c0-0.408-0.012-0.791-0.048-1.082h1.402c0.011,0.33,0.047,0.674,0.047,1.004h0.037h-0.012
			c0.217-0.393,0.641-1.107,1.654-1.107c1.414,0,1.837,1.107,1.837,2.432v4.229h-1.498v-3.936c0-1.005-0.241-1.426-0.857-1.426
			c-0.785,0-1.063,0.7-1.063,1.541v3.821h-1.5V10.085z"/>
		<path fill="#FFFFFF" d="M205.644,6.213h1.547v1.555h-1.547V6.213z M205.669,9.001h1.498v6.559h-1.498V9.001z"/>
		<polygon fill="#FFFFFF" points="208.252,14.2 210.911,10.198 208.338,10.198 208.338,9.003 212.408,9.003 212.408,10.353 
			209.799,14.364 212.494,14.364 212.494,15.563 208.252,15.563 		"/>
		<path fill="#FFFFFF" d="M213.738,9.386c0.422-0.205,1.013-0.485,1.967-0.485c1.935,0,2.382,0.992,2.382,2.636v2.866
			c0,0.473,0.049,0.905,0.086,1.16h-1.355c-0.072-0.255-0.085-0.575-0.085-0.892h-0.024c-0.37,0.534-0.844,0.991-1.739,0.991
			c-0.965,0-1.859-0.698-1.859-1.923c0-1.782,1.378-2.229,3.273-2.229h0.302v-0.242c0-0.649-0.302-1.248-1.158-1.248
			c-0.749,0-1.415,0.382-1.705,0.636L213.738,9.386z M216.685,12.352h-0.134c-1.278,0-2.042,0.281-2.042,1.236
			c0,0.597,0.377,1.005,0.956,1.005c0.895,0,1.22-0.701,1.22-1.871V12.352z"/>
		<path fill="#FFFFFF" d="M223.633,15.396c-0.35,0.14-0.871,0.266-1.477,0.266c-2.052,0-2.92-1.515-2.92-3.373
			c0-1.874,0.916-3.39,3.006-3.39c0.473,0,1.028,0.153,1.306,0.269l-0.083,1.248c-0.269-0.141-0.642-0.319-1.053-0.319
			c-1.138,0-1.632,0.803-1.632,2.204c0,1.224,0.555,2.167,1.703,2.167c0.363,0,0.859-0.18,1.064-0.319L223.633,15.396z"/>
		<path fill="#FFFFFF" d="M224.587,6.213h1.546v1.555h-1.546V6.213z M224.61,9.001h1.497v6.559h-1.497V9.001z"/>
		<path fill="#FFFFFF" d="M230.107,8.901c1.27,0,2.729,0.7,2.729,3.375c0,2.75-1.46,3.389-2.729,3.389s-2.742-0.638-2.742-3.389
			C227.365,9.601,228.838,8.901,230.107,8.901 M230.107,14.544c0.967,0,1.185-1.173,1.185-2.269c0-1.095-0.218-2.254-1.185-2.254
			c-0.965,0-1.196,1.16-1.196,2.254C228.911,13.371,229.143,14.544,230.107,14.544 M230.169,6.442h1.4l-1.232,1.835h-0.941
			L230.169,6.442z"/>
		<path fill="#FFFFFF" d="M233.95,10.085c0-0.408-0.013-0.791-0.049-1.082h1.399c0.015,0.33,0.05,0.674,0.05,1.004h0.035h-0.011
			c0.217-0.393,0.642-1.107,1.654-1.107c1.415,0,1.837,1.107,1.837,2.432v4.229h-1.498v-3.936c0-1.005-0.241-1.426-0.858-1.426
			c-0.784,0-1.062,0.7-1.062,1.541v3.821h-1.498V10.085z"/>
		<path fill="#FFFFFF" d="M175.272,17.843h2.414c1.741,0,2.648,1.02,2.648,2.701s-0.907,2.712-2.648,2.712h-0.87v3.476h-1.544
			V17.843z M177.397,22.008c0.967,0,1.39-0.498,1.39-1.464c0-0.968-0.423-1.453-1.39-1.453h-0.581v2.917H177.397z"/>
		<path fill="#FFFFFF" d="M180.961,20.557c0.424-0.203,1.015-0.484,1.97-0.484c1.935,0,2.379,0.992,2.379,2.634v2.868
			c0,0.47,0.05,0.904,0.084,1.158h-1.352c-0.072-0.254-0.083-0.573-0.083-0.892h-0.025c-0.374,0.536-0.846,0.993-1.739,0.993
			c-0.966,0-1.86-0.698-1.86-1.922c0-1.783,1.377-2.229,3.273-2.229h0.302v-0.241c0-0.651-0.302-1.249-1.159-1.249
			c-0.748,0-1.414,0.383-1.704,0.638L180.961,20.557z M183.909,23.524h-0.131c-1.282,0-2.042,0.28-2.042,1.235
			c0,0.599,0.372,1.006,0.952,1.006c0.896,0,1.221-0.701,1.221-1.873V23.524z"/>
		<path fill="#FFFFFF" d="M186.615,21.256c0-0.407-0.012-0.79-0.048-1.083h1.4c0.013,0.333,0.048,0.676,0.048,1.007h0.038h-0.012
			c0.216-0.396,0.64-1.108,1.654-1.108c1.415,0,1.837,1.108,1.837,2.432v4.229h-1.499v-3.936c0-1.004-0.24-1.425-0.857-1.425
			c-0.784,0-1.063,0.699-1.063,1.539v3.821h-1.499V21.256z"/>
		<path fill="#FFFFFF" d="M193.116,20.557c0.423-0.203,1.013-0.484,1.969-0.484c1.932,0,2.379,0.992,2.379,2.634v2.868
			c0,0.47,0.049,0.904,0.086,1.158h-1.354c-0.072-0.254-0.086-0.573-0.086-0.892h-0.024c-0.373,0.536-0.844,0.993-1.739,0.993
			c-0.966,0-1.859-0.698-1.859-1.922c0-1.783,1.377-2.229,3.273-2.229h0.303v-0.241c0-0.651-0.303-1.249-1.159-1.249
			c-0.75,0-1.415,0.383-1.705,0.638L193.116,20.557z M196.063,23.524h-0.133c-1.281,0-2.043,0.28-2.043,1.235
			c0,0.599,0.375,1.006,0.955,1.006c0.895,0,1.221-0.701,1.221-1.873V23.524z"/>
		<path fill="#FFFFFF" d="M198.745,21.245c0-0.47-0.023-0.827-0.048-1.071h1.498c0.01,0.345,0.05,0.688,0.05,1.032h0.021
			c0.23-0.509,0.715-1.132,1.57-1.132c1.052,0,1.391,0.687,1.571,1.043c0.302-0.458,0.749-1.043,1.666-1.043
			c1.354,0,1.789,1.018,1.789,2.608v4.051h-1.498v-4.139c0-0.814-0.239-1.222-0.797-1.222c-0.665,0-1.014,0.661-1.014,1.388v3.973
			h-1.499v-4.139c0-0.814-0.242-1.222-0.799-1.222c-0.663,0-1.012,0.661-1.012,1.388v3.973h-1.5V21.245z"/>
		<path fill="#FFFFFF" d="M212.675,26.415c-0.315,0.14-0.967,0.421-1.861,0.421c-2.005,0-2.875-1.514-2.875-3.287
			c0-1.961,0.979-3.476,2.562-3.476c1.342,0,2.488,0.827,2.488,3.502v0.306h-3.599c0,1.121,0.422,1.796,1.582,1.796
			c0.916,0,1.353-0.293,1.632-0.509L212.675,26.415z M211.539,22.886c0-1.158-0.362-1.744-1.039-1.744
			c-0.785,0-1.11,0.879-1.11,1.744H211.539z"/>
		<path fill="#FFFFFF" d="M214.124,21.256c0-0.407-0.013-0.79-0.05-1.083h1.355c0.011,0.396,0.047,0.804,0.047,1.199h0.025
			c0.182-0.51,0.652-1.3,1.582-1.3c0.096,0,0.168,0.025,0.255,0.039v1.477c-0.134-0.038-0.268-0.064-0.424-0.064
			c-0.614,0-1.293,0.394-1.293,1.619v3.591h-1.498V21.256z"/>
		<path fill="#FFFFFF" d="M218.376,17.385h1.547v1.553h-1.547V17.385z M218.401,20.175h1.499v6.56h-1.499V20.175z"/>
		<path fill="#FFFFFF" d="M225.553,26.567c-0.35,0.141-0.87,0.267-1.474,0.267c-2.054,0-2.923-1.515-2.923-3.374
			c0-1.873,0.917-3.385,3.006-3.385c0.472,0,1.028,0.148,1.306,0.266l-0.084,1.247c-0.266-0.14-0.641-0.318-1.052-0.318
			c-1.134,0-1.631,0.803-1.631,2.204c0,1.222,0.557,2.165,1.703,2.165c0.362,0,0.858-0.178,1.063-0.318L225.553,26.567z"/>
		<path fill="#FFFFFF" d="M226.688,20.557c0.424-0.203,1.016-0.484,1.969-0.484c1.935,0,2.381,0.992,2.381,2.634v2.868
			c0,0.47,0.049,0.904,0.084,1.158h-1.353c-0.073-0.254-0.084-0.573-0.084-0.892h-0.023c-0.375,0.536-0.847,0.993-1.741,0.993
			c-0.965,0-1.861-0.698-1.861-1.922c0-1.783,1.378-2.229,3.275-2.229h0.301v-0.241c0-0.651-0.301-1.249-1.159-1.249
			c-0.747,0-1.415,0.383-1.705,0.638L226.688,20.557z M229.636,23.524h-0.133c-1.279,0-2.042,0.28-2.042,1.235
			c0,0.599,0.376,1.006,0.955,1.006c0.895,0,1.22-0.701,1.22-1.873V23.524z"/>
		<path fill="#FFFFFF" d="M232.354,21.256c0-0.407-0.012-0.79-0.048-1.083h1.402c0.011,0.333,0.048,0.676,0.048,1.007h0.036h-0.013
			c0.218-0.396,0.64-1.108,1.654-1.108c1.414,0,1.838,1.108,1.838,2.432v4.229h-1.499v-3.936c0-1.004-0.241-1.425-0.856-1.425
			c-0.786,0-1.063,0.699-1.063,1.539v3.821h-1.499V21.256z"/>
		<path fill="#FFFFFF" d="M238.855,20.557c0.421-0.203,1.013-0.484,1.968-0.484c1.935,0,2.379,0.992,2.379,2.634v2.868
			c0,0.47,0.049,0.904,0.085,1.158h-1.353c-0.072-0.254-0.084-0.573-0.084-0.892h-0.025c-0.374,0.536-0.847,0.993-1.739,0.993
			c-0.968,0-1.861-0.698-1.861-1.922c0-1.783,1.377-2.229,3.274-2.229h0.304v-0.241c0-0.651-0.304-1.249-1.161-1.249
			c-0.748,0-1.414,0.383-1.704,0.638L238.855,20.557z M241.803,23.524h-0.132c-1.284,0-2.044,0.28-2.044,1.235
			c0,0.599,0.374,1.006,0.955,1.006c0.895,0,1.221-0.701,1.221-1.873V23.524z"/>
		<path fill="#FFFFFF" d="M180.236,28.354v8.431c0,0.47,0.013,0.878,0.048,1.122h-1.402c-0.022-0.192-0.046-0.573-0.046-1.019
			h-0.037c-0.241,0.561-0.688,1.12-1.654,1.12c-1.548,0-2.188-1.554-2.188-3.376c0-2.14,0.81-3.387,2.151-3.387
			c0.895,0,1.39,0.534,1.605,1.044h0.024v-3.935H180.236z M177.556,36.848c0.882,0,1.183-1.005,1.183-2.241
			c0-1.272-0.337-2.205-1.16-2.205c-0.832,0-1.122,0.854-1.122,2.166C176.456,36.083,176.686,36.848,177.556,36.848"/>
		<path fill="#FFFFFF" d="M186.108,37.586c-0.314,0.141-0.967,0.421-1.859,0.421c-2.008,0-2.876-1.517-2.876-3.287
			c0-1.961,0.979-3.478,2.561-3.478c1.342,0,2.489,0.829,2.489,3.504v0.306h-3.602c0,1.121,0.425,1.794,1.583,1.794
			c0.918,0,1.353-0.292,1.631-0.507L186.108,37.586z M184.974,34.06c0-1.159-0.362-1.745-1.04-1.745
			c-0.786,0-1.112,0.878-1.112,1.745H184.974z"/>
		<rect x="190.722" y="28.354" fill="#FFFFFF" width="1.499" height="9.553"/>
		<path fill="#FFFFFF" d="M193.949,31.728c0.424-0.204,1.014-0.484,1.969-0.484c1.934,0,2.381,0.992,2.381,2.636v2.867
			c0,0.47,0.049,0.903,0.084,1.159h-1.354c-0.072-0.256-0.085-0.573-0.085-0.892h-0.023c-0.374,0.535-0.845,0.993-1.74,0.993
			c-0.966,0-1.86-0.701-1.86-1.924c0-1.783,1.378-2.227,3.273-2.227h0.304v-0.243c0-0.65-0.304-1.248-1.16-1.248
			c-0.749,0-1.413,0.383-1.703,0.634L193.949,31.728z M196.897,34.696h-0.134c-1.28,0-2.042,0.28-2.042,1.235
			c0,0.598,0.375,1.005,0.955,1.005c0.895,0,1.221-0.701,1.221-1.872V34.696z"/>
		<path fill="#FFFFFF" d="M202.793,36.186c0.302,0.204,0.967,0.548,1.785,0.548c0.678,0,1.283-0.395,1.283-1.288
			c0-0.637-0.35-0.916-1.1-1.35l-0.786-0.457c-0.833-0.483-1.378-1.184-1.378-2.332c0-1.592,1.246-2.418,2.658-2.418
			c0.896,0,1.521,0.241,1.764,0.315l-0.072,1.365c-0.374-0.152-0.869-0.382-1.582-0.382c-0.772,0-1.172,0.433-1.172,1.044
			c0,0.663,0.422,0.918,0.894,1.196l0.907,0.536c0.991,0.586,1.462,1.146,1.462,2.394c0,1.808-1.222,2.674-2.827,2.674
			c-0.846,0-1.498-0.126-1.921-0.395L202.793,36.186z"/>
		<path fill="#FFFFFF" d="M208.941,31.728c0.425-0.204,1.014-0.484,1.97-0.484c1.932,0,2.379,0.992,2.379,2.636v2.867
			c0,0.47,0.048,0.903,0.086,1.159h-1.354c-0.071-0.256-0.085-0.573-0.085-0.892h-0.024c-0.373,0.535-0.846,0.993-1.739,0.993
			c-0.966,0-1.859-0.701-1.859-1.924c0-1.783,1.378-2.227,3.272-2.227h0.304v-0.243c0-0.65-0.304-1.248-1.159-1.248
			c-0.75,0-1.415,0.383-1.705,0.634L208.941,31.728z M211.89,34.696h-0.133c-1.281,0-2.042,0.28-2.042,1.235
			c0,0.598,0.374,1.005,0.954,1.005c0.896,0,1.221-0.701,1.221-1.872V34.696z"/>
		<rect x="214.753" y="28.354" fill="#FFFFFF" width="1.499" height="9.553"/>
		<path fill="#FFFFFF" d="M222.594,36.822c0,0.407,0.012,0.79,0.049,1.084h-1.402c-0.012-0.333-0.048-0.677-0.048-1.006
			l-0.036-0.014l0.012,0.014c-0.292,0.483-0.677,1.107-1.656,1.107c-1.413,0-1.837-1.107-1.837-2.432v-4.228h1.499v3.933
			c0,1.004,0.267,1.427,0.896,1.427c0.796,0,1.024-0.764,1.024-1.606v-3.754h1.5V36.822z"/>
		<path fill="#FFFFFF" d="M228.985,28.354v8.431c0,0.47,0.011,0.878,0.048,1.122h-1.402c-0.024-0.192-0.049-0.573-0.049-1.019
			h-0.037c-0.241,0.561-0.688,1.12-1.655,1.12c-1.545,0-2.186-1.554-2.186-3.376c0-2.14,0.811-3.387,2.151-3.387
			c0.894,0,1.39,0.534,1.605,1.044h0.025v-3.935H228.985z M226.303,36.848c0.882,0,1.184-1.005,1.184-2.241
			c0-1.272-0.338-2.205-1.16-2.205c-0.833,0-1.123,0.854-1.123,2.166C225.203,36.083,225.432,36.848,226.303,36.848"/>
		<rect x="291.159" y="29.648" fill="#FFFFFF" width="78.838" height="0.427"/>
		<path fill="#FFFFFF" d="M310.317,13.731v-2.596c0-1.463-0.344-2.438-2.023-2.438c-0.814,0-1.322,0.266-1.656,0.444l-0.029,0.015
			l0.082,1.288l0.076-0.07c0.217-0.209,0.752-0.565,1.375-0.565c0.826,0,0.914,0.756,0.914,1.085v0.17h-0.201
			c-1.289,0-2.766,0.234-2.766,2.067c0,1.177,0.803,1.791,1.59,1.791c0.734,0,1.133-0.402,1.422-0.824
			c0.002,0.244,0.016,0.492,0.066,0.697l0.01,0.036h1.215l-0.006-0.055C310.362,14.575,310.317,14.173,310.317,13.731
			 M309.056,12.208c0,1.123-0.303,1.647-0.961,1.647c-0.453,0-0.744-0.338-0.744-0.862c0-0.76,0.475-1.072,1.643-1.072h0.063V12.208
			z M304.087,8.789l-0.02,0.417c0,0-0.014,0.3-0.016,0.442c-0.258-0.486-0.627-0.952-1.361-0.952c-1.215,0-1.91,1.14-1.91,3.131
			c0,2.786,1.416,3.002,1.85,3.002c0.764,0,1.129-0.463,1.336-0.876v0.39c0,0.848-0.15,1.819-1.314,1.819
			c-0.465,0-0.98-0.172-1.498-0.498l-0.066-0.046l-0.08,1.388l0.033,0.013c0.588,0.247,1.189,0.372,1.793,0.372
			c2.156,0,2.432-1.727,2.432-3.232V9.772l0.043-0.98l-0.053-0.003H304.087z M302.923,13.68c-0.354,0-0.766-0.504-0.766-1.936
			c0-1.262,0.273-1.854,0.855-1.867c0.186-0.003,0.355,0.065,0.49,0.203c0.299,0.292,0.463,0.878,0.463,1.654
			C303.966,13.098,303.655,13.68,302.923,13.68 M314.036,8.697c-0.787,0-1.164,0.557-1.35,0.9c-0.008-0.158-0.018-0.4-0.018-0.4
			l-0.02-0.408h-0.047h-1.217l0.006,0.053c0.027,0.237,0.041,0.555,0.041,0.976v5.012h1.34v-3.511c0-0.503,0.107-1.349,0.832-1.349
			c0.477,0,0.662,0.349,0.662,1.246v3.614h1.342v-3.881C315.608,9.454,315.079,8.697,314.036,8.697 M339.046,6.468h-1.283
			l-0.678,1.759h0.879L339.046,6.468z M293.96,6.561c-1.373,0-2.836,1.102-2.836,4.192c0,3.09,1.463,4.193,2.836,4.193
			c1.369,0,2.836-1.103,2.836-4.193C296.796,7.663,295.329,6.561,293.96,6.561 M293.96,13.716c-0.912,0-1.414-1.05-1.414-2.963
			c0-1.912,0.502-2.964,1.414-2.964s1.414,1.052,1.414,2.964C295.374,12.666,294.872,13.716,293.96,13.716 M300.093,8.697
			c-0.756,0-1.137,0.653-1.291,1.032c-0.008-0.194-0.018-0.461-0.018-0.461l-0.02-0.479h-0.049h-1.176l0.006,0.053
			c0.027,0.235,0.039,0.555,0.039,0.976v5.012h1.342v-3.304c0-1.314,0.781-1.416,1.023-1.416c0.111,0,0.215,0.015,0.334,0.054
			l0.066,0.02V8.741l-0.104-0.024L300.093,8.697z M332.999,7.766h1.379V6.261h-1.379V7.766z M332.024,13.461
			c-0.154,0.118-0.555,0.279-0.854,0.279c-0.854,0-1.363-0.715-1.363-1.912c0-1.312,0.43-1.95,1.305-1.95
			c0.316,0,0.605,0.145,0.848,0.283l0.066,0.038l0.078-1.242l-0.029-0.012c-0.221-0.102-0.693-0.248-1.104-0.248
			c-1.592,0-2.543,1.165-2.543,3.119c0,1.945,0.926,3.105,2.473,3.105c0.588,0,1.033-0.154,1.242-0.246l0.031-0.013l-0.078-1.256
			L332.024,13.461z M333.019,14.83h1.338V8.79h-1.338V14.83z M337.749,8.697c-0.701,0-2.324,0.302-2.324,3.106
			c0,2.714,1.455,3.118,2.324,3.118c0.859,0,2.313-0.403,2.313-3.118C340.062,8.999,338.442,8.697,337.749,8.697 M337.749,13.808
			c-0.783,0-0.945-1.089-0.945-2.004c0-0.908,0.162-1.995,0.945-1.995c0.613,0,0.932,0.672,0.932,1.995
			C338.681,13.135,338.362,13.808,337.749,13.808 M316.813,14.83h1.34V8.79h-1.34V14.83z M316.792,7.766h1.381V6.261h-1.381V7.766z
			 M327.454,13.731v-2.596c0-1.463-0.346-2.438-2.023-2.438c-0.813,0-1.32,0.266-1.656,0.444l-0.029,0.015l0.08,1.288l0.076-0.07
			c0.217-0.209,0.752-0.565,1.379-0.565c0.824,0,0.914,0.756,0.914,1.085v0.17h-0.203c-1.289,0-2.762,0.234-2.762,2.067
			c0,1.177,0.799,1.791,1.59,1.791c0.729,0,1.133-0.402,1.416-0.824c0.006,0.236,0.018,0.49,0.072,0.697l0.006,0.036h1.215
			l-0.006-0.055C327.499,14.575,327.454,14.174,327.454,13.731 M326.194,12.208c0,1.123-0.309,1.647-0.967,1.647
			c-0.447,0-0.74-0.338-0.74-0.862c0-0.76,0.475-1.072,1.645-1.072h0.063V12.208z M322.622,10.075V8.789h-3.475V9.97h2.1
			c-0.088,0.143-2.168,3.563-2.168,3.563v1.297h3.615v-1.182h-2.201C320.577,13.507,322.622,10.075,322.622,10.075 M343.61,8.697
			c-0.789,0-1.166,0.557-1.35,0.9c-0.008-0.158-0.02-0.398-0.02-0.398l-0.02-0.41h-0.047h-1.215l0.004,0.053
			c0.027,0.239,0.041,0.557,0.041,0.976v5.012h1.338v-3.511c0-0.503,0.111-1.349,0.836-1.349c0.477,0,0.662,0.349,0.662,1.246v3.614
			h1.34v-3.881C345.181,9.454,344.651,8.697,343.61,8.697"/>
		<path fill="#FFFFFF" d="M320.28,25.297v-2.458c0-1.388-0.324-2.313-1.914-2.313c-0.773,0-1.254,0.255-1.57,0.423l-0.027,0.013
			l0.074,1.223l0.072-0.069c0.207-0.199,0.715-0.534,1.305-0.534c0.783,0,0.869,0.718,0.869,1.027v0.161h-0.193
			c-1.217,0-2.617,0.224-2.617,1.959c0,1.116,0.758,1.698,1.506,1.698c0.691,0,1.072-0.381,1.346-0.782
			c0,0.231,0.014,0.464,0.063,0.661l0.01,0.034h1.152l-0.006-0.051C320.319,26.097,320.28,25.717,320.28,25.297 M319.089,23.854
			c0,1.065-0.291,1.563-0.916,1.563c-0.426,0-0.703-0.321-0.703-0.818c0-0.723,0.451-1.015,1.559-1.015h0.061V23.854z
			 M306.335,20.527c-0.746,0-1.104,0.533-1.279,0.855c-0.006-0.148-0.014-0.379-0.014-0.379l-0.021-0.386l-0.045-0.002h-1.15
			l0.004,0.053c0.023,0.222,0.037,0.524,0.037,0.923v4.748h1.271v-3.327c0-0.478,0.102-1.276,0.789-1.276
			c0.451,0,0.625,0.33,0.625,1.177v3.426h1.271v-3.678C307.823,21.246,307.321,20.527,306.335,20.527 M294.708,24.201
			c-0.068-0.275-1.342-5.586-1.342-5.586h-1.895v7.725h1.193v-6.111c0.131,0.527,1.521,6.111,1.521,6.111h0.938
			c0,0,1.467-5.624,1.6-6.125v6.125h1.191v-7.725h-1.84C296.075,18.615,294.776,23.926,294.708,24.201 M302.841,25.365v-4.75h-1.271
			v3.273c0,0.606-0.131,1.332-0.76,1.332c-0.467,0-0.656-0.343-0.656-1.18v-3.425h-1.271v3.677c0,1.417,0.506,2.134,1.49,2.134
			c0.734,0,1.064-0.483,1.277-0.864c0.01,0.148,0.018,0.392,0.018,0.392l0.02,0.383l0.045,0.002h1.15l-0.002-0.051
			C302.853,26.066,302.841,25.763,302.841,25.365 M314.103,19.648h1.307v-1.426h-1.307V19.648z M312.958,25.333v-7.286h-1.268v3.257
			c-0.16-0.313-0.516-0.777-1.236-0.777c-1.086,0-1.736,1.104-1.736,2.958c0,1.841,0.66,2.941,1.766,2.941
			c0.6,0,1.016-0.294,1.283-0.879c0.006,0.343,0.023,0.616,0.039,0.751l0.002,0.042h1.197l-0.008-0.053
			C312.972,26.104,312.958,25.792,312.958,25.333 M310.806,25.339c-0.596,0-0.816-0.518-0.816-1.91c0-1.22,0.271-1.812,0.836-1.812
			c0.754,0,0.865,1.157,0.865,1.845C311.69,24.318,311.538,25.339,310.806,25.339 M321.452,26.34h1.268v-8.293h-1.268V26.34z
			 M314.122,26.34h1.268v-5.725h-1.268V26.34z M357.278,25.297v-2.458c0-1.388-0.326-2.313-1.918-2.313
			c-0.768,0-1.246,0.255-1.568,0.423l-0.025,0.013l0.074,1.223l0.07-0.069c0.207-0.199,0.715-0.534,1.309-0.534
			c0.781,0,0.863,0.718,0.863,1.027v0.161h-0.189c-1.221,0-2.619,0.224-2.619,1.959c0,1.116,0.756,1.698,1.508,1.698
			c0.691,0,1.07-0.38,1.342-0.779c0.002,0.229,0.014,0.463,0.064,0.658l0.01,0.034h1.152l-0.006-0.051
			C357.315,26.051,357.278,25.689,357.278,25.297 M356.083,23.854c0,1.065-0.289,1.563-0.91,1.563c-0.43,0-0.705-0.321-0.705-0.818
			c0-0.723,0.449-1.015,1.559-1.015h0.057V23.854z M364.817,25.365v-4.75h-1.271v3.273c0,0.606-0.131,1.332-0.762,1.332
			c-0.465,0-0.654-0.343-0.654-1.18v-3.425h-1.271v3.677c0,1.417,0.504,2.134,1.488,2.134c0.732,0,1.068-0.482,1.281-0.862
			c0.006,0.149,0.018,0.393,0.018,0.393l0.016,0.38l0.045,0.002h1.154l-0.008-0.051C364.827,26.065,364.817,25.76,364.817,25.365
			 M358.448,26.34h1.27v-8.293h-1.27V26.34z M369.991,26.287c-0.027-0.187-0.039-0.496-0.039-0.955v-7.286h-1.271v3.257
			c-0.158-0.313-0.514-0.777-1.234-0.777c-1.088,0-1.736,1.104-1.736,2.958c0,1.841,0.66,2.941,1.766,2.941
			c0.598,0,1.016-0.295,1.285-0.879c0.004,0.341,0.021,0.613,0.035,0.751l0.006,0.042h1.195L369.991,26.287z M367.798,25.339
			c-0.596,0-0.816-0.518-0.816-1.91c0-1.22,0.275-1.812,0.836-1.812c0.752,0,0.863,1.157,0.863,1.845
			C368.681,24.318,368.528,25.339,367.798,25.339 M333.468,20.527c-1.209,0-2.059,1.248-2.059,3.032
			c0,1.387,0.607,2.868,2.307,2.868c0.73,0,1.258-0.256,1.486-0.366l0.023-0.013l-0.064-1.195l-0.07,0.061
			c-0.258,0.221-0.592,0.425-1.25,0.425c-0.805,0-1.186-0.464-1.199-1.448h2.828v-0.309C335.47,21.06,334.384,20.527,333.468,20.527
			 M332.642,22.946c0.01-0.659,0.23-1.408,0.826-1.408c0.623,0,0.762,0.754,0.77,1.408H332.642z M338.985,26.353h1.268v-8.4h-1.268
			V26.353z M330.495,25.333v-7.286h-1.268v3.257c-0.16-0.312-0.516-0.777-1.236-0.777c-1.086,0-1.736,1.104-1.736,2.958
			c0,1.841,0.66,2.941,1.766,2.941c0.6,0,1.018-0.295,1.283-0.88c0.004,0.341,0.021,0.614,0.037,0.752l0.004,0.042h1.195
			l-0.008-0.053C330.509,26.104,330.495,25.792,330.495,25.333 M328.343,25.339c-0.596,0-0.82-0.518-0.82-1.91
			c0-1.22,0.277-1.812,0.84-1.812c0.754,0,0.865,1.157,0.865,1.845C329.228,24.318,329.073,25.339,328.343,25.339 M351.399,22.013
			l-0.713-0.459c-0.365-0.238-0.68-0.442-0.68-0.991c0-0.531,0.326-0.849,0.873-0.849c0.508,0,0.865,0.162,1.154,0.292l0.133,0.061
			l0.061-1.273l-0.098-0.035c-0.227-0.082-0.695-0.25-1.332-0.25c-1.063,0-2.137,0.657-2.137,2.122c0,0.915,0.35,1.564,1.102,2.039
			l0.617,0.393c0.574,0.363,0.846,0.593,0.846,1.122c0,0.78-0.5,1.058-0.963,1.058c-0.697,0-1.232-0.351-1.377-0.459l-0.068-0.052
			l-0.072,1.358l0.021,0.016c0.334,0.229,0.852,0.347,1.535,0.347c1.42,0,2.268-0.876,2.268-2.343
			C352.569,22.982,352.157,22.501,351.399,22.013 M345.144,25.297v-2.458c0-1.388-0.322-2.313-1.916-2.313
			c-0.771,0-1.248,0.255-1.568,0.423l-0.027,0.013l0.074,1.223l0.072-0.069c0.205-0.199,0.713-0.534,1.309-0.534
			c0.777,0,0.863,0.718,0.863,1.027v0.161h-0.193c-1.217,0-2.615,0.224-2.615,1.959c0,1.116,0.758,1.698,1.508,1.698
			c0.689,0,1.068-0.381,1.344-0.78c0.004,0.229,0.014,0.463,0.063,0.659l0.012,0.034h1.146l-0.004-0.051
			C345.188,26.097,345.144,25.716,345.144,25.297 M343.95,23.854c0,1.065-0.289,1.563-0.912,1.563c-0.426,0-0.707-0.321-0.707-0.818
			c0-0.723,0.455-1.015,1.563-1.015h0.057V23.854z"/>
		<path fill="#FFFFFF" d="M255.835,36.845c0.517,0,0.989,0.48,0.989,1.598c0,1.114-0.473,1.595-0.989,1.595
			c-0.516,0-0.989-0.48-0.989-1.595C254.846,37.325,255.319,36.845,255.835,36.845 M255.835,39.602c0.287,0,0.521-0.305,0.521-1.159
			c0-0.856-0.233-1.163-0.521-1.163s-0.519,0.307-0.519,1.163C255.316,39.297,255.548,39.602,255.835,39.602"/>
		<polygon fill="#FFFFFF" points="257.164,36.889 258.421,36.889 258.421,37.343 257.619,37.343 257.619,38.188 258.384,38.188 
			258.384,38.641 257.619,38.641 257.619,39.993 257.164,39.993 		"/>
		<rect x="258.725" y="36.889" fill="#FFFFFF" width="0.456" height="3.104"/>
		<path fill="#FFFFFF" d="M261.203,39.927c-0.093,0.061-0.314,0.11-0.54,0.11c-0.753,0-1.141-0.689-1.141-1.596
			c0-0.909,0.388-1.598,1.128-1.598c0.252,0,0.46,0.084,0.553,0.129l-0.026,0.512c-0.092-0.06-0.237-0.171-0.471-0.171
			c-0.375,0-0.7,0.321-0.7,1.128c0,0.804,0.325,1.124,0.7,1.124c0.222,0,0.367-0.067,0.471-0.159L261.203,39.927z"/>
		<rect x="261.516" y="36.889" fill="#FFFFFF" width="0.456" height="3.104"/>
		<polygon fill="#FFFFFF" points="262.409,36.889 262.95,36.889 263.777,39.326 263.782,39.326 263.782,36.889 264.193,36.889 
			264.193,39.993 263.651,39.993 262.828,37.574 262.822,37.574 262.822,39.993 262.409,39.993 		"/>
		<path fill="#FFFFFF" d="M265.876,39.246h-0.854l-0.178,0.748h-0.457l0.835-3.104h0.496l0.8,3.104h-0.47L265.876,39.246z
			 M265.778,38.81l-0.313-1.45h-0.008l-0.341,1.45H265.778z"/>
		<path fill="#FFFFFF" d="M267.53,36.89h0.774c0.443,0,0.742,0.248,0.742,0.816c0,0.406-0.2,0.676-0.481,0.73v0.013
			c0.093,0.017,0.193,0.071,0.274,0.359l0.322,1.185h-0.483l-0.245-1.011c-0.063-0.244-0.178-0.324-0.344-0.324h-0.104v1.334h-0.455
			V36.89z M268.171,38.241c0.24,0,0.404-0.157,0.404-0.472c0-0.354-0.147-0.444-0.404-0.444h-0.186v0.917H268.171z"/>
		<polygon fill="#FFFFFF" points="269.44,36.889 270.746,36.889 270.746,37.343 269.897,37.343 269.897,38.171 270.7,38.171 
			270.7,38.623 269.897,38.623 269.897,39.54 270.781,39.54 270.781,39.993 269.44,39.993 		"/>
		<path fill="#FFFFFF" d="M272.119,38.255h0.807v1.622c-0.131,0.086-0.351,0.161-0.674,0.161c-0.799,0-1.219-0.677-1.219-1.598
			s0.42-1.596,1.219-1.596c0.284,0,0.509,0.081,0.604,0.134l-0.024,0.511c-0.147-0.11-0.346-0.189-0.572-0.189
			c-0.485,0-0.743,0.498-0.743,1.141c0,0.699,0.252,1.146,0.715,1.146c0.109,0,0.207-0.03,0.267-0.06V38.69h-0.379V38.255z"/>
		<rect x="273.354" y="36.889" fill="#FFFFFF" width="0.456" height="3.104"/>
		<path fill="#FFFFFF" d="M275.14,36.845c0.515,0,0.988,0.48,0.988,1.598c0,1.114-0.474,1.595-0.988,1.595
			c-0.517,0-0.992-0.48-0.992-1.595C274.147,37.325,274.623,36.845,275.14,36.845 M275.14,39.602c0.285,0,0.517-0.305,0.517-1.159
			c0-0.856-0.231-1.163-0.517-1.163c-0.288,0-0.52,0.307-0.52,1.163C274.62,39.297,274.852,39.602,275.14,39.602"/>
		<polygon fill="#FFFFFF" points="276.462,36.889 277.003,36.889 277.831,39.326 277.835,39.326 277.835,36.889 278.249,36.889 
			278.249,39.993 277.702,39.993 276.882,37.574 276.874,37.574 276.874,39.993 276.462,39.993 		"/>
		<path fill="#FFFFFF" d="M279.929,39.246h-0.855l-0.178,0.748h-0.453l0.832-3.104h0.498l0.801,3.104h-0.473L279.929,39.246z
			 M279.833,38.81l-0.313-1.45h-0.01l-0.34,1.45H279.833z"/>
		<polygon fill="#FFFFFF" points="280.747,36.889 281.202,36.889 281.202,39.54 282.022,39.54 282.022,39.993 280.747,39.993 		"/>
		<path fill="#FFFFFF" d="M283.073,36.887h0.713c0.51,0,0.779,0.356,0.779,0.944c0,0.586-0.27,0.947-0.779,0.947h-0.256v1.215
			h-0.457V36.887z M283.7,38.343c0.285,0,0.408-0.175,0.408-0.511c0-0.339-0.123-0.507-0.408-0.507h-0.17v1.018H283.7z"/>
		<path fill="#FFFFFF" d="M285.833,39.246h-0.855l-0.176,0.748h-0.457l0.832-3.104h0.5l0.801,3.104h-0.469L285.833,39.246z
			 M285.737,38.81l-0.314-1.45h-0.008l-0.34,1.45H285.737z"/>
		<path fill="#FFFFFF" d="M286.651,36.89h0.775c0.443,0,0.742,0.248,0.742,0.816c0,0.406-0.205,0.676-0.482,0.73v0.013
			c0.094,0.017,0.193,0.071,0.273,0.359l0.324,1.185h-0.482l-0.248-1.011c-0.061-0.244-0.176-0.324-0.346-0.324h-0.102v1.334h-0.455
			V36.89z M287.292,38.241c0.24,0,0.404-0.157,0.404-0.472c0-0.354-0.146-0.444-0.404-0.444h-0.186v0.917H287.292z"/>
		<path fill="#FFFFFF" d="M289.808,39.246h-0.855l-0.174,0.748h-0.461l0.836-3.104h0.498l0.801,3.104h-0.471L289.808,39.246z
			 M289.714,38.81l-0.316-1.45h-0.006l-0.34,1.45H289.714z"/>
		<polygon fill="#FFFFFF" points="291.464,36.889 291.919,36.889 291.919,39.54 292.737,39.54 292.737,39.993 291.464,39.993 		"/>
		<path fill="#FFFFFF" d="M294.22,39.246h-0.855l-0.176,0.748h-0.457l0.836-3.104h0.496l0.801,3.104h-0.473L294.22,39.246z
			 M294.124,38.81l-0.313-1.45h-0.008l-0.342,1.45H294.124z"/>
		<path fill="#FFFFFF" d="M295.028,39.392c0.09,0.073,0.285,0.192,0.525,0.192c0.201,0,0.379-0.139,0.379-0.45
			c0-0.221-0.104-0.318-0.32-0.47l-0.234-0.161c-0.246-0.17-0.406-0.412-0.406-0.813c0-0.558,0.367-0.845,0.783-0.845
			c0.262,0,0.449,0.083,0.518,0.111l-0.018,0.478c-0.113-0.055-0.258-0.137-0.467-0.137c-0.23,0-0.35,0.154-0.35,0.366
			c0,0.229,0.127,0.321,0.266,0.418l0.266,0.187c0.293,0.205,0.432,0.399,0.432,0.836c0,0.63-0.357,0.934-0.834,0.934
			c-0.248,0-0.439-0.045-0.563-0.139L295.028,39.392z"/>
		<path fill="#FFFFFF" d="M282.278,9.195c0.641,0.762,1.756,1.213,2.414,1.976c-0.469-2.259-2.215-4.104-4.275-4.544
			C281.421,7.383,281.638,8.434,282.278,9.195 M257.49,14.923c1.418-3.091,3.539-2.437,4.438-5.384
			c-0.506,0.905-2.821,1.285-3.896,3.602c0.548-1.376,0.274-3.481,1.201-4.618C256.459,10.572,257.638,13.883,257.49,14.923
			 M260.063,22.336c0.257,1.205-0.492,2.94,0.696,4.602c-1.232-1.381-3.843-1.732-4.908-3.835c1.329,5.135,4.797,4.078,6.363,5.194
			C260.925,26.448,261.98,25.219,260.063,22.336 M259.662,25.561c-0.769-2.87,0.598-3.86-0.438-6.616
			c-0.108,1.552-1.143,2.309-0.445,5.146c-1.23-2.404-3.137-3.299-3.687-4.947C255.129,23.65,258.748,24.318,259.662,25.561
			 M265.225,30.373c-1.066-1.474-0.34-2.307-3.333-4.987c0.633,0.978-0.02,2.207,1.997,4.122c-1.974-1.167-4.699-0.667-6.013-2.225
			C260.132,31.601,264.098,29.833,265.225,30.373 M279.716,29.507c2.018-1.916,1.363-3.144,1.998-4.122
			c-2.992,2.681-2.266,3.514-3.332,4.987c1.125-0.539,5.09,1.229,7.348-3.09C284.417,28.84,281.692,28.34,279.716,29.507
			 M282.847,26.938c1.188-1.661,0.441-3.396,0.695-4.602c-1.914,2.882-0.861,4.111-2.152,5.961c1.568-1.116,5.035-0.06,6.365-5.194
			C286.688,25.206,284.077,25.557,282.847,26.938 M278.063,30.578c-1.172-0.313-2.379-0.468-3.277-0.491
			c-1.117-0.028-2.117,0.183-2.985,0.506c-0.864-0.324-1.866-0.535-2.982-0.506c-0.899,0.023-2.106,0.178-3.275,0.491
			c-1.802,0.479-3.361,0.85-4.716,0.164c1.301,1.155,2.819,1.566,5.011,1.328c1.826-0.196,3.302-1.106,5.022-1.097
			c0.021,0,0.044,0.002,0.064,0.002c-1.812,0.919-2.835,2.207-2.835,2.207l0.829,0.113c0,0,0.873-1.757,2.882-2.213
			c2.01,0.456,2.885,2.213,2.885,2.213l0.831-0.113c0,0-1.025-1.288-2.838-2.207c0.021,0,0.043-0.002,0.067-0.002
			c1.721-0.009,3.192,0.9,5.021,1.097c2.193,0.238,3.711-0.173,5.012-1.328C281.421,31.428,279.864,31.058,278.063,30.578
			 M259.346,15.837c-0.743,1.422-1.897,1.749-1.774,4.691c-0.622-2.614-2.111-3.586-2.092-5.257
			c-1.036,4.359,1.731,4.875,2.44,6.704C257.817,19.357,259.485,18.828,259.346,15.837 M260.383,12.467
			c-0.259,0.365-0.441,0.517-1.13,1.085c-0.939,0.774-1.691,1.791-2.007,3.278c0.07-1.597-0.915-3.896-0.258-5.57
			c-2.545,3.591,0.144,5.742,0.239,7.04C257.885,15.8,259.399,15.78,260.383,12.467 M286.358,16.831
			c-0.318-1.487-1.066-2.503-2.008-3.278c-0.688-0.568-0.873-0.72-1.127-1.085c0.982,3.313,2.498,3.333,3.154,5.833
			c0.096-1.298,2.783-3.449,0.24-7.04C287.274,12.935,286.288,15.233,286.358,16.831 M288.515,19.144
			c-0.553,1.648-2.459,2.543-3.688,4.947c0.697-2.836-0.336-3.593-0.447-5.146c-1.033,2.755,0.33,3.746-0.438,6.616
			C284.856,24.318,288.476,23.65,288.515,19.144 M284.259,15.837c-0.143,2.99,1.529,3.52,1.424,6.138
			c0.711-1.829,3.479-2.345,2.441-6.704c0.02,1.67-1.469,2.643-2.09,5.257C286.155,17.586,285.003,17.26,284.259,15.837
			 M261.327,9.195c0.64-0.762,0.857-1.813,1.862-2.568c-2.063,0.44-3.806,2.285-4.275,4.544
			C259.57,10.408,260.686,9.958,261.327,9.195 M281.675,9.539c0.902,2.947,3.018,2.293,4.438,5.384
			c-0.146-1.04,1.033-4.351-1.74-6.399c0.928,1.137,0.654,3.242,1.201,4.618C284.499,10.824,282.183,10.444,281.675,9.539
			 M274.478,11.214c-0.533-0.219-1.099-0.377-1.688-0.461c-0.003,0.125-0.006,0.253-0.008,0.378
			c0.543,0.082,1.064,0.225,1.559,0.431C274.405,11.458,274.452,11.343,274.478,11.214 M274.049,7.568l0.112-0.103l-0.215-0.091
			l-0.567-0.011l-0.147,0.102l-0.334-0.027l-0.005,0.083c0.213,0.014,0.423,0.032,0.585,0.06l0.275-0.025L274.049,7.568z
			 M272.959,19.79c0-0.094-0.13-0.19-0.319-0.279l-0.033-0.001c-0.001,0.079-0.007,0.463-0.013,0.65
			C272.826,20.056,272.959,19.943,272.959,19.79 M266.389,12.586c0.013-0.076,0.027-0.137,0.047-0.207
			c-0.069,0.017-0.152,0.027-0.232,0.025L266.389,12.586z M271.813,29.265c6.379,0,11.563-5.19,11.563-11.566
			c0-5.979-4.563-10.916-10.391-11.504c-0.003,0.021-0.009,0.044-0.014,0.064c-0.021,0.113-0.041,0.215-0.06,0.304
			c2.61,0.256,4.96,1.412,6.735,3.153l-1.277,1.277l0.047-0.226l-0.164-0.073l-0.232-0.014l0.049-0.147l-0.154-0.522l-0.316-0.349
			l-1-0.525l-0.084,0.092l-0.178,0.051c0.34,0.504,0.527,1.088,0.527,1.678c0,0.077-0.002,0.152-0.008,0.224l0.492,0.624
			l-0.229,0.053l0.152,0.232l-0.438,0.436l-0.172-0.335c-0.086,0.234-0.197,0.449-0.332,0.651c0.031,0.029,0.066,0.059,0.098,0.091
			l-1.344,1.342c-0.078-0.077-0.167-0.153-0.252-0.222c-0.13,0.058-0.262,0.114-0.394,0.167c0.037,0.028,0.075,0.056,0.113,0.085
			l-0.067,0.071l-0.158,0.087l-0.06,0.157l-0.098-0.097l-0.281,0.095l0.076,0.122l0.196-0.051l0.128,0.011l0.009-0.07l0.098-0.049
			l0.03-0.058l0.177-0.049l0.137-0.007c0.027,0.024,0.054,0.048,0.081,0.073l-0.534,0.533l-0.038-0.057l-0.557,0.093l-0.124,0.123
			l-0.121,0.013l0.345-0.33l-0.125-0.063l-0.321,0.434l0.096-0.012l-0.008,0.16l0.117,0.044l0.025,0.171l-0.193-0.041l-0.204,0.041
			l-0.488-0.253c0,0-0.025,1.311-0.041,1.973c1.153,0.389,2.377,0.948,2.377,2.418c0,0.648-0.277,1.169-0.827,1.554l0.003,0.003
			c-0.009,0.006-0.015,0.014-0.025,0.016v-0.001c-0.013,0.01-0.028,0.018-0.037,0.026c-0.47,0.308-1.066,0.471-1.589,0.636
			c-0.003,0.001-0.015,1.031-0.015,1.031c0.828,0.411,1.832,1.01,1.738,2.72c-0.01,0.423-0.176,0.539-0.314,0.576v0.002
			c-0.484,0.119-0.985,0.2-1.497,0.235c-0.003,0.133-0.005,0.26-0.007,0.378c2.228-0.153,4.243-1.093,5.767-2.545l1.342,1.342
			c-2.012,1.934-4.743,3.127-7.75,3.127c-2.988,0-5.708-1.181-7.716-3.097l1.345-1.341c1.507,1.422,3.488,2.35,5.683,2.511
			c-0.002-0.116-0.005-0.242-0.008-0.378c-2.086-0.162-3.974-1.046-5.41-2.401l0.357-0.359l0.494,0.058l0.261-0.282l0.686,0.023
			l0.102-0.239l-0.024-0.101c0.996,0.757,2.195,1.253,3.502,1.386c-0.003-0.144-0.006-0.271-0.009-0.375
			c-1.441-0.161-2.745-0.785-3.76-1.72l1.346-1.344c0.323,0.291,0.692,0.538,1.09,0.732c0.029-0.129,0.075-0.249,0.132-0.354
			c-0.347-0.172-0.667-0.388-0.955-0.643l1.345-1.349c0.214,0.171,0.458,0.309,0.721,0.402c-0.001-0.135-0.006-0.274-0.007-0.406
			c-0.159-0.069-0.31-0.156-0.445-0.263l0.381-0.379c-0.133-0.039-0.269-0.083-0.404-0.128l-0.253,0.253
			c-0.128-0.143-0.237-0.302-0.324-0.477c-0.231-0.104-0.456-0.22-0.665-0.357c-0.827-0.542-1.246-1.313-1.246-2.281
			c0-0.741,0.206-1.303,0.545-1.74l-1.341-1.34c0.965-0.921,2.208-1.558,3.588-1.765c-0.003-0.132-0.007-0.259-0.01-0.378
			c-1.478,0.211-2.811,0.889-3.844,1.878l-0.228-0.228c-0.051,0.089-0.11,0.206-0.179,0.35l0.141,0.142
			c-1.152,1.23-1.867,2.872-1.897,4.681h-1.902c0.029-2.33,0.959-4.449,2.457-6.022l0.603,0.603c0.028,0,0.056,0,0.087-0.002
			c0.108-0.009,0.229-0.041,0.343-0.1l-0.768-0.77c0.405-0.39,0.849-0.746,1.323-1.055c0.035-0.127,0.072-0.239,0.093-0.28
			c0.022-0.045,0.145-0.206,0.291-0.389c-0.721,0.4-1.385,0.89-1.972,1.46l-1.344-1.344c1.762-1.713,4.084-2.854,6.664-3.116
			c-0.012-0.047-0.018-0.08-0.018-0.08c-0.017-0.09-0.037-0.19-0.056-0.291c-5.812,0.604-10.355,5.532-10.355,11.501
			C260.251,24.075,265.438,29.265,271.813,29.265 M274.311,21.273v-0.01l0.003,0.009C274.312,21.272,274.312,21.273,274.311,21.273
			 M279.909,9.981c1.893,1.985,3.064,4.658,3.094,7.601h-1.9c-0.018-1.457-0.375-2.835-0.992-4.058l0.018-0.032l0.131,0.07
			l0.031-0.103l-0.342-0.596l-0.4-0.557l-0.473-0.394c-0.162-0.201-0.332-0.396-0.51-0.585L279.909,9.981z M277.489,12.42
			l0.459,0.017l0.105,0.132l-0.053,0.193l0.631,0.396l0.127-0.017l0.811,0.927l0.334-0.114c0.514,1.105,0.807,2.333,0.822,3.627
			h-1.9c-0.01-0.496-0.068-0.979-0.176-1.446l0.086-0.116l0.117-0.596l-0.086-0.642l-0.23-0.736l-0.531-0.772l0.129,0.067
			l0.064-0.066l-0.424-0.287l-0.029,0.095l0.426,0.609l0.242,0.496l0.172,0.495l0.053,0.334l0.09,0.558l-0.162,0.012
			c0,0-0.182-0.341-0.238-0.485l0.086-0.125l-0.162-0.235v-0.229l-0.117-0.146l-0.146,0.016c-0.051-0.094-0.102-0.189-0.158-0.282
			l0.102,0.052l0.029-0.028l-0.057-0.119l0.125-0.069l-0.057-0.071l-0.182,0.071l0.064-0.289l-0.109-0.062l-0.096,0.23
			c-0.207-0.312-0.439-0.606-0.693-0.879L277.489,12.42z M277.108,16.873l0.342-0.186l0.348-0.055l0.078-0.17l0.191-0.116
			l0.078-0.161l0.059-0.281c0.029,0.1,0.055,0.201,0.074,0.3l-0.182,0.552l-0.006,0.186l0.266-0.358
			c0.057,0.324,0.088,0.661,0.094,1h-1.664l-0.039-0.144l0.191-0.155l0.041-0.094l0.084-0.062l0.223-0.024l0.025-0.099
			L277.108,16.873z M274.827,15.565l0.172-0.039l-0.009-0.04l-0.17-0.114l0.06-0.36l0.2-0.202c0.126,0.145,0.247,0.297,0.354,0.458
			l-0.068,0.221l-0.188-0.133l-0.142,0.04l0.07,0.129h0.07l-0.078,0.194l-0.055-0.078L274.827,15.565z M275.557,21.877l-0.41-0.117
			l-0.124,0.046l-0.233-0.179l-0.218-0.079c0.105-0.078,0.212-0.158,0.313-0.244l0.338,0.239l0.257,0.136l0.129,0.128
			L275.557,21.877z M275.347,14.545l1.342-1.343c0.316,0.338,0.594,0.714,0.834,1.117l-0.168,0.045l0.01,0.3l0.506,0.317
			c0.121,0.275,0.227,0.558,0.314,0.852l-0.09,0.127l-0.182,0.116l-0.047,0.28l-0.123,0.068l-0.105,0.122l-0.104-0.038l-0.186-0.007
			l0.107-0.146l0.078-0.38l0.125-0.077l-0.365-0.348l-0.27,0.091l-0.064,0.256l-0.166,0.187l-0.18-0.148l-0.063-0.156l0.1-0.062
			l0.059,0.101l0.084-0.029l-0.039-0.173l-0.119-0.006l-0.006,0.07l-0.076,0.017l-0.418-0.488l-0.143-0.11l0.055-0.057L276.175,15
			l-0.117-0.046c0,0-0.148,0.032-0.164,0.032l0.084,0.106l-0.215-0.005C275.638,14.898,275.5,14.716,275.347,14.545 M276.032,21.699
			l-0.184-0.182l0.141-0.182l0.176-0.357l-0.068-0.101l0.117-0.264l-0.016-0.239l-0.07-0.246l-0.164-0.062l-0.063,0.144
			l-0.099-0.028c0.144-0.226,0.296-0.441,0.399-0.693l0.17-0.075l0.094-0.129l0.049,0.054l0.115-0.139l-0.094-0.117l0.086-0.023
			l0.156,0.062l0.293,0.008l0.176-0.093l0.467-0.123l-0.09-0.155l-0.029-0.187l0.25,0.11l0.092-0.056l-0.045-0.192l-0.305,0.113
			l-0.34-0.07l-0.256-0.52h1.455c-0.064,1.672-0.75,3.186-1.834,4.322l-0.201-0.201l0.09-0.267l-0.158-0.588L276.032,21.699z
			 M276.288,25.407l0.178-0.382l-0.066-0.171l0.264-0.232v-0.139l-0.227-0.141l0.186-0.37l0.279-0.363l-0.279-0.301h-0.211
			l-0.129-0.209c0.113-0.094,0.223-0.19,0.328-0.288l1.346,1.345C277.452,24.633,276.892,25.055,276.288,25.407 M277.964,23.631
			l0.146-0.167l-0.139-0.735l-0.098-0.037l0.061-0.126l-0.318-0.102l-0.061,0.265l-0.033,0.333l-0.066,0.061l-0.578-0.58
			c1.15-1.201,1.881-2.811,1.943-4.585h1.902c-0.063,2.299-1.006,4.384-2.502,5.93L277.964,23.631z M278.487,24.155
			c1.564-1.616,2.547-3.793,2.611-6.196h1.902c-0.066,2.927-1.264,5.58-3.172,7.539L278.487,24.155z M267.048,22.314
			c-0.137-0.143-0.269-0.291-0.392-0.447l0.056-0.479l-0.2-0.462l-0.05-0.721l-0.221-0.439l0.045-0.27l-0.271-0.522l-0.237-0.118
			l0.095-0.276l-0.098-0.221l0.098-0.249h0.261l0.092-0.151h0.44l0.071,0.13l-0.08,0.451l-0.056,0.079l0.167,0.364l-0.11,0.061
			l-0.077-0.099l-0.032,0.039l0.077,0.214l0.13,0.252l0.061-0.007l0.034-0.225l-0.063-0.081l-0.005-0.154l-0.02-0.316l0.093-0.558
			l-0.091-0.149h0.32c0.061,1.164,0.548,2.218,1.305,3.01L267.048,22.314z M265.792,18.597l-0.182,0.281h-0.306l-0.025-0.017
			c-0.051-0.296-0.083-0.599-0.096-0.903h0.571l-0.136,0.457L265.792,18.597z M266.416,17.294l0.034-0.38l0.227-0.131l0.403,0.073
			l0.06,0.073c-0.036,0.212-0.055,0.432-0.06,0.653h-0.457L266.416,17.294z M268.346,18.714l0.096-0.048l0.247,0.187l-0.105,0.088
			l0.277,0.186l-0.017-0.198l0.148-0.247l0.155,0.165l0.159,0.229l-0.287,0.063l0.132,0.262l0.2-0.107l-0.027-0.084l0.151-0.101
			l0.086-0.413c0.11,0.246,0.259,0.471,0.438,0.667l-1.341,1.343c-0.643-0.674-1.072-1.55-1.178-2.523l0.272,0.293l0.258-0.001
			L268.346,18.714z M266.969,13.169l1.344,1.342c-0.281,0.309-0.521,0.654-0.713,1.027l-0.095-0.007l-0.189,0.06l-0.064-0.006
			l-0.2,0.187l0.254-0.04l0.229-0.059c-0.014,0.026-0.027,0.059-0.044,0.087l-0.195,0.124h-0.097l-0.296,0.223l-0.283-0.021
			l-0.416,0.769l0.084,0.153l-0.225,0.25l-0.034,0.322h-0.849C265.209,15.877,265.883,14.328,266.969,13.169 M265.232,23.305
			l0.427,0.247l0.088,0.062l-0.308,0.31c-0.146-0.149-0.283-0.304-0.417-0.463L265.232,23.305z M264.808,17.958
			c0.006,0.184,0.024,0.367,0.043,0.547l-0.232,0.054l-0.047,0.236l-0.485,0.617l0.012,0.846l-0.497,0.166l-0.271,0.002
			c-0.254-0.78-0.398-1.61-0.426-2.467H264.808z M262.931,20.416l-0.11-0.021l-0.106-0.119l-0.534-0.048l0.165,0.226l-0.493-0.094
			l0.132-0.119l-0.123-0.119l-0.356,0.156l-0.128,0.236l0.05,0.539l0.407,0.983l0.199,0.31l0.114,0.041l-0.313-0.588l-0.064-0.298
			l0.071-0.075l-0.046-0.165l0.188,0.024l0.286,0.434l0.071,0.029l-0.006-0.317l0.115,0.07l0.024,0.169l0.303,0.081l0.125-0.089
			l0.042,0.031l-0.003,0.23l0.13,0.164l0.162,0.035l0.353,0.597l0.213,0.061l0.065-0.28c0.373,0.614,0.813,1.182,1.312,1.692
			l-1.344,1.344c-1.927-1.965-3.134-4.631-3.201-7.573h1.9C262.551,18.81,262.691,19.634,262.931,20.416 M263.748,9.949l1.346,1.342
			c-1.563,1.644-2.539,3.855-2.564,6.291h-1.904C260.657,14.623,261.842,11.936,263.748,9.949 M277.507,9.257l-0.117-0.186
			l-0.244-0.124l-0.195,0.148l0.25,0.132l0.275,0.2L277.507,9.257z M276.356,14.619l0.006,0.147l0.33-0.099l0.102-0.201
			l-0.227-0.296l0.121-0.185l0.305,0.222l0.057-0.045l-0.063-0.043l-0.066-0.133l0.127-0.072l-0.125-0.161l-0.291,0.146
			l-0.098,0.175l-0.057,0.156l0.125,0.213l-0.045,0.101L276.356,14.619z M262.616,23.143l0.022-0.086l-0.174-0.372l-0.2-0.074
			L262.616,23.143z M270.386,16c0,0.321,0.193,0.543,0.545,0.739c0,0-0.003-0.054-0.003-0.141l-0.219-0.224l0.115-0.212l0.096-0.028
			c-0.008-0.373-0.014-0.788-0.016-0.846l-0.018,0.001C270.561,15.468,270.386,15.689,270.386,16"/>
		<path fill="#FFFFFF" d="M272.508,24.239c0.596,0.302,1.146,0.717,1.376,1.508c0.102-1.312-0.631-1.877-1.36-2.26
			C272.523,23.489,272.508,24.239,272.508,24.239"/>
		<path fill="#FFFFFF" d="M276.472,10.956c0-1.188-0.864-2.506-2.979-2.972c-0.154-0.035-0.394-0.06-0.644-0.075
			c-0.004,0.178-0.013,0.588-0.013,0.588c-0.003,0.13-0.014,0.605-0.018,0.708c0.194,0.018,0.339,0.041,0.407,0.058
			c1.228,0.293,1.666,0.997,1.666,1.692c0,1.13-0.963,1.555-2.149,1.877c-0.128,0.035-0.26,0.066-0.393,0.102
			c-0.361,0.088-0.732,0.177-1.097,0.275c-0.129,0.035-0.259,0.072-0.389,0.113c-1.315,0.398-2.445,1.033-2.445,2.658
			c0,1.608,1.288,2.208,2.548,2.596c-0.009-0.462-0.019-0.927-0.028-1.394c-0.554-0.261-0.946-0.604-0.946-1.182
			c0-0.562,0.358-0.903,0.901-1.149c0.122-0.055,0.252-0.105,0.391-0.153c0.312-0.106,0.665-0.198,1.034-0.285
			c0.127-0.032,0.257-0.063,0.393-0.094C274.486,13.889,276.472,13.333,276.472,10.956"/>
		<path fill="#FFFFFF" d="M270.104,22.305c0.002,0.651,0.478,1.005,0.958,1.272c-0.001-0.111-0.019-1.115-0.021-1.133
			c0.01-0.202,0.206-0.32,0.361-0.396c0.231-0.108,0.464-0.188,0.761-0.291c0.142-0.048,0.267-0.097,0.4-0.138
			c0.962-0.288,2.074-0.658,2.074-1.827c0-1.172-0.956-1.65-1.997-2.011c-0.007,0.372-0.02,0.916-0.025,1.293
			c0.44,0.174,0.731,0.384,0.731,0.718c0,0.418-0.448,0.659-0.763,0.781c-0.132,0.052-0.334,0.117-0.389,0.135
			c-0.258,0.082-0.531,0.173-0.79,0.267c-0.135,0.051-0.266,0.106-0.389,0.169C270.564,21.374,270.101,21.713,270.104,22.305"/>
		<path fill="#FFFFFF" d="M270.753,8.095c-0.639,0.182-1.016,0.423-1.157,0.471c-0.416,0.138-1,0.161-1.604,0.82
			c-0.107,0.116-0.369,0.445-0.555,0.714c-0.18,0.26-0.189,0.683-0.322,0.912c-0.195,0.328-0.149,0.515-0.149,0.515l0.006,0.011
			c-0.007,0.039-0.047,0.214-0.22,0.411c-0.202,0.223-0.471,0.349-0.785,0.298c0.274,0.137,0.655-0.057,0.655-0.057
			s-0.072,0.208-0.146,0.549c0.311-0.7,0.591-0.955,0.681-1.026c0.135,0.032,0.408,0.018,0.919-0.274
			c0.575-0.332,1.442-0.871,1.687-1.213c0.266-0.368,0.63-0.612,1.021-0.77C270.773,8.94,270.764,8.48,270.753,8.095
			 M268.235,10.374l-0.297,0.064l0.439-0.683l0.418,0.014L268.235,10.374z"/>
		<path fill="#FFFFFF" d="M271.944,22.224c-0.056,0.017-0.199,0.083-0.29,0.114c-0.098,0.035-0.22,0.082-0.22,0.118
			c0,0.009,0.093,5.039,0.093,5.149c0,1.037,0.527,1.042,0.527,0c0-0.074,0.107-5.453,0.107-5.453S272.032,22.193,271.944,22.224"/>
		<path fill="#FFFFFF" d="M271.398,20.564c0.164-0.059,0.327-0.107,0.479-0.156c0.115-0.034,0.222-0.067,0.32-0.1
			c0.006-0.315,0.096-4.695,0.111-5.49c-0.391,0.097-0.734,0.19-1.019,0.293C271.306,15.708,271.39,20.086,271.398,20.564"/>
		<path fill="#FFFFFF" d="M271.839,3.796c-1.481,0-0.854,2.197-0.737,2.914c0.006,0.031,0.12,4.965,0.146,6.097
			c0.223-0.06,0.446-0.114,0.665-0.167c0.155-0.038,0.303-0.075,0.447-0.111c0.021-1.09,0.131-5.798,0.135-5.828
			C272.582,5.934,273.359,3.796,271.839,3.796"/>
		<path fill="#FFFFFF" d="M301.673,38.736h-1.854l-0.406,1.54h-1.336l1.963-6.884h1.523l1.891,6.884h-1.418L301.673,38.736z
			 M300.792,34.711h-0.018l-0.701,2.861h1.326L300.792,34.711z"/>
		<path fill="#FFFFFF" d="M308.757,37.109c0-0.592-0.211-0.807-0.506-0.807c-0.398,0-0.551,0.335-0.551,0.72v3.254h-1.338v-3.167
			c0-0.649-0.242-0.807-0.463-0.807c-0.438,0-0.592,0.443-0.592,1.094v2.88h-1.336V36.21c0-0.492-0.008-0.805-0.033-1.075h1.217
			c0.018,0.23,0.035,0.513,0.035,0.86h0.016c0.203-0.563,0.541-0.938,1.244-0.938c0.631,0,0.955,0.349,1.141,0.86
			c0.193-0.484,0.508-0.86,1.209-0.86c0.973,0,1.295,0.829,1.295,1.856v3.362h-1.338V37.109z"/>
		<path fill="#FFFFFF" d="M314.776,38.118h-2.596c0,0.609,0.34,1.172,1.092,1.172c0.453,0,0.912-0.198,1.242-0.405l0.025,1.174
			c-0.432,0.188-0.939,0.297-1.393,0.297c-1.551,0-2.234-1.096-2.234-2.665c0-1.38,0.695-2.634,1.955-2.634
			c0.395,0,1.908,0,1.908,2.685V38.118z M313.56,37.268c0-0.65-0.143-1.263-0.691-1.263c-0.688,0-0.688,0.986-0.688,1.263H313.56z"
			/>
		<path fill="#FFFFFF" d="M315.562,36.21c0-0.492-0.01-0.805-0.033-1.075h1.219c0.008,0.308,0.025,0.623,0.033,0.927h0.02
			c0.268-0.553,0.455-1.006,1.227-1.006h0.191V36.5c-0.143-0.042-0.26-0.06-0.447-0.06c-0.781,0-0.873,0.788-0.873,1.537v2.298
			h-1.336V36.21z"/>
		<path fill="#FFFFFF" d="M318.894,32.876h1.336v1.383h-1.336V32.876z M318.894,35.136h1.336v5.14h-1.336V35.136z"/>
		<path fill="#FFFFFF" d="M324.313,40.139c-0.387,0.117-0.785,0.218-1.209,0.218c-1.697,0-2.08-1.659-2.08-2.596
			c0-1.579,0.777-2.704,2.18-2.704c0.441,0,0.678,0.127,1.068,0.248l-0.066,1.173c-0.246-0.109-0.502-0.219-0.783-0.219
			c-1.01,0-1.01,1.302-1.01,1.501c0,1.082,0.574,1.432,1.082,1.432c0.277,0,0.531-0.121,0.777-0.229L324.313,40.139z"/>
		<path fill="#FFFFFF" d="M325.261,35.382c0.348-0.127,0.941-0.325,1.422-0.325c1.545,0,1.902,0.751,1.902,1.896v1.872
			c0,0.761,0.008,1.106,0.031,1.45h-1.217l-0.031-0.709h-0.02c-0.059,0.316-0.574,0.79-1.207,0.79c-0.82,0-1.361-0.622-1.361-1.559
			c0-1.719,1.717-1.727,2.18-1.727h0.408c0-0.988-0.627-0.988-0.822-0.988c-0.338,0-0.699,0.09-1.225,0.455L325.261,35.382z
			 M327.368,37.8c-0.535,0-1.373,0.039-1.373,0.897c0,0.67,0.467,0.67,0.576,0.67c0.119,0,0.797-0.02,0.797-1.271V37.8z"/>
		<path fill="#FFFFFF" d="M332.118,36.43c-0.355-0.171-0.686-0.275-1.074-0.275c-0.346,0-0.5,0.194-0.5,0.373
			c0,0.316,0.197,0.425,0.922,0.74c0.457,0.198,0.922,0.533,0.922,1.499c0,1.145-0.734,1.591-1.621,1.591
			c-0.389,0-0.982-0.051-1.447-0.247l0.033-1.205c0.324,0.226,0.727,0.354,1.102,0.354c0.623,0,0.666-0.256,0.666-0.483
			c0-0.229-0.346-0.326-0.924-0.602c-0.463-0.228-0.92-0.659-0.92-1.578c0-0.553,0.338-1.538,1.648-1.538
			c0.553,0,1.01,0.116,1.227,0.205L332.118,36.43z"/>
		<polygon fill="#FFFFFF" points="312.036,34.622 312.78,32.753 313.901,32.753 312.78,34.622 		"/>
		<path fill="#FFFFFF" d="M26.797,41.204C13.294,41.204,5.38,34.83,5.38,22.5c0-12.122,7.914-18.703,21.417-18.703
			S48.379,10.377,48.379,22.5C48.379,34.83,40.3,41.204,26.797,41.204 M26.797,32.499c5.866,0,6.032-6.113,6.087-9.999
			c-0.055-3.366-0.442-9.998-6.087-9.998c-5.479,0-5.922,6.632-5.922,9.998C20.875,26.386,21.484,32.499,26.797,32.499"/>
		<path fill="#FFFFFF" d="M51.649,4.419H77.16c6.032,0,14.168,2.693,14.168,12.434c0,9.428-6.477,13.315-14.224,13.315H66.48v10.413
			H51.649V4.419z M66.092,21.774h3.266c3.541,0,7.141-0.62,7.141-4.662c0-3.835-3.6-4.3-7.196-4.3h-3.21V21.774z"/>
		<path fill="#FFFFFF" d="M126.418,14.314c-3.321-1.088-7.25-1.813-11.455-1.813c-2.325,0-6.365,0.05-6.365,2.381
			c0,4.717,20.311,0.259,20.311,14.197c0,9.688-10.238,12.122-18.816,12.122c-5.701,0-10.403-0.515-15.938-1.708v-9.379
			c3.984,1.555,8.855,2.384,13.282,2.384c3.488,0,6.642-0.674,6.642-2.487c0-4.871-20.31-0.466-20.31-14.506
			c0-9.949,11.067-11.709,19.866-11.709c4.151,0,8.744,0.465,12.784,1.242V14.314z"/>
	</g>
	<rect x="384.72" y="4.924" fill="#FFFFFF" width="1.125" height="35.832"/>
</g>
</svg>
