<?xml version="1.0" encoding="utf-8"?>
<!-- Generator: Adobe Illustrator 14.0.0, SVG Export Plug-In . SVG Version: 6.00 Build 43363)  -->
<!DOCTYPE svg PUBLIC "-//W3C//DTD SVG 1.1//EN" "http://www.w3.org/Graphics/SVG/1.1/DTD/svg11.dtd">
<svg version="1.1" id="Camada_1" xmlns="http://www.w3.org/2000/svg" xmlns:xlink="http://www.w3.org/1999/xlink" x="0px" y="0px"
	 width="511.882px" height="115.56px" viewBox="0 0 511.882 115.56" enable-background="new 0 0 511.882 115.56"
	 xml:space="preserve">
<g>
	<g>
		<rect x="279.88" y="10.72" fill="#FFFFFF" width="1.516" height="94.575"/>
		<g>
			<path fill="#FFFFFF" d="M26.071,106.253c-10.432,0-18.917-8.248-18.917-18.383c0-10.137,8.485-18.383,18.917-18.383
				c10.431,0,18.915,8.246,18.915,18.383C44.986,98.005,36.501,106.253,26.071,106.253 M26.071,70.332
				c-9.954,0-18.05,7.868-18.05,17.539c0,9.672,8.096,17.541,18.05,17.541c9.953,0,18.049-7.869,18.049-17.541
				C44.12,78.2,36.023,70.332,26.071,70.332"/>
			<path fill="#FFFFFF" d="M26.071,101.201c-7.767,0-14.085-5.98-14.085-13.33c0-7.352,6.318-13.332,14.085-13.332
				c7.766,0,14.083,5.98,14.083,13.332C40.154,95.22,33.836,101.201,26.071,101.201 M26.071,75.479
				c-7.234,0-13.119,5.56-13.119,12.392c0,6.831,5.885,12.39,13.119,12.39c7.233,0,13.119-5.559,13.119-12.39
				C39.19,81.039,33.304,75.479,26.071,75.479"/>
			<polygon fill="#FFFFFF" points="11.129,81.475 11.377,82.375 12.28,82.375 11.624,82.88 11.87,83.667 11.09,83.046 10.33,83.724 
				10.635,82.88 9.857,82.378 10.762,82.396 			"/>
			<path fill="#FFFFFF" d="M11.961,83.802l-0.869-0.694l-0.73,0.651l-0.08-0.051l0.295-0.81L9.69,82.328l1.037,0.021l0.41-1.023
				l0.277,1h1.004l-0.741,0.571L11.961,83.802z M10.021,82.429l0.674,0.432l-0.256,0.702l0.648-0.579l0.69,0.548l-0.209-0.669
				l0.573-0.44H11.34l-0.219-0.799l-0.328,0.82L10.021,82.429z"/>
			<polygon fill="#FFFFFF" points="39.983,94.228 40.23,95.128 41.133,95.128 40.477,95.634 40.724,96.422 39.941,95.798 
				39.181,96.478 39.489,95.634 38.708,95.13 39.613,95.15 			"/>
			<path fill="#FFFFFF" d="M40.815,96.556l-0.871-0.697l-0.731,0.652l-0.078-0.049l0.295-0.811l-0.889-0.572l1.037,0.021
				l0.413-1.023l0.274,1.002h1.004l-0.738,0.572L40.815,96.556z M38.873,95.181l0.675,0.434l-0.257,0.699l0.648-0.578l0.692,0.551
				l-0.21-0.67l0.573-0.442h-0.802l-0.218-0.798l-0.33,0.82L38.873,95.181z"/>
			<polygon fill="#FFFFFF" points="12.095,94.027 12.343,94.927 13.247,94.927 12.589,95.431 12.835,96.221 12.056,95.598 
				11.296,96.275 11.602,95.431 10.823,94.929 11.729,94.95 			"/>
			<path fill="#FFFFFF" d="M12.928,96.355l-0.87-0.695l-0.732,0.65l-0.076-0.051l0.294-0.809l-0.888-0.572l1.039,0.022l0.409-1.024
				l0.275,1.002h1.006l-0.742,0.57L12.928,96.355z M10.988,94.981l0.674,0.431l-0.256,0.701l0.648-0.576l0.69,0.549l-0.209-0.67
				l0.574-0.441h-0.803l-0.219-0.799l-0.328,0.82L10.988,94.981z"/>
			<polygon fill="#FFFFFF" points="41.103,80.828 41.433,81.728 42.254,81.728 41.598,82.233 41.844,83.021 41.103,82.353 
				40.304,83.078 40.61,82.233 39.83,81.73 40.735,81.751 			"/>
			<path fill="#FFFFFF" d="M41.941,83.173l-0.838-0.756l-0.767,0.695l-0.08-0.052l0.296-0.81l-0.889-0.569l1.038,0.021l0.404-1.01
				l0.36,0.989h0.929l-0.742,0.567L41.941,83.173z M39.996,81.783l0.675,0.43l-0.257,0.701l0.689-0.624l0.644,0.579l-0.204-0.653
				l0.572-0.44h-0.717L41.1,80.961l-0.333,0.836L39.996,81.783z"/>
			<path fill="#FFFFFF" d="M27.183,87.865c0.076-0.002,0.154-0.004,0.226,0H27.183z"/>
			<polygon fill="#FFFFFF" points="16.488,98.315 16.883,98.667 15,100.647 14.577,100.269 15.09,98.117 15.084,98.112 
				13.741,99.523 13.344,99.168 15.229,97.189 15.676,97.589 15.17,99.687 15.177,99.693 			"/>
			<path fill="#FFFFFF" d="M26.775,73.798l-0.614-0.059l1.27-2.561l0.672,0.064l0.71,2.749l-0.632-0.06l-0.125-0.564l-1.031-0.098
				L26.775,73.798z M27.229,72.826l0.712,0.066l-0.24-1.084h-0.005L27.229,72.826z"/>
			<polygon fill="#FFFFFF" points="30.549,73.925 31.875,74.335 31.712,74.791 29.832,74.208 30.719,71.696 31.275,71.869 			"/>
			<path fill="#FFFFFF" d="M34.817,75.559c-0.402,0.586-0.941,0.606-1.531,0.245c-0.213-0.133-0.498-0.381-0.554-0.728
				c-0.032-0.216,0.042-0.425,0.187-0.653l1.012-1.473l0.496,0.307l-0.99,1.443c-0.211,0.311-0.116,0.562,0.109,0.703
				c0.335,0.207,0.578,0.136,0.762-0.134l1.004-1.465l0.496,0.308L34.817,75.559z"/>
			<polygon fill="#FFFFFF" points="36.084,77.672 35.631,77.32 37.114,75.642 36.462,75.129 36.779,74.769 38.535,76.143 
				38.218,76.505 37.566,75.994 			"/>
			<path fill="#FFFFFF" d="M23.675,73.176c0.029,0.147,0.153,0.417,0.659,0.347c0.272-0.039,0.566-0.146,0.518-0.428
				c-0.036-0.207-0.251-0.232-0.555-0.258l-0.309-0.021c-0.462-0.036-0.91-0.072-1.011-0.655c-0.048-0.294,0.028-0.838,0.926-0.968
				c0.846-0.12,1.163,0.379,1.222,0.702l-0.553,0.079c-0.035-0.115-0.13-0.391-0.635-0.317c-0.219,0.031-0.468,0.146-0.427,0.388
				c0.037,0.205,0.222,0.225,0.34,0.234l0.701,0.063c0.391,0.033,0.764,0.135,0.844,0.607c0.136,0.799-0.699,0.99-0.94,1.025
				c-1.007,0.145-1.276-0.39-1.333-0.717L23.675,73.176z"/>
			<path fill="#FFFFFF" d="M17.344,73.25c0.328-0.162,1.261-0.457,1.87,0.654c0.606,1.111-0.183,1.676-0.51,1.841
				c-0.328,0.163-1.264,0.458-1.871-0.654C16.228,73.978,17.018,73.414,17.344,73.25 M18.477,75.325
				c0.278-0.14,0.581-0.5,0.221-1.163c-0.362-0.662-0.847-0.633-1.125-0.492c-0.277,0.14-0.582,0.502-0.221,1.162
				C17.713,75.496,18.196,75.465,18.477,75.325"/>
			<path fill="#FFFFFF" d="M13.315,76.474l0.972-0.979c0.515-0.516,0.996-0.254,1.168-0.098c0.219,0.199,0.299,0.48,0.177,0.731
				c0.228-0.093,0.376-0.124,0.75,0.214c0.29,0.265,0.361,0.33,0.48,0.276l0.053,0.046l-0.447,0.447
				c-0.123-0.059-0.24-0.135-0.443-0.321c-0.271-0.249-0.393-0.329-0.691-0.028l-0.416,0.417l0.778,0.71l-0.393,0.396L13.315,76.474
				z M15.055,76.4c0.21-0.209,0.237-0.381,0.042-0.561c-0.107-0.095-0.308-0.191-0.542,0.046l-0.503,0.505l0.531,0.486L15.055,76.4z
				"/>
			<polygon fill="#FFFFFF" points="33.665,99.888 34.137,99.636 35.491,101.942 34.982,102.214 33.025,101.098 33.019,101.103 
				33.982,102.747 33.508,103 32.155,100.693 32.691,100.407 34.599,101.5 34.606,101.495 			"/>
			<path fill="#FFFFFF" d="M34.676,99.149l0.972-0.718c0.741-0.552,1.391-0.059,1.714,0.341c0.366,0.448,0.708,1.235-0.018,1.774
				l-0.953,0.704L34.676,99.149z M36.546,100.554l0.447-0.33c0.375-0.277,0.208-0.729-0.076-1.075
				c-0.506-0.621-0.855-0.442-1.051-0.296l-0.442,0.325L36.546,100.554z"/>
			<polygon fill="#FFFFFF" points="39.336,98.762 38.951,99.18 36.855,97.429 37.241,97.01 			"/>
			<polygon fill="#FFFFFF" points="40.23,78.988 39.333,77.861 38.867,78.199 39.691,79.234 39.299,79.516 38.473,78.484 
				37.896,78.899 38.835,80.074 38.441,80.36 37.159,78.75 39.381,77.142 40.625,78.703 			"/>
			<path fill="#FFFFFF" d="M18.339,99.691c0.303,0.203,1.008,0.855,0.265,1.883c-0.746,1.023-1.634,0.615-1.937,0.414
				c-0.302-0.201-1.006-0.857-0.262-1.879C17.15,99.083,18.036,99.49,18.339,99.691 M16.949,101.603
				c0.258,0.172,0.73,0.263,1.176-0.35c0.445-0.61,0.193-1.004-0.066-1.176c-0.26-0.174-0.731-0.262-1.176,0.348
				C16.438,101.037,16.692,101.432,16.949,101.603"/>
			<polygon fill="#FFFFFF" points="21.299,101.134 21.859,101.339 19.966,103.507 19.453,103.318 19.599,100.509 20.177,100.722 
				19.961,102.81 19.969,102.812 			"/>
			<polygon fill="#FFFFFF" points="22.245,104.156 21.681,104.013 22.398,101.462 22.965,101.605 			"/>
			<polygon fill="#FFFFFF" points="28.856,104.359 28.311,104.395 28.153,102.175 28.146,102.175 27.784,104.427 27.211,104.466 
				26.542,102.282 26.534,102.282 26.691,104.501 26.149,104.539 25.958,101.882 26.81,101.826 27.466,103.884 27.473,103.884 
				27.822,101.757 28.669,101.703 			"/>
			<path fill="#FFFFFF" d="M32.093,102.708c0.184,0.684-0.167,1.082-0.849,1.245c-0.25,0.061-0.636,0.094-0.947-0.104
				c-0.19-0.124-0.304-0.319-0.38-0.579l-0.462-1.717l0.576-0.143l0.454,1.686c0.098,0.359,0.359,0.466,0.625,0.402
				c0.387-0.094,0.498-0.313,0.413-0.629l-0.462-1.707l0.58-0.141L32.093,102.708z"/>
			<path fill="#FFFFFF" d="M13.598,80.363l-0.326,0.465l-2.307-1.504l0.714-1.017c0.305-0.429,0.773-0.504,1.225-0.209
				c0.209,0.136,0.658,0.591,0.236,1.19l-0.374,0.531L13.598,80.363z M12.671,79.129c0.244-0.347-0.013-0.513-0.116-0.583
				c-0.224-0.145-0.403-0.085-0.606,0.203l-0.26,0.368l0.677,0.443L12.671,79.129z"/>
			<path fill="#FFFFFF" d="M28.83,98.346c0.204,0.456-0.327,0.341-0.53,0.505h-0.171C28.162,98.591,28.455,98.166,28.83,98.346"/>
			<path fill="#FFFFFF" d="M25.825,90.224v0.18h-0.716C25.04,90.013,25.657,89.949,25.825,90.224"/>
			<polygon fill="#FFFFFF" points="27.072,85.576 27.418,85.165 28.338,85.091 28.76,85.015 28.568,85.388 28.069,85.576 
				28.146,85.388 27.571,85.351 27.263,85.576 			"/>
			<polygon fill="#FFFFFF" points="29.337,85.054 29.645,85.015 29.989,85.165 29.796,85.39 29.451,85.465 29.295,85.651 
				29.105,85.503 28.799,85.574 28.76,85.428 29.028,85.353 28.916,85.202 29.028,85.091 			"/>
			<polygon fill="#FFFFFF" points="30.286,85.406 30.476,85.256 30.823,85.292 30.745,85.479 30.245,85.59 			"/>
			<polygon fill="#FFFFFF" points="27.572,85.836 27.955,85.801 27.877,86.023 27.495,86.023 			"/>
			<polygon fill="#FFFFFF" points="30.18,85.781 30.408,85.61 30.533,85.732 30.383,85.854 			"/>
			<polygon fill="#FFFFFF" points="29.982,86.144 30.174,86.369 30.329,86.293 30.211,85.919 			"/>
			<polygon fill="#FFFFFF" points="30.684,86.286 30.797,86.136 30.453,85.949 			"/>
			<line fill="#FFFFFF" x1="30.684" y1="86.286" x2="30.797" y2="86.136"/>
			<polygon fill="#FFFFFF" points="31.069,86.119 31.205,86.171 31.149,86.719 30.963,86.222 			"/>
			<path fill="#FFFFFF" d="M24.938,77.728c0.137-0.147,0.035-0.78-0.186-0.846c-0.257,0.389,0.528,0.57,0,0.846H24.938z
				 M26.169,79.76c-0.033-0.306-0.109-0.948,0.182-1.353l0.175-0.175c-0.069,0.05-0.128,0.108-0.175,0.175l-0.354-0.339l0.171-0.177
				c-0.259,0.08-0.343-0.211-0.53-0.325c-0.241,0.633,1.295,1.446-0.171,1.511c-0.102-0.096-0.238-0.178-0.188-0.344h-0.171v0.182
				h0.171c-0.1,0.082-0.187,0.213-0.342,0.162c-0.016,0.195,0.035,0.407-0.186,0.506h0.357c0.101,0.098,0.237,0.177,0.171,0.341
				c0.239,0.066,0.598-0.146,0.718,0.163C25.946,79.942,26.081,79.861,26.169,79.76 M28.05,87.865
				c0.378-0.229,0.591-0.383,1.138-0.503c-0.054,0.162,0.083,0.245,0.169,0.342c0.389-0.437,0.631-0.077,0.923,0.161
				c0.144,0.122,0.3,0.211,0.493,0.162c0.01-0.054,0.037-0.105,0.07-0.162h0.189c0.263,0.629,1.258,0.996,1.346,1.695
				c0.613,0.293,1.468,0.046,1.944,0.666c1.247,1.35-1.498,1.838-1.057,3.222c-0.222,0.896-0.922,1.042-1.774,1.173
				c-0.274,0.683-0.82,0.959-1.415,1.35c-0.888-0.034-1.009,0.603-1.776,0.848c-0.273,0.879-1.025,1.122-1.246,2.031
				c0.139,0.276,0.613,0.114,0.528,0.504c-0.613,0.017-1.398-0.342-1.414-1.008c0.238-1.887,1.653-3.318,1.772-5.24
				c-0.954-0.684-1.109-1.984-1.056-3.206c0.613-0.306,0.478-0.909,0.698-1.351l-0.341-0.34c-0.356,0.506-0.598-0.26-1.072,0
				c-0.033-0.127-0.097-0.24-0.179-0.344c-0.196-0.244-0.495-0.443-0.71-0.684c-0.698-0.211-1.484-0.26-2.115-0.666
				c-0.802-0.065-0.342-0.943-1.059-1.186c-0.102,0.097-0.238,0.178-0.188,0.34c-1.142-0.293-0.682-1.515-1.228-2.197
				c0.121-0.48,0.142-0.928,0.039-1.352c-0.071-0.292-0.203-0.57-0.397-0.844c-1.125-1.205-2.372,0.877-3.719,0.162
				c0.495-0.032,0.904-0.262,1.228-0.667c-0.102-0.163-0.41-0.261-0.343-0.505l0.172-0.18l-0.172-0.163l0.172-0.164
				c-0.103-0.097-0.239-0.177-0.172-0.341c0.666-0.52,1.574-1.238,2.645-1.187c0.82-0.294,1.929,0.65,2.665-0.341
				c-0.375-0.018-0.77-0.555-0.359-0.83c0.256,0.031,0.528-0.406,0.717,0c0.22-0.114,0.171-0.328,0.171-0.521
				c0.579-0.311,1.21,0.649,1.416-0.162h0.357c-0.051,0.162,0.085,0.243,0.171,0.342l0.188-0.18l0.171,0.18
				c0.477-0.457,0.784,0.47,1.416,0.162c0.478,0.294,0.768,0.944,0.886,1.528c-0.186,0-0.408-0.048-0.528,0.163l0.716,0.684
				c0.221-0.113,0.171-0.325,0.171-0.523c0.853,0.426,1.366,1.287,1.776,2.038c-0.923,0.146-1.759,0.536-2.305,1.349
				c0.563,1.368-1.809,1.336-0.716,2.701l-0.351,0.346c-0.039-0.316-0.146-0.599-0.351-0.85c-0.919,0.57-2.524-0.568-2.301,1.189
				c0.238,0.195,0.223,0.486,0.53,0.666c0.443,0.195,0.598-0.34,0.886-0.504v-0.162h0.702c0.373,0.619-0.787,1.351,0.357,1.512
				c0,0.195,0.052,0.408-0.173,0.505c0.091,0.236,0.242,0.319,0.419,0.341c0.13,0.021,0.271,0.01,0.411,0h0.226
				c0.138,0.014,0.267,0.051,0.362,0.162C27.875,87.968,27.968,87.916,28.05,87.865"/>
			<path fill="#FFFFFF" d="M41.134,84.525c0.133-0.023,0.326-0.037,0.606-0.037c0.263,0,0.451,0.044,0.578,0.139
				c0.125,0.09,0.208,0.248,0.208,0.431c0,0.181-0.06,0.338-0.175,0.438c-0.15,0.128-0.365,0.186-0.611,0.186
				c-0.047,0-0.092-0.003-0.121-0.005v0.604h-0.485V84.525z M41.619,85.31c0.027,0.002,0.061,0.006,0.111,0.006
				c0.194,0,0.313-0.095,0.313-0.248c0-0.133-0.092-0.221-0.276-0.221c-0.074,0-0.123,0.005-0.147,0.01V85.31z"/>
			<path fill="#FFFFFF" d="M41.927,88.339l-0.103,0.414h-0.505l0.531-1.783h0.65l0.548,1.783h-0.529l-0.118-0.414H41.927z
				 M42.333,87.987l-0.086-0.319c-0.026-0.102-0.061-0.246-0.088-0.352h-0.007c-0.025,0.105-0.052,0.253-0.08,0.354l-0.078,0.317
				H42.333z"/>
			<polygon fill="#FFFFFF" points="41.534,89.513 41.534,90.173 42.129,90.173 42.129,89.513 42.616,89.513 42.616,91.295 
				42.129,91.295 42.129,90.589 41.534,90.589 41.534,91.295 41.042,91.295 41.042,89.513 			"/>
			<path fill="#FFFFFF" d="M42.182,92.908c0,0.574-0.353,0.938-0.917,0.938c-0.568,0-0.882-0.412-0.882-0.908
				c0-0.52,0.352-0.93,0.91-0.93C41.884,92.007,42.182,92.433,42.182,92.908 M40.904,92.929c0,0.334,0.149,0.539,0.387,0.539
				c0.233,0,0.376-0.225,0.376-0.545c0-0.306-0.144-0.539-0.379-0.539C41.053,92.384,40.904,92.603,40.904,92.929"/>
			<path fill="#FFFFFF" d="M11.264,86.319c0,0.575-0.354,0.938-0.917,0.938c-0.568,0-0.88-0.414-0.88-0.91
				c0-0.517,0.351-0.928,0.909-0.928C10.965,85.419,11.264,85.845,11.264,86.319 M9.982,86.341c0,0.333,0.15,0.538,0.388,0.538
				c0.234,0,0.376-0.225,0.376-0.544c0-0.307-0.144-0.539-0.379-0.539C10.133,85.796,9.982,86.013,9.982,86.341"/>
			<path fill="#FFFFFF" d="M9.466,88.314c0.131-0.021,0.325-0.037,0.604-0.037c0.265,0,0.451,0.047,0.579,0.14
				c0.126,0.091,0.208,0.249,0.208,0.432c0,0.18-0.061,0.338-0.175,0.438c-0.149,0.129-0.363,0.185-0.611,0.185
				c-0.047,0-0.091-0.001-0.119-0.004v0.604H9.466V88.314z M9.952,89.101c0.027,0.004,0.058,0.006,0.11,0.006
				c0.194,0,0.312-0.095,0.312-0.249c0-0.132-0.09-0.224-0.275-0.224c-0.075,0-0.124,0.009-0.146,0.015V89.101z"/>
			<path fill="#FFFFFF" d="M10.254,92.095c0.11,0.054,0.294,0.112,0.476,0.112c0.168,0,0.25-0.059,0.25-0.147
				c0-0.086-0.082-0.136-0.287-0.205c-0.312-0.106-0.514-0.273-0.514-0.537c0-0.314,0.272-0.557,0.732-0.557
				c0.22,0,0.377,0.039,0.497,0.094l-0.102,0.379c-0.079-0.035-0.214-0.086-0.4-0.086c-0.15,0-0.231,0.055-0.231,0.135
				c0,0.088,0.1,0.125,0.329,0.211c0.329,0.115,0.478,0.287,0.478,0.536c0,0.306-0.246,0.569-0.781,0.569
				c-0.22,0-0.434-0.057-0.537-0.111L10.254,92.095z"/>
			<path fill="#FFFFFF" d="M51.272,71.806c1.816,0,3.482,1.427,3.482,4.74c0,3.313-1.666,4.738-3.482,4.738
				c-1.814,0-3.481-1.426-3.481-4.738C47.792,73.233,49.458,71.806,51.272,71.806 M51.272,79.991c1.014,0,1.829-0.91,1.829-3.444
				c0-2.533-0.814-3.445-1.829-3.445s-1.828,0.912-1.828,3.445C49.445,79.081,50.258,79.991,51.272,79.991"/>
			<path fill="#FFFFFF" d="M56.005,75.476c0-0.422-0.013-0.818-0.051-1.121h1.403c0.013,0.41,0.049,0.832,0.049,1.24h0.026
				c0.188-0.528,0.675-1.346,1.639-1.346c0.101,0,0.176,0.025,0.262,0.04v1.53c-0.137-0.039-0.274-0.065-0.438-0.065
				c-0.638,0-1.339,0.407-1.339,1.677v3.721h-1.553V75.476z"/>
			<path fill="#FFFFFF" d="M60.362,82.208c0.363,0.211,1.089,0.58,1.904,0.58c1.463,0,1.701-1.07,1.701-2.139v-0.645h-0.025
				c-0.25,0.527-0.688,1.148-1.701,1.148c-0.902,0-2.254-0.637-2.254-3.381c0-1.874,0.639-3.524,2.328-3.524
				c0.939,0,1.377,0.567,1.703,1.161h0.051c0-0.356,0.036-0.699,0.048-1.055h1.403c-0.025,0.355-0.05,0.713-0.05,1.068v5.018
				c0,2.125-0.614,3.641-2.979,3.641c-1.027,0-1.841-0.275-2.215-0.42L60.362,82.208z M62.604,79.951
				c0.976,0,1.364-0.738,1.364-2.281c0-1.428-0.513-2.192-1.251-2.18c-0.814,0.015-1.127,0.807-1.127,2.189
				C61.589,79.279,62.078,79.951,62.604,79.951"/>
			<path fill="#FFFFFF" d="M67.124,74.751c0.438-0.213,1.051-0.502,2.04-0.502c2.004,0,2.466,1.028,2.466,2.731v2.971
				c0,0.489,0.051,0.937,0.088,1.202h-1.402c-0.075-0.266-0.087-0.596-0.087-0.924h-0.025c-0.389,0.554-0.876,1.027-1.803,1.027
				c-1.002,0-1.928-0.725-1.928-1.992c0-1.848,1.426-2.311,3.393-2.311h0.313v-0.25c0-0.674-0.313-1.293-1.203-1.293
				c-0.775,0-1.464,0.395-1.765,0.658L67.124,74.751z M70.178,77.826h-0.138c-1.329,0-2.115,0.291-2.115,1.281
				c0,0.619,0.387,1.042,0.989,1.042c0.927,0,1.264-0.726,1.264-1.939V77.826z"/>
			<path fill="#FFFFFF" d="M72.995,75.476c0-0.422-0.013-0.818-0.05-1.121h1.453c0.012,0.344,0.049,0.699,0.049,1.043h0.038h-0.013
				c0.226-0.408,0.664-1.148,1.715-1.148c1.465,0,1.904,1.148,1.904,2.521v4.382h-1.553v-4.078c0-1.041-0.25-1.479-0.889-1.479
				c-0.814,0-1.101,0.726-1.101,1.598v3.959h-1.554V75.476z"/>
			<path fill="#FFFFFF" d="M79.543,71.464h1.603v1.611h-1.603V71.464z M79.569,74.353h1.553v6.799h-1.553V74.353z"/>
			<polygon fill="#FFFFFF" points="82.247,79.741 85.001,75.595 82.336,75.595 82.336,74.355 86.555,74.355 86.555,75.754 
				83.85,79.912 86.643,79.912 86.643,81.154 82.247,81.154 			"/>
			<path fill="#FFFFFF" d="M87.932,74.751c0.438-0.213,1.051-0.502,2.04-0.502c2.004,0,2.467,1.028,2.467,2.731v2.971
				c0,0.489,0.05,0.937,0.088,1.202h-1.403c-0.075-0.266-0.088-0.596-0.088-0.924h-0.025c-0.386,0.554-0.875,1.027-1.804,1.027
				c-1,0-1.927-0.725-1.927-1.992c0-1.848,1.428-2.311,3.393-2.311h0.313v-0.25c0-0.674-0.313-1.293-1.202-1.293
				c-0.776,0-1.465,0.395-1.767,0.658L87.932,74.751z M90.986,77.826h-0.138c-1.327,0-2.116,0.291-2.116,1.281
				c0,0.619,0.388,1.042,0.99,1.042c0.927,0,1.264-0.726,1.264-1.939V77.826z"/>
			<path fill="#FFFFFF" d="M98.186,80.981c-0.362,0.146-0.902,0.276-1.529,0.276c-2.127,0-3.028-1.57-3.028-3.496
				c0-1.941,0.951-3.513,3.116-3.513c0.49,0,1.065,0.158,1.353,0.278l-0.086,1.293c-0.278-0.146-0.666-0.331-1.091-0.331
				c-1.178,0-1.689,0.832-1.689,2.284c0,1.268,0.575,2.244,1.766,2.244c0.375,0,0.889-0.186,1.102-0.33L98.186,80.981z"/>
			<path fill="#FFFFFF" d="M99.174,71.464h1.604v1.611h-1.604V71.464z M99.2,74.353h1.552v6.799H99.2V74.353z"/>
			<path fill="#FFFFFF" d="M104.897,74.25c1.313,0,2.828,0.727,2.828,3.498c0,2.851-1.514,3.511-2.828,3.511
				c-1.316,0-2.843-0.66-2.843-3.511C102.054,74.976,103.581,74.25,104.897,74.25 M104.897,80.097c1.002,0,1.225-1.215,1.225-2.35
				c0-1.136-0.223-2.336-1.225-2.336c-1.001,0-1.24,1.2-1.24,2.336C103.657,78.882,103.896,80.097,104.897,80.097 M104.959,71.702
				h1.452l-1.278,1.9h-0.975L104.959,71.702z"/>
			<path fill="#FFFFFF" d="M108.877,75.476c0-0.422-0.012-0.818-0.05-1.121h1.451c0.014,0.344,0.051,0.699,0.051,1.043h0.037h-0.012
				c0.226-0.408,0.665-1.148,1.715-1.148c1.466,0,1.904,1.148,1.904,2.521v4.382h-1.553v-4.078c0-1.041-0.25-1.479-0.889-1.479
				c-0.814,0-1.101,0.726-1.101,1.598v3.959h-1.554V75.476z"/>
			<path fill="#FFFFFF" d="M48.068,83.517h2.502c1.803,0,2.744,1.057,2.744,2.799s-0.94,2.811-2.744,2.811h-0.901v3.604h-1.602
				V83.517z M50.271,87.833c1.001,0,1.439-0.516,1.439-1.518c0-1.004-0.438-1.505-1.439-1.505h-0.601v3.022H50.271z"/>
			<path fill="#FFFFFF" d="M53.964,86.33c0.438-0.211,1.051-0.503,2.041-0.503c2.004,0,2.467,1.028,2.467,2.731v2.972
				c0,0.488,0.049,0.937,0.086,1.2h-1.401c-0.075-0.264-0.087-0.594-0.087-0.924h-0.026c-0.387,0.555-0.875,1.028-1.803,1.028
				c-1.001,0-1.928-0.724-1.928-1.991c0-1.849,1.426-2.311,3.392-2.311h0.313v-0.25c0-0.676-0.313-1.295-1.201-1.295
				c-0.776,0-1.465,0.397-1.766,0.66L53.964,86.33z M57.019,89.405h-0.136c-1.329,0-2.116,0.29-2.116,1.279
				c0,0.62,0.387,1.043,0.987,1.043c0.928,0,1.265-0.726,1.265-1.94V89.405z"/>
			<path fill="#FFFFFF" d="M59.824,87.054c0-0.422-0.012-0.818-0.05-1.123h1.452c0.012,0.346,0.049,0.701,0.049,1.045h0.039h-0.012
				c0.225-0.41,0.663-1.149,1.715-1.149c1.465,0,1.902,1.149,1.902,2.521v4.382h-1.552v-4.078c0-1.041-0.25-1.478-0.889-1.478
				c-0.814,0-1.102,0.726-1.102,1.595v3.961h-1.553V87.054z"/>
			<path fill="#FFFFFF" d="M66.561,86.33c0.438-0.211,1.05-0.503,2.04-0.503c2.004,0,2.466,1.028,2.466,2.731v2.972
				c0,0.488,0.051,0.937,0.088,1.2h-1.403c-0.075-0.264-0.088-0.594-0.088-0.924h-0.025c-0.387,0.555-0.875,1.028-1.803,1.028
				c-1.001,0-1.928-0.724-1.928-1.991c0-1.849,1.428-2.311,3.393-2.311h0.313v-0.25c0-0.676-0.313-1.295-1.202-1.295
				c-0.776,0-1.465,0.397-1.766,0.66L66.561,86.33z M69.614,89.405h-0.138c-1.327,0-2.116,0.29-2.116,1.279
				c0,0.62,0.389,1.043,0.99,1.043c0.927,0,1.264-0.726,1.264-1.94V89.405z"/>
			<path fill="#FFFFFF" d="M72.395,87.042c0-0.488-0.025-0.857-0.05-1.109h1.552c0.012,0.356,0.052,0.712,0.052,1.068h0.023
				c0.239-0.527,0.74-1.174,1.627-1.174c1.09,0,1.441,0.713,1.627,1.082c0.313-0.476,0.776-1.082,1.728-1.082
				c1.402,0,1.854,1.056,1.854,2.705v4.197h-1.553v-4.289c0-0.844-0.249-1.267-0.826-1.267c-0.689,0-1.051,0.687-1.051,1.438v4.117
				h-1.553v-4.289c0-0.844-0.25-1.267-0.827-1.267c-0.688,0-1.049,0.687-1.049,1.438v4.117h-1.554V87.042z"/>
			<path fill="#FFFFFF" d="M86.83,92.4c-0.326,0.145-1.002,0.436-1.929,0.436c-2.077,0-2.979-1.568-2.979-3.406
				c0-2.031,1.015-3.603,2.655-3.603c1.391,0,2.578,0.858,2.578,3.63v0.316h-3.729c0,1.162,0.439,1.861,1.64,1.861
				c0.951,0,1.402-0.303,1.691-0.527L86.83,92.4z M85.653,88.744c0-1.201-0.376-1.808-1.077-1.808c-0.814,0-1.151,0.911-1.151,1.808
				H85.653z"/>
			<path fill="#FFFFFF" d="M88.332,87.054c0-0.422-0.012-0.818-0.05-1.123h1.403c0.012,0.412,0.049,0.834,0.049,1.243h0.026
				c0.188-0.529,0.676-1.348,1.641-1.348c0.1,0,0.174,0.026,0.264,0.041v1.53c-0.139-0.039-0.278-0.067-0.439-0.067
				c-0.638,0-1.339,0.409-1.339,1.678v3.722h-1.554V87.054z"/>
			<path fill="#FFFFFF" d="M92.738,83.042h1.604v1.609h-1.604V83.042z M92.765,85.933h1.552v6.799h-1.552V85.933z"/>
			<path fill="#FFFFFF" d="M100.176,92.558c-0.363,0.145-0.902,0.276-1.529,0.276c-2.126,0-3.027-1.569-3.027-3.497
				c0-1.941,0.95-3.509,3.115-3.509c0.489,0,1.064,0.155,1.352,0.276L100,87.396c-0.275-0.143-0.664-0.329-1.089-0.329
				c-1.176,0-1.69,0.833-1.69,2.284c0,1.268,0.576,2.244,1.766,2.244c0.375,0,0.888-0.186,1.101-0.33L100.176,92.558z"/>
			<path fill="#FFFFFF" d="M101.354,86.33c0.439-0.211,1.051-0.503,2.041-0.503c2.004,0,2.466,1.028,2.466,2.731v2.972
				c0,0.488,0.05,0.937,0.088,1.2h-1.403c-0.075-0.264-0.087-0.594-0.087-0.924h-0.025c-0.387,0.555-0.876,1.028-1.804,1.028
				c-1,0-1.928-0.724-1.928-1.991c0-1.849,1.428-2.311,3.393-2.311h0.313v-0.25c0-0.676-0.313-1.295-1.202-1.295
				c-0.775,0-1.465,0.397-1.766,0.66L101.354,86.33z M104.408,89.405h-0.138c-1.327,0-2.116,0.29-2.116,1.279
				c0,0.62,0.389,1.043,0.989,1.043c0.928,0,1.265-0.726,1.265-1.94V89.405z"/>
			<path fill="#FFFFFF" d="M107.226,87.054c0-0.422-0.013-0.818-0.051-1.123h1.452c0.013,0.346,0.051,0.701,0.051,1.045h0.038
				h-0.013c0.226-0.41,0.663-1.149,1.715-1.149c1.466,0,1.903,1.149,1.903,2.521v4.382h-1.553v-4.078
				c0-1.041-0.249-1.478-0.888-1.478c-0.814,0-1.102,0.726-1.102,1.595v3.961h-1.553V87.054z"/>
			<path fill="#FFFFFF" d="M113.962,86.33c0.437-0.211,1.05-0.503,2.04-0.503c2.004,0,2.466,1.028,2.466,2.731v2.972
				c0,0.488,0.05,0.937,0.086,1.2h-1.401c-0.075-0.264-0.087-0.594-0.087-0.924h-0.025c-0.389,0.555-0.876,1.028-1.803,1.028
				c-1.002,0-1.928-0.724-1.928-1.991c0-1.849,1.426-2.311,3.393-2.311h0.313v-0.25c0-0.676-0.313-1.295-1.203-1.295
				c-0.775,0-1.464,0.397-1.765,0.66L113.962,86.33z M117.016,89.405h-0.137c-1.329,0-2.117,0.29-2.117,1.279
				c0,0.62,0.389,1.043,0.99,1.043c0.927,0,1.264-0.726,1.264-1.94V89.405z"/>
			<path fill="#FFFFFF" d="M53.213,94.41v8.737c0,0.488,0.012,0.911,0.049,1.161H51.81c-0.024-0.199-0.049-0.594-0.049-1.055h-0.038
				c-0.25,0.58-0.714,1.161-1.715,1.161c-1.604,0-2.267-1.612-2.267-3.499c0-2.217,0.839-3.51,2.23-3.51
				c0.926,0,1.439,0.553,1.663,1.082h0.026V94.41H53.213z M50.434,103.213c0.914,0,1.226-1.042,1.226-2.323
				c0-1.319-0.349-2.285-1.202-2.285c-0.863,0-1.164,0.887-1.164,2.245C49.294,102.421,49.532,103.213,50.434,103.213"/>
			<path fill="#FFFFFF" d="M59.298,103.978c-0.327,0.145-1.002,0.436-1.928,0.436c-2.079,0-2.979-1.57-2.979-3.405
				c0-2.033,1.014-3.604,2.653-3.604c1.392,0,2.58,0.858,2.58,3.631v0.316h-3.733c0,1.162,0.44,1.86,1.642,1.86
				c0.951,0,1.401-0.302,1.69-0.526L59.298,103.978z M58.122,100.324c0-1.203-0.375-1.81-1.078-1.81
				c-0.813,0-1.153,0.911-1.153,1.81H58.122z"/>
			<rect x="64.08" y="94.41" fill="#FFFFFF" width="1.553" height="9.9"/>
			<path fill="#FFFFFF" d="M67.424,97.907c0.439-0.211,1.051-0.501,2.041-0.501c2.004,0,2.466,1.027,2.466,2.73v2.971
				c0,0.489,0.051,0.938,0.087,1.201h-1.402c-0.075-0.264-0.088-0.594-0.088-0.923h-0.024c-0.387,0.554-0.875,1.028-1.803,1.028
				c-1.001,0-1.928-0.725-1.928-1.994c0-1.847,1.427-2.309,3.393-2.309h0.313v-0.25c0-0.674-0.313-1.294-1.202-1.294
				c-0.776,0-1.465,0.396-1.766,0.657L67.424,97.907z M70.479,100.982h-0.138c-1.327,0-2.116,0.291-2.116,1.28
				c0,0.62,0.389,1.044,0.99,1.044c0.927,0,1.264-0.728,1.264-1.941V100.982z"/>
			<path fill="#FFFFFF" d="M76.589,102.527c0.313,0.211,1.002,0.568,1.851,0.568c0.702,0,1.329-0.41,1.329-1.336
				c0-0.658-0.363-0.949-1.14-1.397l-0.814-0.474c-0.863-0.501-1.428-1.229-1.428-2.417c0-1.649,1.292-2.507,2.755-2.507
				c0.927,0,1.578,0.25,1.827,0.328l-0.074,1.414c-0.387-0.158-0.901-0.396-1.64-0.396c-0.801,0-1.214,0.449-1.214,1.082
				c0,0.687,0.437,0.951,0.926,1.24l0.939,0.556c1.026,0.606,1.514,1.187,1.514,2.48c0,1.874-1.265,2.772-2.929,2.772
				c-0.876,0-1.552-0.133-1.99-0.409L76.589,102.527z"/>
			<path fill="#FFFFFF" d="M82.961,97.907c0.438-0.211,1.051-0.501,2.04-0.501c2.003,0,2.467,1.027,2.467,2.73v2.971
				c0,0.489,0.05,0.938,0.087,1.201h-1.402c-0.075-0.264-0.088-0.594-0.088-0.923H86.04c-0.386,0.554-0.875,1.028-1.802,1.028
				c-1,0-1.928-0.725-1.928-1.994c0-1.847,1.429-2.309,3.394-2.309h0.313v-0.25c0-0.674-0.313-1.294-1.202-1.294
				c-0.776,0-1.465,0.396-1.767,0.657L82.961,97.907z M86.016,100.982h-0.138c-1.328,0-2.116,0.291-2.116,1.28
				c0,0.62,0.388,1.044,0.989,1.044c0.928,0,1.265-0.728,1.265-1.941V100.982z"/>
			<rect x="88.984" y="94.41" fill="#FFFFFF" width="1.553" height="9.9"/>
			<path fill="#FFFFFF" d="M97.109,103.186c0,0.423,0.013,0.818,0.05,1.122h-1.452c-0.013-0.343-0.051-0.699-0.051-1.041
				l-0.037-0.016l0.012,0.016c-0.301,0.5-0.702,1.146-1.715,1.146c-1.465,0-1.904-1.146-1.904-2.52v-4.382h1.553v4.077
				c0,1.041,0.276,1.479,0.928,1.479c0.826,0,1.062-0.792,1.062-1.664v-3.892h1.554V103.186z"/>
			<path fill="#FFFFFF" d="M103.733,94.41v8.737c0,0.488,0.012,0.911,0.049,1.161h-1.453c-0.025-0.199-0.049-0.594-0.049-1.055
				h-0.038c-0.25,0.58-0.712,1.161-1.716,1.161c-1.602,0-2.265-1.612-2.265-3.499c0-2.217,0.839-3.51,2.229-3.51
				c0.926,0,1.439,0.553,1.665,1.082h0.025V94.41H103.733z M100.953,103.213c0.914,0,1.227-1.042,1.227-2.323
				c0-1.319-0.35-2.285-1.202-2.285c-0.863,0-1.165,0.887-1.165,2.245C99.813,102.421,100.051,103.213,100.953,103.213"/>
			<rect x="168.165" y="95.75" fill="#FFFFFF" width="81.705" height="0.442"/>
			<path fill="#FFFFFF" d="M188.02,79.255v-2.69c0-1.517-0.356-2.526-2.095-2.526c-0.843,0-1.37,0.275-1.716,0.46l-0.029,0.015
				l0.082,1.336l0.08-0.073c0.225-0.217,0.78-0.585,1.426-0.585c0.856,0,0.948,0.783,0.948,1.123v0.176h-0.21
				c-1.333,0-2.865,0.243-2.865,2.144c0,1.22,0.831,1.854,1.649,1.854c0.76,0,1.172-0.416,1.47-0.854
				c0.004,0.254,0.018,0.51,0.071,0.723l0.011,0.038h1.259l-0.007-0.058C188.067,80.129,188.02,79.713,188.02,79.255
				 M186.715,77.677c0,1.164-0.317,1.707-0.998,1.707c-0.469,0-0.771-0.35-0.771-0.894c0-0.788,0.494-1.111,1.703-1.111h0.065
				V77.677z M181.567,74.134l-0.022,0.432c0,0-0.014,0.312-0.018,0.459c-0.266-0.504-0.649-0.986-1.409-0.986
				c-1.26,0-1.982,1.182-1.982,3.244c0,2.888,1.469,3.112,1.92,3.112c0.79,0,1.168-0.48,1.383-0.909v0.403
				c0,0.879-0.156,1.886-1.363,1.886c-0.481,0-1.018-0.178-1.553-0.516l-0.07-0.047l-0.081,1.438l0.033,0.014
				c0.61,0.256,1.235,0.387,1.86,0.387c2.234,0,2.521-1.791,2.521-3.352v-4.545l0.043-1.018l-0.054-0.002H181.567z M180.359,79.203
				c-0.367,0-0.793-0.522-0.793-2.006c0-1.309,0.281-1.922,0.886-1.935c0.19-0.003,0.365,0.067,0.508,0.209
				c0.31,0.303,0.479,0.911,0.479,1.715C181.439,78.601,181.116,79.203,180.359,79.203 M191.875,74.039
				c-0.816,0-1.207,0.576-1.398,0.934c-0.007-0.164-0.017-0.416-0.017-0.416l-0.021-0.422h-0.048h-1.262l0.007,0.055
				c0.028,0.246,0.042,0.574,0.042,1.012v5.194h1.389v-3.64c0-0.521,0.111-1.398,0.863-1.398c0.494,0,0.685,0.361,0.685,1.291v3.747
				h1.392v-4.022C193.505,74.823,192.956,74.039,191.875,74.039 M217.794,71.729h-1.33l-0.703,1.823h0.913L217.794,71.729z
				 M171.071,71.826c-1.423,0-2.94,1.141-2.94,4.344s1.518,4.346,2.94,4.346c1.418,0,2.936-1.143,2.936-4.346
				S172.489,71.826,171.071,71.826 M171.071,79.242c-0.948,0-1.466-1.09-1.466-3.072c0-1.98,0.519-3.072,1.466-3.072
				c0.944,0,1.464,1.092,1.464,3.072C172.535,78.152,172.015,79.242,171.071,79.242 M177.423,74.039
				c-0.783,0-1.176,0.677-1.337,1.068c-0.008-0.2-0.017-0.478-0.017-0.478l-0.021-0.495H176h-1.221l0.008,0.055
				c0.027,0.244,0.04,0.574,0.04,1.012v5.194h1.391V76.97c0-1.361,0.811-1.467,1.061-1.467c0.115,0,0.222,0.016,0.348,0.057
				l0.066,0.02v-1.495l-0.109-0.024L177.423,74.039z M211.527,73.074h1.43v-1.561h-1.43V73.074z M210.518,78.976
				c-0.162,0.121-0.577,0.289-0.885,0.289c-0.883,0-1.412-0.742-1.412-1.982c0-1.359,0.443-2.021,1.352-2.021
				c0.328,0,0.627,0.149,0.879,0.293l0.068,0.04l0.081-1.287l-0.031-0.014c-0.229-0.104-0.719-0.256-1.143-0.256
				c-1.65,0-2.637,1.207-2.637,3.232c0,2.015,0.96,3.217,2.564,3.217c0.61,0,1.068-0.159,1.286-0.254l0.034-0.014l-0.082-1.302
				L210.518,78.976z M211.546,80.395h1.387v-6.261h-1.387V80.395z M216.448,74.039c-0.725,0-2.409,0.313-2.409,3.219
				c0,2.813,1.509,3.23,2.409,3.23c0.894,0,2.399-0.418,2.399-3.23C218.847,74.351,217.169,74.039,216.448,74.039 M216.448,79.335
				c-0.81,0-0.977-1.13-0.977-2.078c0-0.941,0.167-2.066,0.977-2.066c0.64,0,0.967,0.695,0.967,2.066
				C217.416,78.637,217.088,79.335,216.448,79.335 M194.755,80.395h1.388v-6.261h-1.388V80.395z M194.732,73.074h1.432v-1.561
				h-1.432V73.074z M205.78,79.255v-2.69c0-1.517-0.357-2.526-2.096-2.526c-0.842,0-1.37,0.275-1.715,0.46l-0.031,0.015l0.083,1.336
				l0.078-0.073c0.226-0.217,0.78-0.585,1.429-0.585c0.855,0,0.947,0.783,0.947,1.123v0.176h-0.208
				c-1.336,0-2.865,0.243-2.865,2.144c0,1.22,0.829,1.854,1.65,1.854c0.754,0,1.172-0.416,1.467-0.854
				c0.006,0.246,0.017,0.508,0.071,0.723l0.009,0.038h1.26l-0.007-0.058C205.827,80.13,205.78,79.714,205.78,79.255 M204.475,77.677
				c0,1.164-0.319,1.707-1,1.707c-0.465,0-0.77-0.35-0.77-0.894c0-0.788,0.494-1.111,1.705-1.111h0.065V77.677z M200.775,75.465
				v-1.331h-3.602v1.223h2.173c-0.088,0.148-2.245,3.692-2.245,3.692v1.346h3.747v-1.226h-2.278
				C198.656,79.023,200.775,75.465,200.775,75.465 M222.524,74.039c-0.817,0-1.208,0.576-1.4,0.934
				c-0.007-0.164-0.018-0.414-0.018-0.414l-0.02-0.424h-0.049h-1.261l0.006,0.055c0.027,0.247,0.042,0.576,0.042,1.012v5.194h1.389
				v-3.64c0-0.521,0.112-1.398,0.864-1.398c0.493,0,0.686,0.361,0.686,1.291v3.747h1.389v-4.022
				C224.152,74.823,223.603,74.039,222.524,74.039"/>
			<path fill="#FFFFFF" d="M198.346,91.242v-2.547c0-1.438-0.338-2.396-1.985-2.396c-0.798,0-1.296,0.264-1.626,0.438l-0.026,0.014
				l0.077,1.268l0.073-0.073c0.214-0.205,0.739-0.553,1.353-0.553c0.812,0,0.899,0.744,0.899,1.064v0.166h-0.198
				c-1.264,0-2.714,0.232-2.714,2.03c0,1.156,0.786,1.76,1.563,1.76c0.718,0,1.111-0.395,1.393-0.81
				c0.003,0.238,0.014,0.48,0.066,0.684l0.01,0.035h1.192l-0.006-0.053C198.389,92.072,198.346,91.677,198.346,91.242
				 M197.109,89.748c0,1.102-0.299,1.618-0.945,1.618c-0.443,0-0.729-0.333-0.729-0.849c0-0.748,0.466-1.05,1.616-1.05h0.059V89.748
				z M183.894,86.298c-0.774,0-1.144,0.551-1.325,0.887c-0.006-0.154-0.016-0.395-0.016-0.395l-0.021-0.398l-0.046-0.002h-1.193
				l0.004,0.055c0.026,0.229,0.041,0.543,0.041,0.957v4.92h1.316v-3.447c0-0.494,0.104-1.322,0.817-1.322
				c0.47,0,0.649,0.342,0.649,1.22v3.55h1.318v-3.811C185.438,87.042,184.918,86.298,183.894,86.298 M171.844,90.105
				c-0.069-0.285-1.39-5.789-1.39-5.789h-1.964v8.006h1.236V85.99c0.138,0.547,1.577,6.332,1.577,6.332h0.972
				c0,0,1.52-5.827,1.658-6.348v6.348h1.234v-8.006h-1.905C173.262,84.316,171.917,89.821,171.844,90.105 M180.273,91.312V86.39
				h-1.316v3.393c0,0.629-0.138,1.38-0.79,1.38c-0.482,0-0.68-0.356-0.68-1.224V86.39h-1.316v3.811c0,1.469,0.521,2.212,1.543,2.212
				c0.762,0,1.104-0.501,1.326-0.896c0.007,0.154,0.016,0.406,0.016,0.406l0.022,0.396l0.044,0.002h1.194l-0.004-0.053
				C180.284,92.039,180.273,91.725,180.273,91.312 M191.944,85.387h1.353v-1.479h-1.353V85.387z M190.761,91.279v-7.551h-1.316
				v3.375c-0.166-0.324-0.533-0.805-1.279-0.805c-1.127,0-1.801,1.145-1.801,3.064c0,1.91,0.684,3.05,1.83,3.05
				c0.621,0,1.054-0.306,1.33-0.912c0.005,0.356,0.024,0.639,0.04,0.778l0.003,0.043h1.241l-0.01-0.055
				C190.772,92.078,190.761,91.754,190.761,91.279 M188.528,91.286c-0.618,0-0.847-0.537-0.847-1.979
				c0-1.266,0.282-1.879,0.867-1.879c0.779,0,0.896,1.199,0.896,1.912C189.444,90.228,189.287,91.286,188.528,91.286
				 M199.561,92.322h1.313v-8.594h-1.313V92.322z M191.963,92.322h1.315V86.39h-1.315V92.322z M236.69,91.242v-2.547
				c0-1.438-0.339-2.396-1.986-2.396c-0.798,0-1.295,0.264-1.627,0.438l-0.028,0.014l0.077,1.268l0.075-0.073
				c0.212-0.205,0.74-0.553,1.355-0.553c0.808,0,0.894,0.744,0.894,1.064v0.166h-0.196c-1.263,0-2.714,0.232-2.714,2.03
				c0,1.156,0.785,1.76,1.563,1.76c0.714,0,1.109-0.394,1.391-0.808c0.003,0.236,0.015,0.48,0.067,0.682l0.011,0.035h1.192
				l-0.008-0.053C236.726,92.024,236.69,91.648,236.69,91.242 M235.45,89.748c0,1.102-0.299,1.618-0.942,1.618
				c-0.445,0-0.731-0.333-0.731-0.849c0-0.748,0.467-1.05,1.616-1.05h0.058V89.748z M244.501,91.312V86.39h-1.315v3.393
				c0,0.629-0.137,1.38-0.792,1.38c-0.479,0-0.678-0.356-0.678-1.224V86.39H240.4v3.811c0,1.469,0.52,2.212,1.542,2.212
				c0.761,0,1.105-0.499,1.327-0.894c0.007,0.156,0.018,0.407,0.018,0.407l0.018,0.394l0.045,0.002h1.197l-0.008-0.053
				C244.511,92.039,244.501,91.722,244.501,91.312 M237.902,92.322h1.313v-8.594h-1.313V92.322z M249.864,92.267
				c-0.028-0.191-0.041-0.514-0.041-0.988v-7.551h-1.316v3.375c-0.163-0.324-0.532-0.805-1.279-0.805c-1.127,0-1.8,1.145-1.8,3.064
				c0,1.91,0.685,3.05,1.829,3.05c0.621,0,1.053-0.306,1.333-0.912c0.004,0.354,0.021,0.637,0.038,0.778l0.005,0.043h1.238
				L249.864,92.267z M247.592,91.286c-0.618,0-0.847-0.537-0.847-1.979c0-1.266,0.283-1.879,0.865-1.879
				c0.779,0,0.896,1.199,0.896,1.912C248.506,90.228,248.347,91.286,247.592,91.286 M212.014,86.298
				c-1.255,0-2.134,1.294-2.134,3.142c0,1.438,0.629,2.973,2.391,2.973c0.756,0,1.303-0.266,1.538-0.38l0.026-0.012l-0.065-1.24
				l-0.074,0.063c-0.269,0.23-0.612,0.442-1.297,0.442c-0.833,0-1.227-0.481-1.239-1.501h2.93v-0.32
				C214.089,86.849,212.963,86.298,212.014,86.298 M211.159,88.805c0.009-0.684,0.236-1.458,0.855-1.458
				c0.646,0,0.79,0.78,0.796,1.458H211.159z M217.731,92.335h1.314V83.63h-1.314V92.335z M208.932,91.279v-7.551h-1.314v3.375
				c-0.165-0.322-0.535-0.805-1.281-0.805c-1.126,0-1.798,1.145-1.798,3.064c0,1.91,0.683,3.05,1.829,3.05
				c0.621,0,1.054-0.306,1.33-0.913c0.004,0.354,0.022,0.637,0.038,0.779l0.005,0.043h1.239l-0.007-0.055
				C208.946,92.078,208.932,91.754,208.932,91.279 M206.701,91.286c-0.617,0-0.849-0.537-0.849-1.979
				c0-1.266,0.287-1.879,0.869-1.879c0.781,0,0.896,1.199,0.896,1.912C207.618,90.228,207.458,91.286,206.701,91.286
				 M230.596,87.837l-0.737-0.476c-0.38-0.247-0.706-0.458-0.706-1.026c0-0.551,0.339-0.881,0.905-0.881
				c0.526,0,0.898,0.168,1.196,0.303l0.139,0.063l0.063-1.318l-0.102-0.037c-0.235-0.085-0.722-0.26-1.383-0.26
				c-1.101,0-2.212,0.68-2.212,2.199c0,0.949,0.363,1.621,1.142,2.113l0.639,0.408c0.595,0.375,0.876,0.613,0.876,1.162
				c0,0.809-0.516,1.096-0.998,1.096c-0.722,0-1.276-0.363-1.425-0.477l-0.072-0.054l-0.075,1.407l0.022,0.018
				c0.347,0.238,0.881,0.359,1.591,0.359c1.471,0,2.351-0.908,2.351-2.428C231.809,88.842,231.381,88.345,230.596,87.837
				 M224.114,91.242v-2.547c0-1.438-0.336-2.396-1.985-2.396c-0.799,0-1.296,0.264-1.626,0.438l-0.028,0.014l0.079,1.268
				l0.074-0.073c0.212-0.205,0.737-0.553,1.354-0.553c0.808,0,0.896,0.744,0.896,1.064v0.166h-0.198
				c-1.263,0-2.711,0.232-2.711,2.03c0,1.156,0.785,1.76,1.561,1.76c0.717,0,1.108-0.395,1.395-0.809
				c0.002,0.237,0.014,0.479,0.063,0.683l0.01,0.035h1.192l-0.006-0.053C224.158,92.072,224.114,91.677,224.114,91.242
				 M222.876,89.748c0,1.102-0.3,1.618-0.944,1.618c-0.443,0-0.732-0.333-0.732-0.849c0-0.748,0.471-1.05,1.617-1.05h0.06V89.748z"
				/>
			<path fill="#FFFFFF" d="M131.56,103.209c0.535,0,1.024,0.497,1.024,1.655c0,1.156-0.489,1.653-1.024,1.653
				c-0.536,0-1.025-0.497-1.025-1.653C130.534,103.707,131.024,103.209,131.56,103.209 M131.56,106.066
				c0.297,0,0.539-0.316,0.539-1.201c0-0.887-0.241-1.205-0.539-1.205c-0.299,0-0.539,0.318-0.539,1.205
				C131.021,105.75,131.261,106.066,131.56,106.066"/>
			<polygon fill="#FFFFFF" points="132.935,103.255 134.238,103.255 134.238,103.726 133.407,103.726 133.407,104.601 
				134.199,104.601 134.199,105.071 133.407,105.071 133.407,106.47 132.935,106.47 			"/>
			<rect x="134.554" y="103.255" fill="#FFFFFF" width="0.472" height="3.217"/>
			<path fill="#FFFFFF" d="M137.121,106.404c-0.096,0.063-0.325,0.114-0.558,0.114c-0.782,0-1.184-0.716-1.184-1.654
				c0-0.942,0.402-1.655,1.171-1.655c0.26,0,0.475,0.088,0.571,0.134l-0.025,0.53c-0.097-0.062-0.247-0.176-0.489-0.176
				c-0.389,0-0.725,0.332-0.725,1.167c0,0.834,0.336,1.165,0.725,1.165c0.23,0,0.381-0.068,0.489-0.165L137.121,106.404z"/>
			<rect x="137.444" y="103.255" fill="#FFFFFF" width="0.472" height="3.217"/>
			<polygon fill="#FFFFFF" points="138.372,103.255 138.931,103.255 139.789,105.781 139.794,105.781 139.794,103.255 
				140.22,103.255 140.22,106.47 139.658,106.47 138.806,103.965 138.8,103.965 138.8,106.47 138.372,106.47 			"/>
			<path fill="#FFFFFF" d="M141.963,105.698h-0.886l-0.183,0.774h-0.472l0.862-3.217h0.516l0.829,3.217h-0.486L141.963,105.698z
				 M141.864,105.247l-0.324-1.504h-0.007l-0.354,1.504H141.864z"/>
			<path fill="#FFFFFF" d="M143.678,103.255h0.804c0.459,0,0.768,0.258,0.768,0.846c0,0.422-0.208,0.701-0.499,0.758v0.014
				c0.096,0.018,0.201,0.074,0.284,0.372l0.334,1.228h-0.5l-0.256-1.047c-0.063-0.252-0.184-0.336-0.357-0.336h-0.107v1.383h-0.472
				V103.255z M144.342,104.657c0.25,0,0.42-0.163,0.42-0.49c0-0.367-0.153-0.46-0.42-0.46h-0.192v0.95H144.342z"/>
			<polygon fill="#FFFFFF" points="145.659,103.255 147.012,103.255 147.012,103.726 146.131,103.726 146.131,104.583 
				146.964,104.583 146.964,105.052 146.131,105.052 146.131,106.001 147.048,106.001 147.048,106.47 145.659,106.47 			"/>
			<path fill="#FFFFFF" d="M148.436,104.67h0.834v1.682c-0.134,0.089-0.362,0.166-0.697,0.166c-0.826,0-1.263-0.702-1.263-1.655
				s0.437-1.654,1.263-1.654c0.295,0,0.527,0.084,0.628,0.139l-0.026,0.529c-0.153-0.114-0.358-0.197-0.594-0.197
				c-0.501,0-0.77,0.516-0.77,1.184c0,0.725,0.26,1.188,0.742,1.188c0.112,0,0.213-0.031,0.274-0.063v-0.865h-0.391V104.67z"/>
			<rect x="149.713" y="103.255" fill="#FFFFFF" width="0.474" height="3.217"/>
			<path fill="#FFFFFF" d="M151.565,103.209c0.533,0,1.024,0.497,1.024,1.655c0,1.156-0.491,1.653-1.024,1.653
				c-0.535,0-1.027-0.497-1.027-1.653C150.538,103.707,151.03,103.209,151.565,103.209 M151.565,106.066
				c0.296,0,0.536-0.316,0.536-1.201c0-0.887-0.24-1.205-0.536-1.205c-0.299,0-0.539,0.318-0.539,1.205
				C151.026,105.75,151.266,106.066,151.565,106.066"/>
			<polygon fill="#FFFFFF" points="152.937,103.255 153.498,103.255 154.353,105.781 154.357,105.781 154.357,103.255 
				154.787,103.255 154.787,106.47 154.221,106.47 153.37,103.965 153.363,103.965 153.363,106.47 152.937,106.47 			"/>
			<path fill="#FFFFFF" d="M156.528,105.698h-0.888l-0.182,0.774h-0.471l0.863-3.217h0.516l0.83,3.217h-0.489L156.528,105.698z
				 M156.428,105.247l-0.324-1.504h-0.008l-0.353,1.504H156.428z"/>
			<polygon fill="#FFFFFF" points="157.376,103.255 157.848,103.255 157.848,106.001 158.697,106.001 158.697,106.47 
				157.376,106.47 			"/>
			<path fill="#FFFFFF" d="M159.787,103.253h0.739c0.53,0,0.806,0.369,0.806,0.979c0,0.608-0.276,0.982-0.806,0.982h-0.266v1.258
				h-0.474V103.253z M160.438,104.763c0.294,0,0.424-0.182,0.424-0.531c0-0.352-0.13-0.525-0.424-0.525h-0.177v1.057H160.438z"/>
			<path fill="#FFFFFF" d="M162.646,105.698h-0.886l-0.183,0.774h-0.471l0.862-3.217h0.516l0.83,3.217h-0.486L162.646,105.698z
				 M162.546,105.247l-0.323-1.504h-0.008l-0.354,1.504H162.546z"/>
			<path fill="#FFFFFF" d="M163.495,103.255h0.805c0.459,0,0.768,0.258,0.768,0.846c0,0.422-0.21,0.701-0.499,0.758v0.014
				c0.096,0.018,0.202,0.074,0.284,0.372l0.335,1.228h-0.5l-0.255-1.047c-0.064-0.252-0.186-0.336-0.358-0.336h-0.106v1.383h-0.472
				V103.255z M164.159,104.657c0.249,0,0.42-0.163,0.42-0.49c0-0.367-0.153-0.46-0.42-0.46h-0.192v0.95H164.159z"/>
			<path fill="#FFFFFF" d="M166.766,105.698h-0.887l-0.183,0.774h-0.472l0.863-3.217h0.517l0.829,3.217h-0.486L166.766,105.698z
				 M166.667,105.247l-0.325-1.504h-0.007l-0.353,1.504H166.667z"/>
			<polygon fill="#FFFFFF" points="168.481,103.255 168.953,103.255 168.953,106.001 169.802,106.001 169.802,106.47 
				168.481,106.47 			"/>
			<path fill="#FFFFFF" d="M171.339,105.698h-0.887l-0.183,0.774h-0.474l0.865-3.217h0.516l0.83,3.217h-0.488L171.339,105.698z
				 M171.24,105.247l-0.324-1.504h-0.008l-0.354,1.504H171.24z"/>
			<path fill="#FFFFFF" d="M172.176,105.849c0.092,0.074,0.295,0.199,0.545,0.199c0.207,0,0.391-0.144,0.391-0.467
				c0-0.229-0.106-0.331-0.333-0.487l-0.242-0.167c-0.254-0.176-0.42-0.428-0.42-0.842c0-0.58,0.379-0.876,0.811-0.876
				c0.273,0,0.466,0.087,0.538,0.113l-0.021,0.495c-0.114-0.056-0.266-0.141-0.481-0.141c-0.237,0-0.359,0.159-0.359,0.38
				c0,0.237,0.129,0.332,0.272,0.435l0.277,0.192c0.302,0.213,0.446,0.414,0.446,0.866c0,0.654-0.373,0.969-0.863,0.969
				c-0.258,0-0.457-0.047-0.585-0.143L172.176,105.849z"/>
			<path fill="#FFFFFF" d="M158.963,74.554c0.664,0.791,1.82,1.256,2.501,2.049c-0.486-2.342-2.294-4.254-4.431-4.71
				C158.073,72.677,158.299,73.765,158.963,74.554 M133.274,80.49c1.47-3.203,3.668-2.523,4.598-5.578
				c-0.524,0.938-2.923,1.332-4.038,3.732c0.568-1.426,0.283-3.607,1.244-4.785C132.204,75.982,133.427,79.414,133.274,80.49
				 M135.941,88.173c0.265,1.249-0.511,3.049,0.72,4.77c-1.276-1.433-3.981-1.796-5.086-3.976c1.378,5.323,4.973,4.227,6.595,5.385
				C136.833,92.434,137.927,91.162,135.941,88.173 M135.526,91.515c-0.795-2.974,0.618-4-0.456-6.855
				c-0.111,1.608-1.183,2.393-0.462,5.332c-1.274-2.491-3.25-3.418-3.82-5.127C130.829,89.535,134.578,90.228,135.526,91.515
				 M141.288,96.501c-1.104-1.526-0.351-2.391-3.453-5.169c0.656,1.015-0.02,2.288,2.071,4.272c-2.046-1.209-4.872-0.69-6.232-2.307
				C136.013,97.775,140.123,95.944,141.288,96.501 M156.307,95.605c2.091-1.984,1.415-3.258,2.073-4.272
				c-3.104,2.778-2.35,3.643-3.457,5.169c1.167-0.558,5.277,1.273,7.616-3.203C161.18,94.915,158.353,94.396,156.307,95.605
				 M159.554,92.943c1.229-1.721,0.456-3.521,0.719-4.77c-1.985,2.988-0.892,4.261-2.229,6.179c1.624-1.158,5.215-0.062,6.596-5.385
				C163.533,91.147,160.828,91.51,159.554,92.943 M154.595,96.714c-1.215-0.324-2.465-0.484-3.395-0.509
				c-1.158-0.029-2.196,0.189-3.095,0.526c-0.896-0.337-1.934-0.556-3.092-0.526c-0.932,0.024-2.182,0.185-3.395,0.509
				c-1.866,0.497-3.482,0.881-4.887,0.17c1.348,1.196,2.92,1.623,5.192,1.376c1.894-0.203,3.422-1.146,5.206-1.136
				c0.022,0,0.044,0.002,0.068,0.002c-1.878,0.951-2.941,2.287-2.941,2.287l0.862,0.116c0,0,0.904-1.82,2.986-2.293
				c2.083,0.473,2.989,2.293,2.989,2.293l0.86-0.116c0,0-1.061-1.336-2.94-2.287c0.023,0,0.044-0.002,0.07-0.002
				c1.782-0.01,3.309,0.933,5.201,1.136c2.274,0.247,3.846-0.18,5.195-1.376C158.073,97.595,156.461,97.211,154.595,96.714
				 M135.197,81.437c-0.769,1.476-1.966,1.814-1.839,4.863c-0.646-2.709-2.188-3.717-2.166-5.449
				c-1.074,4.518,1.793,5.054,2.528,6.948C133.613,85.085,135.343,84.538,135.197,81.437 M136.272,77.945
				c-0.268,0.379-0.457,0.537-1.17,1.126c-0.975,0.804-1.752,1.856-2.081,3.396c0.074-1.655-0.948-4.037-0.269-5.772
				c-2.635,3.722,0.149,5.95,0.249,7.296C133.683,81.4,135.253,81.378,136.272,77.945 M163.191,82.467
				c-0.329-1.54-1.104-2.593-2.079-3.396c-0.714-0.589-0.904-0.747-1.171-1.126c1.021,3.434,2.59,3.455,3.271,6.046
				c0.099-1.346,2.885-3.574,0.249-7.296C164.141,78.43,163.118,80.812,163.191,82.467 M165.425,84.865
				c-0.571,1.709-2.545,2.636-3.821,5.127c0.723-2.939-0.347-3.724-0.462-5.332c-1.072,2.855,0.342,3.882-0.455,6.855
				C161.635,90.228,165.386,89.535,165.425,84.865 M161.016,81.437c-0.147,3.101,1.585,3.648,1.476,6.362
				c0.737-1.895,3.604-2.431,2.529-6.948c0.021,1.732-1.521,2.74-2.167,5.449C162.982,83.251,161.786,82.913,161.016,81.437
				 M137.25,74.554c0.662-0.789,0.889-1.877,1.93-2.661c-2.138,0.456-3.946,2.368-4.431,4.71
				C135.429,75.81,136.585,75.345,137.25,74.554 M158.339,74.912c0.932,3.055,3.127,2.375,4.599,5.578
				c-0.156-1.076,1.071-4.508-1.805-6.631c0.961,1.178,0.678,3.359,1.245,4.785C161.265,76.244,158.865,75.849,158.339,74.912
				 M150.88,76.646c-0.554-0.227-1.14-0.391-1.752-0.478c-0.001,0.13-0.004,0.263-0.007,0.394c0.562,0.084,1.104,0.232,1.615,0.445
				C150.804,76.898,150.854,76.78,150.88,76.646 M150.435,72.869l0.117-0.106l-0.223-0.095l-0.588-0.01l-0.153,0.104l-0.347-0.028
				l-0.003,0.085c0.22,0.015,0.437,0.034,0.605,0.063l0.286-0.025L150.435,72.869z M149.304,85.535c0-0.099-0.134-0.197-0.33-0.289
				l-0.036-0.001c-0.001,0.081-0.007,0.479-0.013,0.673C149.167,85.81,149.304,85.693,149.304,85.535 M142.496,78.07
				c0.014-0.08,0.03-0.143,0.05-0.215c-0.073,0.017-0.158,0.027-0.241,0.025L142.496,78.07z M148.119,95.353
				c6.609,0,11.983-5.377,11.983-11.986c0-6.197-4.729-11.313-10.768-11.922c-0.004,0.021-0.01,0.047-0.014,0.067
				c-0.025,0.116-0.045,0.223-0.063,0.315c2.705,0.264,5.139,1.461,6.979,3.267l-1.323,1.323l0.048-0.233l-0.172-0.077l-0.239-0.014
				l0.051-0.151l-0.161-0.542l-0.329-0.362l-1.034-0.544l-0.088,0.096l-0.187,0.053c0.354,0.521,0.547,1.127,0.547,1.738
				c0,0.08-0.002,0.157-0.007,0.232l0.513,0.646l-0.239,0.055l0.158,0.24l-0.453,0.452l-0.18-0.347
				c-0.087,0.242-0.203,0.465-0.344,0.676c0.034,0.029,0.069,0.061,0.102,0.093l-1.392,1.392c-0.083-0.08-0.173-0.158-0.262-0.23
				c-0.133,0.061-0.271,0.118-0.408,0.173c0.039,0.028,0.079,0.06,0.118,0.089l-0.069,0.073l-0.165,0.091l-0.062,0.163l-0.102-0.101
				l-0.292,0.098l0.08,0.127l0.203-0.053l0.131,0.01l0.01-0.071l0.102-0.052l0.031-0.059l0.182-0.051l0.142-0.008
				c0.028,0.025,0.057,0.051,0.085,0.076l-0.555,0.553l-0.04-0.06l-0.576,0.097l-0.128,0.128l-0.126,0.014l0.359-0.343l-0.13-0.064
				l-0.333,0.449l0.097-0.012l-0.007,0.165l0.123,0.046l0.025,0.179l-0.2-0.042l-0.21,0.041l-0.507-0.263
				c0,0-0.028,1.358-0.042,2.046c1.195,0.402,2.464,0.982,2.464,2.506c0,0.672-0.288,1.213-0.858,1.611l0.003,0.003
				c-0.009,0.006-0.015,0.013-0.026,0.017l-0.001-0.001c-0.014,0.01-0.028,0.017-0.038,0.026c-0.486,0.319-1.107,0.488-1.647,0.658
				c-0.003,0.002-0.015,1.068-0.015,1.068c0.858,0.426,1.898,1.047,1.803,2.82c-0.012,0.438-0.183,0.557-0.327,0.596v0.002
				c-0.503,0.123-1.021,0.207-1.551,0.245c-0.003,0.138-0.005,0.269-0.006,0.392c2.308-0.159,4.396-1.135,5.974-2.639l1.393,1.392
				c-2.088,2.003-4.916,3.239-8.032,3.239c-3.097,0-5.917-1.223-7.998-3.209l1.395-1.391c1.561,1.475,3.614,2.437,5.888,2.604
				c-0.002-0.12-0.005-0.25-0.008-0.392c-2.16-0.167-4.117-1.083-5.607-2.488l0.372-0.372l0.512,0.061l0.271-0.293l0.709,0.023
				l0.106-0.246l-0.025-0.105c1.032,0.785,2.275,1.299,3.629,1.438c-0.003-0.15-0.006-0.281-0.008-0.391
				c-1.495-0.166-2.846-0.813-3.896-1.782l1.394-1.394c0.336,0.303,0.717,0.559,1.129,0.76c0.031-0.135,0.078-0.258,0.139-0.367
				c-0.36-0.178-0.692-0.402-0.992-0.666l1.395-1.398c0.221,0.178,0.473,0.32,0.747,0.416c-0.002-0.139-0.007-0.283-0.009-0.42
				c-0.164-0.072-0.319-0.162-0.46-0.271l0.395-0.393c-0.139-0.043-0.278-0.087-0.418-0.135l-0.262,0.263
				c-0.134-0.147-0.247-0.313-0.336-0.494c-0.24-0.107-0.473-0.228-0.689-0.37c-0.858-0.563-1.292-1.361-1.292-2.365
				c0-0.767,0.214-1.35,0.565-1.801l-1.39-1.389c1.001-0.956,2.289-1.615,3.718-1.83c-0.003-0.137-0.006-0.268-0.008-0.392
				c-1.533,0.221-2.914,0.921-3.984,1.946l-0.236-0.234c-0.052,0.092-0.116,0.213-0.185,0.362l0.146,0.147
				c-1.194,1.273-1.937,2.976-1.968,4.85h-1.971c0.03-2.415,0.994-4.611,2.545-6.241l0.626,0.626c0.028,0,0.059,0,0.09-0.002
				c0.11-0.01,0.234-0.044,0.354-0.105l-0.795-0.796c0.419-0.405,0.879-0.773,1.371-1.095c0.038-0.131,0.076-0.248,0.097-0.289
				c0.024-0.048,0.15-0.213,0.301-0.402c-0.748,0.413-1.435,0.922-2.044,1.514l-1.393-1.394c1.827-1.776,4.233-2.958,6.906-3.229
				c-0.011-0.049-0.018-0.083-0.018-0.083c-0.017-0.093-0.038-0.195-0.056-0.301c-6.023,0.628-10.733,5.734-10.733,11.919
				C136.135,89.976,141.512,95.353,148.119,95.353 M150.706,87.071v-0.009l0.004,0.008C150.708,87.07,150.708,87.071,150.706,87.071
				 M156.509,75.369c1.959,2.057,3.174,4.828,3.205,7.877h-1.97c-0.019-1.51-0.388-2.938-1.027-4.205l0.017-0.033l0.137,0.071
				l0.032-0.104l-0.354-0.619l-0.417-0.577l-0.491-0.407c-0.166-0.208-0.341-0.411-0.525-0.607L156.509,75.369z M153.999,77.896
				l0.476,0.02l0.111,0.136l-0.055,0.2l0.653,0.41l0.131-0.018l0.841,0.961l0.344-0.118c0.532,1.146,0.837,2.419,0.854,3.759h-1.97
				c-0.009-0.513-0.072-1.015-0.182-1.498l0.089-0.121l0.122-0.618l-0.09-0.665l-0.239-0.762l-0.548-0.801l0.131,0.069l0.068-0.067
				l-0.44-0.299l-0.03,0.1l0.441,0.631l0.25,0.515l0.18,0.513l0.053,0.346l0.093,0.577l-0.165,0.013c0,0-0.189-0.354-0.248-0.502
				l0.087-0.13l-0.169-0.243v-0.238l-0.121-0.151l-0.149,0.017c-0.053-0.098-0.107-0.196-0.167-0.293l0.105,0.054l0.029-0.028
				l-0.058-0.124l0.129-0.071l-0.059-0.074l-0.189,0.074l0.068-0.301l-0.112-0.063l-0.101,0.239
				c-0.215-0.324-0.456-0.628-0.718-0.911L153.999,77.896z M153.605,82.512l0.354-0.193l0.36-0.057l0.081-0.177l0.198-0.121
				l0.081-0.167l0.06-0.292c0.031,0.104,0.057,0.209,0.081,0.313l-0.191,0.57l-0.007,0.191l0.276-0.37
				c0.059,0.337,0.093,0.685,0.099,1.036h-1.726l-0.041-0.149l0.199-0.159l0.042-0.098l0.087-0.064l0.231-0.023l0.025-0.104
				L153.605,82.512z M151.241,81.156l0.177-0.039l-0.008-0.043l-0.175-0.117l0.061-0.372l0.209-0.21
				c0.13,0.149,0.255,0.307,0.366,0.475l-0.073,0.229l-0.194-0.137l-0.146,0.04l0.073,0.136h0.071l-0.079,0.199l-0.057-0.079
				L151.241,81.156z M151.997,87.697l-0.425-0.12l-0.128,0.048l-0.241-0.186l-0.227-0.082c0.111-0.081,0.221-0.164,0.326-0.253
				l0.351,0.248l0.267,0.141l0.133,0.134L151.997,87.697z M151.78,80.099l1.392-1.393c0.327,0.352,0.615,0.74,0.864,1.158
				l-0.175,0.047l0.01,0.311l0.523,0.328c0.125,0.286,0.235,0.578,0.325,0.883l-0.092,0.133l-0.188,0.12l-0.047,0.288l-0.128,0.071
				l-0.108,0.128l-0.108-0.041l-0.191-0.006l0.111-0.152l0.08-0.393l0.13-0.08l-0.378-0.359l-0.28,0.095l-0.065,0.265l-0.176,0.193
				l-0.184-0.152l-0.065-0.163l0.104-0.065l0.06,0.106l0.085-0.03l-0.037-0.179l-0.124-0.007l-0.008,0.072l-0.081,0.018
				l-0.432-0.506l-0.147-0.113l0.057-0.061l0.131-0.045l-0.12-0.048c0,0-0.154,0.033-0.171,0.033l0.088,0.11l-0.221-0.006
				C152.08,80.464,151.938,80.275,151.78,80.099 M152.488,87.513l-0.189-0.188l0.146-0.188l0.182-0.371l-0.071-0.104l0.12-0.273
				l-0.014-0.248l-0.072-0.255l-0.171-0.063l-0.063,0.148l-0.103-0.029c0.148-0.234,0.306-0.457,0.413-0.719l0.177-0.076
				l0.098-0.134l0.05,0.056l0.12-0.145l-0.097-0.121l0.089-0.023l0.16,0.064l0.305,0.008l0.184-0.096l0.481-0.128l-0.091-0.161
				l-0.033-0.191l0.259,0.113l0.097-0.059l-0.047-0.199l-0.316,0.117l-0.35-0.071l-0.266-0.54h1.508
				c-0.068,1.732-0.778,3.302-1.901,4.479l-0.208-0.207l0.091-0.277l-0.16-0.609L152.488,87.513z M152.756,91.356l0.184-0.397
				l-0.071-0.178l0.273-0.239v-0.146l-0.234-0.145l0.193-0.384l0.289-0.377l-0.289-0.312h-0.217l-0.134-0.217
				c0.115-0.098,0.229-0.197,0.339-0.299l1.395,1.394C153.961,90.554,153.381,90.992,152.756,91.356 M154.491,89.515l0.152-0.172
				l-0.142-0.762l-0.102-0.039l0.062-0.13l-0.33-0.104l-0.063,0.273l-0.032,0.346l-0.07,0.063l-0.601-0.601
				c1.193-1.245,1.949-2.913,2.015-4.753h1.972c-0.069,2.383-1.044,4.544-2.594,6.146L154.491,89.515z M155.034,90.057
				c1.62-1.674,2.641-3.931,2.708-6.421h1.971c-0.07,3.033-1.31,5.782-3.287,7.813L155.034,90.057z M143.179,88.15
				c-0.143-0.147-0.279-0.301-0.406-0.463l0.058-0.498l-0.209-0.477l-0.049-0.748l-0.231-0.455l0.048-0.281l-0.282-0.539
				l-0.246-0.123l0.099-0.287l-0.102-0.227l0.102-0.26h0.269l0.095-0.156h0.458l0.072,0.135l-0.083,0.467l-0.058,0.082l0.172,0.377
				l-0.113,0.063l-0.08-0.102l-0.033,0.039l0.079,0.223l0.136,0.261l0.063-0.007l0.036-0.232l-0.064-0.086l-0.007-0.158
				l-0.019-0.328l0.096-0.577l-0.094-0.155h0.332c0.063,1.207,0.568,2.299,1.354,3.119L143.179,88.15z M141.878,84.298l-0.188,0.292
				h-0.317l-0.026-0.018c-0.054-0.306-0.087-0.62-0.101-0.937h0.594l-0.141,0.474L141.878,84.298z M142.525,82.948l0.035-0.394
				l0.234-0.135l0.418,0.074l0.063,0.076c-0.037,0.219-0.058,0.447-0.063,0.676h-0.473L142.525,82.948z M144.524,84.419l0.099-0.051
				l0.258,0.194l-0.11,0.091l0.288,0.193l-0.018-0.206l0.154-0.256l0.161,0.171l0.166,0.237l-0.296,0.065l0.135,0.271l0.207-0.11
				l-0.026-0.087l0.156-0.105l0.089-0.428c0.113,0.254,0.267,0.488,0.453,0.691l-1.391,1.391c-0.665-0.699-1.111-1.605-1.219-2.613
				l0.282,0.303l0.268-0.002L144.524,84.419z M143.098,78.673l1.392,1.391c-0.291,0.319-0.539,0.677-0.738,1.064l-0.099-0.006
				l-0.195,0.061l-0.068-0.006l-0.207,0.193l0.264-0.041l0.236-0.061c-0.014,0.027-0.028,0.061-0.043,0.092l-0.205,0.127h-0.099
				l-0.307,0.232l-0.294-0.023l-0.43,0.797l0.087,0.159l-0.233,0.259l-0.036,0.334h-0.879
				C141.273,81.48,141.972,79.875,143.098,78.673 M141.298,89.176l0.442,0.257l0.091,0.063l-0.318,0.32
				c-0.151-0.154-0.293-0.315-0.433-0.479L141.298,89.176z M140.858,83.636c0.006,0.189,0.024,0.381,0.044,0.567l-0.241,0.056
				l-0.049,0.244l-0.502,0.639l0.012,0.877l-0.514,0.172l-0.283,0.002c-0.261-0.809-0.414-1.668-0.44-2.557H140.858z
				 M138.912,86.183l-0.114-0.023l-0.109-0.122l-0.554-0.05l0.171,0.233l-0.511-0.097l0.135-0.123l-0.126-0.123l-0.369,0.16
				l-0.133,0.245l0.051,0.56l0.422,1.018l0.206,0.32l0.117,0.043l-0.323-0.609l-0.068-0.311l0.073-0.076l-0.045-0.172l0.193,0.025
				l0.297,0.45l0.075,0.029l-0.008-0.329l0.12,0.072l0.025,0.176l0.313,0.084l0.129-0.092l0.043,0.031l-0.004,0.239l0.137,0.169
				l0.167,0.037l0.365,0.617l0.222,0.063l0.067-0.291c0.387,0.636,0.842,1.226,1.359,1.754l-1.392,1.392
				c-1.997-2.035-3.249-4.798-3.319-7.848h1.97C138.52,84.519,138.666,85.373,138.912,86.183 M139.761,75.336l1.394,1.391
				c-1.621,1.702-2.631,3.995-2.659,6.519h-1.972C136.556,80.179,137.784,77.395,139.761,75.336 M154.019,74.619l-0.121-0.191
				l-0.254-0.129l-0.202,0.153l0.256,0.138l0.288,0.207L154.019,74.619z M152.827,80.175l0.006,0.152l0.342-0.104l0.104-0.209
				l-0.236-0.307l0.126-0.19l0.317,0.229l0.06-0.046l-0.065-0.046l-0.071-0.138l0.131-0.075l-0.129-0.167l-0.298,0.151l-0.105,0.18
				l-0.057,0.164l0.13,0.221l-0.048,0.104L152.827,80.175z M138.585,89.009l0.024-0.09l-0.178-0.385l-0.209-0.078L138.585,89.009z
				 M146.637,81.608c0,0.333,0.203,0.563,0.567,0.765c0,0-0.003-0.056-0.003-0.146l-0.229-0.23l0.121-0.221l0.1-0.029
				c-0.008-0.385-0.015-0.816-0.018-0.877l-0.018,0.002C146.821,81.056,146.637,81.285,146.637,81.608"/>
			<path fill="#FFFFFF" d="M148.837,90.144c0.618,0.313,1.188,0.744,1.426,1.563c0.105-1.358-0.654-1.944-1.409-2.341
				C148.855,89.369,148.837,90.144,148.837,90.144"/>
			<path fill="#FFFFFF" d="M152.945,76.379c0-1.231-0.895-2.599-3.085-3.081c-0.161-0.035-0.409-0.061-0.667-0.076
				c-0.005,0.185-0.015,0.609-0.015,0.609c-0.003,0.135-0.013,0.628-0.016,0.734c0.201,0.018,0.352,0.043,0.421,0.059
				c1.272,0.305,1.726,1.033,1.726,1.755c0,1.171-0.999,1.61-2.227,1.944c-0.134,0.037-0.27,0.07-0.408,0.105
				c-0.374,0.093-0.759,0.184-1.136,0.285c-0.135,0.037-0.27,0.076-0.403,0.117c-1.364,0.414-2.534,1.07-2.534,2.754
				c0,1.668,1.335,2.291,2.641,2.691c-0.008-0.479-0.019-0.96-0.03-1.445c-0.574-0.27-0.98-0.625-0.98-1.225
				c0-0.582,0.371-0.936,0.936-1.19c0.125-0.058,0.259-0.108,0.403-0.159c0.323-0.11,0.689-0.205,1.072-0.296
				c0.132-0.033,0.267-0.065,0.406-0.097C150.888,79.419,152.945,78.843,152.945,76.379"/>
			<path fill="#FFFFFF" d="M146.345,88.141c0.003,0.675,0.497,1.041,0.994,1.318c-0.001-0.114-0.019-1.155-0.02-1.173
				c0.009-0.209,0.213-0.333,0.373-0.412c0.24-0.111,0.482-0.193,0.79-0.301c0.146-0.05,0.274-0.1,0.414-0.143
				c0.997-0.3,2.15-0.682,2.15-1.895c0-1.214-0.989-1.711-2.068-2.084c-0.008,0.387-0.02,0.949-0.029,1.34
				c0.457,0.18,0.759,0.397,0.759,0.744c0,0.434-0.463,0.684-0.791,0.811c-0.137,0.053-0.346,0.121-0.403,0.14
				c-0.266,0.083-0.551,0.179-0.817,0.276c-0.14,0.053-0.276,0.109-0.403,0.175C146.825,87.175,146.342,87.528,146.345,88.141"/>
			<path fill="#FFFFFF" d="M147.019,73.414c-0.661,0.188-1.052,0.439-1.2,0.488c-0.431,0.144-1.035,0.168-1.661,0.85
				c-0.112,0.12-0.383,0.463-0.576,0.74c-0.186,0.271-0.196,0.709-0.334,0.945c-0.202,0.339-0.153,0.533-0.153,0.533l0.006,0.011
				c-0.008,0.04-0.049,0.223-0.229,0.427c-0.21,0.23-0.486,0.361-0.813,0.307c0.284,0.144,0.678-0.057,0.678-0.057
				s-0.075,0.216-0.151,0.568c0.321-0.727,0.613-0.99,0.705-1.064c0.14,0.034,0.423,0.02,0.953-0.283
				c0.596-0.344,1.495-0.902,1.749-1.258c0.275-0.381,0.652-0.635,1.058-0.797C147.041,74.29,147.03,73.813,147.019,73.414
				 M144.411,75.776l-0.309,0.065l0.456-0.706l0.432,0.015L144.411,75.776z"/>
			<path fill="#FFFFFF" d="M148.253,88.056c-0.057,0.02-0.206,0.087-0.3,0.119c-0.102,0.037-0.227,0.086-0.227,0.123
				c0,0.01,0.096,5.221,0.096,5.336c0,1.075,0.546,1.08,0.546,0c0-0.076,0.111-5.65,0.111-5.65S148.345,88.025,148.253,88.056"/>
			<path fill="#FFFFFF" d="M147.688,86.337c0.169-0.061,0.337-0.111,0.498-0.162c0.118-0.035,0.229-0.069,0.33-0.104
				c0.006-0.326,0.1-4.865,0.116-5.69c-0.405,0.103-0.76,0.198-1.054,0.304C147.59,81.304,147.677,85.841,147.688,86.337"/>
			<path fill="#FFFFFF" d="M148.144,68.959c-1.536,0-0.885,2.276-0.763,3.021c0.006,0.031,0.124,5.146,0.149,6.318
				c0.231-0.063,0.463-0.117,0.689-0.174c0.161-0.038,0.315-0.077,0.464-0.115c0.023-1.129,0.137-6.008,0.141-6.04
				C148.916,71.175,149.72,68.959,148.144,68.959"/>
			<path fill="#FFFFFF" d="M179.063,105.169h-1.921l-0.419,1.596h-1.387l2.035-7.135h1.577l1.963,7.135h-1.472L179.063,105.169z
				 M178.15,100.999h-0.018l-0.726,2.966h1.375L178.15,100.999z"/>
			<path fill="#FFFFFF" d="M186.405,103.482c0-0.611-0.22-0.836-0.525-0.836c-0.413,0-0.57,0.348-0.57,0.746v3.373h-1.386v-3.283
				c0-0.672-0.252-0.836-0.48-0.836c-0.455,0-0.615,0.46-0.615,1.135v2.984h-1.384v-4.213c0-0.51-0.009-0.835-0.035-1.113h1.26
				c0.019,0.237,0.036,0.531,0.036,0.89h0.018c0.211-0.583,0.562-0.972,1.289-0.972c0.655,0,0.99,0.36,1.184,0.891
				c0.199-0.502,0.523-0.891,1.25-0.891c1.009,0,1.343,0.859,1.343,1.924v3.484h-1.385V103.482z"/>
			<path fill="#FFFFFF" d="M192.644,104.527h-2.69c0,0.633,0.351,1.217,1.131,1.217c0.472,0,0.944-0.205,1.287-0.42l0.026,1.216
				c-0.446,0.195-0.972,0.308-1.445,0.308c-1.605,0-2.313-1.135-2.313-2.762c0-1.43,0.718-2.729,2.024-2.729
				c0.41,0,1.98,0,1.98,2.781V104.527z M191.382,103.646c0-0.673-0.15-1.308-0.719-1.308c-0.71,0-0.71,1.022-0.71,1.308H191.382z"/>
			<path fill="#FFFFFF" d="M193.458,102.552c0-0.51-0.01-0.835-0.033-1.114h1.26c0.009,0.319,0.027,0.646,0.035,0.962h0.019
				c0.279-0.572,0.472-1.043,1.27-1.043h0.2v1.494c-0.147-0.043-0.27-0.062-0.464-0.062c-0.807,0-0.904,0.817-0.904,1.593v2.382
				h-1.383V102.552z"/>
			<path fill="#FFFFFF" d="M196.91,99.097h1.384v1.432h-1.384V99.097z M196.91,101.438h1.384v5.327h-1.384V101.438z"/>
			<path fill="#FFFFFF" d="M202.527,106.623c-0.404,0.123-0.815,0.227-1.252,0.227c-1.761,0-2.157-1.721-2.157-2.691
				c0-1.636,0.806-2.801,2.26-2.801c0.458,0,0.703,0.133,1.106,0.256l-0.069,1.217c-0.255-0.112-0.518-0.227-0.81-0.227
				c-1.049,0-1.049,1.349-1.049,1.555c0,1.123,0.596,1.484,1.122,1.484c0.288,0,0.55-0.124,0.805-0.238L202.527,106.623z"/>
			<path fill="#FFFFFF" d="M203.507,101.694c0.36-0.132,0.976-0.337,1.474-0.337c1.603,0,1.971,0.778,1.971,1.965v1.939
				c0,0.789,0.008,1.146,0.034,1.503h-1.262l-0.034-0.735h-0.02c-0.06,0.328-0.595,0.818-1.252,0.818
				c-0.849,0-1.411-0.643-1.411-1.615c0-1.779,1.778-1.789,2.261-1.789h0.422c0-1.023-0.65-1.023-0.852-1.023
				c-0.349,0-0.725,0.094-1.269,0.471L203.507,101.694z M205.691,104.2c-0.554,0-1.42,0.041-1.42,0.929
				c0,0.695,0.481,0.695,0.596,0.695c0.123,0,0.825-0.021,0.825-1.316V104.2z"/>
			<path fill="#FFFFFF" d="M210.615,102.78c-0.369-0.177-0.71-0.286-1.114-0.286c-0.359,0-0.518,0.202-0.518,0.387
				c0,0.328,0.205,0.439,0.955,0.766c0.475,0.205,0.957,0.554,0.957,1.555c0,1.186-0.761,1.648-1.682,1.648
				c-0.403,0-1.015-0.054-1.498-0.256l0.034-1.248c0.335,0.234,0.754,0.366,1.141,0.366c0.648,0,0.691-0.265,0.691-0.501
				c0-0.234-0.357-0.336-0.955-0.623c-0.482-0.236-0.955-0.682-0.955-1.635c0-0.574,0.35-1.594,1.707-1.594
				c0.572,0,1.044,0.12,1.271,0.213L210.615,102.78z"/>
			<polygon fill="#FFFFFF" points="189.804,100.906 190.574,98.969 191.734,98.969 190.574,100.906 			"/>
			<path fill="#FFFFFF" d="M65.867,57.896c-17.754,0-28.16-8.381-28.16-24.593c0-15.94,10.406-24.592,28.16-24.592
				c17.753,0,28.379,8.652,28.379,24.592C94.246,49.515,83.621,57.896,65.867,57.896 M65.867,46.45
				c7.712,0,7.931-8.038,8.004-13.147c-0.073-4.427-0.582-13.147-8.004-13.147c-7.203,0-7.786,8.72-7.786,13.147
				C58.081,38.413,58.881,46.45,65.867,46.45"/>
			<path fill="#FFFFFF" d="M98.543,9.528h33.544c7.931,0,18.627,3.543,18.627,16.349c0,12.398-8.513,17.509-18.7,17.509h-13.97
				v13.692H98.543V9.528z M117.534,32.35h4.293c4.656,0,9.388-0.816,9.388-6.131c0-5.042-4.731-5.654-9.46-5.654h-4.22V32.35z"/>
			<path fill="#FFFFFF" d="M196.853,22.541c-4.367-1.43-9.533-2.384-15.061-2.384c-3.057,0-8.37,0.067-8.37,3.132
				c0,6.202,26.705,0.341,26.705,18.667c0,12.738-13.459,15.938-24.739,15.938c-7.496,0-13.679-0.679-20.958-2.245V43.316
				c5.24,2.045,11.643,3.135,17.465,3.135c4.584,0,8.731-0.885,8.731-3.27c0-6.404-26.704-0.612-26.704-19.074
				c0-13.08,14.553-15.396,26.122-15.396c5.457,0,11.497,0.612,16.808,1.635V22.541z"/>
		</g>
		<g>
			<path fill="#FFFFFF" d="M312.11,78.888V35.266h12.752c8.748,0,13.125,3.583,13.125,10.75c0,4.918-2.418,8.271-7.252,10.061v0.125
				c5.5,1.21,8.25,4.687,8.25,10.437c0,3.918-1.314,6.982-3.938,9.189c-2.418,2.041-5.627,3.061-9.627,3.061H312.11z
				 M319.862,41.142v12.372h4.123c1.875,0,3.385-0.613,4.529-1.84c1.148-1.23,1.719-2.783,1.719-4.658s-0.592-3.324-1.779-4.344
				c-1.186-1.02-2.738-1.53-4.656-1.53H319.862z M319.862,59.39v13.375h4.41c2.07,0,3.697-0.594,4.879-1.779
				c1.182-1.189,1.77-2.824,1.77-4.908c0-4.459-2.297-6.688-6.896-6.688H319.862z"/>
			<rect x="346.923" y="35.266" fill="#FFFFFF" width="8.061" height="43.624"/>
			<path fill="#FFFFFF" d="M363.858,78.89V35.266h13.627c8.66,0,12.998,3.834,12.998,11.5c0,2.667-0.75,4.947-2.246,6.843
				c-1.506,1.897-3.568,3.031-6.191,3.405v0.189c2.168,0.333,3.771,2.021,4.814,5.062l5.686,16.625h-8.475l-4.299-14.188
				c-0.916-3.041-2.928-4.563-6.043-4.563h-1.809v18.75H363.858z M371.921,54.266h3.23c4.719,0,7.084-2.209,7.084-6.626
				c0-2.332-0.623-3.999-1.865-4.999c-1.078-0.834-2.816-1.25-5.219-1.25h-3.23V54.266z"/>
			<polygon fill="#FFFFFF" points="398.983,78.89 398.983,35.266 421.919,35.266 421.919,41.578 407.044,41.578 407.044,53.265 
				421.106,53.265 421.106,59.578 407.044,59.578 407.044,72.576 422.546,72.576 422.546,78.89 			"/>
			<polygon fill="#FFFFFF" points="464.731,78.89 464.731,42.517 453.669,78.89 447.981,78.89 437.423,42.517 437.423,78.89 
				430.169,78.89 430.169,35.266 442.017,35.266 451.083,67.835 451.222,67.824 460.534,35.266 471.979,35.266 471.979,78.89 			"/>
			<polygon fill="#FFFFFF" points="481.169,78.89 481.169,35.266 504.104,35.266 504.104,41.578 489.231,41.578 489.231,53.265 
				503.292,53.265 503.292,59.578 489.231,59.578 489.231,72.576 504.728,72.576 504.728,78.89 			"/>
		</g>
	</g>
</g>
</svg>
