<?xml version="1.0" encoding="utf-8"?>
<!-- Generator: Adobe Illustrator 14.0.0, SVG Export Plug-In . SVG Version: 6.00 Build 43363)  -->
<!DOCTYPE svg PUBLIC "-//W3C//DTD SVG 1.1//EN" "http://www.w3.org/Graphics/SVG/1.1/DTD/svg11.dtd">
<svg version="1.1" id="Camada_1" xmlns="http://www.w3.org/2000/svg" xmlns:xlink="http://www.w3.org/1999/xlink" x="0px" y="0px"
	 width="1600px" height="325.582px" viewBox="0 0 1600 325.582" enable-background="new 0 0 1600 325.582" xml:space="preserve">
<g>
	<g>
		<path fill="#00408E" d="M208.174,286.682v-55.814c-8.616,0.623-24.738-2.088-24.822-2.112l-62.893,32.454
			c13.996,10.318,27.897,16.494,46.114,21.125"/>
		<path fill="#00408E" d="M46.624,298.134c-1.906-20.059,24.042-31.361,37.914-38.706l17.337-8.986l178.513-92.495l6.345-3.231
			c-4.409-18.823-14.328-35.721-28.104-49.144c-37.904,18.179-91.183,44.078-133.321,65.25c-2.117-10.594-1.807-21.79,1.35-32.894
			c11.217-39.439,54.115-62.81,95.829-52.208c6.135,1.559,12.474,3.473,18.47,5.89c-17.66-11.224-38.994-17.788-61.973-17.788
			c-60.931,0-110.323,46.109-110.323,102.985c0,4.556,0.351,9.031,0.963,13.424c0.76,2.714,1.598,5.4,2.542,8.051
			c-0.315,0.172-0.642,0.346-0.957,0.514c-0.075,0.043-0.147,0.081-0.219,0.121C10.031,232.028,46.624,298.134,46.624,298.134"/>
		<path fill="#39A9DC" d="M336.107,129.422c-10.631-45.766-47.177-84.487-98.329-97.495
			C164.656,13.334,89.437,54.315,69.772,123.462c-6.452,22.695-6.094,45.582-0.147,66.77c-0.614-4.393-0.964-8.869-0.964-13.424
			c0-56.875,49.392-102.985,110.323-102.985c22.977,0,44.312,6.565,61.973,17.788c6.403,4.072,12.327,8.753,17.671,13.961
			c13.777,13.425,23.696,30.321,28.105,49.144l49.406-25.154C336.127,129.519,336.118,129.47,336.107,129.422"/>
	</g>
	<g>
		<g>
			<path fill="#39A9DC" d="M376.028,47.672c13.481-3.194,35.125-5.322,56.412-5.322c30.866,0,50.735,5.322,65.282,17.386
				c12.417,9.222,20.223,23.416,20.223,42.219c0,23.416-15.611,43.641-40.445,52.509v1.063
				c22.708,5.323,49.314,24.129,49.314,59.608c0,20.579-8.16,36.542-20.577,47.895c-16.32,15.258-43.286,22.352-82.314,22.352
				c-21.288,0-37.605-1.417-47.895-2.835V47.672z M406.894,145.595h28.029c32.287,0,51.444-17.384,51.444-40.446
				c0-27.674-20.934-39.028-52.153-39.028c-14.194,0-22.353,1.064-27.32,2.127V145.595z M406.894,259.838
				c6.386,1.063,14.903,1.417,25.901,1.417c31.929,0,61.38-11.708,61.38-46.477c0-32.287-28.028-46.123-61.735-46.123h-25.546
				V259.838z"/>
			<path fill="#39A9DC" d="M567.266,31.352h31.22v251.902h-31.22V31.352z"/>
			<path fill="#39A9DC" d="M794.688,236.068c0,18.093,0.354,33.705,1.417,47.186h-27.673l-1.773-28.03h-0.708
				c-7.808,13.836-26.257,31.933-56.768,31.933c-26.965,0-59.252-15.258-59.252-75.219V111.535h31.225v94.727
				c0,32.643,10.288,54.995,38.318,54.995c20.929,0,35.478-14.543,41.155-28.737c1.773-4.258,2.837-9.935,2.837-15.967V111.535
				h31.223V236.068z"/>
			<path fill="#39A9DC" d="M863.882,203.071c0.709,42.218,27.316,59.603,58.895,59.603c22.352,0,36.187-3.9,47.542-8.868
				l5.677,22.353c-11,4.967-30.157,10.999-57.477,10.999c-52.862,0-84.44-35.124-84.44-86.926c0-51.8,30.513-92.247,80.54-92.247
				c56.408,0,70.956,48.964,70.956,80.539c0,6.386-0.354,10.998-1.063,14.547H863.882z M955.419,180.718
				c0.354-19.511-8.163-50.38-43.286-50.38c-31.934,0-45.414,28.737-47.897,50.38H955.419z"/>
		</g>
		<g>
			<path fill="#00408E" d="M1056.195,44.123v239.131h-31.219V44.123H1056.195z"/>
			<path fill="#00408E" d="M1112.613,158.011c0-18.093-0.355-32.286-1.424-46.477h27.676l1.772,28.383h0.712
				c8.515-15.966,28.384-31.933,56.768-31.933c23.771,0,60.668,14.194,60.668,73.089v102.181h-31.221v-98.986
				c0-27.675-10.288-50.736-39.736-50.736c-20.227,0-36.191,14.545-41.867,31.93c-1.42,3.904-2.128,9.225-2.128,14.547v103.245
				h-31.22V158.011z"/>
			<path fill="#00408E" d="M1312.722,283.254V135.305h-23.771v-23.771h23.771v-8.163c0-24.125,5.677-46.122,19.869-59.958
				c11.708-11.354,27.317-15.967,41.863-15.967c11.355,0,20.581,2.482,26.613,4.968l-4.259,24.125
				c-4.613-2.128-10.645-3.904-19.871-3.904c-26.605,0-33.347,23.061-33.347,49.672v9.226h41.51v23.771h-41.51v147.949H1312.722z"/>
			<path fill="#00408E" d="M1564.269,195.976c0,63.506-44.35,91.181-85.505,91.181c-46.124,0-82.313-34.06-82.313-88.345
				c0-57.121,37.962-90.827,85.15-90.827C1530.917,107.985,1564.269,143.818,1564.269,195.976z M1428.383,197.749
				c0,37.608,21.288,65.992,51.8,65.992c29.8,0,52.153-28.028,52.153-66.702c0-29.091-14.545-65.637-51.445-65.637
				C1444.348,131.401,1428.383,165.462,1428.383,197.749z"/>
		</g>
	</g>
	<rect x="267.176" y="189.081" fill="#39A9DC" width="90.698" height="27.907"/>
</g>
</svg>
