<?xml version="1.0" encoding="utf-8"?>
<!-- Generator: Adobe Illustrator 14.0.0, SVG Export Plug-In . SVG Version: 6.00 Build 43363)  -->
<!DOCTYPE svg PUBLIC "-//W3C//DTD SVG 1.1//EN" "http://www.w3.org/Graphics/SVG/1.1/DTD/svg11.dtd">
<svg version="1.1" id="Camada_1" xmlns="http://www.w3.org/2000/svg" xmlns:xlink="http://www.w3.org/1999/xlink" x="0px" y="0px"
	 width="558px" height="45px" viewBox="0 0 558 45" enable-background="new 0 0 558 45" xml:space="preserve">
<g>
	<g>
		<path fill="#FFFFFF" d="M419.16,37.539V8.135h8.596c5.896,0,8.848,2.415,8.848,7.247c0,3.314-1.631,5.574-4.889,6.781v0.085
			c3.707,0.814,5.561,3.158,5.561,7.034c0,2.641-0.885,4.707-2.654,6.194c-1.629,1.376-3.793,2.063-6.488,2.063H419.16z
			 M424.387,12.096v8.34h2.777c1.264,0,2.283-0.414,3.055-1.241c0.773-0.828,1.158-1.875,1.158-3.139s-0.4-2.24-1.201-2.928
			c-0.797-0.688-1.844-1.032-3.139-1.032H424.387z M424.387,24.396v9.017h2.971c1.396,0,2.494-0.4,3.289-1.199
			c0.797-0.802,1.193-1.904,1.193-3.309c0-3.005-1.549-4.509-4.648-4.509H424.387z"/>
		<rect x="442.627" y="8.136" fill="#FFFFFF" width="5.434" height="29.405"/>
		<path fill="#FFFFFF" d="M454.043,37.541V8.135h9.186c5.838,0,8.762,2.584,8.762,7.752c0,1.798-0.506,3.335-1.514,4.612
			c-1.016,1.28-2.406,2.044-4.174,2.296v0.127c1.461,0.225,2.543,1.362,3.246,3.412l3.832,11.207h-5.713l-2.898-9.563
			c-0.617-2.05-1.973-3.077-4.072-3.077h-1.219v12.64H454.043z M459.479,20.942h2.178c3.18,0,4.773-1.488,4.773-4.467
			c0-1.572-0.42-2.695-1.256-3.369c-0.729-0.562-1.898-0.843-3.518-0.843h-2.178V20.942z"/>
		<polygon fill="#FFFFFF" points="477.721,37.541 477.721,8.135 493.18,8.135 493.18,12.39 483.152,12.39 483.152,20.268 
			492.633,20.268 492.633,24.523 483.152,24.523 483.152,33.285 493.602,33.285 493.602,37.541 		"/>
		<polygon fill="#FFFFFF" points="522.039,37.541 522.039,13.022 514.582,37.541 510.748,37.541 503.631,13.022 503.631,37.541 
			498.742,37.541 498.742,8.135 506.727,8.135 512.84,30.089 512.932,30.081 519.211,8.135 526.926,8.135 526.926,37.541 		"/>
		<polygon fill="#FFFFFF" points="533.119,37.541 533.119,8.135 548.58,8.135 548.58,12.39 538.555,12.39 538.555,20.268 
			548.033,20.268 548.033,24.523 538.555,24.523 538.555,33.285 549,33.285 549,37.541 		"/>
	</g>
	<g>
		<path fill="#FFFFFF" d="M339.588,35.165c0-0.551-0.203-0.751-0.488-0.751c-0.385,0-0.535,0.312-0.535,0.667v3.021h-1.285v-2.937
			c0-0.604-0.238-0.751-0.449-0.751c-0.426,0-0.572,0.413-0.572,1.018v2.67h-1.293v-3.77c0-0.457-0.008-0.75-0.031-0.999h1.176
			c0.018,0.214,0.033,0.477,0.033,0.797h0.018c0.195-0.521,0.521-0.869,1.197-0.869c0.613,0,0.924,0.321,1.104,0.797
			c0.189-0.449,0.49-0.797,1.168-0.797c0.939,0,1.25,0.77,1.25,1.72v3.121h-1.291"/>
		<path fill="#FFFFFF" d="M345.4,36.099h-2.504c0,0.567,0.324,1.088,1.049,1.088c0.439,0,0.881-0.182,1.203-0.376l0.023,1.09
			c-0.418,0.176-0.906,0.275-1.346,0.275c-1.498,0-2.156-1.016-2.156-2.472c0-1.281,0.67-2.442,1.885-2.442
			c0.385,0,1.846,0,1.846,2.49 M344.225,35.312c0-0.604-0.141-1.172-0.67-1.172c-0.658,0-0.658,0.915-0.658,1.172H344.225z"/>
		<path fill="#FFFFFF" d="M346.16,34.332c0-0.457-0.012-0.75-0.033-0.998h1.174c0.01,0.285,0.025,0.576,0.033,0.862h0.018
			c0.26-0.514,0.439-0.935,1.184-0.935h0.189v1.337c-0.143-0.038-0.254-0.056-0.434-0.056c-0.754,0-0.842,0.733-0.842,1.425v2.135
			h-1.289"/>
		<path fill="#FFFFFF" d="M349.375,31.238h1.289v1.282h-1.289 M349.375,33.334h1.289v4.768h-1.289V33.334z"/>
		<path fill="#FFFFFF" d="M354.607,37.975c-0.377,0.111-0.758,0.201-1.168,0.201c-1.643,0-2.008-1.537-2.008-2.408
			c0-1.463,0.752-2.507,2.107-2.507c0.424,0,0.65,0.119,1.027,0.229l-0.064,1.09c-0.236-0.101-0.484-0.201-0.754-0.201
			c-0.977,0-0.977,1.206-0.977,1.389c0,1.009,0.555,1.329,1.045,1.329c0.27,0,0.514-0.11,0.75-0.213"/>
		<path fill="#FFFFFF" d="M355.523,33.564c0.334-0.121,0.902-0.303,1.369-0.303c1.494,0,1.836,0.695,1.836,1.757v1.739
			c0,0.704,0.01,1.024,0.033,1.344h-1.176l-0.031-0.657h-0.018c-0.057,0.293-0.555,0.731-1.166,0.731
			c-0.791,0-1.314-0.576-1.314-1.446c0-1.592,1.658-1.6,2.107-1.6h0.391c0-0.918-0.604-0.918-0.793-0.918
			c-0.326,0-0.676,0.084-1.182,0.422 M357.555,35.806c-0.514,0-1.324,0.037-1.324,0.832c0,0.622,0.453,0.622,0.559,0.622
			c0.111,0,0.766-0.019,0.766-1.179V35.806z"/>
		<path fill="#FFFFFF" d="M362.143,34.534c-0.344-0.157-0.662-0.256-1.037-0.256c-0.336,0-0.482,0.181-0.482,0.346
			c0,0.293,0.189,0.396,0.889,0.688c0.443,0.183,0.891,0.494,0.891,1.391c0,1.062-0.709,1.474-1.564,1.474
			c-0.379,0-0.949-0.047-1.398-0.228l0.031-1.117c0.313,0.21,0.703,0.331,1.066,0.331c0.602,0,0.643-0.24,0.643-0.453
			c0-0.208-0.334-0.3-0.891-0.555c-0.451-0.213-0.891-0.612-0.891-1.465c0-0.513,0.328-1.428,1.592-1.428
			c0.531,0,0.971,0.11,1.184,0.192"/>
		<line fill="#FFFFFF" x1="389.602" y1="29.115" x2="320.938" y2="29.115"/>
		<rect x="320.938" y="28.816" fill="#FFFFFF" width="68.666" height="0.598"/>
		<path fill="#FFFFFF" d="M311.936,10.861c0.623,0.718,1.715,1.14,2.355,1.854c-0.459-2.118-2.16-3.848-4.172-4.259
			C311.1,9.165,311.309,10.148,311.936,10.861 M287.755,16.232c1.385-2.898,3.455-2.285,4.328-5.045
			c-0.492,0.848-2.752,1.201-3.801,3.375c0.535-1.291,0.27-3.264,1.172-4.33C286.747,12.153,287.899,15.258,287.755,16.232
			 M290.265,23.183c0.246,1.128-0.482,2.758,0.68,4.313c-1.205-1.294-3.75-1.624-4.789-3.594c1.299,4.815,4.682,3.824,6.205,4.868
			C291.106,27.036,292.134,25.886,290.265,23.183 M289.872,26.205c-0.746-2.69,0.582-3.62-0.428-6.2
			c-0.105,1.453-1.113,2.161-0.432,4.82c-1.201-2.253-3.061-3.09-3.598-4.634C285.452,24.415,288.983,25.041,289.872,26.205
			 M295.297,30.717c-1.038-1.383-0.33-2.165-3.249-4.675c0.619,0.917-0.021,2.068,1.949,3.862c-1.926-1.092-4.588-0.626-5.867-2.085
			C290.333,31.867,294.202,30.213,295.297,30.717 M309.434,29.904c1.969-1.794,1.332-2.945,1.951-3.862
			c-2.92,2.51-2.211,3.292-3.252,4.675c1.098-0.504,4.967,1.15,7.172-2.897C314.021,29.278,311.361,28.813,309.434,29.904
			 M312.488,27.495c1.162-1.555,0.43-3.185,0.68-4.313c-1.865,2.703-0.844,3.854-2.1,5.587c1.529-1.044,4.914-0.053,6.211-4.868
			C316.238,25.871,313.691,26.201,312.488,27.495 M307.822,30.908c-1.143-0.293-2.318-0.439-3.193-0.459
			c-1.092-0.027-2.068,0.171-2.912,0.474c-0.844-0.303-1.822-0.501-2.914-0.474c-0.877,0.02-2.055,0.166-3.193,0.459
			c-1.759,0.451-3.276,0.798-4.597,0.153c1.264,1.083,2.746,1.469,4.886,1.247c1.781-0.184,3.217-1.038,4.895-1.028
			c0.025,0,0.045,0,0.066,0.002c-1.768,0.858-3.879,2.066-3.879,2.066l0.809,0.107c0,0,1.967-1.647,3.926-2.076
			c1.959,0.429,1.699,2.076,1.699,2.076l0.809-0.107c0,0,0.115-1.208-1.65-2.066c0.018-0.002,0.039-0.002,0.064-0.002
			c1.678-0.01,3.113,0.845,4.896,1.028c2.141,0.222,3.621-0.164,4.887-1.247C311.1,31.706,309.58,31.359,307.822,30.908
			 M289.565,17.087c-0.727,1.335-1.852,1.642-1.732,4.401c-0.605-2.451-2.061-3.363-2.039-4.929
			c-1.012,4.085,1.688,4.57,2.381,6.283C288.073,20.389,289.702,19.892,289.565,17.087 M290.577,13.93
			c-0.252,0.341-0.43,0.484-1.104,1.019c-0.918,0.728-1.648,1.68-1.957,3.07c0.068-1.496-0.893-3.648-0.252-5.22
			c-2.482,3.365,0.141,5.381,0.234,6.599C288.14,17.054,289.616,17.035,290.577,13.93 M315.916,18.019
			c-0.309-1.391-1.043-2.343-1.957-3.07c-0.674-0.534-0.852-0.678-1.104-1.019c0.961,3.105,2.438,3.124,3.08,5.468
			c0.09-1.218,2.713-3.233,0.232-6.599C316.807,14.37,315.848,16.522,315.916,18.019 M318.018,20.191
			c-0.537,1.544-2.396,2.381-3.598,4.634c0.684-2.659-0.326-3.367-0.432-4.82c-1.01,2.58,0.318,3.51-0.43,6.2
			C314.451,25.041,317.98,24.415,318.018,20.191 M313.867,17.087c-0.139,2.805,1.492,3.302,1.391,5.756
			c0.693-1.713,3.391-2.198,2.379-6.283c0.023,1.565-1.43,2.478-2.037,4.929C315.717,18.729,314.594,18.422,313.867,17.087
			 M291.495,10.861c0.627-0.713,0.838-1.696,1.818-2.405c-2.012,0.411-3.713,2.141-4.172,4.259
			C289.782,12.001,290.872,11.579,291.495,10.861 M311.348,11.188c0.875,2.76,2.945,2.146,4.33,5.045
			c-0.146-0.975,1.01-4.079-1.701-6c0.906,1.066,0.639,3.039,1.172,4.33C314.1,12.389,311.84,12.035,311.348,11.188 M304.324,12.754
			c-0.518-0.205-1.072-0.352-1.648-0.432c-0.002,0.119-0.002,0.236-0.006,0.354c0.531,0.075,1.041,0.212,1.52,0.403
			C304.254,12.981,304.299,12.876,304.324,12.754 M303.904,9.337l0.113-0.097l-0.209-0.084l-0.557-0.012l-0.143,0.096l-0.328-0.025
			l-0.002,0.076c0.207,0.016,0.41,0.032,0.568,0.059l0.27-0.023L303.904,9.337z M302.842,20.798c0-0.091-0.125-0.18-0.311-0.265
			H302.5c-0.002,0.073-0.01,0.434-0.014,0.609C302.713,21.046,302.842,20.937,302.842,20.798 M296.436,14.042
			c0.01-0.071,0.027-0.13,0.045-0.194c-0.07,0.015-0.146,0.023-0.225,0.021L296.436,14.042z M301.727,29.676
			c6.221,0,11.283-4.862,11.283-10.841c0-5.608-4.455-10.234-10.137-10.787c-0.008,0.021-0.012,0.042-0.016,0.062
			c-0.023,0.106-0.045,0.201-0.059,0.287c2.543,0.237,4.836,1.321,6.568,2.954l-1.244,1.196l0.045-0.209l-0.162-0.07l-0.225-0.013
			l0.047-0.14l-0.148-0.488l-0.313-0.327l-0.973-0.494l-0.08,0.087l-0.176,0.05c0.332,0.472,0.51,1.018,0.51,1.571
			c0,0.071,0,0.143-0.002,0.213l0.48,0.582l-0.227,0.05l0.152,0.216l-0.428,0.409l-0.17-0.312c-0.08,0.218-0.189,0.42-0.32,0.608
			c0.029,0.029,0.063,0.059,0.092,0.087l-1.309,1.258c-0.08-0.073-0.16-0.142-0.248-0.209c-0.125,0.056-0.252,0.107-0.381,0.157
			c0.035,0.024,0.07,0.052,0.109,0.081l-0.068,0.064l-0.15,0.084l-0.057,0.147l-0.098-0.094l-0.275,0.089l0.074,0.118l0.191-0.051
			l0.125,0.009l0.01-0.063l0.096-0.046l0.027-0.056l0.174-0.046l0.135-0.005c0.023,0.022,0.051,0.045,0.078,0.068l-0.521,0.499
			l-0.039-0.054l-0.543,0.087l-0.119,0.117l-0.123,0.013l0.342-0.31l-0.121-0.059l-0.318,0.404l0.094-0.01l-0.002,0.15l0.111,0.042
			l0.025,0.162l-0.189-0.04l-0.199,0.037l-0.477-0.236c0,0-0.027,1.23-0.041,1.849c1.127,0.364,2.322,0.89,2.322,2.271
			c0,0.605-0.271,1.095-0.809,1.457l0.002,0.001c-0.004,0.006-0.016,0.009-0.025,0.014l0,0c-0.012,0.007-0.023,0.015-0.037,0.023
			c-0.453,0.29-1.039,0.444-1.547,0.597c-0.004,0-0.016,0.966-0.016,0.966c0.809,0.386,1.787,0.947,1.695,2.552
			c-0.008,0.396-0.17,0.504-0.307,0.539c-0.471,0.113-0.961,0.188-1.457,0.222c-0.006,0.126-0.008,0.244-0.008,0.354
			c2.174-0.144,4.139-1.027,5.623-2.388l1.309,1.258c-1.961,1.817-4.625,2.933-7.559,2.933c-2.916,0-5.566-1.105-7.526-2.9
			l1.31-1.26c1.471,1.334,3.404,2.203,5.545,2.354c0-0.107-0.004-0.228-0.006-0.353c-2.035-0.152-3.877-0.979-5.281-2.252
			l0.352-0.337l0.48,0.054l0.254-0.263l0.668,0.022l0.102-0.224l-0.023-0.095c0.969,0.707,2.141,1.173,3.416,1.3
			c-0.002-0.137-0.006-0.257-0.008-0.354c-1.406-0.15-2.682-0.733-3.668-1.612l1.311-1.26c0.318,0.271,0.676,0.505,1.063,0.687
			c0.029-0.12,0.072-0.23,0.133-0.334c-0.338-0.16-0.654-0.363-0.938-0.603l1.316-1.262c0.209,0.16,0.445,0.289,0.701,0.377
			c-0.004-0.126-0.004-0.257-0.006-0.381c-0.158-0.065-0.301-0.148-0.438-0.247l0.371-0.356c-0.129-0.037-0.26-0.075-0.391-0.119
			l-0.248,0.237c-0.125-0.135-0.232-0.285-0.313-0.447c-0.227-0.098-0.445-0.208-0.652-0.335c-0.809-0.511-1.215-1.229-1.215-2.138
			c0-0.697,0.201-1.224,0.529-1.632l-1.309-1.254c0.943-0.867,2.154-1.461,3.502-1.658c-0.004-0.122-0.004-0.239-0.006-0.354
			c-1.447,0.199-2.746,0.836-3.752,1.764l-0.223-0.214c-0.049,0.083-0.105,0.192-0.174,0.329l0.141,0.134
			c-1.127,1.151-1.826,2.69-1.855,4.385h-1.853c0.027-2.187,0.936-4.172,2.394-5.644l0.59,0.564c0.025,0,0.053,0,0.084-0.004
			c0.102-0.007,0.221-0.038,0.334-0.09l-0.748-0.722c0.395-0.368,0.824-0.7,1.291-0.991c0.033-0.12,0.066-0.225,0.09-0.263
			c0.021-0.043,0.143-0.192,0.279-0.366c-0.699,0.375-1.348,0.837-1.92,1.369l-1.31-1.259c1.716-1.606,3.983-2.676,6.499-2.922
			c-0.008-0.043-0.014-0.074-0.014-0.074c-0.021-0.084-0.037-0.176-0.057-0.271c-5.668,0.566-10.103,5.186-10.103,10.783
			C290.446,24.813,295.506,29.676,301.727,29.676 M304.162,22.186l-0.004-0.007l0.006,0.006
			C304.164,22.185,304.164,22.186,304.162,22.186 M309.627,11.6c1.842,1.86,2.986,4.366,3.016,7.124h-1.854
			c-0.02-1.363-0.365-2.656-0.971-3.803l0.02-0.032l0.127,0.064l0.031-0.092l-0.334-0.561l-0.391-0.522l-0.463-0.37
			c-0.156-0.188-0.32-0.373-0.496-0.55L309.627,11.6z M307.262,13.885l0.445,0.018l0.107,0.123l-0.051,0.181l0.615,0.371
			l0.125-0.015l0.787,0.872l0.324-0.112c0.504,1.037,0.791,2.188,0.807,3.401h-1.854c-0.008-0.465-0.07-0.917-0.172-1.354
			l0.082-0.11l0.117-0.559l-0.09-0.599l-0.223-0.691l-0.518-0.726l0.127,0.063l0.063-0.062l-0.414-0.271l-0.027,0.09l0.414,0.569
			l0.236,0.468l0.168,0.463l0.051,0.311l0.088,0.526l-0.156,0.012c0,0-0.18-0.322-0.236-0.456l0.086-0.116l-0.16-0.219v-0.218
			l-0.111-0.137l-0.141,0.017c-0.053-0.089-0.104-0.18-0.158-0.267l0.1,0.049l0.027-0.024l-0.055-0.111l0.121-0.066l-0.055-0.067
			l-0.178,0.067l0.064-0.27l-0.104-0.06l-0.098,0.215c-0.201-0.291-0.428-0.566-0.674-0.823L307.262,13.885z M306.891,18.058
			l0.332-0.173l0.34-0.05l0.076-0.158l0.189-0.111l0.07-0.152l0.063-0.261c0.025,0.093,0.049,0.187,0.072,0.279l-0.178,0.517
			l-0.008,0.173l0.26-0.334c0.057,0.305,0.088,0.618,0.092,0.937h-1.623l-0.037-0.135l0.186-0.145l0.039-0.089l0.084-0.056
			l0.217-0.022l0.023-0.096L306.891,18.058z M304.664,16.835l0.166-0.036l-0.004-0.038l-0.166-0.108l0.055-0.336l0.199-0.188
			c0.121,0.133,0.24,0.278,0.346,0.428l-0.07,0.206l-0.182-0.123l-0.137,0.036l0.066,0.124h0.07l-0.076,0.179l-0.055-0.071
			L304.664,16.835z M305.377,22.751l-0.4-0.11l-0.121,0.044l-0.227-0.166l-0.213-0.073c0.105-0.075,0.209-0.15,0.307-0.231
			l0.328,0.224l0.252,0.128l0.127,0.121L305.377,22.751z M305.174,15.878l1.309-1.262c0.309,0.32,0.58,0.672,0.813,1.048
			l-0.164,0.045l0.01,0.279l0.49,0.298c0.125,0.258,0.227,0.522,0.307,0.798l-0.082,0.122l-0.18,0.107l-0.045,0.262l-0.119,0.063
			l-0.104,0.118l-0.102-0.037l-0.184-0.006l0.107-0.139l0.076-0.355l0.119-0.073l-0.352-0.324l-0.264,0.085l-0.061,0.239
			l-0.168,0.176l-0.174-0.138l-0.061-0.148l0.1-0.058l0.053,0.098l0.082-0.029l-0.035-0.159l-0.113-0.01l-0.01,0.066l-0.076,0.014
			l-0.406-0.456l-0.139-0.103l0.055-0.053l0.123-0.044l-0.113-0.043c0,0-0.146,0.033-0.16,0.033l0.08,0.098l-0.207-0.004
			C305.457,16.207,305.32,16.037,305.174,15.878 M305.84,22.585l-0.176-0.17l0.135-0.17l0.174-0.336l-0.066-0.096l0.111-0.246
			l-0.01-0.225l-0.07-0.23l-0.162-0.056l-0.061,0.131l-0.098-0.024c0.139-0.214,0.289-0.416,0.391-0.651l0.164-0.069l0.094-0.119
			l0.049,0.05l0.109-0.132l-0.088-0.109l0.08-0.021l0.152,0.059l0.285,0.007l0.174-0.086l0.453-0.115l-0.086-0.146l-0.029-0.175
			l0.244,0.102l0.09-0.05l-0.045-0.183l-0.297,0.108l-0.33-0.064l-0.248-0.489h1.418c-0.064,1.566-0.734,2.987-1.789,4.051
			l-0.195-0.186l0.084-0.253l-0.154-0.549L305.84,22.585z M306.092,26.061l0.174-0.36l-0.068-0.159l0.258-0.216v-0.132l-0.219-0.131
			l0.18-0.347l0.271-0.341l-0.271-0.284h-0.203l-0.127-0.194c0.109-0.088,0.219-0.177,0.322-0.269l1.311,1.257
			C307.227,25.336,306.684,25.73,306.092,26.061 M307.725,24.396l0.143-0.156l-0.135-0.688l-0.096-0.036l0.057-0.115l-0.307-0.094
			l-0.063,0.245l-0.029,0.313l-0.064,0.058l-0.564-0.546c1.123-1.125,1.834-2.634,1.898-4.298h1.855
			c-0.064,2.157-0.982,4.111-2.443,5.562L307.725,24.396z M308.236,24.887c1.525-1.516,2.488-3.559,2.551-5.809h1.854
			c-0.064,2.743-1.234,5.23-3.094,7.068L308.236,24.887z M297.078,23.161c-0.135-0.135-0.264-0.273-0.385-0.419l0.055-0.449
			l-0.193-0.433l-0.047-0.678l-0.221-0.409l0.047-0.257l-0.266-0.487l-0.23-0.109l0.094-0.262l-0.098-0.205l0.098-0.234h0.252
			l0.088-0.141h0.436l0.068,0.121l-0.082,0.424l-0.053,0.072l0.164,0.341l-0.109,0.056l-0.076-0.089l-0.031,0.033l0.078,0.2
			l0.125,0.239l0.059-0.008l0.035-0.21l-0.061-0.078l-0.01-0.144l-0.014-0.296l0.088-0.522l-0.086-0.14h0.311
			c0.061,1.091,0.535,2.078,1.275,2.823L297.078,23.161z M295.852,19.678l-0.176,0.262h-0.299l-0.023-0.016
			c-0.053-0.275-0.086-0.561-0.094-0.846h0.557l-0.133,0.429L295.852,19.678z M296.463,18.453l0.035-0.352l0.217-0.124l0.395,0.064
			l0.057,0.069c-0.033,0.201-0.053,0.405-0.057,0.612h-0.445L296.463,18.453z M298.344,19.786l0.092-0.046l0.242,0.176l-0.104,0.082
			l0.27,0.176l-0.012-0.187l0.143-0.233l0.152,0.156l0.154,0.214l-0.279,0.061l0.127,0.244l0.193-0.101l-0.023-0.077l0.145-0.094
			l0.088-0.388c0.107,0.229,0.25,0.44,0.424,0.624l-1.309,1.259c-0.625-0.63-1.045-1.453-1.148-2.365l0.268,0.275l0.254-0.006
			L298.344,19.786z M297.002,14.587l1.309,1.259c-0.275,0.289-0.508,0.612-0.695,0.962l-0.094-0.005l-0.182,0.057l-0.064-0.005
			l-0.195,0.174l0.244-0.038l0.227-0.055c-0.014,0.026-0.029,0.055-0.039,0.084l-0.195,0.115h-0.094l-0.287,0.208l-0.277-0.021
			l-0.404,0.72l0.08,0.146l-0.219,0.231l-0.035,0.304h-0.822C295.283,17.128,295.939,15.676,297.002,14.587 M295.307,24.089
			l0.418,0.234l0.084,0.054l-0.303,0.294c-0.141-0.143-0.275-0.287-0.406-0.436L295.307,24.089z M294.891,19.078
			c0.006,0.172,0.023,0.343,0.043,0.514l-0.227,0.048l-0.047,0.223l-0.474,0.578l0.014,0.795l-0.486,0.152l-0.266,0.002
			c-0.244-0.73-0.387-1.507-0.41-2.312H294.891z M293.063,21.38l-0.111-0.021l-0.104-0.11l-0.52-0.045l0.164,0.213l-0.484-0.089
			l0.125-0.11l-0.115-0.112l-0.35,0.146l-0.123,0.222l0.047,0.506l0.4,0.921l0.193,0.29l0.109,0.039l-0.303-0.554l-0.068-0.279
			l0.068-0.068l-0.039-0.153l0.18,0.022l0.279,0.405l0.07,0.026l-0.008-0.297l0.115,0.063l0.021,0.162l0.297,0.076l0.123-0.085
			l0.039,0.026l-0.002,0.217l0.127,0.153l0.158,0.034l0.346,0.56l0.207,0.056l0.066-0.262c0.359,0.574,0.788,1.107,1.276,1.584
			l-1.31,1.262c-1.881-1.842-3.061-4.34-3.127-7.1h1.854C292.692,19.875,292.831,20.647,293.063,21.38 M293.86,11.57l1.31,1.259
			c-1.524,1.538-2.472,3.614-2.503,5.895h-1.854C290.847,15.95,291.999,13.432,293.86,11.57 M307.283,10.921l-0.115-0.173
			l-0.242-0.118l-0.189,0.139l0.242,0.123l0.271,0.188L307.283,10.921z M306.156,15.948l0.008,0.137l0.32-0.093l0.098-0.189
			l-0.219-0.279l0.119-0.169l0.299,0.205l0.055-0.042l-0.059-0.043l-0.068-0.123l0.121-0.066l-0.119-0.15l-0.283,0.136l-0.098,0.164
			l-0.055,0.146l0.125,0.199l-0.047,0.097L306.156,15.948z M292.755,23.938l0.021-0.079l-0.168-0.349l-0.197-0.071L292.755,23.938z
			 M300.334,17.242c0,0.302,0.188,0.51,0.533,0.691c0,0-0.002-0.05-0.004-0.133l-0.217-0.205l0.115-0.202l0.092-0.025
			c-0.004-0.348-0.014-0.739-0.016-0.794l-0.018,0.001C300.508,16.744,300.334,16.95,300.334,17.242"/>
		<path fill="#FFFFFF" d="M302.402,24.965c0.582,0.283,1.121,0.673,1.344,1.415c0.098-1.229-0.619-1.76-1.326-2.119
			C302.42,24.263,302.402,24.965,302.402,24.965"/>
		<path fill="#FFFFFF" d="M306.27,12.515c0-1.116-0.84-2.354-2.904-2.789c-0.15-0.031-0.385-0.056-0.625-0.069
			c-0.006,0.167-0.016,0.552-0.016,0.552c-0.002,0.121-0.014,0.569-0.016,0.664c0.189,0.016,0.33,0.041,0.396,0.053
			c1.195,0.274,1.627,0.935,1.627,1.59c0,1.059-0.941,1.456-2.098,1.758c-0.127,0.032-0.256,0.064-0.387,0.095
			c-0.348,0.084-0.713,0.166-1.068,0.257c-0.125,0.033-0.252,0.068-0.379,0.106c-1.283,0.376-2.387,0.969-2.387,2.491
			c0,1.509,1.26,2.073,2.486,2.436c-0.006-0.433-0.018-0.87-0.025-1.309c-0.545-0.243-0.924-0.563-0.924-1.105
			c0-0.529,0.346-0.848,0.877-1.08c0.119-0.051,0.246-0.096,0.381-0.142c0.305-0.1,0.652-0.185,1.01-0.27
			c0.125-0.026,0.256-0.058,0.385-0.087C304.332,15.261,306.27,14.743,306.27,12.515"/>
		<path fill="#FFFFFF" d="M300.057,23.151c0.004,0.61,0.469,0.943,0.936,1.195c0-0.104-0.018-1.046-0.018-1.063
			c0.01-0.188,0.199-0.301,0.35-0.372c0.227-0.101,0.455-0.175,0.744-0.272c0.137-0.045,0.258-0.092,0.391-0.129
			c0.938-0.271,2.023-0.618,2.023-1.715c0-1.098-0.934-1.548-1.949-1.886c-0.006,0.352-0.016,0.86-0.025,1.215
			c0.43,0.162,0.713,0.358,0.713,0.671c0,0.393-0.436,0.621-0.746,0.734c-0.129,0.05-0.322,0.11-0.379,0.126
			c-0.248,0.074-0.516,0.162-0.768,0.25c-0.131,0.049-0.262,0.1-0.379,0.157C300.512,22.28,300.053,22.597,300.057,23.151"/>
		<path fill="#FFFFFF" d="M300.691,9.831c-0.623,0.171-0.992,0.396-1.129,0.443c-0.404,0.127-0.977,0.151-1.566,0.766
			c-0.102,0.109-0.359,0.417-0.537,0.671c-0.178,0.246-0.189,0.642-0.316,0.854c-0.189,0.307-0.146,0.483-0.146,0.483l0.006,0.01
			c-0.008,0.038-0.043,0.2-0.219,0.385c-0.195,0.211-0.453,0.327-0.762,0.28c0.268,0.127,0.639-0.054,0.639-0.054
			s-0.072,0.196-0.143,0.514c0.301-0.656,0.578-0.895,0.666-0.961c0.129,0.028,0.398,0.016,0.896-0.257
			c0.561-0.31,1.406-0.818,1.645-1.139c0.258-0.344,0.613-0.574,1-0.722C300.713,10.621,300.699,10.192,300.691,9.831
			 M298.318,11.874l-0.291,0.061l0.348-0.548l0.406,0.015L298.318,11.874z"/>
		<path fill="#FFFFFF" d="M301.852,23.077c-0.053,0.018-0.191,0.077-0.281,0.107c-0.096,0.029-0.213,0.079-0.213,0.109
			c0,0.007,0.088,4.725,0.088,4.829c0,0.97,0.516,0.976,0.516,0c0-0.069,0.105-5.112,0.105-5.112S301.941,23.048,301.852,23.077"/>
		<path fill="#FFFFFF" d="M301.318,21.521c0.164-0.053,0.322-0.102,0.471-0.145c0.113-0.032,0.217-0.063,0.313-0.094
			c0.006-0.297,0.092-4.403,0.111-5.147c-0.387,0.092-0.721,0.178-0.996,0.274C301.232,16.969,301.313,21.07,301.318,21.521"/>
		<path fill="#FFFFFF" d="M301.752,5.799c-1.447,0-0.834,2.06-0.719,2.732c0.004,0.032,0.119,4.655,0.139,5.718
			c0.221-0.056,0.439-0.108,0.65-0.157c0.148-0.036,0.295-0.072,0.436-0.104c0.023-1.022,0.127-5.436,0.133-5.464
			C302.475,7.805,303.234,5.799,301.752,5.799"/>
		<path fill="#FFFFFF" d="M322.957,8.339c1.377,0,2.639,1.149,2.639,3.823s-1.262,3.824-2.639,3.824
			c-1.379,0-2.645-1.15-2.645-3.824S321.578,8.339,322.957,8.339 M322.957,14.944c0.768,0,1.387-0.737,1.387-2.782
			c0-2.044-0.619-2.779-1.387-2.779c-0.77,0-1.389,0.735-1.389,2.779C321.568,14.207,322.188,14.944,322.957,14.944"/>
		<path fill="#FFFFFF" d="M326.414,11.299c0-0.34-0.008-0.659-0.037-0.904h1.064c0.01,0.332,0.037,0.672,0.037,1.001h0.02
			c0.145-0.425,0.514-1.086,1.246-1.086c0.076,0,0.131,0.021,0.197,0.032v1.237c-0.104-0.033-0.209-0.055-0.33-0.055
			c-0.488,0-1.02,0.33-1.02,1.353v3.004h-1.178"/>
		<path fill="#FFFFFF" d="M329.545,16.732c0.275,0.171,0.83,0.469,1.447,0.469c1.109,0,1.289-0.863,1.289-1.727v-0.521h-0.018
			c-0.191,0.426-0.523,0.927-1.295,0.927c-0.684,0-1.707-0.512-1.707-2.728c0-1.512,0.484-2.843,1.764-2.843
			c0.715,0,1.047,0.458,1.295,0.937h0.039c0-0.288,0.027-0.565,0.037-0.853h1.063c-0.016,0.287-0.039,0.576-0.039,0.864v4.046
			c0,1.715-0.465,2.94-2.258,2.94c-0.777,0-1.396-0.223-1.684-0.341 M331.246,14.91c0.74,0,1.035-0.595,1.035-1.84
			c0-1.152-0.389-1.771-0.951-1.76c-0.615,0.013-0.852,0.652-0.852,1.768C330.479,14.369,330.848,14.91,331.246,14.91"/>
		<path fill="#FFFFFF" d="M334.592,10.715c0.332-0.169,0.797-0.404,1.551-0.404c1.518,0,1.867,0.829,1.867,2.204v2.396
			c0,0.395,0.037,0.758,0.066,0.971h-1.063c-0.057-0.213-0.066-0.478-0.066-0.746h-0.021c-0.293,0.447-0.664,0.831-1.367,0.831
			c-0.758,0-1.465-0.586-1.465-1.608c0-1.491,1.086-1.863,2.578-1.863h0.236v-0.203c0-0.543-0.236-1.044-0.914-1.044
			c-0.586,0-1.109,0.319-1.336,0.534 M336.908,13.195h-0.104c-1.008,0-1.605,0.235-1.605,1.034c0,0.5,0.293,0.842,0.75,0.842
			c0.705,0,0.959-0.585,0.959-1.564V13.195z"/>
		<path fill="#FFFFFF" d="M338.959,11.299c0-0.34-0.01-0.659-0.039-0.904h1.104c0.01,0.278,0.039,0.564,0.039,0.841h0.025h-0.006
			c0.172-0.33,0.502-0.926,1.301-0.926c1.109,0,1.443,0.926,1.443,2.035v3.536h-1.18V12.59c0-0.841-0.188-1.194-0.674-1.194
			c-0.615,0-0.836,0.588-0.836,1.289v3.196h-1.178"/>
		<path fill="#FFFFFF" d="M343.797,8.063h1.219v1.3h-1.219 M343.814,10.395h1.178v5.486h-1.178V10.395z"/>
		<polyline fill="#FFFFFF" points="345.855,14.742 347.947,11.396 345.922,11.396 345.922,10.396 349.125,10.396 349.125,11.524 
			347.072,14.879 349.188,14.879 349.188,15.882 345.855,15.882 		"/>
		<path fill="#FFFFFF" d="M350.176,10.715c0.334-0.169,0.795-0.404,1.547-0.404c1.523,0,1.871,0.829,1.871,2.204v2.396
			c0,0.395,0.039,0.758,0.066,0.971h-1.063c-0.057-0.213-0.066-0.478-0.066-0.746h-0.021c-0.293,0.447-0.664,0.831-1.365,0.831
			c-0.76,0-1.465-0.586-1.465-1.608c0-1.491,1.084-1.863,2.574-1.863h0.24v-0.203c0-0.543-0.24-1.044-0.914-1.044
			c-0.586,0-1.113,0.319-1.338,0.534 M352.494,13.195h-0.107c-1.004,0-1.602,0.235-1.602,1.034c0,0.5,0.293,0.842,0.748,0.842
			c0.703,0,0.961-0.585,0.961-1.564V13.195z"/>
		<path fill="#FFFFFF" d="M357.639,15.743c-0.275,0.118-0.684,0.222-1.158,0.222h-0.057l-0.17,0.574
			c0.092-0.031,0.211-0.063,0.371-0.063c0.521,0,0.824,0.331,0.824,0.787c0,0.674-0.588,0.982-1.053,0.982
			c-0.398,0-0.809-0.108-0.998-0.214l0.152-0.426c0.189,0.074,0.383,0.147,0.662,0.147c0.316,0,0.498-0.179,0.498-0.436
			c0-0.245-0.182-0.394-0.438-0.394c-0.17,0-0.287,0.031-0.369,0.074l-0.172-0.181l0.283-0.894
			c-1.289-0.234-1.832-1.396-1.832-2.782c0-1.563,0.721-2.833,2.361-2.833c0.373,0,0.809,0.127,1.029,0.226l-0.064,1.044
			c-0.211-0.119-0.506-0.268-0.83-0.268c-0.891,0-1.281,0.672-1.281,1.843c0,1.021,0.438,1.811,1.342,1.811
			c0.281,0,0.674-0.149,0.834-0.268"/>
		<path fill="#FFFFFF" d="M358.688,10.715c0.332-0.169,0.797-0.404,1.549-0.404c1.52,0,1.869,0.829,1.869,2.204v2.396
			c0,0.395,0.037,0.758,0.064,0.971h-1.059c-0.059-0.213-0.066-0.478-0.066-0.746h-0.023c-0.293,0.447-0.664,0.831-1.367,0.831
			c-0.758,0-1.465-0.586-1.465-1.608c0-1.491,1.086-1.863,2.576-1.863h0.238v-0.203c0-0.543-0.238-1.044-0.914-1.044
			c-0.586,0-1.109,0.319-1.336,0.534 M358.865,9.672c0-0.373,0.18-1.226,0.896-1.246c0.434,0,0.807,0.359,1.09,0.359
			c0.193,0,0.275-0.202,0.275-0.413h0.59c0,0.309-0.182,1.244-0.885,1.244c-0.369,0-0.721-0.361-1.063-0.361
			c-0.236,0-0.352,0.192-0.352,0.417H358.865z M361.004,13.195H360.9c-1.008,0-1.604,0.235-1.604,1.034
			c0,0.5,0.293,0.842,0.746,0.842c0.707,0,0.961-0.585,0.961-1.564V13.195z"/>
		<path fill="#FFFFFF" d="M365.08,10.311c0.994,0,2.146,0.586,2.146,2.821c0,2.303-1.152,2.834-2.146,2.834
			c-0.998,0-2.158-0.531-2.158-2.834C362.922,10.896,364.082,10.311,365.08,10.311 M365.08,15.029c0.758,0,0.93-0.979,0.93-1.897
			c0-0.916-0.172-1.887-0.93-1.887c-0.756,0-0.941,0.971-0.941,1.887C364.139,14.05,364.324,15.029,365.08,15.029"/>
		<polyline fill="#FFFFFF" points="326.117,19.913 326.1,19.913 324.436,26.111 323.574,26.111 321.986,19.913 321.965,19.913 
			321.965,26.111 320.863,26.111 320.863,18.678 322.676,18.678 324.045,24.226 324.066,24.226 325.459,18.678 327.219,18.678 
			327.219,26.111 326.117,26.111 		"/>
		<path fill="#FFFFFF" d="M332.031,25.207c0,0.341,0.012,0.658,0.039,0.903h-1.102c-0.01-0.276-0.037-0.563-0.037-0.839
			l-0.031-0.014l0.01,0.014c-0.227,0.405-0.533,0.926-1.301,0.926c-1.109,0-1.443-0.926-1.443-2.034v-3.538h1.178v3.292
			c0,0.843,0.211,1.193,0.703,1.193c0.625,0,0.807-0.639,0.807-1.342v-3.144h1.178"/>
		<path fill="#FFFFFF" d="M333.047,21.532c0-0.341-0.01-0.659-0.037-0.907h1.1c0.01,0.279,0.041,0.566,0.041,0.842h0.025h-0.008
			c0.172-0.327,0.504-0.926,1.303-0.926c1.109,0,1.443,0.926,1.443,2.035v3.535h-1.178v-3.29c0-0.843-0.189-1.193-0.676-1.193
			c-0.615,0-0.834,0.586-0.834,1.289v3.194h-1.18"/>
		<path fill="#FFFFFF" d="M341.9,18.124v7.05c0,0.396,0.01,0.737,0.039,0.938h-1.102c-0.018-0.16-0.039-0.479-0.039-0.852h-0.025
			c-0.193,0.47-0.545,0.937-1.303,0.937c-1.217,0-1.721-1.299-1.721-2.821c0-1.79,0.637-2.834,1.689-2.834
			c0.705,0,1.094,0.449,1.264,0.874h0.02v-3.291 M339.791,25.227c0.693,0,0.932-0.84,0.932-1.872c0-1.066-0.266-1.843-0.912-1.843
			c-0.654,0-0.883,0.713-0.883,1.809C338.928,24.588,339.107,25.227,339.791,25.227"/>
		<path fill="#FFFFFF" d="M342.846,18.294h1.217v1.298h-1.217 M342.865,20.626h1.178v5.482h-1.178V20.626z"/>
		<path fill="#FFFFFF" d="M345.365,20.947c0.332-0.173,0.797-0.404,1.549-0.404c1.521,0,1.869,0.828,1.869,2.203v2.397
			c0,0.393,0.039,0.756,0.066,0.967h-1.061c-0.057-0.211-0.068-0.478-0.068-0.743h-0.02c-0.295,0.446-0.666,0.829-1.369,0.829
			c-0.758,0-1.461-0.585-1.461-1.607c0-1.489,1.08-1.865,2.572-1.865h0.238v-0.202c0-0.543-0.238-1.041-0.912-1.041
			c-0.586,0-1.111,0.317-1.338,0.53 M347.682,23.428h-0.104c-1.006,0-1.605,0.235-1.605,1.034c0,0.5,0.295,0.842,0.75,0.842
			c0.705,0,0.959-0.586,0.959-1.568V23.428z"/>
		<rect x="349.896" y="18.124" fill="#FFFFFF" width="1.178" height="7.987"/>
		<path fill="#FFFFFF" d="M358.822,18.124v7.05c0,0.396,0.01,0.737,0.041,0.938h-1.102c-0.016-0.16-0.037-0.479-0.037-0.852h-0.029
			c-0.189,0.47-0.543,0.937-1.301,0.937c-1.217,0-1.721-1.299-1.721-2.821c0-1.79,0.637-2.834,1.689-2.834
			c0.705,0,1.094,0.449,1.266,0.874h0.016v-3.291 M356.719,25.227c0.689,0,0.926-0.84,0.926-1.872c0-1.066-0.266-1.843-0.91-1.843
			c-0.654,0-0.883,0.713-0.883,1.809C355.852,24.588,356.031,25.227,356.719,25.227"/>
		<path fill="#FFFFFF" d="M360.053,20.947c0.33-0.173,0.793-0.404,1.547-0.404c1.52,0,1.871,0.828,1.871,2.203v2.397
			c0,0.393,0.037,0.756,0.064,0.967h-1.063c-0.057-0.211-0.066-0.478-0.066-0.743h-0.021c-0.295,0.446-0.662,0.829-1.367,0.829
			c-0.756,0-1.463-0.585-1.463-1.607c0-1.489,1.084-1.865,2.576-1.865h0.236v-0.202c0-0.543-0.236-1.041-0.912-1.041
			c-0.588,0-1.111,0.317-1.336,0.53 M362.367,23.428h-0.104c-1.006,0-1.604,0.235-1.604,1.034c0,0.5,0.291,0.842,0.748,0.842
			c0.703,0,0.959-0.586,0.959-1.568V23.428z"/>
		<path fill="#FFFFFF" d="M366.928,24.676c0.238,0.17,0.758,0.455,1.406,0.455c0.531,0,1.006-0.329,1.006-1.075
			c0-0.53-0.273-0.766-0.863-1.126l-0.621-0.386c-0.652-0.403-1.08-0.99-1.08-1.948c0-1.33,0.977-2.023,2.09-2.023
			c0.705,0,1.195,0.203,1.387,0.265l-0.057,1.139c-0.293-0.126-0.682-0.317-1.244-0.317c-0.607,0-0.922,0.363-0.922,0.873
			c0,0.554,0.33,0.768,0.703,1.001l0.713,0.446c0.779,0.49,1.15,0.961,1.15,2.005c0,1.511-0.959,2.235-2.225,2.235
			c-0.662,0-1.178-0.108-1.51-0.33"/>
		<path fill="#FFFFFF" d="M371.689,20.947c0.332-0.173,0.797-0.404,1.549-0.404c1.521,0,1.871,0.828,1.871,2.203v2.397
			c0,0.393,0.037,0.756,0.064,0.967h-1.063c-0.057-0.211-0.064-0.478-0.064-0.743h-0.023c-0.293,0.446-0.664,0.829-1.365,0.829
			c-0.76,0-1.465-0.585-1.465-1.607c0-1.489,1.084-1.865,2.576-1.865h0.238v-0.202c0-0.543-0.238-1.041-0.914-1.041
			c-0.584,0-1.111,0.317-1.338,0.53 M374.008,23.428h-0.105c-1.006,0-1.604,0.235-1.604,1.034c0,0.5,0.293,0.842,0.748,0.842
			c0.705,0,0.961-0.586,0.961-1.568V23.428z"/>
		<path fill="#FFFFFF" d="M379.789,25.207c0,0.34,0.012,0.659,0.037,0.904h-1.1c-0.01-0.277-0.037-0.564-0.037-0.84l-0.029-0.013
			l0.006,0.013c-0.225,0.405-0.531,0.925-1.299,0.925c-1.109,0-1.441-0.925-1.441-2.033v-3.537h1.176v3.292
			c0,0.842,0.211,1.192,0.703,1.192c0.627,0,0.809-0.64,0.809-1.344v-3.141h1.176 M377.908,18.486h1.104l-0.971,1.533h-0.738
			L377.908,18.486z"/>
		<path fill="#FFFFFF" d="M384.822,18.124v7.05c0,0.396,0.01,0.737,0.037,0.938h-1.1c-0.018-0.16-0.039-0.479-0.039-0.852h-0.027
			c-0.189,0.47-0.543,0.937-1.303,0.937c-1.215,0-1.719-1.299-1.719-2.821c0-1.79,0.637-2.834,1.688-2.834
			c0.707,0,1.096,0.449,1.266,0.874h0.02v-3.291 M382.715,25.227c0.693,0,0.93-0.84,0.93-1.872c0-1.066-0.266-1.843-0.912-1.843
			c-0.654,0-0.881,0.713-0.881,1.809C381.852,24.588,382.029,25.227,382.715,25.227"/>
		<path fill="#FFFFFF" d="M389.355,25.846c-0.246,0.116-0.76,0.352-1.461,0.352c-1.578,0-2.262-1.267-2.262-2.747
			c0-1.642,0.768-2.909,2.012-2.909c1.057,0,1.957,0.692,1.957,2.929v0.257h-2.83c0,0.938,0.332,1.502,1.246,1.502
			c0.721,0,1.063-0.244,1.279-0.429 M388.463,22.896c0-0.969-0.285-1.461-0.818-1.461c-0.613,0-0.873,0.736-0.873,1.461H388.463z"/>
		<polygon fill="#FFFFFF" points="285.194,35.221 286.429,35.221 286.429,35.633 285.626,35.633 285.626,36.384 286.386,36.384 
			286.386,36.797 285.626,36.797 285.626,37.63 286.464,37.63 286.464,38.042 285.194,38.042 		"/>
		<path fill="#FFFFFF" d="M286.765,37.498c0.082,0.064,0.27,0.174,0.498,0.174c0.189,0,0.355-0.125,0.355-0.408
			c0-0.203-0.098-0.291-0.305-0.429l-0.221-0.146c-0.232-0.153-0.383-0.375-0.383-0.74c0-0.505,0.346-0.768,0.742-0.768
			c0.246,0,0.422,0.076,0.488,0.101l-0.018,0.434c-0.105-0.051-0.244-0.121-0.441-0.121c-0.217,0-0.328,0.135-0.328,0.331
			c0,0.208,0.119,0.291,0.252,0.378l0.25,0.17c0.275,0.188,0.406,0.366,0.406,0.762c0,0.574-0.338,0.85-0.785,0.85
			c-0.236,0-0.42-0.04-0.533-0.127L286.765,37.498z"/>
		<path fill="#FFFFFF" d="M289.886,37.982c-0.086,0.056-0.295,0.102-0.508,0.102c-0.713,0-1.08-0.627-1.08-1.451
			c0-0.825,0.367-1.453,1.066-1.453c0.238,0,0.436,0.077,0.521,0.118l-0.021,0.465c-0.09-0.054-0.229-0.154-0.443-0.154
			c-0.359,0-0.662,0.291-0.662,1.024c0,0.731,0.303,1.023,0.662,1.023c0.209,0,0.346-0.062,0.443-0.146L289.886,37.982z"/>
		<path fill="#FFFFFF" d="M290.161,35.221h0.732c0.418,0,0.699,0.227,0.699,0.743c0,0.368-0.191,0.615-0.451,0.664v0.011
			c0.084,0.019,0.182,0.063,0.258,0.329l0.303,1.076h-0.453l-0.234-0.918c-0.057-0.223-0.168-0.296-0.326-0.296h-0.1v1.214h-0.428
			V35.221z M290.767,36.45c0.229,0,0.383-0.142,0.383-0.429c0-0.326-0.141-0.404-0.383-0.404h-0.178v0.833H290.767z"/>
		<rect x="291.976" y="35.221" fill="#FFFFFF" width="0.43" height="2.821"/>
		<polygon fill="#FFFFFF" points="293.173,35.634 292.647,35.634 292.647,35.221 294.124,35.221 294.124,35.634 293.601,35.634 
			293.601,38.042 293.173,38.042 		"/>
		<path fill="#FFFFFF" d="M295.055,35.179c0.488,0,0.936,0.436,0.936,1.452c0,1.016-0.447,1.453-0.936,1.453
			c-0.486,0-0.931-0.438-0.931-1.453C294.124,35.614,294.568,35.179,295.055,35.179 M295.055,37.688c0.273,0,0.49-0.28,0.49-1.058
			c0-0.776-0.217-1.054-0.49-1.054c-0.271,0-0.49,0.277-0.49,1.054C294.564,37.408,294.783,37.688,295.055,37.688"/>
		<path fill="#FFFFFF" d="M296.295,35.221h0.734c0.418,0,0.699,0.227,0.699,0.743c0,0.368-0.193,0.615-0.453,0.664v0.011
			c0.086,0.019,0.184,0.063,0.256,0.329l0.307,1.076h-0.455l-0.232-0.918c-0.059-0.223-0.168-0.296-0.326-0.296h-0.1v1.214h-0.43
			V35.221z M296.902,36.45c0.227,0,0.383-0.142,0.383-0.429c0-0.326-0.143-0.404-0.383-0.404h-0.178v0.833H296.902z"/>
		<rect x="298.098" y="35.221" fill="#FFFFFF" width="0.432" height="2.821"/>
		<path fill="#FFFFFF" d="M299.789,35.179c0.486,0,0.934,0.436,0.934,1.452c0,1.016-0.447,1.453-0.934,1.453
			c-0.49,0-0.934-0.438-0.934-1.453C298.855,35.614,299.299,35.179,299.789,35.179 M299.789,37.688c0.271,0,0.49-0.28,0.49-1.058
			c0-0.776-0.219-1.054-0.49-1.054c-0.275,0-0.49,0.277-0.49,1.054C299.299,37.408,299.514,37.688,299.789,37.688"/>
		<path fill="#FFFFFF" d="M301.816,35.221h0.732c0.416,0,0.697,0.227,0.697,0.743c0,0.368-0.189,0.615-0.451,0.664v0.011
			c0.086,0.019,0.182,0.063,0.258,0.329l0.305,1.076h-0.455l-0.232-0.918c-0.059-0.223-0.168-0.296-0.328-0.296h-0.098v1.214h-0.428
			V35.221z M302.422,36.45c0.227,0,0.383-0.142,0.383-0.429c0-0.326-0.143-0.404-0.383-0.404h-0.178v0.833H302.422z"/>
		<polygon fill="#FFFFFF" points="303.621,35.221 304.857,35.221 304.857,35.633 304.053,35.633 304.053,36.384 304.813,36.384 
			304.813,36.797 304.053,36.797 304.053,37.63 304.891,37.63 304.891,38.042 303.621,38.042 		"/>
		<path fill="#FFFFFF" d="M306.154,36.462h0.76v1.476c-0.119,0.077-0.328,0.146-0.635,0.146c-0.752,0-1.152-0.615-1.152-1.451
			c0-0.838,0.4-1.452,1.152-1.452c0.268,0,0.48,0.073,0.572,0.119l-0.023,0.467c-0.139-0.102-0.324-0.174-0.543-0.174
			c-0.455,0-0.703,0.452-0.703,1.04c0,0.634,0.24,1.039,0.684,1.039c0.1,0,0.189-0.025,0.244-0.053v-0.761h-0.355V36.462z"/>
		<rect x="307.32" y="35.221" fill="#FFFFFF" width="0.43" height="2.821"/>
		<path fill="#FFFFFF" d="M309.01,35.179c0.486,0,0.934,0.436,0.934,1.452c0,1.016-0.447,1.453-0.934,1.453
			c-0.488,0-0.934-0.438-0.934-1.453C308.076,35.614,308.521,35.179,309.01,35.179 M309.01,37.688c0.273,0,0.492-0.28,0.492-1.058
			c0-0.776-0.219-1.054-0.492-1.054c-0.275,0-0.49,0.277-0.49,1.054C308.52,37.408,308.734,37.688,309.01,37.688"/>
		<polygon fill="#FFFFFF" points="310.264,35.221 310.775,35.221 311.557,37.437 311.561,37.437 311.561,35.221 311.953,35.221 
			311.953,38.042 311.438,38.042 310.658,35.844 310.652,35.844 310.652,38.042 310.264,38.042 		"/>
		<path fill="#FFFFFF" d="M313.547,37.364h-0.807l-0.17,0.68h-0.43l0.789-2.823h0.471l0.756,2.823h-0.447L313.547,37.364z
			 M313.457,36.968l-0.297-1.318h-0.006l-0.322,1.318H313.457z"/>
		<polygon fill="#FFFFFF" points="314.322,35.221 314.752,35.221 314.752,37.63 315.527,37.63 315.527,38.042 314.322,38.042 		"/>
		<path fill="#FFFFFF" d="M316.533,35.221h0.674c0.484,0,0.738,0.323,0.738,0.858c0,0.533-0.254,0.86-0.738,0.86h-0.24v1.103h-0.434
			V35.221z M317.125,36.543c0.27,0,0.387-0.157,0.387-0.464c0-0.309-0.117-0.463-0.387-0.463h-0.158v0.927H317.125z"/>
		<path fill="#FFFFFF" d="M319.143,37.364h-0.807l-0.168,0.68h-0.43l0.787-2.823h0.471l0.758,2.823h-0.447L319.143,37.364z
			 M319.055,36.968l-0.295-1.318h-0.008l-0.322,1.318H319.055z"/>
		<path fill="#FFFFFF" d="M319.908,35.221h0.732c0.422,0,0.701,0.227,0.701,0.743c0,0.368-0.191,0.615-0.453,0.664v0.011
			c0.086,0.019,0.184,0.063,0.258,0.329l0.307,1.076h-0.457l-0.232-0.918c-0.057-0.223-0.168-0.296-0.328-0.296h-0.096v1.214h-0.432
			V35.221z M320.514,36.45c0.229,0,0.385-0.142,0.385-0.429c0-0.326-0.139-0.404-0.385-0.404h-0.174v0.833H320.514z"/>
		<path fill="#FFFFFF" d="M322.895,37.364h-0.809l-0.17,0.68h-0.43l0.791-2.823h0.469l0.758,2.823h-0.447L322.895,37.364z
			 M322.801,36.968l-0.293-1.318H322.5l-0.322,1.318H322.801z"/>
		<path fill="#FFFFFF" d="M325.475,37.364h-0.807l-0.17,0.68h-0.43l0.789-2.823h0.471l0.756,2.823h-0.443L325.475,37.364z
			 M325.385,36.968l-0.295-1.318h-0.006l-0.324,1.318H325.385z"/>
		<path fill="#FFFFFF" d="M326.242,37.498c0.084,0.064,0.27,0.174,0.498,0.174c0.191,0,0.357-0.125,0.357-0.408
			c0-0.203-0.098-0.291-0.305-0.429l-0.221-0.146c-0.232-0.153-0.381-0.375-0.381-0.74c0-0.505,0.344-0.768,0.74-0.768
			c0.248,0,0.422,0.076,0.488,0.101l-0.018,0.434c-0.104-0.051-0.242-0.121-0.441-0.121c-0.217,0-0.328,0.135-0.328,0.331
			c0,0.208,0.121,0.291,0.25,0.378l0.252,0.17c0.275,0.188,0.406,0.366,0.406,0.762c0,0.574-0.338,0.85-0.785,0.85
			c-0.236,0-0.42-0.04-0.537-0.127L326.242,37.498z"/>
		<polyline fill="#FFFFFF" points="342.754,32.856 343.473,31.121 344.555,31.121 343.473,32.856 		"/>
		<polyline fill="#FFFFFF" points="294.881,34.996 295.238,34.13 295.779,34.13 295.238,34.996 		"/>
		<path fill="#FFFFFF" d="M214.117,7.23c1.659,0,3.181,1.316,3.181,4.376c0,3.062-1.521,4.377-3.181,4.377
			c-1.658,0-3.181-1.315-3.181-4.377C210.937,8.547,212.459,7.23,214.117,7.23 M214.117,14.789c0.927,0,1.668-0.84,1.668-3.183
			c0-2.341-0.741-3.182-1.668-3.182s-1.671,0.841-1.671,3.182C212.446,13.949,213.19,14.789,214.117,14.789"/>
		<path fill="#FFFFFF" d="M218.337,10.619c0-0.391-0.011-0.756-0.046-1.035h1.281c0.012,0.378,0.046,0.767,0.046,1.146h0.022
			c0.172-0.49,0.618-1.244,1.498-1.244c0.092,0,0.161,0.024,0.241,0.035v1.416c-0.125-0.038-0.252-0.062-0.4-0.062
			c-0.583,0-1.225,0.376-1.225,1.548v3.438h-1.418"/>
		<path fill="#FFFFFF" d="M222.218,16.838c0.329,0.194,0.993,0.536,1.737,0.536c1.339,0,1.556-0.987,1.556-1.976v-0.596h-0.023
			c-0.229,0.487-0.631,1.059-1.555,1.059c-0.824,0-2.058-0.584-2.058-3.119c0-1.732,0.583-3.257,2.126-3.257
			c0.855,0,1.258,0.524,1.556,1.074h0.045c0-0.331,0.034-0.647,0.048-0.977h1.279c-0.022,0.329-0.045,0.657-0.045,0.987v4.633
			c0,1.963-0.561,3.365-2.724,3.365c-0.936,0-1.68-0.255-2.022-0.391 M224.266,14.752c0.89,0,1.245-0.682,1.245-2.108
			c0-1.316-0.468-2.024-1.144-2.013c-0.743,0.013-1.029,0.744-1.029,2.025C223.338,14.13,223.783,14.752,224.266,14.752"/>
		<path fill="#FFFFFF" d="M228.29,9.948c0.4-0.194,0.96-0.463,1.863-0.463c1.83,0,2.254,0.951,2.254,2.524v2.742
			c0,0.451,0.045,0.866,0.079,1.109h-1.281c-0.067-0.243-0.079-0.548-0.079-0.854h-0.023c-0.354,0.515-0.8,0.951-1.646,0.951
			c-0.916,0-1.763-0.669-1.763-1.84c0-1.708,1.307-2.135,3.101-2.135h0.286v-0.23c0-0.622-0.286-1.195-1.097-1.195
			c-0.71,0-1.341,0.365-1.614,0.609 M231.08,12.789h-0.126c-1.212,0-1.932,0.269-1.932,1.185c0,0.572,0.353,0.963,0.901,0.963
			c0.848,0,1.156-0.672,1.156-1.794V12.789z"/>
		<path fill="#FFFFFF" d="M233.55,10.619c0-0.391-0.012-0.756-0.046-1.035h1.327c0.012,0.315,0.047,0.645,0.047,0.963h0.035h-0.014
			c0.207-0.378,0.607-1.061,1.565-1.061c1.34,0,1.74,1.061,1.74,2.328v4.047h-1.419v-3.768c0-0.962-0.228-1.363-0.813-1.363
			c-0.742,0-1.006,0.668-1.006,1.474v3.657h-1.418"/>
		<path fill="#FFFFFF" d="M239.429,6.911h1.464v1.49h-1.464 M239.452,9.584h1.419v6.277h-1.419V9.584z"/>
		<polyline fill="#FFFFFF" points="241.796,14.559 244.313,10.73 241.877,10.73 241.877,9.584 245.73,9.584 245.73,10.876 
			243.261,14.716 245.81,14.716 245.81,15.861 241.796,15.861 		"/>
		<path fill="#FFFFFF" d="M246.886,9.948c0.4-0.194,0.959-0.463,1.864-0.463c1.828,0,2.254,0.951,2.254,2.524v2.742
			c0,0.451,0.043,0.866,0.079,1.109h-1.281c-0.07-0.243-0.079-0.548-0.079-0.854h-0.023c-0.355,0.515-0.801,0.951-1.647,0.951
			c-0.915,0-1.762-0.669-1.762-1.84c0-1.708,1.305-2.135,3.1-2.135h0.286v-0.23c0-0.622-0.286-1.195-1.099-1.195
			c-0.708,0-1.338,0.365-1.613,0.609 M249.676,12.789h-0.126c-1.211,0-1.933,0.269-1.933,1.185c0,0.572,0.354,0.963,0.903,0.963
			c0.847,0,1.155-0.672,1.155-1.794V12.789z"/>
		<path fill="#FFFFFF" d="M256.149,15.703c-0.334,0.135-0.825,0.256-1.396,0.256h-0.069l-0.204,0.659
			c0.113-0.036,0.251-0.072,0.446-0.072c0.63,0,0.994,0.377,0.994,0.9c0,0.769-0.71,1.122-1.27,1.122c-0.48,0-0.973-0.121-1.2-0.243
			l0.182-0.488c0.23,0.086,0.459,0.172,0.802,0.172c0.378,0,0.595-0.209,0.595-0.502c0-0.279-0.217-0.45-0.526-0.45
			c-0.206,0-0.343,0.036-0.446,0.085l-0.205-0.207l0.343-1.024c-1.556-0.267-2.208-1.597-2.208-3.183
			c0-1.791,0.869-3.241,2.847-3.241c0.446,0,0.973,0.146,1.236,0.255l-0.079,1.195c-0.253-0.134-0.605-0.306-0.996-0.306
			c-1.075,0-1.543,0.768-1.543,2.111c0,1.17,0.526,2.07,1.611,2.07c0.344,0,0.813-0.17,1.007-0.304"/>
		<path fill="#FFFFFF" d="M257.132,9.948c0.4-0.194,0.96-0.463,1.863-0.463c1.831,0,2.254,0.951,2.254,2.524v2.742
			c0,0.451,0.045,0.866,0.079,1.109h-1.281c-0.067-0.243-0.076-0.548-0.076-0.854h-0.026c-0.353,0.515-0.799,0.951-1.646,0.951
			c-0.916,0-1.762-0.669-1.762-1.84c0-1.708,1.306-2.135,3.1-2.135h0.287v-0.23c0-0.622-0.287-1.195-1.099-1.195
			c-0.708,0-1.339,0.365-1.613,0.609 M257.35,8.754c0-0.428,0.218-1.402,1.074-1.426c0.528,0,0.973,0.413,1.315,0.413
			c0.231,0,0.332-0.229,0.332-0.475h0.711c0,0.353-0.218,1.427-1.067,1.427c-0.444,0-0.867-0.416-1.278-0.416
			c-0.286,0-0.422,0.22-0.422,0.477H257.35z M259.924,12.789h-0.126c-1.212,0-1.934,0.269-1.934,1.185
			c0,0.572,0.354,0.963,0.903,0.963c0.845,0,1.156-0.672,1.156-1.794V12.789z"/>
		<path fill="#FFFFFF" d="M264.829,9.485c1.201,0,2.584,0.671,2.584,3.23c0,2.633-1.383,3.243-2.584,3.243s-2.596-0.61-2.596-3.243
			C262.233,10.156,263.628,9.485,264.829,9.485 M264.829,14.887c0.915,0,1.121-1.122,1.121-2.171c0-1.048-0.206-2.156-1.121-2.156
			c-0.917,0-1.133,1.108-1.133,2.156C263.696,13.765,263.912,14.887,264.829,14.887"/>
		<path fill="#FFFFFF" d="M211.19,18.046h2.286c1.646,0,2.506,0.977,2.506,2.586s-0.859,2.597-2.506,2.597h-0.823v3.328h-1.463
			 M213.202,22.032c0.915,0,1.315-0.476,1.315-1.4c0-0.927-0.4-1.39-1.315-1.39h-0.549v2.79H213.202z"/>
		<path fill="#FFFFFF" d="M216.476,20.643c0.4-0.196,0.96-0.463,1.863-0.463c1.828,0,2.252,0.95,2.252,2.524v2.743
			c0,0.451,0.046,0.865,0.079,1.109h-1.281c-0.068-0.244-0.078-0.549-0.078-0.853h-0.022c-0.354,0.511-0.801,0.949-1.646,0.949
			c-0.916,0-1.763-0.669-1.763-1.841c0-1.707,1.305-2.132,3.1-2.132h0.287v-0.234c0-0.621-0.287-1.192-1.1-1.192
			c-0.708,0-1.338,0.363-1.611,0.606 M219.266,23.482h-0.127c-1.211,0-1.933,0.27-1.933,1.185c0,0.573,0.355,0.962,0.903,0.962
			c0.847,0,1.156-0.671,1.156-1.792V23.482z"/>
		<path fill="#FFFFFF" d="M221.735,21.314c0-0.391-0.013-0.758-0.047-1.036h1.327c0.012,0.315,0.045,0.646,0.045,0.962h0.036h-0.012
			c0.205-0.378,0.605-1.061,1.565-1.061c1.34,0,1.738,1.061,1.738,2.329v4.047h-1.419v-3.769c0-0.962-0.227-1.364-0.811-1.364
			c-0.743,0-1.008,0.672-1.008,1.475v3.658h-1.416"/>
		<rect x="227.338" y="22.472" fill="#FFFFFF" width="2.643" height="1.244"/>
		<path fill="#FFFFFF" d="M235.14,24.51h-2.747l-0.571,2.047h-1.463l2.677-8.511h1.601l2.571,8.511h-1.509 M234.829,23.313
			l-1.005-3.975H233.8l-1.097,3.975H234.829z"/>
		<path fill="#FFFFFF" d="M237.712,21.301c0-0.451-0.022-0.791-0.047-1.024h1.417c0.013,0.331,0.048,0.659,0.048,0.988h0.022
			c0.218-0.485,0.674-1.085,1.485-1.085c0.996,0,1.315,0.657,1.487,1.001c0.287-0.439,0.709-1.001,1.58-1.001
			c1.279,0,1.691,0.976,1.691,2.501v3.876h-1.418v-3.963c0-0.781-0.229-1.171-0.756-1.171c-0.628,0-0.96,0.635-0.96,1.33v3.804
			h-1.418v-3.963c0-0.781-0.229-1.171-0.756-1.171c-0.628,0-0.959,0.635-0.959,1.33v3.804h-1.418"/>
		<path fill="#FFFFFF" d="M250.793,26.251c-0.296,0.136-0.915,0.402-1.762,0.402c-1.896,0-2.72-1.45-2.72-3.145
			c0-1.879,0.927-3.329,2.424-3.329c1.271,0,2.356,0.792,2.356,3.353v0.293h-3.409c0,1.072,0.403,1.72,1.499,1.72
			c0.868,0,1.281-0.28,1.544-0.489 M249.72,22.874c0-1.109-0.344-1.669-0.984-1.669c-0.744,0-1.053,0.841-1.053,1.669H249.72z"/>
		<path fill="#FFFFFF" d="M252.065,21.314c0-0.391-0.014-0.758-0.048-1.036h1.28c0.013,0.378,0.048,0.768,0.048,1.145h0.022
			c0.171-0.487,0.618-1.243,1.497-1.243c0.092,0,0.161,0.024,0.242,0.036v1.415c-0.129-0.035-0.253-0.062-0.4-0.062
			c-0.585,0-1.226,0.379-1.226,1.549v3.438h-1.416"/>
		<path fill="#FFFFFF" d="M255.988,17.606h1.462v1.49h-1.462 M256.01,20.278h1.418v6.279h-1.418V20.278z"/>
		<path fill="#FFFFFF" d="M262.678,26.397c-0.332,0.134-0.824,0.256-1.398,0.256c-1.943,0-2.765-1.451-2.765-3.23
			c0-1.793,0.869-3.242,2.848-3.242c0.445,0,0.97,0.146,1.235,0.256l-0.079,1.193c-0.254-0.134-0.607-0.303-0.997-0.303
			c-1.074,0-1.543,0.768-1.543,2.107c0,1.17,0.524,2.073,1.61,2.073c0.345,0,0.813-0.172,1.009-0.306"/>
		<path fill="#FFFFFF" d="M263.66,20.643c0.401-0.196,0.961-0.463,1.864-0.463c1.829,0,2.254,0.95,2.254,2.524v2.743
			c0,0.451,0.043,0.865,0.079,1.109h-1.28c-0.07-0.244-0.08-0.549-0.08-0.853h-0.023c-0.354,0.511-0.799,0.949-1.646,0.949
			c-0.917,0-1.764-0.669-1.764-1.841c0-1.707,1.306-2.132,3.101-2.132h0.286v-0.234c0-0.621-0.286-1.192-1.099-1.192
			c-0.708,0-1.339,0.363-1.613,0.606 M266.451,23.482h-0.125c-1.213,0-1.934,0.27-1.934,1.185c0,0.573,0.354,0.962,0.902,0.962
			c0.848,0,1.156-0.671,1.156-1.792V23.482z"/>
		<path fill="#FFFFFF" d="M268.921,21.314c0-0.391-0.012-0.758-0.048-1.036h1.332c0.01,0.315,0.043,0.646,0.043,0.962h0.035h-0.012
			c0.205-0.378,0.605-1.061,1.564-1.061c1.342,0,1.74,1.061,1.74,2.329v4.047h-1.418v-3.769c0-0.962-0.229-1.364-0.813-1.364
			c-0.744,0-1.006,0.672-1.006,1.475v3.658h-1.419"/>
		<path fill="#FFFFFF" d="M274.971,20.643c0.401-0.196,0.961-0.463,1.864-0.463c1.828,0,2.254,0.95,2.254,2.524v2.743
			c0,0.451,0.045,0.865,0.079,1.109h-1.282c-0.069-0.244-0.078-0.549-0.078-0.853h-0.023c-0.354,0.511-0.801,0.949-1.647,0.949
			c-0.915,0-1.762-0.669-1.762-1.841c0-1.707,1.307-2.132,3.102-2.132h0.285v-0.234c0-0.621-0.285-1.192-1.1-1.192
			c-0.707,0-1.338,0.363-1.612,0.606 M277.762,23.482h-0.127c-1.212,0-1.933,0.27-1.933,1.185c0,0.573,0.355,0.962,0.903,0.962
			c0.847,0,1.156-0.671,1.156-1.792V23.482z"/>
		<path fill="#FFFFFF" d="M215.891,28.105v8.073c0,0.448,0.011,0.839,0.044,1.072h-1.324c-0.024-0.185-0.048-0.55-0.048-0.975
			h-0.034c-0.229,0.536-0.651,1.072-1.564,1.072c-1.465,0-2.072-1.489-2.072-3.23c0-2.048,0.768-3.245,2.038-3.245
			c0.844,0,1.314,0.514,1.52,1.001h0.022v-3.769 M213.351,36.238c0.835,0,1.121-0.962,1.121-2.145c0-1.22-0.32-2.11-1.099-2.11
			c-0.787,0-1.063,0.817-1.063,2.073C212.31,35.507,212.525,36.238,213.351,36.238"/>
		<path fill="#FFFFFF" d="M217.309,31.338c0.4-0.195,0.959-0.464,1.861-0.464c1.833,0,2.257,0.952,2.257,2.524v2.742
			c0,0.45,0.044,0.867,0.077,1.11h-1.282c-0.066-0.243-0.076-0.55-0.076-0.854h-0.026c-0.353,0.514-0.799,0.952-1.645,0.952
			c-0.916,0-1.761-0.672-1.761-1.842c0-1.708,1.305-2.133,3.099-2.133h0.286v-0.231c0-0.622-0.286-1.196-1.098-1.196
			c-0.71,0-1.338,0.364-1.613,0.61 M220.099,34.179h-0.126c-1.212,0-1.934,0.268-1.934,1.182c0,0.574,0.355,0.963,0.904,0.963
			c0.847,0,1.155-0.671,1.155-1.791V34.179z"/>
		<path fill="#FFFFFF" d="M225.475,35.604c0.286,0.195,0.914,0.525,1.692,0.525c0.639,0,1.211-0.379,1.211-1.23
			c0-0.61-0.331-0.878-1.04-1.294l-0.743-0.439c-0.79-0.462-1.307-1.132-1.307-2.229c0-1.526,1.182-2.318,2.518-2.318
			c0.85,0,1.443,0.232,1.671,0.305l-0.068,1.306c-0.355-0.146-0.823-0.367-1.5-0.367c-0.73,0-1.106,0.416-1.106,1.002
			c0,0.633,0.398,0.878,0.847,1.144l0.855,0.514c0.938,0.56,1.385,1.096,1.385,2.291c0,1.732-1.157,2.562-2.677,2.562
			c-0.8,0-1.418-0.122-1.819-0.376"/>
		<path fill="#FFFFFF" d="M231.203,31.338c0.4-0.195,0.959-0.464,1.865-0.464c1.829,0,2.252,0.952,2.252,2.524v2.742
			c0,0.45,0.045,0.867,0.079,1.11h-1.28c-0.068-0.243-0.078-0.55-0.078-0.854h-0.023c-0.355,0.514-0.801,0.952-1.648,0.952
			c-0.914,0-1.76-0.672-1.76-1.842c0-1.708,1.305-2.133,3.099-2.133h0.285v-0.231c0-0.622-0.285-1.196-1.098-1.196
			c-0.71,0-1.337,0.364-1.612,0.61 M233.993,34.179h-0.125c-1.212,0-1.934,0.268-1.934,1.182c0,0.574,0.355,0.963,0.904,0.963
			c0.846,0,1.154-0.671,1.154-1.791V34.179z"/>
		<path fill="#FFFFFF" d="M241.119,36.215c0,0.389,0.01,0.754,0.043,1.036h-1.324c-0.012-0.318-0.046-0.647-0.046-0.965l-0.034-0.01
			l0.012,0.01c-0.275,0.466-0.64,1.063-1.566,1.063c-1.338,0-1.738-1.063-1.738-2.33v-4.048h1.418v3.768
			c0,0.963,0.25,1.367,0.847,1.367c0.753,0,0.972-0.732,0.972-1.536v-3.599h1.418 M238.855,28.521h1.324l-1.166,1.756h-0.89
			L238.855,28.521z"/>
		<path fill="#FFFFFF" d="M247.067,28.105v8.073c0,0.448,0.009,0.839,0.046,1.072h-1.327c-0.025-0.185-0.046-0.55-0.046-0.975
			h-0.036c-0.228,0.536-0.651,1.072-1.563,1.072c-1.467,0-2.072-1.489-2.072-3.23c0-2.048,0.766-3.245,2.036-3.245
			c0.844,0,1.315,0.514,1.521,1.001h0.023v-3.769 M244.527,36.238c0.834,0,1.122-0.962,1.122-2.145c0-1.22-0.323-2.11-1.1-2.11
			c-0.789,0-1.063,0.817-1.063,2.073C243.486,35.507,243.703,36.238,244.527,36.238"/>
		<path fill="#FFFFFF" d="M252.52,36.946c-0.297,0.134-0.914,0.402-1.761,0.402c-1.897,0-2.722-1.451-2.722-3.146
			c0-1.877,0.928-3.33,2.424-3.33c1.271,0,2.355,0.793,2.355,3.353v0.294h-3.407c0,1.073,0.402,1.719,1.498,1.719
			c0.869,0,1.281-0.279,1.545-0.489 M251.446,33.569c0-1.11-0.344-1.67-0.985-1.67c-0.743,0-1.052,0.841-1.052,1.67H251.446z"/>
		<path fill="#FFFFFF" d="M190.689,39.22c-9.528,0-17.279-7.618-17.279-16.979c0-9.362,7.751-16.979,17.279-16.979
			c9.527,0,17.278,7.616,17.278,16.979C207.968,31.602,200.217,39.22,190.689,39.22 M190.689,6.039
			c-9.093,0-16.488,7.267-16.488,16.201c0,8.934,7.396,16.2,16.488,16.2c9.094,0,16.488-7.267,16.488-16.2
			C207.178,13.306,199.783,6.039,190.689,6.039"/>
		<path fill="#FFFFFF" d="M190.689,34.553c-7.094,0-12.864-5.522-12.864-12.313c0-6.788,5.771-12.312,12.864-12.312
			s12.865,5.523,12.865,12.312C203.555,29.03,197.783,34.553,190.689,34.553 M190.689,10.795c-6.607,0-11.982,5.135-11.982,11.444
			c0,6.313,5.375,11.447,11.982,11.447s11.983-5.135,11.983-11.447C202.673,15.93,197.297,10.795,190.689,10.795"/>
		<polyline fill="#FFFFFF" points="177.041,16.332 177.268,17.164 178.093,17.164 177.493,17.63 177.716,18.357 177.006,17.784 
			176.312,18.41 176.591,17.63 175.879,17.167 176.705,17.184 		"/>
		<path fill="#FFFFFF" d="M177.803,18.481l-0.795-0.641l-0.666,0.602l-0.072-0.046l0.268-0.747l-0.81-0.529l0.946,0.02l0.375-0.946
			l0.252,0.927h0.919l-0.676,0.526 M176.029,17.214l0.614,0.399l-0.232,0.647l0.593-0.534l0.63,0.506l-0.19-0.618l0.523-0.408
			h-0.733l-0.2-0.733l-0.297,0.755L176.029,17.214z"/>
		<polyline fill="#FFFFFF" points="203.396,28.112 203.622,28.943 204.449,28.943 203.85,29.41 204.073,30.14 203.359,29.563 
			202.666,30.188 202.946,29.41 202.232,28.946 203.061,28.964 		"/>
		<path fill="#FFFFFF" d="M204.159,30.263l-0.797-0.644l-0.669,0.604l-0.071-0.047l0.271-0.747l-0.813-0.528l0.948,0.019
			l0.376-0.945l0.249,0.927h0.919l-0.677,0.525 M202.384,28.994L203,29.393l-0.232,0.648l0.59-0.535l0.633,0.509l-0.193-0.618
			l0.525-0.411h-0.733l-0.2-0.734l-0.3,0.758L202.384,28.994z"/>
		<polyline fill="#FFFFFF" points="177.924,27.927 178.15,28.757 178.976,28.757 178.376,29.224 178.6,29.953 177.888,29.378 
			177.192,30.002 177.474,29.224 176.762,28.76 177.587,28.779 		"/>
		<path fill="#FFFFFF" d="M178.685,30.077l-0.795-0.642l-0.668,0.602l-0.07-0.047l0.27-0.747l-0.81-0.528l0.946,0.021l0.374-0.949
			l0.252,0.928h0.919l-0.677,0.524 M176.913,28.808l0.613,0.399l-0.232,0.648l0.592-0.534l0.631,0.508l-0.191-0.621l0.524-0.407
			h-0.734l-0.198-0.734l-0.298,0.757L176.913,28.808z"/>
		<polyline fill="#FFFFFF" points="204.421,15.733 204.723,16.565 205.473,16.565 204.872,17.031 205.097,17.762 204.421,17.144 
			203.691,17.813 203.971,17.031 203.257,16.568 204.085,16.586 		"/>
		<path fill="#FFFFFF" d="M205.186,17.902l-0.765-0.698l-0.702,0.642l-0.071-0.046l0.271-0.75l-0.812-0.526l0.947,0.02l0.37-0.933
			l0.329,0.914h0.847l-0.677,0.523 M203.408,16.616l0.616,0.398l-0.232,0.646l0.629-0.574l0.586,0.535l-0.186-0.604l0.525-0.407
			h-0.655l-0.271-0.751l-0.307,0.772L203.408,16.616z"/>
		<path fill="#FFFFFF" d="M191.705,22.235c0.069-0.002,0.141-0.004,0.206,0"/>
		<polyline fill="#FFFFFF" points="181.937,31.889 182.298,32.213 180.577,34.042 180.189,33.69 180.659,31.703 180.653,31.699 
			179.426,33.003 179.064,32.676 180.787,30.849 181.195,31.219 180.731,33.154 180.738,33.159 		"/>
		<path fill="#FFFFFF" d="M191.333,9.241l-0.562-0.054l1.161-2.365l0.613,0.059l0.648,2.542l-0.576-0.057l-0.113-0.521l-0.942-0.091
			 M191.747,8.342l0.651,0.063l-0.217-1h-0.008L191.747,8.342z"/>
		<polyline fill="#FFFFFF" points="194.779,9.359 195.991,9.738 195.844,10.157 194.124,9.62 194.935,7.3 195.444,7.459 		"/>
		<path fill="#FFFFFF" d="M198.678,10.868c-0.365,0.541-0.859,0.561-1.397,0.226c-0.195-0.12-0.455-0.351-0.506-0.672
			c-0.029-0.197,0.038-0.392,0.17-0.602l0.924-1.361l0.455,0.282l-0.905,1.335c-0.192,0.286-0.106,0.519,0.099,0.647
			c0.308,0.193,0.529,0.128,0.698-0.123l0.917-1.354l0.453,0.287"/>
		<polyline fill="#FFFFFF" points="199.837,12.821 199.423,12.494 200.776,10.943 200.182,10.474 200.472,10.139 202.076,11.408 
			201.784,11.742 201.19,11.271 		"/>
		<path fill="#FFFFFF" d="M188.501,8.667c0.027,0.138,0.141,0.386,0.603,0.32c0.248-0.036,0.516-0.135,0.474-0.394
			c-0.033-0.192-0.23-0.216-0.509-0.239l-0.282-0.021c-0.422-0.032-0.831-0.065-0.923-0.604c-0.046-0.272,0.024-0.775,0.845-0.896
			c0.772-0.111,1.063,0.351,1.116,0.65l-0.504,0.073c-0.033-0.108-0.12-0.359-0.58-0.293c-0.202,0.028-0.428,0.136-0.39,0.355
			c0.033,0.191,0.201,0.211,0.31,0.219l0.64,0.056c0.358,0.033,0.697,0.124,0.772,0.563c0.123,0.737-0.639,0.915-0.86,0.946
			c-0.921,0.134-1.166-0.358-1.218-0.662"/>
		<path fill="#FFFFFF" d="M182.72,8.735c0.299-0.152,1.152-0.424,1.707,0.605c0.554,1.024-0.167,1.548-0.465,1.698
			c-0.301,0.151-1.154,0.423-1.709-0.604C181.7,9.408,182.42,8.886,182.72,8.735 M183.752,10.651
			c0.257-0.128,0.532-0.462,0.203-1.072c-0.331-0.613-0.773-0.585-1.029-0.456c-0.253,0.129-0.529,0.462-0.2,1.074
			C183.056,10.809,183.498,10.781,183.752,10.651"/>
		<path fill="#FFFFFF" d="M179.038,11.711l0.888-0.902c0.469-0.475,0.91-0.234,1.067-0.09c0.2,0.186,0.273,0.442,0.161,0.677
			c0.209-0.087,0.344-0.115,0.684,0.199c0.266,0.242,0.331,0.303,0.441,0.252l0.048,0.043l-0.408,0.413
			c-0.111-0.054-0.219-0.124-0.406-0.296c-0.247-0.229-0.358-0.304-0.63-0.027l-0.38,0.388l0.71,0.654l-0.359,0.365 M180.627,11.645
			c0.192-0.192,0.218-0.352,0.038-0.517c-0.098-0.089-0.281-0.177-0.496,0.045l-0.46,0.462l0.485,0.449L180.627,11.645z"/>
		<polyline fill="#FFFFFF" points="197.625,33.341 198.058,33.109 199.295,35.238 198.83,35.488 197.042,34.458 197.035,34.463 
			197.917,35.981 197.484,36.215 196.248,34.083 196.736,33.821 198.481,34.829 198.487,34.825 		"/>
		<path fill="#FFFFFF" d="M198.55,32.658l0.888-0.664c0.678-0.506,1.27-0.054,1.565,0.314c0.337,0.416,0.649,1.143-0.016,1.64
			l-0.87,0.65 M200.258,33.956l0.41-0.305c0.343-0.256,0.189-0.675-0.07-0.993c-0.461-0.573-0.781-0.407-0.963-0.273l-0.403,0.302
			L200.258,33.956z"/>
		<polyline fill="#FFFFFF" points="202.807,32.301 202.453,32.688 200.542,31.069 200.893,30.683 		"/>
		<polyline fill="#FFFFFF" points="203.624,14.035 202.805,12.995 202.378,13.309 203.132,14.261 202.772,14.523 202.02,13.569 
			201.491,13.953 202.349,15.039 201.989,15.302 200.817,13.815 202.848,12.332 203.982,13.773 		"/>
		<path fill="#FFFFFF" d="M183.629,33.157c0.275,0.189,0.919,0.794,0.239,1.74c-0.681,0.945-1.491,0.57-1.768,0.383
			c-0.276-0.186-0.921-0.79-0.239-1.736C182.542,32.598,183.352,32.972,183.629,33.157 M182.357,34.926
			c0.236,0.157,0.667,0.242,1.074-0.323c0.407-0.564,0.176-0.93-0.062-1.088c-0.235-0.159-0.667-0.241-1.072,0.322
			C181.891,34.402,182.123,34.767,182.357,34.926"/>
		<polyline fill="#FFFFFF" points="186.331,34.491 186.842,34.682 185.114,36.686 184.646,36.511 184.776,33.914 185.305,34.109 
			185.109,36.041 185.115,36.044 		"/>
		<polyline fill="#FFFFFF" points="187.195,37.283 186.679,37.152 187.336,34.794 187.853,34.926 		"/>
		<polyline fill="#FFFFFF" points="193.234,37.471 192.736,37.505 192.592,35.454 192.584,35.454 192.255,37.535 191.731,37.57 
			191.121,35.551 191.113,35.551 191.257,37.604 190.762,37.637 190.588,35.183 191.365,35.128 191.965,37.033 191.971,37.033 
			192.29,35.067 193.062,35.017 		"/>
		<path fill="#FFFFFF" d="M196.191,35.945c0.167,0.63-0.153,0.996-0.776,1.151c-0.229,0.056-0.582,0.085-0.863-0.097
			c-0.175-0.114-0.279-0.298-0.349-0.536l-0.424-1.587l0.527-0.129l0.414,1.553c0.089,0.334,0.327,0.435,0.571,0.374
			c0.352-0.087,0.454-0.289,0.376-0.58l-0.42-1.581l0.527-0.128"/>
		<path fill="#FFFFFF" d="M179.296,15.305l-0.297,0.43l-2.106-1.388l0.651-0.939c0.279-0.398,0.707-0.467,1.12-0.194
			c0.19,0.127,0.601,0.548,0.217,1.099l-0.343,0.493 M178.45,14.167c0.223-0.321-0.013-0.475-0.105-0.538
			c-0.205-0.135-0.368-0.08-0.554,0.187l-0.236,0.34l0.617,0.409L178.45,14.167z"/>
		<path fill="#FFFFFF" d="M193.21,31.916c0.186,0.42-0.297,0.315-0.484,0.466h-0.156C192.6,32.142,192.867,31.751,193.21,31.916"/>
		<path fill="#FFFFFF" d="M190.465,24.415v0.166h-0.654C189.747,24.22,190.312,24.16,190.465,24.415"/>
		<polyline fill="#FFFFFF" points="191.604,20.12 191.92,19.74 192.762,19.672 193.146,19.601 192.971,19.949 192.515,20.12 
			192.585,19.949 192.06,19.914 191.779,20.12 		"/>
		<polyline fill="#FFFFFF" points="193.674,19.638 193.953,19.604 194.268,19.742 194.094,19.949 193.777,20.018 193.636,20.189 
			193.461,20.052 193.183,20.122 193.147,19.982 193.392,19.914 193.286,19.775 193.392,19.673 		"/>
		<polyline fill="#FFFFFF" points="194.539,19.963 194.715,19.824 195.028,19.859 194.96,20.033 194.503,20.134 		"/>
		<polyline fill="#FFFFFF" points="192.06,20.361 192.41,20.328 192.34,20.535 191.99,20.535 		"/>
		<polyline fill="#FFFFFF" points="194.444,20.312 194.651,20.153 194.764,20.264 194.629,20.379 		"/>
		<polyline fill="#FFFFFF" points="194.263,20.646 194.438,20.853 194.579,20.785 194.472,20.438 		"/>
		<polyline fill="#FFFFFF" points="194.903,20.776 195.007,20.638 194.691,20.465 		"/>
		<line fill="#FFFFFF" x1="194.903" y1="20.776" x2="195.007" y2="20.638"/>
		<polyline fill="#FFFFFF" points="195.256,20.622 195.379,20.671 195.33,21.177 195.159,20.719 		"/>
		<path fill="#FFFFFF" d="M189.655,12.873c0.124-0.138,0.032-0.723-0.171-0.782c-0.235,0.36,0.482,0.525,0,0.782 M190.779,14.75
			c-0.029-0.282-0.101-0.878,0.165-1.251l0.16-0.162c-0.061,0.049-0.116,0.102-0.16,0.162l-0.322-0.313l0.157-0.164
			c-0.236,0.076-0.314-0.195-0.484-0.3c-0.219,0.585,1.184,1.337-0.156,1.396c-0.094-0.089-0.219-0.166-0.172-0.316h-0.156v0.166
			h0.156c-0.091,0.076-0.171,0.196-0.312,0.15c-0.015,0.18,0.032,0.376-0.171,0.468h0.326c0.094,0.089,0.219,0.163,0.156,0.314
			c0.218,0.062,0.546-0.135,0.655,0.15C190.575,14.915,190.699,14.84,190.779,14.75 M192.498,22.235
			c0.346-0.212,0.539-0.354,1.039-0.465c-0.048,0.15,0.076,0.226,0.155,0.314c0.355-0.401,0.575-0.071,0.843,0.15
			c0.131,0.112,0.273,0.194,0.449,0.151c0.011-0.051,0.033-0.1,0.063-0.151h0.173c0.241,0.579,1.15,0.92,1.229,1.566
			c0.56,0.271,1.341,0.042,1.776,0.613c1.138,1.247-1.368,1.699-0.966,2.978c-0.202,0.826-0.841,0.962-1.621,1.083
			c-0.249,0.63-0.747,0.886-1.293,1.247c-0.81-0.031-0.92,0.558-1.621,0.781c-0.248,0.812-0.937,1.037-1.137,1.879
			c0.125,0.254,0.559,0.104,0.481,0.464c-0.561,0.016-1.277-0.314-1.291-0.931c0.217-1.744,1.511-3.067,1.62-4.841
			c-0.874-0.631-1.015-1.833-0.967-2.96c0.562-0.284,0.438-0.843,0.638-1.249l-0.312-0.313c-0.326,0.467-0.546-0.24-0.979,0
			c-0.03-0.118-0.089-0.221-0.164-0.317c-0.179-0.225-0.452-0.41-0.648-0.631c-0.638-0.195-1.355-0.24-1.931-0.616
			c-0.735-0.061-0.313-0.872-0.968-1.096c-0.094,0.09-0.218,0.165-0.171,0.314c-1.043-0.271-0.625-1.396-1.124-2.03
			c0.111-0.442,0.13-0.855,0.035-1.248c-0.064-0.269-0.186-0.527-0.362-0.778c-1.028-1.113-2.167,0.812-3.396,0.148
			c0.452-0.03,0.826-0.242,1.122-0.615c-0.095-0.15-0.375-0.24-0.313-0.467l0.157-0.165l-0.157-0.15l0.157-0.151
			c-0.095-0.089-0.219-0.163-0.157-0.315c0.608-0.481,1.437-1.143,2.416-1.098c0.749-0.27,1.762,0.602,2.434-0.314
			c-0.343-0.016-0.701-0.512-0.329-0.767c0.234,0.029,0.483-0.376,0.657,0c0.2-0.105,0.153-0.3,0.153-0.481
			c0.531-0.286,1.108,0.602,1.295-0.15h0.326c-0.045,0.15,0.079,0.226,0.156,0.316l0.172-0.166l0.156,0.166
			c0.436-0.42,0.716,0.436,1.294,0.15c0.436,0.271,0.701,0.871,0.811,1.412c-0.172,0-0.375-0.045-0.484,0.15l0.654,0.632
			c0.202-0.106,0.156-0.302,0.156-0.482c0.778,0.392,1.245,1.188,1.621,1.881c-0.843,0.135-1.605,0.495-2.104,1.245
			c0.513,1.264-1.652,1.234-0.654,2.497l-0.321,0.318c-0.036-0.291-0.133-0.555-0.319-0.785c-0.841,0.527-2.307-0.526-2.103,1.099
			c0.217,0.179,0.203,0.45,0.483,0.616c0.405,0.179,0.547-0.315,0.81-0.467v-0.149h0.641c0.341,0.572-0.719,1.247,0.325,1.396
			c0,0.181,0.048,0.378-0.156,0.467c0.083,0.218,0.221,0.295,0.384,0.314c0.117,0.019,0.245,0.008,0.373,0h0.206
			c0.129,0.012,0.245,0.048,0.332,0.151C192.337,22.332,192.422,22.283,192.498,22.235"/>
		<path fill="#FFFFFF" d="M204.449,19.149c0.122-0.021,0.296-0.034,0.554-0.034c0.239,0,0.412,0.04,0.526,0.129
			c0.116,0.082,0.188,0.229,0.188,0.398c0,0.165-0.054,0.312-0.158,0.404c-0.139,0.118-0.333,0.171-0.557,0.171
			c-0.045,0-0.083-0.003-0.11-0.005v0.559h-0.443 M204.893,19.876c0.024,0.002,0.054,0.005,0.102,0.005
			c0.178,0,0.285-0.089,0.285-0.23c0-0.121-0.084-0.203-0.253-0.203c-0.068,0-0.112,0.006-0.134,0.009V19.876z"/>
		<path fill="#FFFFFF" d="M205.175,22.674l-0.094,0.381h-0.464l0.484-1.645h0.597l0.499,1.645h-0.483l-0.108-0.381 M205.544,22.348
			l-0.076-0.296c-0.025-0.093-0.057-0.227-0.082-0.325h-0.005c-0.024,0.099-0.052,0.233-0.075,0.328l-0.072,0.293H205.544z"/>
		<polyline fill="#FFFFFF" points="204.814,23.759 204.814,24.366 205.356,24.366 205.356,23.759 205.804,23.759 205.804,25.402 
			205.356,25.402 205.356,24.752 204.814,24.752 204.814,25.402 204.364,25.402 204.364,23.759 		"/>
		<path fill="#FFFFFF" d="M205.405,26.894c0,0.53-0.32,0.866-0.837,0.866c-0.519,0-0.806-0.382-0.806-0.84
			c0-0.478,0.322-0.859,0.832-0.859C205.134,26.061,205.405,26.455,205.405,26.894 M204.239,26.913c0,0.309,0.137,0.497,0.353,0.497
			c0.214,0,0.342-0.207,0.342-0.501c0-0.283-0.13-0.5-0.344-0.5S204.239,26.611,204.239,26.913"/>
		<path fill="#FFFFFF" d="M177.164,20.809c0,0.529-0.323,0.865-0.838,0.865c-0.519,0-0.804-0.383-0.804-0.838
			c0-0.479,0.32-0.86,0.83-0.86C176.892,19.976,177.164,20.369,177.164,20.809 M175.994,20.827c0,0.307,0.138,0.497,0.354,0.497
			c0.215,0,0.343-0.207,0.343-0.502c0-0.282-0.129-0.497-0.346-0.497C176.132,20.325,175.994,20.525,175.994,20.827"/>
		<path fill="#FFFFFF" d="M175.523,22.651c0.119-0.021,0.296-0.034,0.552-0.034c0.241,0,0.411,0.039,0.527,0.128
			c0.115,0.083,0.191,0.229,0.191,0.396s-0.057,0.313-0.161,0.408c-0.137,0.118-0.332,0.169-0.558,0.169
			c-0.043,0-0.083-0.002-0.109-0.004v0.559h-0.442 M175.966,23.378c0.024,0.001,0.053,0.005,0.102,0.005
			c0.176,0,0.286-0.089,0.286-0.229c0-0.122-0.084-0.205-0.253-0.205c-0.068,0-0.114,0.005-0.135,0.009V23.378z"/>
		<path fill="#FFFFFF" d="M176.242,26.143c0.101,0.049,0.269,0.104,0.435,0.104c0.153,0,0.228-0.056,0.228-0.137
			s-0.074-0.126-0.26-0.19c-0.285-0.098-0.472-0.251-0.472-0.496c0-0.289,0.248-0.514,0.669-0.514c0.201,0,0.344,0.036,0.454,0.086
			l-0.093,0.352c-0.073-0.032-0.195-0.079-0.365-0.079c-0.136,0-0.21,0.048-0.21,0.122c0,0.083,0.088,0.117,0.3,0.196
			c0.3,0.106,0.436,0.265,0.436,0.495c0,0.281-0.225,0.526-0.714,0.526c-0.201,0-0.396-0.053-0.491-0.104"/>
		<path fill="#FFFFFF" d="M29.419,39.738C16.546,39.738,9,33.943,9,22.729C9,11.705,16.546,5.724,29.419,5.724
			s20.576,5.981,20.576,17.006C49.995,33.943,42.292,39.738,29.419,39.738 M29.419,31.822c5.592,0,5.751-5.56,5.804-9.093
			c-0.053-3.062-0.423-9.092-5.804-9.092c-5.223,0-5.646,6.03-5.646,9.092C23.773,26.263,24.354,31.822,29.419,31.822"/>
		<path fill="#FFFFFF" d="M53.639,6.286H77.96c5.751,0,13.507,2.451,13.507,11.309c0,8.574-6.173,12.108-13.56,12.108h-10.13v9.468
			H53.639V6.286z M67.408,22.07h3.113c3.377,0,6.806-0.565,6.806-4.241c0-3.486-3.429-3.909-6.858-3.909h-3.061V22.07z"/>
		<path fill="#FFFFFF" d="M101.231,6.287H120.7l13.138,32.885h-14.826l-2.428-7.114H104.66l-2.269,7.114H88.305L101.231,6.287z
			 M106.612,24.143h8.178l-4.01-10.788h-0.105L106.612,24.143z"/>
		<path fill="#FFFFFF" d="M165.496,15.285c-3.166-0.989-6.911-1.649-10.921-1.649c-2.217,0-6.067,0.049-6.067,2.169
			c0,4.285,19.363,0.235,19.363,12.908c0,8.811-9.762,11.024-17.939,11.024c-5.435,0-9.919-0.471-15.195-1.555v-8.527
			c3.799,1.414,8.442,2.166,12.663,2.166c3.324,0,6.331-0.612,6.331-2.262c0-4.428-19.363-0.424-19.363-13.191
			c0-9.045,10.554-10.646,18.942-10.646c3.956,0,8.335,0.423,12.187,1.13V15.285z"/>
		<path fill="#FFFFFF" d="M332.75,36.675h-1.789l-0.395,1.427h-1.289l1.895-6.387h1.471l1.83,6.387h-1.375 M331.896,32.94h-0.018
			l-0.674,2.654h1.281L331.896,32.94z"/>
	</g>
	<rect x="403.713" y="6.686" fill="#FFFFFF" width="1.023" height="32.608"/>
</g>
</svg>
