<?xml version="1.0" encoding="utf-8"?>
<!-- Generator: Adobe Illustrator 14.0.0, SVG Export Plug-In . SVG Version: 6.00 Build 43363)  -->
<!DOCTYPE svg PUBLIC "-//W3C//DTD SVG 1.1//EN" "http://www.w3.org/Graphics/SVG/1.1/DTD/svg11.dtd">
<svg version="1.1" id="Camada_1" xmlns="http://www.w3.org/2000/svg" xmlns:xlink="http://www.w3.org/1999/xlink" x="0px" y="0px"
	 width="540px" height="45px" viewBox="0 0 540 45" enable-background="new 0 0 540 45" xml:space="preserve">
<g>
	<g>
		<path fill="#2398D0" d="M404.752,37.72V7.829h8.738c5.994,0,8.994,2.455,8.994,7.367c0,3.368-1.658,5.667-4.971,6.893v0.086
			c3.77,0.829,5.654,3.211,5.654,7.151c0,2.685-0.9,4.784-2.697,6.297c-1.658,1.398-3.857,2.097-6.598,2.097H404.752z
			 M410.064,11.855v8.479h2.824c1.285,0,2.32-0.422,3.105-1.262c0.785-0.843,1.176-1.906,1.176-3.191s-0.404-2.277-1.219-2.977
			c-0.813-0.699-1.877-1.049-3.191-1.049H410.064z M410.064,24.359v9.166h3.021c1.418,0,2.533-0.407,3.342-1.22
			c0.811-0.815,1.215-1.936,1.215-3.363c0-3.056-1.576-4.583-4.727-4.583H410.064z"/>
		<rect x="428.607" y="7.829" fill="#2398D0" width="5.523" height="29.893"/>
		<path fill="#2398D0" d="M440.211,37.722V7.829h9.338c5.934,0,8.906,2.627,8.906,7.88c0,1.827-0.514,3.391-1.539,4.688
			c-1.031,1.301-2.445,2.078-4.242,2.334v0.13c1.486,0.229,2.584,1.385,3.299,3.468l3.895,11.393h-5.807l-2.945-9.721
			c-0.627-2.084-2.006-3.127-4.141-3.127h-1.238v12.848H440.211z M445.736,20.848h2.213c3.232,0,4.854-1.513,4.854-4.539
			c0-1.598-0.426-2.74-1.277-3.426c-0.738-0.571-1.932-0.856-3.576-0.856h-2.213V20.848z"/>
		<polygon fill="#2398D0" points="464.279,37.722 464.279,7.829 479.996,7.829 479.996,12.154 469.803,12.154 469.803,20.163 
			479.439,20.163 479.439,24.488 469.803,24.488 469.803,33.396 480.424,33.396 480.424,37.722 		"/>
		<polygon fill="#2398D0" points="509.332,37.722 509.332,12.798 501.75,37.722 497.854,37.722 490.619,12.798 490.619,37.722 
			485.648,37.722 485.648,7.829 493.768,7.829 499.979,30.146 500.074,30.139 506.455,7.829 514.299,7.829 514.299,37.722 		"/>
		<polygon fill="#2398D0" points="520.594,37.722 520.594,7.829 536.311,7.829 536.311,12.154 526.119,12.154 526.119,20.163 
			535.754,20.163 535.754,24.488 526.119,24.488 526.119,33.396 536.738,33.396 536.738,37.722 		"/>
	</g>
	<g>
		<path fill="#2398D0" d="M321.59,37.261h-1.697l-0.373,1.394h-1.225l1.801-6.235h1.391l1.736,6.235h-1.303 M320.781,33.618h-0.016
			l-0.643,2.59h1.215L320.781,33.618z"/>
		<path fill="#2398D0" d="M328.162,35.811c0-0.538-0.195-0.733-0.469-0.733c-0.361,0-0.5,0.304-0.5,0.652v2.947h-1.225v-2.866
			c0-0.591-0.223-0.733-0.426-0.733c-0.404,0-0.543,0.401-0.543,0.991v2.608h-1.223v-3.679c0-0.447-0.008-0.733-0.029-0.974h1.113
			c0.016,0.205,0.031,0.464,0.031,0.777h0.014c0.188-0.512,0.498-0.849,1.141-0.849c0.58,0,0.873,0.312,1.047,0.776
			c0.178-0.439,0.461-0.776,1.107-0.776c0.887,0,1.184,0.749,1.184,1.678v3.046h-1.223"/>
		<path fill="#2398D0" d="M333.676,36.722h-2.379c0,0.554,0.311,1.062,1.002,1.062c0.416,0,0.834-0.179,1.139-0.364l0.021,1.062
			c-0.395,0.171-0.859,0.27-1.277,0.27c-1.418,0-2.045-0.992-2.045-2.414c0-1.25,0.629-2.383,1.787-2.383
			c0.365,0,1.752,0,1.752,2.429 M332.559,35.954c0-0.59-0.129-1.144-0.635-1.144c-0.627,0-0.627,0.893-0.627,1.144H332.559z"/>
		<path fill="#2398D0" d="M334.396,34.998c0-0.447-0.01-0.733-0.031-0.975h1.115c0.008,0.277,0.021,0.563,0.029,0.84h0.018
			c0.246-0.498,0.418-0.91,1.121-0.91h0.18v1.303c-0.133-0.036-0.24-0.054-0.412-0.054c-0.711,0-0.797,0.716-0.797,1.394v2.081
			h-1.223"/>
		<path fill="#2398D0" d="M337.447,31.979h1.225v1.25h-1.225 M337.447,34.023h1.225v4.654h-1.225V34.023z"/>
		<path fill="#2398D0" d="M342.412,38.553c-0.359,0.107-0.721,0.197-1.107,0.197c-1.559,0-1.906-1.501-1.906-2.351
			c0-1.43,0.713-2.446,1.998-2.446c0.402,0,0.619,0.115,0.977,0.222l-0.061,1.064c-0.227-0.1-0.461-0.197-0.715-0.197
			c-0.93,0-0.93,1.18-0.93,1.357c0,0.982,0.527,1.295,0.992,1.295c0.256,0,0.488-0.106,0.713-0.204"/>
		<path fill="#2398D0" d="M343.277,34.247c0.318-0.116,0.861-0.296,1.301-0.296c1.418,0,1.744,0.681,1.744,1.716v1.697
			c0,0.688,0.008,1,0.031,1.313h-1.115l-0.031-0.645h-0.016c-0.055,0.286-0.527,0.716-1.107,0.716c-0.752,0-1.246-0.563-1.246-1.411
			c0-1.555,1.572-1.564,1.996-1.564h0.373c0-0.892-0.574-0.892-0.75-0.892c-0.313,0-0.645,0.079-1.125,0.41 M345.207,36.434
			c-0.488,0-1.254,0.036-1.254,0.815c0,0.606,0.426,0.606,0.525,0.606c0.109,0,0.729-0.018,0.729-1.152V36.434z"/>
		<path fill="#2398D0" d="M349.561,35.193c-0.33-0.151-0.629-0.25-0.984-0.25c-0.318,0-0.457,0.179-0.457,0.339
			c0,0.287,0.178,0.384,0.844,0.672c0.418,0.179,0.846,0.481,0.846,1.357c0,1.035-0.676,1.438-1.488,1.438
			c-0.354,0-0.898-0.046-1.322-0.227l0.029-1.087c0.295,0.206,0.666,0.319,1.008,0.319c0.572,0,0.609-0.231,0.609-0.436
			c0-0.205-0.316-0.296-0.844-0.546c-0.424-0.205-0.844-0.597-0.844-1.428c0-0.501,0.311-1.394,1.51-1.394
			c0.506,0,0.924,0.106,1.123,0.187"/>
		<line fill="#2398D0" x1="375.596" y1="29.369" x2="318.396" y2="29.369"/>
		<rect x="318.395" y="29.076" fill="#2398D0" width="57.201" height="0.585"/>
		<path fill="#2398D0" d="M283.941,35.811h0.713c0.41,0,0.688,0.229,0.688,0.752c0,0.372-0.189,0.62-0.445,0.67v0.01
			c0.084,0.019,0.18,0.068,0.25,0.332l0.303,1.087h-0.447l-0.229-0.926c-0.055-0.225-0.164-0.3-0.318-0.3h-0.096v1.226h-0.418
			 M284.529,37.052c0.227,0,0.375-0.143,0.375-0.432c0-0.326-0.137-0.408-0.375-0.408h-0.17v0.84H284.529z"/>
		<polyline fill="#2398D0" points="285.623,35.811 286.828,35.811 286.828,36.227 286.045,36.227 286.045,36.986 286.787,36.986 
			286.787,37.403 286.045,37.403 286.045,38.244 286.861,38.244 286.861,38.66 285.623,38.66 		"/>
		<path fill="#2398D0" d="M288.018,37.064h0.744v1.49c-0.119,0.078-0.324,0.147-0.621,0.147c-0.738,0-1.129-0.621-1.129-1.465
			c0-0.846,0.391-1.467,1.129-1.467c0.262,0,0.469,0.074,0.553,0.121l-0.02,0.472c-0.135-0.103-0.32-0.177-0.529-0.177
			c-0.447,0-0.688,0.458-0.688,1.051c0,0.64,0.234,1.048,0.666,1.048c0.098,0,0.188-0.023,0.242-0.054v-0.766h-0.348"/>
		<rect x="289.072" y="35.811" fill="#2398D0" width="0.422" height="2.85"/>
		<path fill="#2398D0" d="M290.641,35.771c0.477,0,0.914,0.44,0.914,1.467c0,1.023-0.438,1.465-0.914,1.465
			s-0.912-0.441-0.912-1.465C289.729,36.211,290.164,35.771,290.641,35.771 M290.641,38.303c0.268,0,0.48-0.283,0.48-1.065
			c0-0.785-0.213-1.068-0.48-1.068c-0.266,0-0.477,0.283-0.477,1.068C290.164,38.02,290.375,38.303,290.641,38.303"/>
		<polyline fill="#2398D0" points="291.783,35.811 292.283,35.811 293.047,38.049 293.053,38.049 293.053,35.811 293.436,35.811 
			293.436,38.66 292.93,38.66 292.172,36.439 292.164,36.439 292.164,38.66 291.783,38.66 		"/>
		<path fill="#2398D0" d="M294.9,37.975h-0.785l-0.164,0.687h-0.42l0.768-2.85h0.461l0.738,2.85h-0.434 M294.814,37.574l-0.289-1.33
			h-0.008l-0.313,1.33H294.814z"/>
		<polyline fill="#2398D0" points="295.578,35.811 296,35.811 296,38.244 296.754,38.244 296.754,38.66 295.578,38.66 		"/>
		<path fill="#2398D0" d="M298.408,35.771c0.473,0,0.912,0.44,0.912,1.467c0,1.023-0.439,1.465-0.912,1.465
			c-0.477,0-0.916-0.441-0.916-1.465C297.492,36.211,297.932,35.771,298.408,35.771 M298.408,38.303
			c0.266,0,0.479-0.283,0.479-1.065c0-0.785-0.213-1.068-0.479-1.068c-0.268,0-0.48,0.283-0.48,1.068
			C297.928,38.02,298.141,38.303,298.408,38.303"/>
		<polyline fill="#2398D0" points="299.551,35.811 300.713,35.811 300.713,36.227 299.973,36.227 299.973,37.003 300.68,37.003 
			300.68,37.421 299.973,37.421 299.973,38.66 299.551,38.66 		"/>
		<polyline fill="#2398D0" points="300.908,35.811 302.07,35.811 302.07,36.227 301.33,36.227 301.33,37.003 302.039,37.003 
			302.039,37.421 301.33,37.421 301.33,38.66 300.908,38.66 		"/>
		<rect x="302.27" y="35.811" fill="#2398D0" width="0.422" height="2.85"/>
		<path fill="#2398D0" d="M304.477,38.601c-0.086,0.056-0.289,0.102-0.496,0.102c-0.699,0-1.053-0.634-1.053-1.465
			c0-0.834,0.354-1.467,1.041-1.467c0.234,0,0.422,0.077,0.508,0.119l-0.021,0.469c-0.086-0.053-0.221-0.154-0.436-0.154
			c-0.35,0-0.645,0.291-0.645,1.033c0,0.737,0.295,1.031,0.645,1.031c0.203,0,0.338-0.061,0.436-0.146"/>
		<polyline fill="#2398D0" points="304.682,35.811 305.889,35.811 305.889,36.227 305.104,36.227 305.104,36.986 305.846,36.986 
			305.846,37.403 305.104,37.403 305.104,38.244 305.92,38.244 305.92,38.66 304.682,38.66 		"/>
		<polyline fill="#2398D0" points="306.852,35.811 308.014,35.811 308.014,36.227 307.273,36.227 307.273,37.003 307.98,37.003 
			307.98,37.421 307.273,37.421 307.273,38.66 306.852,38.66 		"/>
		<path fill="#2398D0" d="M309.031,35.771c0.477,0,0.916,0.44,0.916,1.467c0,1.023-0.439,1.465-0.916,1.465
			c-0.475,0-0.914-0.441-0.914-1.465C308.117,36.211,308.557,35.771,309.031,35.771 M309.031,38.303c0.266,0,0.48-0.283,0.48-1.065
			c0-0.785-0.215-1.068-0.48-1.068c-0.264,0-0.477,0.283-0.477,1.068C308.555,38.02,308.768,38.303,309.031,38.303"/>
		<path fill="#2398D0" d="M310.156,35.811h0.717c0.41,0,0.686,0.229,0.686,0.752c0,0.372-0.189,0.62-0.443,0.67v0.01
			c0.084,0.019,0.18,0.068,0.252,0.332l0.301,1.087h-0.447l-0.229-0.926c-0.055-0.225-0.164-0.3-0.32-0.3h-0.092v1.226h-0.424
			 M310.752,37.052c0.221,0,0.371-0.143,0.371-0.432c0-0.326-0.137-0.408-0.371-0.408h-0.172v0.84H310.752z"/>
		<polyline fill="#2398D0" points="312.691,36.227 312.176,36.227 312.176,35.811 313.619,35.811 313.619,36.227 313.113,36.227 
			313.113,38.661 312.691,38.661 		"/>
		<polyline fill="#2398D0" points="313.768,35.811 314.189,35.811 314.189,36.971 314.869,36.971 314.869,35.811 315.291,35.811 
			315.291,38.66 314.869,38.66 314.869,37.403 314.189,37.403 314.189,38.66 313.768,38.66 		"/>
		<polyline fill="#2398D0" points="315.613,35.811 316.82,35.811 316.82,36.227 316.037,36.227 316.037,36.986 316.779,36.986 
			316.779,37.403 316.037,37.403 316.037,38.244 316.852,38.244 316.852,38.66 315.613,38.66 		"/>
		<path fill="#2398D0" d="M309.742,10.218c0.611,0.716,1.67,1.137,2.291,1.854c-0.443-2.121-2.1-3.854-4.057-4.266
			C308.928,8.517,309.133,9.5,309.742,10.218 M286.205,15.594c1.354-2.901,3.367-2.287,4.215-5.053
			c-0.48,0.849-2.68,1.207-3.697,3.38c0.518-1.292,0.258-3.267,1.141-4.334C285.225,11.509,286.35,14.618,286.205,15.594
			 M288.648,22.551c0.242,1.132-0.465,2.762,0.662,4.319c-1.17-1.296-3.645-1.626-4.664-3.599c1.27,4.819,4.557,3.827,6.047,4.875
			C289.471,26.411,290.471,25.257,288.648,22.551 M288.27,25.578c-0.729-2.693,0.566-3.623-0.416-6.209
			c-0.104,1.455-1.086,2.167-0.42,4.828c-1.172-2.256-2.982-3.095-3.506-4.643C283.965,23.782,287.402,24.41,288.27,25.578
			 M293.551,30.095c-1.012-1.384-0.32-2.166-3.166-4.682c0.605,0.917-0.016,2.073,1.9,3.869c-1.877-1.094-4.465-0.626-5.713-2.088
			C288.715,31.247,292.482,29.59,293.551,30.095 M307.309,29.282c1.916-1.796,1.297-2.952,1.898-3.869
			c-2.844,2.516-2.152,3.298-3.164,4.682c1.068-0.505,4.834,1.152,6.979-2.9C311.773,28.656,309.186,28.188,307.309,29.282
			 M310.283,26.87c1.129-1.558,0.418-3.188,0.66-4.319c-1.82,2.706-0.818,3.86-2.041,5.596c1.484-1.048,4.777-0.056,6.043-4.875
			C313.93,25.244,311.455,25.574,310.283,26.87 M305.74,30.286c-1.109-0.294-2.256-0.439-3.107-0.459
			c-1.063-0.026-2.014,0.172-2.838,0.473c-0.82-0.301-1.77-0.499-2.832-0.473c-0.855,0.02-1.998,0.165-3.109,0.459
			c-1.707,0.45-3.191,0.799-4.477,0.153c1.234,1.085,2.676,1.471,4.76,1.249c1.732-0.185,3.131-1.041,4.766-1.029
			c0.018,0,0.043,0.002,0.063,0.002c-1.721,0.858-2.695,2.07-2.695,2.07l0.791,0.104c0,0,0.828-1.648,2.734-2.076
			c1.91,0.428,2.738,2.076,2.738,2.076l0.789-0.104c0,0-0.971-1.212-2.693-2.07c0.021,0,0.039-0.002,0.064-0.002
			c1.633-0.012,3.031,0.845,4.768,1.029c2.08,0.222,3.523-0.164,4.754-1.249C308.928,31.085,307.449,30.736,305.74,30.286
			 M287.971,16.448c-0.705,1.338-1.803,1.646-1.688,4.408c-0.59-2.455-2-3.367-1.984-4.937c-0.984,4.091,1.645,4.577,2.318,6.292
			C286.516,19.756,288.102,19.26,287.971,16.448 M288.953,13.289c-0.242,0.342-0.418,0.485-1.072,1.017
			c-0.893,0.729-1.605,1.684-1.904,3.078c0.068-1.501-0.869-3.655-0.248-5.227c-2.414,3.368,0.139,5.388,0.229,6.607
			C286.584,16.415,288.018,16.397,288.953,13.289 M313.617,17.384c-0.303-1.395-1.012-2.349-1.906-3.078
			c-0.652-0.531-0.826-0.675-1.074-1.017c0.936,3.108,2.375,3.126,2.998,5.476c0.092-1.22,2.643-3.239,0.23-6.607
			C314.486,13.729,313.551,15.883,313.617,17.384 M315.664,19.555c-0.523,1.548-2.332,2.387-3.5,4.643
			c0.66-2.661-0.32-3.373-0.424-4.828c-0.982,2.586,0.311,3.516-0.418,6.209C312.191,24.41,315.629,23.782,315.664,19.555
			 M311.625,16.448c-0.135,2.812,1.451,3.308,1.352,5.764c0.676-1.715,3.301-2.201,2.318-6.292c0.018,1.569-1.395,2.481-1.984,4.937
			C313.424,18.094,312.33,17.786,311.625,16.448 M289.852,10.218c0.605-0.718,0.811-1.701,1.768-2.411
			c-1.959,0.412-3.615,2.145-4.061,4.266C288.184,11.354,289.242,10.934,289.852,10.218 M309.172,10.541
			c0.854,2.766,2.865,2.151,4.211,5.053c-0.139-0.976,0.98-4.085-1.65-6.007c0.881,1.067,0.617,3.042,1.139,4.334
			C311.852,11.748,309.652,11.39,309.172,10.541 M302.338,12.112c-0.508-0.207-1.047-0.354-1.604-0.434
			c-0.004,0.117-0.006,0.238-0.01,0.355c0.516,0.075,1.014,0.212,1.48,0.402C302.266,12.34,302.313,12.231,302.338,12.112
			 M301.93,8.69l0.107-0.096l-0.205-0.086l-0.541-0.012l-0.139,0.098l-0.316-0.026l-0.002,0.076
			c0.201,0.013,0.396,0.031,0.553,0.058l0.262-0.024L301.93,8.69z M300.893,20.163c0-0.09-0.123-0.18-0.301-0.263l-0.033-0.001
			c-0.002,0.074-0.008,0.435-0.012,0.61C300.768,20.409,300.893,20.305,300.893,20.163 M294.656,13.401
			c0.014-0.073,0.027-0.13,0.047-0.195c-0.068,0.017-0.145,0.024-0.221,0.022L294.656,13.401z M299.807,29.054
			c6.055,0,10.982-4.869,10.982-10.855c0-5.612-4.336-10.245-9.869-10.799c-0.006,0.021-0.008,0.043-0.012,0.063
			c-0.021,0.106-0.041,0.201-0.057,0.285c2.477,0.239,4.709,1.325,6.393,2.958l-1.213,1.198l0.047-0.21l-0.158-0.071l-0.221-0.012
			l0.051-0.138l-0.146-0.49l-0.305-0.327l-0.945-0.495l-0.08,0.086l-0.172,0.05c0.322,0.475,0.502,1.021,0.502,1.573
			c0,0.073-0.004,0.144-0.006,0.214l0.465,0.583l-0.217,0.051l0.143,0.217l-0.412,0.409l-0.168-0.313
			c-0.078,0.219-0.184,0.422-0.313,0.611c0.031,0.027,0.064,0.055,0.092,0.085l-1.271,1.259c-0.078-0.071-0.162-0.142-0.24-0.209
			c-0.127,0.056-0.248,0.108-0.377,0.157c0.039,0.026,0.072,0.054,0.105,0.083l-0.061,0.065l-0.146,0.081l-0.059,0.147l-0.094-0.092
			l-0.27,0.09l0.072,0.116l0.189-0.05l0.121,0.01l0.008-0.064l0.096-0.047l0.027-0.055l0.166-0.046l0.129-0.005
			c0.029,0.021,0.055,0.045,0.078,0.067l-0.506,0.5l-0.037-0.054l-0.527,0.089l-0.121,0.115l-0.113,0.014l0.328-0.312l-0.117-0.058
			l-0.309,0.405l0.092-0.009l-0.008,0.148l0.113,0.042l0.021,0.161l-0.186-0.037l-0.191,0.036l-0.461-0.237
			c0,0-0.025,1.233-0.041,1.852c1.098,0.365,2.26,0.891,2.26,2.272c0,0.605-0.264,1.096-0.787,1.458l0.004,0.002
			c-0.008,0.006-0.018,0.012-0.025,0.016l-0.004-0.001c-0.01,0.008-0.021,0.015-0.033,0.023c-0.443,0.29-1.012,0.443-1.506,0.598
			c-0.006,0-0.018,0.966-0.018,0.966c0.789,0.387,1.742,0.95,1.652,2.557c-0.01,0.395-0.166,0.503-0.299,0.539v0.001
			c-0.459,0.111-0.936,0.188-1.42,0.222c-0.004,0.124-0.004,0.243-0.006,0.354c2.113-0.144,4.027-1.028,5.473-2.391l1.277,1.261
			c-1.912,1.814-4.506,2.934-7.361,2.934c-2.836,0-5.418-1.105-7.328-2.905l1.281-1.26c1.43,1.336,3.313,2.205,5.393,2.357
			c-0.002-0.108-0.004-0.227-0.004-0.354c-1.982-0.152-3.775-0.982-5.139-2.254l0.34-0.337l0.465,0.054l0.248-0.266l0.654,0.023
			l0.098-0.224l-0.025-0.095c0.943,0.708,2.086,1.175,3.324,1.301c-0.002-0.136-0.004-0.255-0.006-0.353
			c-1.371-0.151-2.607-0.737-3.57-1.615l1.277-1.262c0.309,0.273,0.658,0.505,1.033,0.686c0.031-0.119,0.072-0.231,0.131-0.331
			c-0.334-0.16-0.639-0.364-0.912-0.604l1.279-1.264c0.203,0.161,0.436,0.287,0.682,0.375c-0.002-0.125-0.004-0.257-0.006-0.382
			c-0.15-0.063-0.293-0.146-0.422-0.244l0.359-0.358c-0.127-0.037-0.252-0.077-0.385-0.12l-0.238,0.238
			c-0.121-0.134-0.225-0.283-0.305-0.447c-0.221-0.097-0.434-0.207-0.631-0.336c-0.789-0.511-1.186-1.231-1.186-2.143
			c0-0.694,0.197-1.221,0.516-1.63l-1.271-1.259c0.918-0.865,2.094-1.462,3.404-1.656c-0.002-0.123-0.004-0.241-0.006-0.355
			c-1.404,0.199-2.67,0.835-3.65,1.764l-0.217-0.213c-0.045,0.084-0.105,0.192-0.17,0.328l0.135,0.133
			c-1.096,1.155-1.775,2.698-1.803,4.393h-1.805c0.027-2.188,0.908-4.177,2.332-5.651l0.574,0.565c0.025,0,0.053,0,0.078-0.002
			c0.102-0.008,0.217-0.039,0.328-0.094l-0.729-0.721c0.385-0.367,0.807-0.7,1.256-0.991c0.037-0.121,0.07-0.226,0.088-0.263
			c0.021-0.045,0.137-0.194,0.275-0.366c-0.684,0.375-1.314,0.836-1.871,1.371l-1.275-1.26c1.672-1.61,3.875-2.681,6.326-2.926
			c-0.012-0.043-0.016-0.077-0.016-0.077c-0.018-0.083-0.035-0.175-0.053-0.27c-5.521,0.567-9.834,5.191-9.834,10.794
			C288.828,24.185,293.756,29.054,299.807,29.054 M302.178,21.555v-0.01l0.004,0.009C302.182,21.554,302.18,21.555,302.178,21.555
			 M307.496,10.956c1.795,1.86,2.906,4.37,2.934,7.132h-1.803c-0.018-1.367-0.355-2.658-0.941-3.808l0.018-0.031l0.123,0.064
			l0.029-0.095l-0.326-0.558l-0.381-0.523l-0.445-0.37c-0.154-0.189-0.318-0.374-0.482-0.551L307.496,10.956z M305.195,13.242
			l0.436,0.02l0.104,0.122l-0.053,0.183l0.602,0.371l0.117-0.017l0.773,0.871l0.313-0.108c0.49,1.037,0.768,2.19,0.785,3.404h-1.809
			c-0.008-0.465-0.063-0.919-0.164-1.356l0.08-0.11l0.111-0.558l-0.08-0.603l-0.221-0.688l-0.506-0.729l0.125,0.063l0.061-0.062
			l-0.402-0.271l-0.027,0.09l0.404,0.571l0.23,0.468l0.162,0.463l0.049,0.313l0.086,0.523l-0.15,0.011c0,0-0.176-0.321-0.229-0.453
			l0.082-0.119l-0.156-0.219v-0.217l-0.109-0.138l-0.137,0.017c-0.049-0.09-0.1-0.18-0.154-0.268l0.096,0.05l0.029-0.025
			l-0.053-0.111l0.115-0.066l-0.053-0.064l-0.174,0.064l0.064-0.271l-0.104-0.059l-0.092,0.216
			c-0.197-0.291-0.418-0.568-0.656-0.824L305.195,13.242z M304.836,17.423l0.322-0.174l0.33-0.052l0.074-0.158l0.184-0.11
			l0.07-0.151l0.059-0.263c0.023,0.093,0.053,0.187,0.074,0.282l-0.178,0.515l-0.006,0.173l0.256-0.335
			c0.051,0.307,0.08,0.62,0.088,0.938h-1.582l-0.035-0.135l0.18-0.146l0.037-0.087l0.084-0.059l0.211-0.021l0.021-0.096
			L304.836,17.423z M302.67,16.196l0.16-0.037l-0.006-0.038l-0.162-0.105l0.053-0.337l0.195-0.19
			c0.121,0.135,0.232,0.278,0.336,0.429l-0.066,0.208L303,16l-0.133,0.036l0.064,0.123h0.066l-0.07,0.182l-0.053-0.071
			L302.67,16.196z M303.361,22.121l-0.391-0.11l-0.115,0.043l-0.223-0.167l-0.207-0.074c0.102-0.073,0.201-0.147,0.297-0.229
			l0.32,0.224l0.246,0.128l0.123,0.119L303.361,22.121z M303.162,15.239l1.277-1.263c0.299,0.32,0.561,0.672,0.791,1.048
			l-0.162,0.044l0.01,0.281l0.477,0.298c0.119,0.259,0.217,0.524,0.303,0.799l-0.086,0.122l-0.172,0.106l-0.045,0.263l-0.115,0.065
			l-0.102,0.113l-0.1-0.035l-0.176-0.007l0.104-0.139l0.072-0.354l0.117-0.071l-0.344-0.328l-0.258,0.088l-0.057,0.24l-0.166,0.173
			l-0.166-0.138l-0.059-0.147l0.096-0.058l0.055,0.096l0.074-0.027l-0.033-0.163l-0.109-0.005l-0.008,0.065l-0.072,0.016l-0.4-0.459
			l-0.133-0.101l0.053-0.056l0.119-0.042l-0.111-0.042c0,0-0.139,0.03-0.154,0.03l0.078,0.1l-0.203-0.005
			C303.439,15.566,303.305,15.398,303.162,15.239 M303.813,21.954l-0.172-0.172l0.131-0.171l0.168-0.334l-0.066-0.095l0.113-0.249
			l-0.016-0.224l-0.066-0.231l-0.156-0.056l-0.057,0.132l-0.096-0.025c0.133-0.214,0.279-0.415,0.377-0.65l0.164-0.07l0.088-0.121
			l0.047,0.052l0.109-0.132l-0.09-0.109l0.08-0.021l0.148,0.059l0.279,0.007l0.17-0.088l0.439-0.115l-0.082-0.146l-0.029-0.174
			l0.236,0.104l0.088-0.053l-0.045-0.182l-0.289,0.108l-0.318-0.066l-0.244-0.489h1.381c-0.063,1.569-0.713,2.992-1.742,4.056
			l-0.189-0.187l0.08-0.251l-0.145-0.551L303.813,21.954z M304.057,25.434l0.168-0.36l-0.064-0.16l0.248-0.217v-0.131l-0.213-0.132
			l0.176-0.347l0.266-0.343l-0.266-0.282h-0.197l-0.123-0.196c0.105-0.088,0.209-0.177,0.313-0.27l1.275,1.261
			C305.158,24.707,304.631,25.103,304.057,25.434 M305.646,23.767l0.141-0.155l-0.133-0.688l-0.092-0.038l0.055-0.116l-0.299-0.095
			l-0.059,0.249l-0.029,0.312l-0.066,0.057l-0.549-0.544c1.094-1.127,1.785-2.639,1.846-4.306h1.805
			c-0.061,2.159-0.953,4.115-2.375,5.567L305.646,23.767z M306.143,24.257c1.484-1.515,2.418-3.56,2.482-5.815h1.803
			c-0.063,2.748-1.199,5.237-3.01,7.077L306.143,24.257z M295.281,22.528c-0.129-0.132-0.254-0.272-0.369-0.417l0.053-0.45
			l-0.189-0.434l-0.047-0.678l-0.213-0.411l0.045-0.257l-0.26-0.486l-0.225-0.111l0.094-0.26l-0.098-0.207l0.096-0.234h0.246
			l0.086-0.142h0.42l0.066,0.122l-0.078,0.424l-0.053,0.074l0.162,0.34l-0.105,0.058l-0.072-0.092l-0.031,0.034l0.07,0.204
			l0.127,0.235l0.055-0.006l0.035-0.213l-0.057-0.076l-0.012-0.145l-0.016-0.296l0.088-0.523l-0.084-0.141h0.301
			c0.059,1.094,0.521,2.082,1.24,2.827L295.281,22.528z M294.092,19.042l-0.172,0.265h-0.295l-0.021-0.018
			c-0.051-0.276-0.084-0.558-0.09-0.848h0.541l-0.127,0.43L294.092,19.042z M294.684,17.818l0.033-0.356l0.213-0.123l0.383,0.068
			l0.057,0.068c-0.035,0.2-0.053,0.403-0.057,0.612h-0.434L294.684,17.818z M296.516,19.15l0.088-0.045l0.238,0.176l-0.104,0.082
			l0.268,0.176l-0.018-0.187l0.141-0.233l0.148,0.155l0.15,0.216l-0.273,0.061l0.123,0.244l0.193-0.101l-0.025-0.078l0.143-0.095
			l0.082-0.388c0.104,0.229,0.242,0.441,0.416,0.625l-1.277,1.26c-0.605-0.631-1.016-1.453-1.115-2.366l0.262,0.274l0.242-0.004
			L296.516,19.15z M295.207,13.946l1.275,1.261c-0.266,0.289-0.492,0.612-0.676,0.963l-0.09-0.005l-0.18,0.057l-0.061-0.007
			l-0.193,0.177l0.246-0.041l0.215-0.053c-0.016,0.028-0.027,0.053-0.037,0.082l-0.191,0.116h-0.09l-0.281,0.212l-0.27-0.025
			l-0.393,0.725l0.078,0.144l-0.215,0.234l-0.031,0.303h-0.805C293.535,16.489,294.178,15.035,295.207,13.946 M293.559,23.46
			l0.406,0.233l0.084,0.055l-0.293,0.291c-0.139-0.139-0.27-0.285-0.398-0.433L293.559,23.46z M293.156,18.441
			c0.006,0.173,0.018,0.345,0.041,0.516l-0.223,0.05l-0.045,0.222l-0.459,0.576l0.012,0.797l-0.473,0.154l-0.26,0.003
			c-0.238-0.734-0.377-1.513-0.4-2.317H293.156z M291.373,20.748l-0.107-0.021l-0.102-0.111l-0.504-0.042l0.158,0.211l-0.471-0.089
			l0.125-0.11l-0.117-0.111l-0.336,0.145l-0.123,0.222l0.049,0.508l0.387,0.922l0.188,0.288l0.105,0.039l-0.293-0.553l-0.063-0.28
			l0.064-0.07l-0.039-0.153l0.178,0.022l0.27,0.407l0.07,0.026l-0.012-0.296l0.111,0.063l0.025,0.161L291.223,22l0.121-0.084
			l0.041,0.027l-0.004,0.218l0.125,0.153l0.154,0.034l0.332,0.56l0.203,0.056l0.066-0.263c0.352,0.576,0.768,1.109,1.242,1.588
			l-1.273,1.26c-1.828-1.843-2.98-4.343-3.043-7.107h1.805C291.014,19.242,291.146,20.014,291.373,20.748 M292.15,10.925
			l1.275,1.261c-1.482,1.541-2.41,3.617-2.436,5.902h-1.803C289.215,15.312,290.34,12.79,292.15,10.925 M305.213,10.275
			l-0.109-0.174l-0.234-0.117l-0.186,0.139l0.236,0.123l0.262,0.188L305.213,10.275z M304.119,15.308l0.008,0.14l0.314-0.094
			l0.094-0.189l-0.217-0.279l0.113-0.17l0.295,0.205l0.053-0.042l-0.059-0.041l-0.066-0.125l0.121-0.067l-0.119-0.152l-0.271,0.138
			l-0.098,0.163l-0.053,0.149l0.121,0.199l-0.043,0.093L304.119,15.308z M291.074,23.31l0.021-0.083l-0.162-0.347l-0.193-0.072
			L291.074,23.31z M298.451,16.604c0,0.301,0.186,0.51,0.52,0.693c0,0-0.002-0.05-0.004-0.134l-0.209-0.208l0.111-0.201l0.09-0.025
			c-0.006-0.348-0.014-0.738-0.014-0.793l-0.018,0.002C298.621,16.105,298.451,16.313,298.451,16.604"/>
		<path fill="#2398D0" d="M300.467,24.336c0.568,0.281,1.09,0.674,1.307,1.415c0.096-1.228-0.6-1.762-1.293-2.119
			C300.482,23.633,300.467,24.336,300.467,24.336"/>
		<path fill="#2398D0" d="M304.23,11.869c0-1.115-0.818-2.354-2.828-2.79c-0.148-0.032-0.373-0.056-0.611-0.07
			c-0.004,0.169-0.014,0.553-0.014,0.553c-0.004,0.122-0.01,0.567-0.016,0.664c0.188,0.017,0.326,0.039,0.389,0.055
			c1.164,0.274,1.582,0.936,1.582,1.589c0,1.06-0.918,1.459-2.043,1.762c-0.121,0.033-0.246,0.063-0.373,0.096
			c-0.34,0.084-0.693,0.165-1.041,0.256c-0.123,0.035-0.248,0.07-0.367,0.106c-1.25,0.377-2.324,0.971-2.324,2.495
			c0,1.51,1.225,2.076,2.42,2.439c-0.008-0.435-0.018-0.873-0.023-1.31c-0.529-0.245-0.9-0.564-0.9-1.109
			c0-0.528,0.338-0.848,0.855-1.079c0.115-0.051,0.238-0.101,0.369-0.143c0.299-0.101,0.635-0.186,0.984-0.27
			c0.121-0.029,0.244-0.058,0.371-0.088C302.344,14.621,304.23,14.101,304.23,11.869"/>
		<path fill="#2398D0" d="M298.186,22.521c0.002,0.61,0.455,0.943,0.908,1.194c0-0.103-0.018-1.047-0.02-1.063
			c0.01-0.188,0.195-0.301,0.344-0.37c0.219-0.103,0.439-0.176,0.721-0.273c0.137-0.046,0.252-0.091,0.381-0.129
			c0.914-0.273,1.969-0.618,1.969-1.716c0-1.101-0.908-1.55-1.895-1.889c-0.008,0.35-0.021,0.859-0.023,1.215
			c0.416,0.163,0.695,0.359,0.695,0.674c0,0.391-0.426,0.618-0.73,0.733c-0.123,0.047-0.313,0.11-0.365,0.126
			c-0.242,0.076-0.504,0.162-0.75,0.25c-0.129,0.048-0.254,0.101-0.369,0.158C298.623,21.649,298.178,21.966,298.186,22.521"/>
		<path fill="#2398D0" d="M298.801,9.183c-0.607,0.173-0.967,0.397-1.1,0.443c-0.395,0.129-0.949,0.15-1.521,0.769
			c-0.102,0.108-0.35,0.42-0.525,0.671c-0.174,0.246-0.18,0.643-0.309,0.854c-0.184,0.309-0.139,0.485-0.139,0.485v0.01
			c-0.002,0.036-0.037,0.2-0.207,0.386c-0.193,0.21-0.445,0.326-0.742,0.279c0.258,0.127,0.619-0.052,0.619-0.052
			s-0.066,0.195-0.139,0.513c0.295-0.656,0.564-0.896,0.646-0.963c0.129,0.031,0.387,0.018,0.869-0.257
			c0.551-0.312,1.375-0.818,1.604-1.139c0.252-0.346,0.598-0.574,0.973-0.723C298.82,9.977,298.809,9.546,298.801,9.183
			 M296.41,11.322l-0.283,0.06l0.418-0.638l0.398,0.013L296.41,11.322z"/>
		<path fill="#2398D0" d="M299.934,22.447c-0.053,0.017-0.195,0.076-0.279,0.104c-0.09,0.035-0.205,0.08-0.205,0.113
			c0,0.01,0.084,4.729,0.084,4.833c0,0.973,0.502,0.979,0.502,0c0-0.068,0.102-5.117,0.102-5.117S300.016,22.415,299.934,22.447"/>
		<path fill="#2398D0" d="M299.416,20.888c0.152-0.053,0.309-0.1,0.455-0.145c0.105-0.033,0.209-0.063,0.303-0.094
			c0.004-0.297,0.09-4.407,0.107-5.155c-0.375,0.092-0.701,0.18-0.967,0.275C299.324,16.33,299.402,20.438,299.416,20.888"/>
		<path fill="#2398D0" d="M299.83,5.148c-1.406,0-0.809,2.063-0.697,2.735c0.004,0.031,0.115,4.661,0.137,5.723
			c0.213-0.056,0.426-0.105,0.631-0.155c0.146-0.036,0.291-0.072,0.424-0.105c0.02-1.022,0.127-5.443,0.129-5.469
			C300.539,7.156,301.275,5.148,299.83,5.148"/>
		<polyline fill="#2398D0" points="322.828,9.057 322.807,9.057 321.613,15.489 319.979,15.489 318.453,7.639 319.752,7.639 
			320.813,13.69 320.832,13.69 321.971,7.639 323.662,7.639 324.789,13.69 324.811,13.69 325.916,7.639 327.17,7.639 
			325.611,15.489 323.957,15.489 		"/>
		<path fill="#2398D0" d="M329.48,9.606c1.139,0,2.451,0.619,2.451,2.981c0,2.429-1.313,2.991-2.451,2.991
			c-1.135,0-2.457-0.563-2.457-2.991C327.023,10.226,328.346,9.606,329.48,9.606 M329.48,14.589c0.869,0,1.064-1.035,1.064-2.001
			c0-0.968-0.195-1.99-1.064-1.99c-0.863,0-1.07,1.022-1.07,1.99C328.41,13.554,328.617,14.589,329.48,14.589"/>
		<path fill="#2398D0" d="M332.764,10.651c0-0.358-0.012-0.695-0.043-0.955h1.213c0.012,0.35,0.043,0.709,0.043,1.059h0.025
			c0.162-0.451,0.584-1.148,1.418-1.148c0.084,0,0.15,0.023,0.227,0.034v1.306c-0.117-0.035-0.238-0.058-0.381-0.058
			c-0.553,0-1.158,0.349-1.158,1.429v3.173h-1.344"/>
		<rect x="336.492" y="7.054" fill="#2398D0" width="1.342" height="8.436"/>
		<path fill="#2398D0" d="M343.443,7.054v7.445c0,0.417,0.012,0.776,0.045,0.99h-1.258c-0.023-0.168-0.043-0.507-0.043-0.899h-0.033
			c-0.219,0.495-0.617,0.989-1.484,0.989c-1.389,0-1.961-1.372-1.961-2.979c0-1.89,0.727-2.992,1.93-2.992
			c0.799,0,1.246,0.472,1.439,0.922h0.025V7.054 M341.039,14.556c0.789,0,1.064-0.889,1.064-1.979c0-1.125-0.309-1.945-1.045-1.945
			c-0.746,0-1.006,0.753-1.006,1.912C340.053,13.881,340.258,14.556,341.039,14.556"/>
		<polyline fill="#2398D0" points="347.871,7.639 349.258,7.639 349.258,10.834 351.5,10.834 351.5,7.639 352.887,7.639 
			352.887,15.489 351.5,15.489 351.5,12.026 349.258,12.026 349.258,15.489 347.871,15.489 		"/>
		<path fill="#2398D0" d="M358.033,15.208c-0.279,0.124-0.865,0.369-1.668,0.369c-1.801,0-2.58-1.338-2.58-2.899
			c0-1.732,0.879-3.071,2.299-3.071c1.201,0,2.232,0.73,2.232,3.093v0.271h-3.23c0,0.99,0.381,1.586,1.422,1.586
			c0.822,0,1.213-0.259,1.461-0.45 M357.016,12.093c0-1.023-0.328-1.542-0.932-1.542c-0.703,0-0.998,0.775-0.998,1.542H357.016z"/>
		<path fill="#2398D0" d="M359.52,10.034c0.381-0.179,0.91-0.428,1.766-0.428c1.73,0,2.133,0.877,2.133,2.329v2.53
			c0,0.416,0.045,0.799,0.078,1.023h-1.213c-0.068-0.225-0.078-0.507-0.078-0.787h-0.02c-0.338,0.472-0.762,0.877-1.563,0.877
			c-0.867,0-1.67-0.618-1.67-1.696c0-1.577,1.238-1.969,2.939-1.969h0.268v-0.215c0-0.574-0.268-1.102-1.037-1.102
			c-0.674,0-1.271,0.337-1.527,0.562 M362.16,12.655h-0.119c-1.148,0-1.828,0.247-1.828,1.089c0,0.531,0.334,0.89,0.855,0.89
			c0.801,0,1.092-0.618,1.092-1.652V12.655z"/>
		<rect x="364.742" y="7.054" fill="#2398D0" width="1.344" height="8.436"/>
		<path fill="#2398D0" d="M367.764,8.505l1.342-0.428v1.619h1.117v1.024h-1.117v3.002c0,0.619,0.219,0.8,0.607,0.8
			c0.238,0,0.41-0.067,0.51-0.124v0.989c-0.205,0.103-0.496,0.191-0.898,0.191c-0.998,0-1.561-0.473-1.561-1.687v-3.172h-0.887
			V9.696h0.887"/>
		<path fill="#2398D0" d="M370.918,7.056h1.342v3.384h0.035c0.238-0.36,0.551-0.833,1.385-0.833c1.266,0,1.646,0.979,1.646,2.148
			v3.734h-1.344v-3.475c0-0.89-0.217-1.26-0.768-1.26c-0.707,0-0.955,0.617-0.955,1.36v3.374h-1.342"/>
		<path fill="#2398D0" d="M321.408,17.579c1.574,0,3.012,1.215,3.012,4.038c0,2.822-1.438,4.035-3.012,4.035
			c-1.57,0-3.014-1.213-3.014-4.035C318.395,18.794,319.838,17.579,321.408,17.579 M321.408,24.551c0.881,0,1.582-0.775,1.582-2.934
			c0-2.16-0.701-2.937-1.582-2.937c-0.877,0-1.584,0.776-1.584,2.937C319.824,23.775,320.531,24.551,321.408,24.551"/>
		<path fill="#2398D0" d="M325.324,20.704c0-0.36-0.01-0.695-0.043-0.956h1.213c0.012,0.351,0.045,0.709,0.045,1.057h0.023
			c0.162-0.448,0.586-1.146,1.418-1.146c0.086,0,0.15,0.021,0.227,0.033v1.306c-0.117-0.034-0.236-0.056-0.379-0.056
			c-0.553,0-1.162,0.348-1.162,1.426v3.174h-1.342"/>
		<path fill="#2398D0" d="M329.041,26.442c0.316,0.18,0.943,0.492,1.648,0.492c1.266,0,1.475-0.908,1.475-1.82v-0.551h-0.021
			c-0.219,0.45-0.598,0.979-1.475,0.979c-0.781,0-1.953-0.54-1.953-2.882c0-1.596,0.555-3.002,2.016-3.002
			c0.814,0,1.193,0.485,1.475,0.991h0.045c0-0.306,0.031-0.596,0.043-0.899h1.213c-0.021,0.304-0.043,0.606-0.043,0.909v4.275
			c0,1.809-0.531,3.103-2.58,3.103c-0.889,0-1.592-0.234-1.918-0.36 M331.131,24.518c0.846,0,1.18-0.63,1.18-1.945
			c0-1.213-0.443-1.869-1.08-1.855c-0.709,0.01-0.979,0.685-0.979,1.867C330.252,23.942,330.676,24.518,331.131,24.518"/>
		<path fill="#2398D0" d="M334.916,20.087c0.379-0.181,0.91-0.428,1.768-0.428c1.73,0,2.133,0.878,2.133,2.328v2.53
			c0,0.416,0.045,0.798,0.078,1.024h-1.217c-0.064-0.227-0.074-0.507-0.074-0.789h-0.023c-0.336,0.474-0.756,0.878-1.559,0.878
			c-0.867,0-1.67-0.617-1.67-1.697c0-1.574,1.236-1.97,2.939-1.97h0.27v-0.213c0-0.573-0.27-1.102-1.039-1.102
			c-0.674,0-1.271,0.337-1.529,0.563 M337.561,22.707h-0.119c-1.15,0-1.832,0.247-1.832,1.091c0,0.53,0.336,0.888,0.854,0.888
			c0.803,0,1.098-0.617,1.098-1.651V22.707z"/>
		<path fill="#2398D0" d="M340.172,20.704c0-0.36-0.014-0.695-0.047-0.956h1.258c0.014,0.294,0.045,0.596,0.045,0.889h0.029h-0.008
			c0.195-0.348,0.578-0.978,1.486-0.978c1.264,0,1.645,0.978,1.645,2.147v3.735h-1.344v-3.477c0-0.888-0.215-1.261-0.768-1.261
			c-0.707,0-0.957,0.619-0.957,1.363v3.374h-1.34"/>
		<path fill="#2398D0" d="M345.793,17.286h1.385v1.373h-1.385 M345.813,19.748h1.344v5.794h-1.344V19.748z"/>
		<polyline fill="#2398D0" points="348.408,24.338 350.793,20.805 348.486,20.805 348.486,19.748 352.137,19.748 352.137,20.942 
			349.793,24.483 352.211,24.483 352.211,25.541 348.408,25.541 		"/>
		<path fill="#2398D0" d="M353.484,20.087c0.375-0.181,0.908-0.428,1.766-0.428c1.73,0,2.133,0.878,2.133,2.328v2.53
			c0,0.416,0.043,0.798,0.076,1.024h-1.211c-0.07-0.227-0.076-0.507-0.076-0.789h-0.023c-0.336,0.474-0.76,0.878-1.561,0.878
			c-0.865,0-1.668-0.617-1.668-1.697c0-1.574,1.234-1.97,2.936-1.97h0.271v-0.213c0-0.573-0.271-1.102-1.039-1.102
			c-0.674,0-1.27,0.337-1.531,0.563 M356.127,22.707h-0.121c-1.148,0-1.83,0.247-1.83,1.091c0,0.53,0.336,0.888,0.854,0.888
			c0.805,0,1.098-0.617,1.098-1.651V22.707z"/>
		<path fill="#2398D0" d="M358.93,18.557l1.342-0.427v1.62h1.113v1.022h-1.113v3.003c0,0.619,0.217,0.797,0.609,0.797
			c0.238,0,0.408-0.065,0.504-0.121v0.988c-0.201,0.103-0.494,0.191-0.896,0.191c-0.996,0-1.559-0.472-1.559-1.688v-3.171h-0.891
			V19.75h0.891"/>
		<path fill="#2398D0" d="M362.311,17.286h1.387v1.373h-1.387 M362.482,19.748h1.342v5.794h-1.342V19.748z"/>
		<path fill="#2398D0" d="M367.314,19.659c1.135,0,2.449,0.62,2.449,2.979c0,2.431-1.314,2.992-2.449,2.992
			c-1.137,0-2.461-0.562-2.461-2.992C364.854,20.279,366.178,19.659,367.314,19.659 M367.314,24.642
			c0.865,0,1.063-1.034,1.063-2.003c0-0.966-0.197-1.989-1.063-1.989s-1.072,1.023-1.072,1.989
			C366.242,23.607,366.449,24.642,367.314,24.642"/>
		<path fill="#2398D0" d="M370.934,20.704c0-0.36-0.014-0.695-0.045-0.956h1.256c0.014,0.294,0.047,0.596,0.047,0.889h0.031h-0.012
			c0.197-0.348,0.576-0.978,1.486-0.978c1.266,0,1.646,0.978,1.646,2.147v3.735h-1.34v-3.477c0-0.888-0.221-1.261-0.773-1.261
			c-0.705,0-0.953,0.619-0.953,1.363v3.374h-1.344"/>
		<path fill="#2398D0" d="M214.041,6.855h2.246c1.621,0,2.465,0.963,2.465,2.552c0,1.591-0.844,2.566-2.465,2.566h-0.808v3.286
			h-1.438 M216.02,10.793c0.897,0,1.292-0.47,1.292-1.386c0-0.915-0.395-1.372-1.292-1.372h-0.541v2.758H216.02z"/>
		<path fill="#2398D0" d="M219.516,9.421c0.393-0.192,0.943-0.457,1.832-0.457c1.798,0,2.215,0.938,2.215,2.492v2.708
			c0,0.446,0.045,0.855,0.078,1.096h-1.261c-0.066-0.24-0.076-0.541-0.076-0.843h-0.025c-0.348,0.508-0.784,0.94-1.616,0.94
			c-0.898,0-1.733-0.664-1.733-1.818c0-1.687,1.284-2.107,3.048-2.107h0.28v-0.229c0-0.613-0.28-1.18-1.077-1.18
			c-0.698,0-1.316,0.361-1.587,0.603 M222.257,12.226h-0.122c-1.191,0-1.899,0.266-1.899,1.17c0,0.564,0.347,0.95,0.888,0.95
			c0.832,0,1.134-0.663,1.134-1.771V12.226z"/>
		<path fill="#2398D0" d="M224.969,10.083c0-0.385-0.013-0.747-0.047-1.024h1.306c0.012,0.314,0.045,0.64,0.045,0.953h0.034h-0.012
			c0.202-0.375,0.596-1.048,1.541-1.048c1.314,0,1.709,1.048,1.709,2.299v3.997h-1.396v-3.721c0-0.95-0.226-1.348-0.798-1.348
			c-0.73,0-0.99,0.662-0.99,1.456v3.612h-1.393"/>
		<path fill="#2398D0" d="M237.47,13.238h-2.697l-0.563,2.021h-1.439l2.633-8.404h1.573l2.529,8.404h-1.484 M237.167,12.057
			l-0.99-3.924h-0.023l-1.078,3.924H237.167z"/>
		<path fill="#2398D0" d="M240.282,10.07c0-0.445-0.022-0.782-0.047-1.012h1.395c0.013,0.326,0.045,0.651,0.045,0.976h0.022
			c0.214-0.481,0.664-1.07,1.461-1.07c0.977,0,1.293,0.649,1.462,0.987c0.28-0.435,0.698-0.987,1.553-0.987
			c1.259,0,1.663,0.963,1.663,2.468v3.828h-1.394v-3.912c0-0.771-0.225-1.156-0.741-1.156c-0.62,0-0.945,0.627-0.945,1.312v3.757
			h-1.393v-3.912c0-0.771-0.227-1.156-0.743-1.156c-0.618,0-0.945,0.627-0.945,1.312v3.757h-1.393"/>
		<path fill="#2398D0" d="M253.424,14.96c-0.293,0.133-0.901,0.397-1.732,0.397c-1.864,0-2.677-1.433-2.677-3.107
			c0-1.854,0.912-3.286,2.387-3.286c1.246,0,2.313,0.782,2.313,3.311v0.289h-3.352c0,1.059,0.395,1.697,1.475,1.697
			c0.856,0,1.261-0.275,1.518-0.481 M252.368,11.624c0-1.097-0.337-1.649-0.966-1.649c-0.731,0-1.038,0.831-1.038,1.649H252.368z"/>
		<path fill="#2398D0" d="M254.954,10.083c0-0.385-0.014-0.747-0.048-1.024h1.262c0.012,0.374,0.043,0.759,0.043,1.133h0.021
			c0.171-0.481,0.61-1.228,1.476-1.228c0.089,0,0.155,0.022,0.235,0.035v1.397c-0.124-0.037-0.249-0.061-0.395-0.061
			c-0.572,0-1.203,0.374-1.203,1.528v3.396h-1.392"/>
		<path fill="#2398D0" d="M259.092,6.422h1.437v1.47h-1.437 M259.113,9.059h1.396v6.201h-1.396V9.059z"/>
		<path fill="#2398D0" d="M265.948,15.104c-0.328,0.132-0.811,0.252-1.375,0.252c-1.91,0-2.719-1.433-2.719-3.191
			c0-1.77,0.856-3.201,2.799-3.201c0.44,0,0.957,0.144,1.215,0.252l-0.078,1.18c-0.248-0.132-0.596-0.301-0.979-0.301
			c-1.056,0-1.519,0.758-1.519,2.083c0,1.156,0.517,2.047,1.585,2.047c0.34,0,0.8-0.169,0.99-0.301"/>
		<path fill="#2398D0" d="M267.195,9.421c0.392-0.192,0.944-0.457,1.831-0.457c1.801,0,2.217,0.938,2.217,2.492v2.708
			c0,0.446,0.044,0.855,0.077,1.096h-1.26c-0.066-0.24-0.076-0.541-0.076-0.843h-0.025c-0.349,0.508-0.786,0.94-1.616,0.94
			c-0.9,0-1.731-0.664-1.731-1.818c0-1.687,1.281-2.107,3.046-2.107h0.281v-0.229c0-0.613-0.281-1.18-1.08-1.18
			c-0.697,0-1.313,0.361-1.587,0.603 M269.938,12.226h-0.123c-1.191,0-1.901,0.266-1.901,1.17c0,0.564,0.351,0.95,0.891,0.95
			c0.832,0,1.134-0.663,1.134-1.771V12.226z"/>
		<path fill="#2398D0" d="M272.648,10.083c0-0.385-0.014-0.747-0.045-1.024h1.305c0.01,0.314,0.045,0.64,0.045,0.953h0.033h-0.012
			c0.201-0.375,0.596-1.048,1.541-1.048c1.314,0,1.711,1.048,1.711,2.299v3.997h-1.398v-3.721c0-0.95-0.223-1.348-0.795-1.348
			c-0.732,0-0.99,0.662-0.99,1.456v3.612h-1.395"/>
		<polyline fill="#2398D0" points="214.107,17.418 215.547,17.418 215.547,20.838 217.874,20.838 217.874,17.418 219.314,17.418 
			219.314,25.821 217.874,25.821 217.874,22.113 215.547,22.113 215.547,25.821 214.107,25.821 		"/>
		<path fill="#2398D0" d="M225.136,25.521c-0.293,0.132-0.9,0.398-1.731,0.398c-1.867,0-2.677-1.434-2.677-3.107
			c0-1.854,0.913-3.287,2.385-3.287c1.248,0,2.314,0.783,2.314,3.312v0.29h-3.35c0,1.059,0.394,1.697,1.473,1.697
			c0.856,0,1.26-0.278,1.519-0.482 M224.08,22.186c0-1.097-0.337-1.65-0.967-1.65c-0.73,0-1.035,0.832-1.035,1.65H224.08z"/>
		<path fill="#2398D0" d="M226.901,19.983c0.393-0.192,0.945-0.459,1.833-0.459c1.798,0,2.215,0.939,2.215,2.493v2.708
			c0,0.446,0.043,0.855,0.077,1.096h-1.26c-0.066-0.24-0.076-0.541-0.076-0.843h-0.024c-0.348,0.507-0.785,0.94-1.617,0.94
			c-0.898,0-1.733-0.663-1.733-1.818c0-1.688,1.284-2.108,3.048-2.108h0.28v-0.229c0-0.611-0.28-1.179-1.077-1.179
			c-0.697,0-1.315,0.361-1.587,0.602 M229.643,22.789h-0.122c-1.192,0-1.901,0.263-1.901,1.167c0,0.565,0.35,0.951,0.89,0.951
			c0.832,0,1.134-0.662,1.134-1.771V22.789z"/>
		<rect x="232.489" y="16.791" fill="#2398D0" width="1.395" height="9.03"/>
		<path fill="#2398D0" d="M235.907,18.345l1.393-0.458v1.734h1.159v1.096h-1.159v3.215c0,0.662,0.227,0.855,0.631,0.855
			c0.247,0,0.428-0.072,0.528-0.134v1.062c-0.213,0.106-0.516,0.204-0.933,0.204c-1.035,0-1.619-0.506-1.619-1.807v-3.396h-0.924
			v-1.096h0.924"/>
		<path fill="#2398D0" d="M239.459,16.791h1.395v3.625h0.032c0.249-0.386,0.574-0.892,1.439-0.892c1.315,0,1.711,1.049,1.711,2.3
			v3.997h-1.396v-3.72c0-0.949-0.225-1.349-0.798-1.349c-0.729,0-0.989,0.662-0.989,1.457v3.611h-1.395"/>
		<path fill="#2398D0" d="M216.918,27.858c1.629,0,3.124,1.302,3.124,4.324c0,3.021-1.495,4.321-3.124,4.321
			c-1.631,0-3.125-1.301-3.125-4.321C213.793,29.16,215.288,27.858,216.918,27.858 M216.918,35.324c0.909,0,1.641-0.83,1.641-3.142
			c0-2.313-0.731-3.144-1.641-3.144c-0.911,0-1.642,0.831-1.642,3.144C215.277,34.494,216.007,35.324,216.918,35.324"/>
		<path fill="#2398D0" d="M221.348,31.206c0-0.385-0.014-0.748-0.047-1.023h1.26c0.012,0.374,0.045,0.76,0.045,1.132h0.022
			c0.168-0.481,0.608-1.229,1.475-1.229c0.087,0,0.155,0.024,0.234,0.037v1.396c-0.123-0.036-0.247-0.061-0.394-0.061
			c-0.573,0-1.203,0.374-1.203,1.529v3.395h-1.393"/>
		<path fill="#2398D0" d="M225.442,37.347c0.325,0.191,0.979,0.531,1.709,0.531c1.315,0,1.528-0.977,1.528-1.951v-0.59h-0.023
			c-0.224,0.481-0.617,1.048-1.528,1.048c-0.808,0-2.024-0.579-2.024-3.083c0-1.711,0.573-3.214,2.093-3.214
			c0.843,0,1.236,0.517,1.528,1.059h0.046c0-0.327,0.033-0.639,0.044-0.964h1.262c-0.025,0.325-0.047,0.65-0.047,0.976v4.575
			c0,1.938-0.552,3.325-2.676,3.325c-0.923,0-1.653-0.255-1.989-0.387 M227.454,35.289c0.879,0,1.226-0.675,1.226-2.083
			c0-1.301-0.461-2-1.125-1.988c-0.729,0.011-1.011,0.735-1.011,1.999C226.543,34.675,226.982,35.289,227.454,35.289"/>
		<path fill="#2398D0" d="M231.694,30.544c0.392-0.192,0.944-0.456,1.832-0.456c1.797,0,2.215,0.938,2.215,2.491v2.708
			c0,0.447,0.043,0.856,0.078,1.098h-1.26c-0.067-0.241-0.078-0.544-0.078-0.845h-0.023c-0.348,0.507-0.786,0.94-1.618,0.94
			c-0.898,0-1.731-0.663-1.731-1.819c0-1.685,1.283-2.105,3.046-2.105h0.281v-0.23c0-0.614-0.281-1.179-1.077-1.179
			c-0.698,0-1.315,0.362-1.588,0.601 M234.435,33.35h-0.122c-1.19,0-1.901,0.265-1.901,1.168c0,0.565,0.349,0.951,0.889,0.951
			c0.833,0,1.135-0.662,1.135-1.771V33.35z"/>
		<path fill="#2398D0" d="M237.145,31.206c0-0.385-0.013-0.748-0.046-1.023h1.306c0.011,0.313,0.046,0.639,0.046,0.951h0.033h-0.013
			c0.203-0.373,0.597-1.048,1.54-1.048c1.315,0,1.711,1.048,1.711,2.3v3.997h-1.396v-3.719c0-0.953-0.224-1.35-0.796-1.35
			c-0.731,0-0.99,0.663-0.99,1.458v3.61h-1.395"/>
		<path fill="#2398D0" d="M243.205,27.545h1.438v1.471h-1.438 M243.228,30.183h1.396v6.202h-1.396V30.183z"/>
		<polyline fill="#2398D0" points="245.814,35.096 248.286,31.313 245.893,31.313 245.893,30.183 249.68,30.183 249.68,31.459 
			247.252,35.251 249.759,35.251 249.759,36.385 245.814,36.385 		"/>
		<path fill="#2398D0" d="M251.098,30.544c0.392-0.192,0.944-0.456,1.832-0.456c1.799,0,2.216,0.938,2.216,2.491v2.708
			c0,0.447,0.042,0.856,0.077,1.098h-1.26c-0.068-0.241-0.076-0.544-0.076-0.845h-0.024c-0.351,0.507-0.786,0.94-1.618,0.94
			c-0.899,0-1.731-0.663-1.731-1.819c0-1.685,1.282-2.105,3.047-2.105h0.281v-0.23c0-0.614-0.281-1.179-1.08-1.179
			c-0.697,0-1.313,0.362-1.587,0.601 M253.841,33.35h-0.123c-1.192,0-1.901,0.265-1.901,1.168c0,0.565,0.348,0.951,0.889,0.951
			c0.832,0,1.136-0.662,1.136-1.771V33.35z"/>
		<path fill="#2398D0" d="M257.065,28.907l1.396-0.458v1.733h1.158v1.096h-1.158v3.215c0,0.662,0.226,0.857,0.63,0.857
			c0.248,0,0.43-0.074,0.528-0.134v1.06c-0.214,0.108-0.517,0.204-0.933,0.204c-1.036,0-1.621-0.506-1.621-1.806v-3.396h-0.92
			v-1.096h0.92"/>
		<path fill="#2398D0" d="M260.731,27.545h1.439v1.471h-1.439 M260.753,30.183h1.396v6.202h-1.396V30.183z"/>
		<path fill="#2398D0" d="M266.049,30.088c1.181,0,2.541,0.662,2.541,3.189c0,2.601-1.36,3.203-2.541,3.203
			s-2.553-0.603-2.553-3.203C263.497,30.75,264.869,30.088,266.049,30.088 M266.049,35.42c0.898,0,1.1-1.108,1.1-2.143
			c0-1.035-0.201-2.133-1.1-2.133c-0.899,0-1.113,1.098-1.113,2.133C264.936,34.312,265.15,35.42,266.049,35.42"/>
		<path fill="#2398D0" d="M269.805,31.206c0-0.385-0.015-0.748-0.047-1.023h1.305c0.012,0.313,0.046,0.639,0.046,0.951h0.034h-0.012
			c0.201-0.373,0.594-1.048,1.541-1.048c1.316,0,1.707,1.048,1.707,2.3v3.997h-1.393v-3.719c0-0.953-0.225-1.35-0.799-1.35
			c-0.73,0-0.991,0.663-0.991,1.458v3.61h-1.392"/>
		<path fill="#2398D0" d="M194.155,38.688c-9.367,0-16.985-7.523-16.985-16.77c0-9.247,7.618-16.77,16.985-16.77
			c9.366,0,16.987,7.522,16.987,16.77C211.142,31.164,203.521,38.688,194.155,38.688 M194.155,5.917
			c-8.938,0-16.207,7.178-16.207,16.001c0,8.822,7.27,15.998,16.207,15.998c8.939,0,16.209-7.176,16.209-15.998
			C210.364,13.095,203.094,5.917,194.155,5.917"/>
		<path fill="#2398D0" d="M194.155,34.076c-6.973,0-12.646-5.454-12.646-12.158c0-6.705,5.674-12.161,12.646-12.161
			c6.975,0,12.647,5.456,12.647,12.161C206.802,28.622,201.129,34.076,194.155,34.076 M194.155,10.614
			c-6.495,0-11.778,5.068-11.778,11.304c0,6.232,5.283,11.302,11.778,11.302c6.497,0,11.781-5.069,11.781-11.302
			C205.936,15.683,200.652,10.614,194.155,10.614"/>
		<polyline fill="#2398D0" points="180.739,16.084 180.961,16.904 181.772,16.904 181.181,17.364 181.403,18.083 180.704,17.516 
			180.02,18.136 180.296,17.364 179.596,16.907 180.408,16.924 		"/>
		<path fill="#2398D0" d="M181.487,18.206l-0.78-0.634l-0.656,0.594l-0.07-0.045l0.265-0.738l-0.797-0.521l0.932,0.019l0.367-0.935
			l0.248,0.916h0.902l-0.665,0.52 M179.745,16.952l0.604,0.396l-0.229,0.64l0.582-0.528l0.618,0.501l-0.188-0.61l0.516-0.403h-0.72
			l-0.196-0.725l-0.294,0.746L179.745,16.952z"/>
		<polyline fill="#2398D0" points="206.648,27.716 206.872,28.536 207.679,28.536 207.09,28.999 207.314,29.719 206.611,29.148 
			205.929,29.769 206.207,28.999 205.503,28.54 206.317,28.557 		"/>
		<path fill="#2398D0" d="M207.396,29.841l-0.783-0.636l-0.656,0.596l-0.07-0.047l0.268-0.737l-0.798-0.522l0.931,0.021l0.369-0.936
			l0.248,0.915h0.9l-0.664,0.521 M205.652,28.586l0.606,0.396l-0.231,0.639l0.584-0.528l0.619,0.503l-0.189-0.611l0.516-0.403
			h-0.719l-0.197-0.726l-0.296,0.746L205.652,28.586z"/>
		<polyline fill="#2398D0" points="181.607,27.533 181.829,28.353 182.64,28.353 182.05,28.815 182.27,29.535 181.571,28.967 
			180.887,29.584 181.165,28.815 180.463,28.356 181.276,28.375 		"/>
		<path fill="#2398D0" d="M182.354,29.657l-0.781-0.633l-0.655,0.593l-0.07-0.048l0.265-0.737l-0.796-0.521l0.931,0.021l0.367-0.937
			l0.249,0.915h0.902l-0.664,0.52 M180.613,28.403l0.604,0.396l-0.229,0.638l0.581-0.527l0.619,0.504L182,28.8l0.516-0.403h-0.72
			l-0.197-0.726l-0.293,0.746L180.613,28.403z"/>
		<polyline fill="#2398D0" points="207.654,15.493 207.95,16.314 208.687,16.314 208.097,16.774 208.319,17.494 207.654,16.887 
			206.936,17.545 207.212,16.774 206.51,16.317 207.323,16.334 		"/>
		<path fill="#2398D0" d="M208.407,17.633l-0.755-0.69l-0.688,0.634l-0.07-0.045l0.267-0.74l-0.797-0.519l0.931,0.02l0.36-0.923
			l0.325,0.903h0.834l-0.667,0.517 M206.66,16.363l0.605,0.394l-0.232,0.638l0.619-0.567l0.58,0.528l-0.185-0.598l0.515-0.4h-0.643
			l-0.268-0.743l-0.301,0.763L206.66,16.363z"/>
		<path fill="#2398D0" d="M195.155,21.912c0.068-0.003,0.138-0.003,0.203,0"/>
		<polyline fill="#2398D0" points="185.55,31.445 185.907,31.766 184.214,33.571 183.833,33.226 184.296,31.265 184.29,31.259 
			183.083,32.546 182.728,32.225 184.42,30.417 184.821,30.782 184.366,32.696 184.373,32.701 		"/>
		<path fill="#2398D0" d="M194.789,9.08l-0.553-0.054l1.143-2.336l0.603,0.06l0.638,2.509l-0.57-0.056l-0.107-0.516l-0.929-0.09
			 M195.194,8.192l0.643,0.062l-0.215-0.988h-0.006L195.194,8.192z"/>
		<polyline fill="#2398D0" points="198.177,9.195 199.368,9.569 199.221,9.984 197.532,9.454 198.332,7.163 198.83,7.319 		"/>
		<path fill="#2398D0" d="M202.008,10.687c-0.36,0.533-0.845,0.554-1.375,0.224c-0.189-0.121-0.447-0.347-0.496-0.665
			c-0.028-0.193,0.038-0.386,0.169-0.595l0.907-1.344l0.446,0.281l-0.889,1.314c-0.19,0.284-0.104,0.514,0.098,0.642
			c0.301,0.189,0.518,0.127,0.684-0.12l0.901-1.338l0.444,0.281"/>
		<polyline fill="#2398D0" points="203.147,12.613 202.741,12.292 204.071,10.76 203.486,10.296 203.771,9.965 205.348,11.219 
			205.062,11.549 204.478,11.082 		"/>
		<path fill="#2398D0" d="M192.004,8.514c0.025,0.134,0.14,0.381,0.593,0.314c0.244-0.035,0.508-0.133,0.464-0.388
			c-0.032-0.189-0.226-0.215-0.499-0.236l-0.277-0.021c-0.416-0.031-0.817-0.064-0.906-0.596c-0.046-0.271,0.023-0.766,0.828-0.885
			c0.762-0.109,1.047,0.346,1.098,0.643l-0.495,0.071c-0.033-0.105-0.118-0.355-0.569-0.289c-0.199,0.029-0.421,0.134-0.384,0.352
			c0.032,0.188,0.198,0.207,0.306,0.216l0.628,0.057c0.353,0.031,0.686,0.121,0.759,0.556c0.122,0.726-0.627,0.901-0.846,0.934
			c-0.905,0.133-1.146-0.354-1.197-0.654"/>
		<path fill="#2398D0" d="M186.32,8.579c0.294-0.149,1.134-0.418,1.679,0.599c0.544,1.012-0.164,1.527-0.457,1.677
			c-0.296,0.148-1.135,0.418-1.679-0.596C185.318,9.244,186.026,8.729,186.32,8.579 M187.334,10.473
			c0.254-0.128,0.523-0.456,0.2-1.062c-0.324-0.605-0.759-0.577-1.011-0.448c-0.25,0.127-0.521,0.455-0.198,1.06
			C186.651,10.628,187.085,10.6,187.334,10.473"/>
		<path fill="#2398D0" d="M182.701,11.52l0.874-0.892c0.461-0.47,0.895-0.232,1.05-0.089c0.196,0.184,0.268,0.437,0.158,0.667
			c0.206-0.084,0.338-0.113,0.671,0.195c0.261,0.242,0.325,0.303,0.434,0.252l0.048,0.043l-0.401,0.407
			c-0.11-0.053-0.216-0.123-0.399-0.293c-0.243-0.228-0.352-0.301-0.62-0.026l-0.372,0.382l0.697,0.648l-0.353,0.359
			 M184.264,11.453c0.188-0.191,0.212-0.349,0.036-0.511c-0.095-0.087-0.275-0.175-0.486,0.043l-0.452,0.458l0.479,0.444
			L184.264,11.453z"/>
		<polyline fill="#2398D0" points="200.972,32.881 201.399,32.65 202.616,34.754 202.159,35.002 200.4,33.984 200.395,33.987 
			201.26,35.486 200.835,35.719 199.62,33.615 200.1,33.353 201.815,34.351 201.821,34.346 		"/>
		<path fill="#2398D0" d="M201.882,32.205l0.874-0.654c0.665-0.502,1.246-0.054,1.538,0.311c0.33,0.409,0.639,1.127-0.016,1.618
			l-0.856,0.642 M203.562,33.485l0.4-0.299c0.338-0.252,0.188-0.667-0.069-0.981c-0.454-0.564-0.768-0.402-0.941-0.271l-0.397,0.299
			L203.562,33.485z"/>
		<polyline fill="#2398D0" points="206.066,31.852 205.722,32.233 203.841,30.637 204.184,30.255 		"/>
		<polyline fill="#2398D0" points="206.869,13.813 206.063,12.786 205.645,13.097 206.386,14.038 206.035,14.297 205.292,13.355 
			204.776,13.733 205.619,14.807 205.263,15.065 204.112,13.596 206.108,12.131 207.224,13.556 		"/>
		<path fill="#2398D0" d="M187.213,32.7c0.271,0.186,0.904,0.782,0.237,1.717c-0.669,0.935-1.467,0.563-1.738,0.38
			c-0.272-0.185-0.903-0.781-0.235-1.718C186.146,32.147,186.942,32.518,187.213,32.7 M185.965,34.443
			c0.23,0.158,0.656,0.24,1.057-0.316c0.398-0.558,0.172-0.92-0.061-1.075c-0.232-0.157-0.656-0.237-1.055,0.319
			C185.507,33.929,185.734,34.287,185.965,34.443"/>
		<polyline fill="#2398D0" points="189.871,34.018 190.375,34.204 188.673,36.183 188.212,36.01 188.343,33.448 188.862,33.64 
			188.67,35.547 188.675,35.55 		"/>
		<polyline fill="#2398D0" points="190.72,36.773 190.212,36.645 190.859,34.315 191.366,34.445 		"/>
		<polyline fill="#2398D0" points="196.656,36.957 196.167,36.99 196.025,34.966 196.018,34.966 195.695,37.021 195.178,37.057 
			194.58,35.063 194.572,35.063 194.714,37.088 194.227,37.121 194.056,34.698 194.821,34.646 195.408,36.526 195.417,36.526 
			195.729,34.586 196.488,34.535 		"/>
		<path fill="#2398D0" d="M199.564,35.451c0.165,0.624-0.152,0.987-0.763,1.137c-0.226,0.057-0.572,0.086-0.851-0.095
			c-0.171-0.113-0.273-0.294-0.342-0.527l-0.417-1.568l0.52-0.129l0.406,1.536c0.089,0.33,0.322,0.428,0.561,0.367
			c0.348-0.085,0.45-0.285,0.373-0.57l-0.414-1.563l0.52-0.126"/>
		<path fill="#2398D0" d="M182.957,15.068l-0.293,0.425l-2.071-1.372l0.642-0.929c0.272-0.392,0.695-0.459,1.099-0.19
			c0.189,0.124,0.592,0.54,0.214,1.087l-0.336,0.485 M182.125,13.943c0.219-0.317-0.013-0.468-0.105-0.529
			c-0.201-0.134-0.361-0.08-0.542,0.183l-0.234,0.336l0.607,0.404L182.125,13.943z"/>
		<path fill="#2398D0" d="M196.632,31.474c0.184,0.415-0.292,0.312-0.475,0.459h-0.154C196.033,31.696,196.296,31.31,196.632,31.474
			"/>
		<path fill="#2398D0" d="M193.935,24.065v0.163h-0.644C193.23,23.871,193.783,23.813,193.935,24.065"/>
		<polyline fill="#2398D0" points="195.054,19.824 195.365,19.449 196.192,19.381 196.57,19.312 196.397,19.654 195.95,19.824 
			196.018,19.654 195.503,19.619 195.226,19.824 		"/>
		<polyline fill="#2398D0" points="197.088,19.348 197.363,19.312 197.673,19.451 197.501,19.654 197.192,19.723 197.052,19.893 
			196.88,19.758 196.606,19.824 196.571,19.688 196.813,19.621 196.71,19.482 196.813,19.382 		"/>
		<polyline fill="#2398D0" points="197.94,19.669 198.111,19.532 198.421,19.565 198.352,19.736 197.904,19.838 		"/>
		<polyline fill="#2398D0" points="195.503,20.062 195.846,20.028 195.777,20.233 195.434,20.233 		"/>
		<polyline fill="#2398D0" points="197.844,20.011 198.049,19.856 198.163,19.965 198.027,20.078 		"/>
		<polyline fill="#2398D0" points="197.667,20.343 197.84,20.547 197.979,20.479 197.874,20.139 		"/>
		<polyline fill="#2398D0" points="198.298,20.472 198.4,20.335 198.091,20.164 		"/>
		<line fill="#2398D0" x1="198.298" y1="20.472" x2="198.4" y2="20.335"/>
		<polyline fill="#2398D0" points="198.643,20.319 198.766,20.368 198.716,20.866 198.55,20.415 		"/>
		<path fill="#2398D0" d="M193.138,12.666c0.124-0.135,0.031-0.714-0.167-0.772c-0.229,0.355,0.473,0.52,0,0.772 M194.243,14.521
			c-0.028-0.278-0.099-0.867,0.164-1.234l0.157-0.16c-0.061,0.046-0.113,0.1-0.157,0.16l-0.317-0.311l0.153-0.16
			c-0.23,0.073-0.308-0.194-0.476-0.298c-0.216,0.579,1.165,1.32-0.152,1.379c-0.094-0.087-0.215-0.163-0.171-0.312h-0.151v0.163
			h0.151c-0.089,0.077-0.167,0.194-0.306,0.148c-0.014,0.178,0.031,0.373-0.167,0.461h0.321c0.091,0.089,0.215,0.163,0.151,0.312
			c0.216,0.06,0.537-0.134,0.646,0.149C194.043,14.684,194.166,14.61,194.243,14.521 M195.932,21.912
			c0.34-0.209,0.533-0.35,1.024-0.459c-0.05,0.15,0.073,0.223,0.149,0.313c0.351-0.396,0.567-0.072,0.831,0.146
			c0.128,0.109,0.27,0.192,0.442,0.148c0.01-0.048,0.033-0.097,0.062-0.148h0.17c0.236,0.572,1.131,0.908,1.208,1.548
			c0.553,0.265,1.319,0.041,1.746,0.605c1.119,1.231-1.346,1.678-0.95,2.941c-0.198,0.813-0.827,0.949-1.593,1.067
			c-0.246,0.623-0.735,0.876-1.27,1.233c-0.796-0.03-0.904,0.548-1.595,0.771c-0.244,0.801-0.921,1.023-1.118,1.854
			c0.123,0.253,0.551,0.105,0.474,0.459c-0.551,0.018-1.256-0.31-1.271-0.918c0.214-1.724,1.486-3.029,1.594-4.779
			c-0.858-0.624-0.998-1.812-0.951-2.925c0.552-0.28,0.431-0.831,0.628-1.232l-0.306-0.312c-0.322,0.461-0.537-0.238-0.965,0
			c-0.029-0.115-0.087-0.218-0.16-0.313c-0.176-0.222-0.443-0.403-0.639-0.622c-0.626-0.193-1.33-0.238-1.898-0.609
			c-0.72-0.059-0.307-0.858-0.949-1.083c-0.092,0.09-0.216,0.163-0.171,0.313c-1.024-0.269-0.61-1.382-1.101-2.005
			c0.108-0.438,0.125-0.846,0.033-1.233c-0.063-0.266-0.182-0.521-0.355-0.771c-1.012-1.099-2.132,0.801-3.341,0.149
			c0.444-0.028,0.812-0.237,1.104-0.608c-0.093-0.148-0.367-0.238-0.308-0.462l0.154-0.162l-0.154-0.149l0.154-0.148
			c-0.092-0.089-0.214-0.163-0.154-0.313c0.599-0.475,1.412-1.128,2.376-1.082c0.736-0.269,1.731,0.593,2.393-0.311
			c-0.338-0.017-0.692-0.507-0.324-0.759c0.229,0.029,0.475-0.37,0.644,0c0.2-0.104,0.152-0.297,0.152-0.476
			c0.523-0.282,1.089,0.595,1.273-0.147h0.321c-0.047,0.147,0.078,0.223,0.151,0.312l0.171-0.164l0.152,0.164
			c0.43-0.416,0.704,0.431,1.272,0.148c0.429,0.268,0.689,0.86,0.797,1.395c-0.168,0-0.368-0.044-0.476,0.147l0.643,0.625
			c0.198-0.104,0.154-0.298,0.154-0.476c0.768,0.387,1.225,1.173,1.595,1.857c-0.827,0.134-1.581,0.49-2.069,1.229
			c0.506,1.249-1.624,1.219-0.644,2.466l-0.315,0.314c-0.035-0.289-0.131-0.548-0.313-0.775c-0.828,0.521-2.268-0.52-2.068,1.084
			c0.213,0.179,0.199,0.446,0.475,0.609c0.397,0.179,0.537-0.312,0.797-0.46v-0.149h0.628c0.337,0.564-0.704,1.232,0.321,1.381
			c0,0.178,0.046,0.372-0.152,0.462c0.078,0.213,0.216,0.289,0.374,0.309c0.117,0.02,0.242,0.009,0.368,0h0.204
			c0.124,0.012,0.24,0.047,0.325,0.148C195.776,22.008,195.859,21.959,195.932,21.912"/>
		<path fill="#2398D0" d="M207.681,18.865c0.119-0.021,0.292-0.035,0.545-0.035c0.234,0,0.402,0.041,0.517,0.127
			c0.114,0.082,0.189,0.228,0.189,0.395c0,0.162-0.058,0.308-0.158,0.4c-0.136,0.116-0.327,0.168-0.548,0.168
			c-0.044,0-0.083-0.003-0.109-0.006v0.553h-0.436 M208.117,19.582c0.024,0.001,0.053,0.006,0.101,0.006
			c0.173,0,0.28-0.089,0.28-0.227c0-0.121-0.085-0.202-0.248-0.202c-0.067,0-0.11,0.004-0.133,0.006V19.582z"/>
		<path fill="#2398D0" d="M208.392,22.347l-0.091,0.375h-0.455l0.477-1.624h0.588l0.488,1.624h-0.475l-0.106-0.375 M208.757,22.024
			l-0.076-0.293c-0.023-0.092-0.055-0.225-0.08-0.32h-0.003c-0.025,0.096-0.051,0.23-0.073,0.323l-0.071,0.29H208.757z"/>
		<polyline fill="#2398D0" points="208.041,23.415 208.041,24.017 208.575,24.017 208.575,23.415 209.013,23.415 209.013,25.04 
			208.575,25.04 208.575,24.397 208.041,24.397 208.041,25.04 207.6,25.04 207.6,23.415 		"/>
		<path fill="#2398D0" d="M208.623,26.513c0,0.523-0.315,0.855-0.822,0.855c-0.512,0-0.795-0.377-0.795-0.83
			c0-0.472,0.316-0.847,0.82-0.847C208.357,25.691,208.623,26.079,208.623,26.513 M207.475,26.533c0,0.304,0.134,0.489,0.347,0.489
			c0.21,0,0.336-0.203,0.336-0.494c0-0.28-0.128-0.493-0.34-0.493C207.609,26.035,207.475,26.233,207.475,26.533"/>
		<path fill="#2398D0" d="M180.86,20.503c0,0.523-0.317,0.856-0.824,0.856c-0.51,0-0.79-0.38-0.79-0.83
			c0-0.473,0.313-0.847,0.815-0.847C180.592,19.683,180.86,20.067,180.86,20.503 M179.709,20.522c0,0.303,0.137,0.49,0.348,0.49
			c0.212,0,0.337-0.205,0.337-0.495c0-0.281-0.127-0.492-0.34-0.492C179.846,20.025,179.709,20.224,179.709,20.522"/>
		<path fill="#2398D0" d="M179.246,22.323c0.118-0.021,0.292-0.035,0.543-0.035c0.236,0,0.404,0.042,0.519,0.127
			c0.113,0.083,0.188,0.229,0.188,0.394c0,0.163-0.057,0.309-0.158,0.4c-0.134,0.119-0.327,0.167-0.549,0.167
			c-0.042,0-0.082,0-0.106-0.002v0.552h-0.437 M179.682,23.04c0.023,0.002,0.051,0.006,0.1,0.006c0.173,0,0.28-0.088,0.28-0.228
			c0-0.119-0.083-0.202-0.248-0.202c-0.067,0-0.112,0.006-0.132,0.011V23.04z"/>
		<path fill="#2398D0" d="M179.954,25.771c0.099,0.051,0.263,0.103,0.428,0.103c0.149,0,0.223-0.052,0.223-0.133
			c0-0.079-0.073-0.126-0.257-0.189c-0.279-0.096-0.463-0.249-0.463-0.488c0-0.286,0.244-0.508,0.659-0.508
			c0.196,0,0.336,0.035,0.446,0.083l-0.092,0.348c-0.072-0.033-0.191-0.078-0.359-0.078c-0.133,0-0.208,0.049-0.208,0.122
			c0,0.082,0.089,0.114,0.296,0.192c0.296,0.106,0.429,0.263,0.429,0.49c0,0.278-0.221,0.521-0.701,0.521
			c-0.197,0-0.391-0.053-0.483-0.103"/>
		<path fill="#2398D0" d="M3.262,5.802h24.757c5.854,0,13.749,2.493,13.749,11.51c0,8.729-6.283,12.325-13.803,12.325H17.654v9.64
			H3.262V5.802z M17.279,21.868h3.168c3.438,0,6.928-0.576,6.928-4.314c0-3.55-3.49-3.982-6.98-3.982h-3.115V21.868z"/>
		<path fill="#2398D0" d="M51.71,5.804h19.816l13.372,33.473H69.808l-2.471-7.241H55.201l-2.31,7.241H38.553L51.71,5.804z
			 M57.188,23.979h8.325l-4.082-10.981h-0.108L57.188,23.979z"/>
		<polygon fill="#2398D0" points="110.792,5.804 125.184,5.804 125.184,39.276 110.792,39.276 110.792,27.238 101.179,27.238 
			101.179,39.276 86.787,39.276 86.787,5.804 101.179,5.804 101.179,17.361 110.792,17.361 		"/>
		<path fill="#2398D0" d="M149.678,39.852c-13.103,0-20.783-5.898-20.783-17.311c0-11.222,7.681-17.313,20.783-17.313
			c13.104,0,20.945,6.092,20.945,17.313C170.624,33.953,162.783,39.852,149.678,39.852 M149.678,31.796
			c5.693,0,5.854-5.658,5.907-9.255c-0.053-3.117-0.43-9.255-5.907-9.255c-5.316,0-5.746,6.138-5.746,9.255
			C143.932,26.138,144.523,31.796,149.678,31.796"/>
	</g>
	<rect x="389.736" y="6.355" fill="#2398D0" width="1.041" height="33.148"/>
</g>
</svg>
