<?xml version="1.0" encoding="utf-8"?>
<!-- Generator: Adobe Illustrator 14.0.0, SVG Export Plug-In . SVG Version: 6.00 Build 43363)  -->
<!DOCTYPE svg PUBLIC "-//W3C//DTD SVG 1.1//EN" "http://www.w3.org/Graphics/SVG/1.1/DTD/svg11.dtd">
<svg version="1.1" id="Camada_1" xmlns="http://www.w3.org/2000/svg" xmlns:xlink="http://www.w3.org/1999/xlink" x="0px" y="0px"
	 width="503px" height="115px" viewBox="0 0 503 115" enable-background="new 0 0 503 115" xml:space="preserve">
<g>
	<g>
		<rect x="272.131" y="10.213" width="1.516" height="94.575"/>
		<g>
			<path d="M6.841,8.66h34.65c8.19,0,19.239,3.488,19.239,16.106c0,12.216-8.794,17.248-19.315,17.248H26.983v13.49H6.841V8.66z
				 M26.457,31.144h4.436c4.81,0,9.695-0.806,9.695-6.04c0-4.968-4.886-5.571-9.771-5.571h-4.359V31.144z"/>
			<path d="M74.646,8.659h27.733l18.715,46.847h-21.12l-3.457-10.134H79.531l-3.232,10.134H56.229L74.646,8.659z M82.312,34.096
				h11.649l-5.713-15.369h-0.15L82.312,34.096z"/>
			<polygon points="157.331,8.661 177.474,8.661 177.474,55.505 157.331,55.505 157.331,38.66 143.876,38.66 143.876,55.505 
				123.734,55.505 123.734,8.661 143.876,8.661 143.876,24.834 157.331,24.834 			"/>
			<path d="M211.755,56.312c-18.338,0-29.086-8.256-29.086-24.229c0-15.705,10.748-24.229,29.086-24.229
				c18.339,0,29.312,8.524,29.312,24.229C241.066,48.056,230.094,56.312,211.755,56.312 M211.755,45.036
				c7.966,0,8.193-7.919,8.269-12.954c-0.075-4.361-0.603-12.952-8.269-12.952c-7.44,0-8.043,8.591-8.043,12.952
				C203.712,37.117,204.54,45.036,211.755,45.036"/>
			<path d="M178.84,103.446c0-0.611-0.22-0.836-0.53-0.836c-0.414,0-0.572,0.346-0.572,0.744v3.359h-1.396v-3.268
				c0-0.672-0.256-0.836-0.484-0.836c-0.459,0-0.619,0.459-0.619,1.133v2.971h-1.395v-4.195c0-0.506-0.01-0.834-0.037-1.109h1.273
				c0.018,0.234,0.036,0.529,0.036,0.889h0.016c0.212-0.582,0.565-0.971,1.3-0.971c0.66,0,0.996,0.357,1.191,0.887
				c0.203-0.498,0.529-0.887,1.262-0.887c1.014,0,1.352,0.857,1.352,1.914v3.473h-1.396"/>
			<path d="M185.125,104.483h-2.71c0,0.633,0.354,1.211,1.14,1.211c0.476,0,0.955-0.201,1.298-0.414l0.027,1.211
				c-0.45,0.193-0.979,0.307-1.457,0.307c-1.615,0-2.332-1.133-2.332-2.75c0-1.428,0.724-2.719,2.039-2.719
				c0.416,0,1.995,0,1.995,2.77 M183.854,103.61c0-0.674-0.149-1.305-0.725-1.305c-0.715,0-0.715,1.02-0.715,1.305H183.854z"/>
			<path d="M185.946,102.519c0-0.508-0.008-0.834-0.035-1.109h1.273c0.008,0.316,0.025,0.643,0.033,0.957h0.019
				c0.282-0.568,0.478-1.037,1.28-1.037h0.203v1.486c-0.15-0.041-0.274-0.063-0.468-0.063c-0.813,0-0.909,0.816-0.909,1.588v2.375
				h-1.396"/>
			<path d="M189.425,99.077h1.396v1.426h-1.396 M189.425,101.409h1.398v5.307h-1.398V101.409z"/>
			<path d="M195.087,106.573c-0.408,0.123-0.823,0.225-1.264,0.225c-1.775,0-2.173-1.711-2.173-2.68
				c0-1.631,0.812-2.789,2.278-2.789c0.458,0,0.705,0.133,1.113,0.252l-0.072,1.215c-0.256-0.113-0.521-0.227-0.811-0.227
				c-1.062,0-1.062,1.346-1.062,1.549c0,1.119,0.601,1.477,1.132,1.477c0.291,0,0.557-0.121,0.813-0.234"/>
			<path d="M196.073,101.667c0.361-0.133,0.98-0.338,1.484-0.338c1.613,0,1.986,0.773,1.986,1.955v1.934
				c0,0.785,0.009,1.141,0.035,1.498h-1.271l-0.035-0.734h-0.019c-0.062,0.326-0.598,0.816-1.261,0.816
				c-0.857,0-1.423-0.645-1.423-1.609c0-1.771,1.794-1.783,2.277-1.783h0.425c0-1.018-0.654-1.018-0.854-1.018
				c-0.356,0-0.734,0.09-1.282,0.469 M198.272,104.159c-0.557,0-1.43,0.041-1.43,0.928c0,0.691,0.484,0.691,0.6,0.691
				c0.123,0,0.83-0.021,0.83-1.314V104.159z"/>
			<path d="M203.235,102.745c-0.373-0.174-0.715-0.287-1.123-0.287c-0.363,0-0.519,0.203-0.519,0.389
				c0,0.326,0.202,0.436,0.962,0.764c0.476,0.203,0.963,0.549,0.963,1.547c0,1.18-0.77,1.639-1.697,1.639
				c-0.404,0-1.024-0.051-1.509-0.256l0.034-1.24c0.336,0.236,0.762,0.367,1.15,0.367c0.651,0,0.695-0.266,0.695-0.5
				s-0.361-0.336-0.963-0.621c-0.484-0.232-0.963-0.682-0.963-1.629c0-0.57,0.355-1.588,1.723-1.588c0.574,0,1.05,0.121,1.28,0.213"
				/>
			<line x1="232.915" y1="96.103" x2="167.708" y2="96.103"/>
			<rect x="167.708" y="95.769" width="65.207" height="0.668"/>
			<path d="M128.429,103.448h0.817c0.465,0,0.78,0.26,0.78,0.855c0,0.426-0.215,0.707-0.508,0.764v0.014
				c0.098,0.02,0.207,0.076,0.289,0.377l0.342,1.238h-0.511l-0.258-1.055c-0.063-0.258-0.188-0.342-0.364-0.342h-0.109v1.396h-0.479
				 M129.104,104.862c0.255,0,0.428-0.162,0.428-0.492c0-0.373-0.158-0.465-0.428-0.465h-0.196v0.957H129.104z"/>
			<polyline points="130.348,103.448 131.724,103.448 131.724,103.923 130.829,103.923 130.829,104.786 131.676,104.786 
				131.676,105.263 130.829,105.263 130.829,106.222 131.761,106.222 131.761,106.696 130.348,106.696 			"/>
			<path d="M133.078,104.876h0.847v1.699c-0.135,0.09-0.368,0.166-0.708,0.166c-0.841,0-1.288-0.707-1.288-1.67
				s0.447-1.67,1.288-1.67c0.299,0,0.535,0.084,0.636,0.139l-0.025,0.537c-0.154-0.117-0.363-0.201-0.603-0.201
				c-0.512,0-0.785,0.521-0.785,1.195c0,0.73,0.267,1.197,0.757,1.197c0.114,0,0.214-0.027,0.278-0.061v-0.875h-0.396"/>
			<rect x="134.281" y="103.448" width="0.479" height="3.248"/>
			<path d="M136.069,103.401c0.543,0,1.042,0.502,1.042,1.672c0,1.168-0.499,1.67-1.042,1.67c-0.545,0-1.043-0.502-1.043-1.67
				C135.026,103.903,135.524,103.401,136.069,103.401 M136.069,106.288c0.303,0,0.548-0.322,0.548-1.215
				c0-0.895-0.245-1.217-0.548-1.217s-0.547,0.322-0.547,1.217C135.522,105.966,135.767,106.288,136.069,106.288"/>
			<polyline points="137.37,103.448 137.94,103.448 138.812,105.997 138.818,105.997 138.818,103.448 139.253,103.448 
				139.253,106.696 138.68,106.696 137.813,104.163 137.805,104.163 137.805,106.696 137.37,106.696 			"/>
			<path d="M140.928,105.915h-0.898l-0.188,0.781h-0.479l0.877-3.248h0.523l0.846,3.248h-0.496 M140.826,105.458l-0.329-1.518
				h-0.007l-0.36,1.518H140.826z"/>
			<polyline points="141.698,103.448 142.177,103.448 142.177,106.222 143.038,106.222 143.038,106.696 141.698,106.696 			"/>
			<path d="M144.921,103.401c0.542,0,1.043,0.502,1.043,1.672c0,1.168-0.501,1.67-1.043,1.67c-0.545,0-1.043-0.502-1.043-1.67
				C143.878,103.903,144.376,103.401,144.921,103.401 M144.921,106.288c0.302,0,0.547-0.322,0.547-1.215
				c0-0.895-0.245-1.217-0.547-1.217c-0.303,0-0.548,0.322-0.548,1.217C144.373,105.966,144.618,106.288,144.921,106.288"/>
			<polyline points="146.226,103.448 147.55,103.448 147.55,103.923 146.706,103.923 146.706,104.808 147.512,104.808 
				147.512,105.282 146.706,105.282 146.706,106.696 146.226,106.696 			"/>
			<polyline points="147.774,103.448 149.098,103.448 149.098,103.923 148.253,103.923 148.253,104.808 149.062,104.808 
				149.062,105.282 148.253,105.282 148.253,106.696 147.774,106.696 			"/>
			<rect x="149.325" y="103.448" width="0.48" height="3.248"/>
			<path d="M151.842,106.626c-0.1,0.066-0.33,0.117-0.568,0.117c-0.792,0-1.202-0.723-1.202-1.67c0-0.951,0.41-1.672,1.189-1.672
				c0.267,0,0.481,0.088,0.581,0.135l-0.025,0.535c-0.1-0.061-0.252-0.178-0.495-0.178c-0.398,0-0.74,0.336-0.74,1.18
				c0,0.84,0.342,1.176,0.74,1.176c0.231,0,0.385-0.07,0.495-0.168"/>
			<polyline points="152.074,103.448 153.449,103.448 153.449,103.923 152.554,103.923 152.554,104.786 153.402,104.786 
				153.402,105.263 152.554,105.263 152.554,106.222 153.487,106.222 153.487,106.696 152.074,106.696 			"/>
			<polyline points="154.549,103.448 155.871,103.448 155.871,103.923 155.028,103.923 155.028,104.808 155.835,104.808 
				155.835,105.282 155.028,105.282 155.028,106.696 154.549,106.696 			"/>
			<path d="M157.035,103.401c0.542,0,1.041,0.502,1.041,1.672c0,1.168-0.499,1.67-1.041,1.67c-0.546,0-1.044-0.502-1.044-1.67
				C155.991,103.903,156.489,103.401,157.035,103.401 M157.035,106.288c0.302,0,0.546-0.322,0.546-1.215
				c0-0.895-0.244-1.217-0.546-1.217c-0.303,0-0.548,0.322-0.548,1.217C156.487,105.966,156.732,106.288,157.035,106.288"/>
			<path d="M158.316,103.448h0.815c0.469,0,0.781,0.26,0.781,0.855c0,0.426-0.213,0.707-0.506,0.764v0.014
				c0.096,0.02,0.206,0.076,0.288,0.377l0.342,1.238h-0.51l-0.259-1.055c-0.063-0.258-0.187-0.342-0.364-0.342h-0.108v1.396h-0.479
				 M158.993,104.862c0.254,0,0.427-0.162,0.427-0.492c0-0.373-0.159-0.465-0.427-0.465h-0.197v0.957H158.993z"/>
			<polyline points="161.203,103.923 160.618,103.923 160.618,103.448 162.263,103.448 162.263,103.923 161.685,103.923 
				161.685,106.696 161.203,106.696 			"/>
			<polyline points="162.432,103.448 162.913,103.448 162.913,104.769 163.69,104.769 163.69,103.448 164.168,103.448 
				164.168,106.696 163.69,106.696 163.69,105.263 162.913,105.263 162.913,106.696 162.432,106.696 			"/>
			<polyline points="164.536,103.448 165.912,103.448 165.912,103.923 165.017,103.923 165.017,104.786 165.864,104.786 
				165.864,105.263 165.017,105.263 165.017,106.222 165.95,106.222 165.95,106.696 164.536,106.696 			"/>
			<path d="M157.843,74.271c0.695,0.816,1.904,1.297,2.613,2.115c-0.506-2.42-2.393-4.393-4.627-4.861
				C156.916,72.335,157.15,73.456,157.843,74.271 M131.014,80.399c1.539-3.307,3.832-2.607,4.805-5.758
				c-0.549,0.967-3.057,1.375-4.218,3.852c0.593-1.473,0.295-3.725,1.3-4.939C129.896,75.745,131.177,79.29,131.014,80.399
				 M133.8,88.331c0.274,1.291-0.533,3.148,0.752,4.924c-1.334-1.479-4.158-1.854-5.314-4.104c1.444,5.494,5.193,4.363,6.891,5.559
				C134.732,92.731,135.873,91.417,133.8,88.331 M133.366,91.782c-0.831-3.072,0.646-4.131-0.476-7.078
				c-0.118,1.66-1.236,2.471-0.481,5.502c-1.333-2.568-3.396-3.525-3.991-5.289C128.459,89.737,132.378,90.45,133.366,91.782
				 M139.385,96.931c-1.154-1.578-0.365-2.469-3.606-5.336c0.687,1.045-0.021,2.363,2.165,4.41c-2.141-1.248-5.09-0.715-6.513-2.381
				C133.872,98.243,138.168,96.356,139.385,96.931 M155.07,96.005c2.186-2.047,1.478-3.365,2.165-4.41
				c-3.242,2.867-2.456,3.758-3.609,5.336c1.217-0.574,5.512,1.313,7.953-3.307C160.159,95.29,157.206,94.757,155.07,96.005
				 M158.459,93.255c1.286-1.775,0.478-3.633,0.755-4.924c-2.075,3.086-0.936,4.4-2.33,6.379c1.695-1.195,5.447-0.064,6.889-5.559
				C162.618,91.401,159.794,91.776,158.459,93.255 M153.281,97.149c-1.267-0.336-2.571-0.502-3.544-0.523
				c-1.211-0.031-2.294,0.195-3.232,0.539c-0.938-0.344-2.019-0.57-3.231-0.539c-0.972,0.021-2.277,0.188-3.543,0.523
				c-1.948,0.514-3.636,0.91-5.104,0.176c1.407,1.234,3.05,1.674,5.425,1.424c1.977-0.211,3.568-1.186,5.434-1.176
				c0.023,0,0.049,0.004,0.071,0.004c-1.962,0.979-3.071,2.361-3.071,2.361l0.899,0.117c0,0,0.947-1.879,3.12-2.367
				c2.177,0.488,3.122,2.367,3.122,2.367l0.896-0.117c0,0-1.106-1.383-3.07-2.361c0.025,0,0.048-0.004,0.073-0.004
				c1.864-0.01,3.458,0.965,5.433,1.176c2.375,0.25,4.019-0.189,5.425-1.424C156.916,98.06,155.231,97.663,153.281,97.149
				 M133.022,81.374c-0.804,1.525-2.054,1.877-1.92,5.023c-0.673-2.797-2.283-3.836-2.264-5.623c-1.121,4.66,1.873,5.217,2.642,7.17
				C131.368,85.144,133.175,84.579,133.022,81.374 M134.146,77.772c-0.278,0.389-0.476,0.555-1.224,1.16
				c-1.017,0.83-1.829,1.918-2.172,3.51c0.078-1.711-0.991-4.168-0.28-5.959c-2.752,3.838,0.157,6.141,0.26,7.531
				C131.441,81.337,133.079,81.315,134.146,77.772 M162.261,82.442c-0.343-1.592-1.156-2.68-2.172-3.51
				c-0.746-0.605-0.943-0.771-1.225-1.16c1.066,3.543,2.705,3.564,3.417,6.242c0.105-1.391,3.011-3.693,0.261-7.531
				C163.252,78.274,162.185,80.731,162.261,82.442 M164.597,84.917c-0.597,1.764-2.663,2.721-3.994,5.289
				c0.757-3.031-0.363-3.842-0.48-5.502c-1.122,2.947,0.354,4.006-0.477,7.078C160.636,90.45,164.554,89.737,164.597,84.917
				 M159.988,81.374c-0.152,3.205,1.657,3.77,1.544,6.57c0.768-1.953,3.76-2.51,2.64-7.17c0.022,1.787-1.589,2.826-2.263,5.623
				C162.041,83.251,160.794,82.899,159.988,81.374 M135.168,74.271c0.692-0.814,0.927-1.936,2.015-2.746
				c-2.232,0.469-4.119,2.441-4.626,4.861C133.267,75.567,134.473,75.087,135.168,74.271 M157.192,74.642
				c0.972,3.15,3.267,2.451,4.803,5.758c-0.158-1.109,1.118-4.654-1.884-6.846c1.003,1.215,0.706,3.467,1.3,4.939
				C160.247,76.017,157.741,75.608,157.192,74.642 M149.4,76.431c-0.577-0.236-1.188-0.404-1.827-0.494
				c-0.002,0.135-0.005,0.271-0.007,0.406c0.586,0.086,1.151,0.242,1.685,0.459C149.323,76.69,149.373,76.569,149.4,76.431
				 M148.937,72.53l0.123-0.109l-0.234-0.098l-0.612-0.012l-0.162,0.109l-0.361-0.029l-0.003,0.086
				c0.23,0.016,0.455,0.035,0.632,0.068l0.3-0.029L148.937,72.53z M147.754,85.608c0-0.104-0.138-0.203-0.344-0.301h-0.034
				c-0.002,0.086-0.01,0.496-0.016,0.697C147.614,85.892,147.754,85.771,147.754,85.608 M140.645,77.899
				c0.016-0.082,0.031-0.146,0.055-0.221c-0.078,0.018-0.167,0.027-0.253,0.025L140.645,77.899z M146.519,95.743
				c6.901,0,12.518-5.551,12.518-12.373c0-6.398-4.94-11.682-11.249-12.309c-0.005,0.021-0.011,0.045-0.016,0.068
				c-0.025,0.121-0.046,0.23-0.065,0.326c2.824,0.271,5.368,1.51,7.289,3.371l-1.382,1.365l0.054-0.238l-0.182-0.08l-0.248-0.014
				l0.052-0.158l-0.167-0.559l-0.344-0.373l-1.078-0.563l-0.093,0.098l-0.195,0.055c0.37,0.543,0.57,1.164,0.57,1.793
				c0,0.084-0.003,0.166-0.006,0.244l0.533,0.666l-0.249,0.057l0.165,0.248l-0.473,0.467l-0.19-0.357
				c-0.089,0.248-0.209,0.48-0.356,0.695c0.036,0.031,0.072,0.064,0.107,0.098l-1.454,1.438c-0.089-0.084-0.182-0.164-0.275-0.24
				c-0.141,0.063-0.28,0.123-0.426,0.178c0.042,0.033,0.082,0.063,0.124,0.094l-0.073,0.076l-0.17,0.094l-0.064,0.168l-0.104-0.105
				l-0.308,0.102l0.084,0.133l0.212-0.057l0.138,0.012l0.01-0.074l0.108-0.053l0.032-0.063l0.189-0.053l0.149-0.006
				c0.029,0.027,0.058,0.051,0.087,0.078l-0.577,0.57l-0.043-0.063l-0.601,0.102l-0.137,0.131l-0.133,0.016l0.377-0.354
				l-0.135-0.066l-0.351,0.461l0.104-0.01l-0.007,0.17l0.13,0.049l0.023,0.182l-0.208-0.043l-0.223,0.041l-0.526-0.268
				c0,0-0.03,1.402-0.044,2.109c1.248,0.414,2.575,1.014,2.575,2.59c0,0.691-0.304,1.25-0.899,1.662l0.003,0.002
				c-0.008,0.006-0.016,0.016-0.025,0.02l-0.003-0.002c-0.014,0.008-0.028,0.018-0.04,0.027c-0.507,0.33-1.155,0.506-1.719,0.682
				c-0.003,0-0.018,1.102-0.018,1.102c0.897,0.439,1.984,1.082,1.886,2.912c-0.015,0.451-0.191,0.576-0.344,0.615v0.002
				c-0.524,0.129-1.066,0.213-1.618,0.252c-0.005,0.143-0.006,0.277-0.009,0.404c2.411-0.164,4.592-1.172,6.241-2.725l1.453,1.436
				c-2.179,2.07-5.134,3.346-8.388,3.346c-3.236,0-6.178-1.26-8.354-3.311l1.457-1.439c1.632,1.525,3.777,2.518,6.149,2.689
				c-0.002-0.125-0.004-0.26-0.006-0.402c-2.26-0.174-4.301-1.119-5.858-2.57l0.39-0.385l0.531,0.061l0.283-0.301l0.743,0.025
				l0.109-0.256l-0.025-0.105c1.077,0.807,2.376,1.338,3.789,1.484c-0.002-0.158-0.005-0.293-0.008-0.404
				c-1.562-0.172-2.974-0.842-4.07-1.84l1.456-1.439c0.354,0.313,0.749,0.576,1.179,0.779c0.031-0.135,0.082-0.264,0.148-0.375
				c-0.38-0.184-0.728-0.418-1.039-0.688l1.459-1.443c0.23,0.184,0.492,0.328,0.777,0.43c-0.002-0.145-0.005-0.293-0.008-0.434
				c-0.172-0.076-0.335-0.17-0.481-0.281l0.41-0.408c-0.145-0.043-0.289-0.088-0.435-0.137l-0.274,0.271
				c-0.14-0.152-0.259-0.324-0.352-0.51c-0.249-0.111-0.493-0.236-0.719-0.381c-0.895-0.584-1.351-1.406-1.351-2.443
				c0-0.793,0.227-1.395,0.59-1.859l-1.45-1.434c1.045-0.988,2.387-1.668,3.883-1.891c-0.004-0.139-0.008-0.275-0.009-0.404
				c-1.601,0.227-3.045,0.951-4.162,2.012l-0.244-0.242c-0.055,0.096-0.121,0.219-0.195,0.373l0.155,0.154
				c-1.25,1.314-2.025,3.072-2.057,5.004h-2.06c0.033-2.494,1.038-4.76,2.66-6.443l0.653,0.646c0.03,0,0.061,0,0.092-0.002
				c0.116-0.01,0.246-0.045,0.373-0.107l-0.831-0.822c0.437-0.418,0.919-0.799,1.432-1.129c0.041-0.137,0.077-0.258,0.1-0.301
				c0.025-0.051,0.156-0.221,0.315-0.418c-0.78,0.43-1.5,0.955-2.134,1.563l-1.454-1.436c1.906-1.836,4.419-3.055,7.21-3.334
				c-0.009-0.049-0.017-0.088-0.017-0.088c-0.018-0.094-0.041-0.199-0.06-0.307c-6.292,0.646-11.209,5.918-11.209,12.305
				C134.003,90.192,139.617,95.743,146.519,95.743 M149.221,87.194l-0.002-0.01l0.006,0.01
				C149.224,87.194,149.222,87.194,149.221,87.194 M155.281,75.114c2.046,2.121,3.314,4.98,3.346,8.129h-2.056
				c-0.02-1.559-0.404-3.031-1.074-4.34l0.021-0.037l0.141,0.074l0.034-0.107l-0.369-0.637l-0.436-0.598l-0.51-0.42
				c-0.174-0.217-0.36-0.426-0.551-0.629L155.281,75.114z M152.661,77.72l0.495,0.02l0.116,0.143l-0.058,0.207l0.685,0.422
				l0.137-0.018l0.877,0.992l0.359-0.123c0.557,1.184,0.875,2.498,0.894,3.881h-2.06c-0.008-0.531-0.075-1.049-0.189-1.545
				l0.094-0.127l0.127-0.637l-0.095-0.686l-0.25-0.787l-0.572-0.83l0.138,0.074l0.07-0.07l-0.459-0.307l-0.033,0.1l0.462,0.65
				l0.261,0.533l0.187,0.529l0.059,0.357l0.097,0.596l-0.174,0.016c0,0-0.197-0.369-0.26-0.52l0.092-0.135l-0.176-0.25v-0.248
				l-0.125-0.156l-0.156,0.02c-0.057-0.102-0.112-0.203-0.174-0.305l0.108,0.057l0.033-0.029l-0.061-0.127l0.133-0.076l-0.06-0.074
				l-0.199,0.074l0.071-0.309l-0.116-0.064l-0.106,0.244c-0.224-0.332-0.474-0.648-0.747-0.939L152.661,77.72z M152.251,82.485
				l0.369-0.197l0.377-0.059l0.081-0.182l0.208-0.125l0.083-0.174l0.064-0.299c0.029,0.105,0.06,0.211,0.083,0.322l-0.2,0.586
				l-0.007,0.199l0.289-0.383c0.059,0.35,0.096,0.707,0.104,1.068h-1.806l-0.041-0.154l0.209-0.164l0.042-0.1l0.093-0.068
				l0.243-0.021l0.025-0.109L152.251,82.485z M149.78,81.087l0.184-0.041l-0.007-0.045l-0.185-0.121l0.062-0.383l0.221-0.217
				c0.14,0.154,0.265,0.316,0.382,0.488l-0.076,0.236l-0.202-0.141l-0.152,0.041l0.075,0.141h0.074l-0.082,0.207l-0.06-0.082
				L149.78,81.087z M150.567,87.839l-0.443-0.123l-0.134,0.049l-0.252-0.191l-0.234-0.084c0.114-0.082,0.229-0.17,0.337-0.264
				l0.364,0.258l0.281,0.146l0.139,0.135L150.567,87.839z M150.342,79.995l1.456-1.438c0.34,0.363,0.641,0.766,0.899,1.193
				l-0.182,0.051l0.009,0.32l0.548,0.34c0.132,0.293,0.247,0.596,0.34,0.91l-0.097,0.139l-0.196,0.123l-0.049,0.297l-0.134,0.074
				l-0.112,0.133l-0.114-0.041l-0.201-0.01l0.118-0.156l0.083-0.404l0.133-0.084l-0.393-0.371l-0.293,0.1l-0.067,0.271l-0.184,0.199
				l-0.192-0.158l-0.068-0.168l0.109-0.064l0.063,0.107l0.089-0.029l-0.039-0.186l-0.127-0.008l-0.01,0.076l-0.084,0.016
				l-0.45-0.521l-0.156-0.115l0.061-0.063l0.137-0.049l-0.127-0.047c0,0-0.16,0.035-0.178,0.035l0.092,0.113l-0.231-0.006
				C150.657,80.372,150.507,80.175,150.342,79.995 M151.082,87.651l-0.197-0.195l0.15-0.197l0.192-0.381l-0.075-0.107l0.127-0.283
				l-0.015-0.254l-0.076-0.266l-0.179-0.063l-0.065,0.15l-0.106-0.029c0.152-0.244,0.316-0.473,0.429-0.742l0.185-0.08l0.104-0.137
				l0.05,0.057l0.125-0.148l-0.102-0.125l0.092-0.023l0.169,0.066l0.319,0.008l0.192-0.098l0.5-0.135l-0.094-0.164l-0.032-0.199
				l0.271,0.117l0.099-0.059l-0.05-0.207l-0.33,0.123l-0.363-0.076l-0.277-0.557h1.574c-0.071,1.789-0.813,3.41-1.986,4.623
				l-0.219-0.213l0.095-0.287l-0.167-0.627L151.082,87.651z M151.361,91.618l0.194-0.412l-0.076-0.182l0.283-0.248v-0.148
				l-0.242-0.15l0.2-0.396l0.302-0.389l-0.302-0.324h-0.227l-0.14-0.223c0.122-0.098,0.241-0.201,0.356-0.307l1.454,1.438
				C152.621,90.79,152.016,91.241,151.361,91.618 M153.174,89.716l0.16-0.176l-0.15-0.785l-0.106-0.043l0.063-0.135l-0.343-0.105
				l-0.067,0.283l-0.033,0.354l-0.071,0.068l-0.629-0.621c1.248-1.287,2.037-3.01,2.105-4.908h2.061
				c-0.072,2.461-1.09,4.691-2.71,6.346L153.174,89.716z M153.739,90.276c1.693-1.727,2.761-4.059,2.83-6.629h2.056
				c-0.071,3.131-1.366,5.971-3.431,8.066L153.739,90.276z M141.358,88.306c-0.146-0.15-0.289-0.311-0.424-0.477l0.062-0.514
				l-0.218-0.494l-0.051-0.77l-0.243-0.471l0.051-0.293l-0.294-0.557l-0.256-0.123l0.104-0.297l-0.108-0.236l0.106-0.268h0.281
				l0.099-0.16h0.479l0.075,0.139l-0.089,0.482l-0.06,0.084l0.18,0.389l-0.117,0.066l-0.083-0.104l-0.035,0.037l0.081,0.23
				l0.142,0.27l0.067-0.006l0.038-0.244l-0.066-0.088l-0.01-0.162l-0.019-0.336l0.099-0.598l-0.097-0.16h0.345
				c0.067,1.246,0.594,2.373,1.415,3.223L141.358,88.306z M140.001,84.331l-0.195,0.301h-0.333l-0.026-0.02
				c-0.057-0.316-0.094-0.637-0.106-0.965h0.621l-0.148,0.488L140.001,84.331z M140.676,82.935l0.039-0.404l0.243-0.139l0.436,0.076
				l0.065,0.078c-0.038,0.229-0.06,0.461-0.066,0.697h-0.495L140.676,82.935z M142.765,84.454l0.102-0.049l0.27,0.201l-0.117,0.092
				l0.305,0.199l-0.021-0.213l0.161-0.266l0.17,0.176l0.173,0.248l-0.312,0.068l0.142,0.277l0.217-0.113l-0.027-0.088l0.161-0.109
				l0.094-0.441c0.12,0.262,0.278,0.502,0.476,0.713l-1.454,1.436c-0.693-0.721-1.158-1.656-1.275-2.697l0.299,0.313l0.279-0.004
				L142.765,84.454z M141.274,78.521l1.453,1.438c-0.304,0.33-0.563,0.699-0.771,1.098l-0.102-0.006l-0.205,0.064l-0.069-0.004
				l-0.219,0.199l0.277-0.045l0.245-0.061c-0.016,0.029-0.029,0.061-0.043,0.092l-0.215,0.133h-0.104l-0.319,0.24l-0.308-0.025
				l-0.449,0.824l0.089,0.164l-0.242,0.266l-0.038,0.346h-0.918C139.369,81.421,140.1,79.763,141.274,78.521 M139.395,89.366
				l0.462,0.268l0.096,0.064l-0.334,0.328c-0.156-0.156-0.307-0.324-0.452-0.492L139.395,89.366z M138.935,83.647
				c0.007,0.197,0.023,0.391,0.047,0.588l-0.252,0.055l-0.051,0.254l-0.527,0.658l0.016,0.906l-0.539,0.178l-0.294,0.002
				c-0.273-0.838-0.433-1.723-0.458-2.641H138.935z M136.903,86.274l-0.12-0.021l-0.116-0.127l-0.577-0.049l0.181,0.24l-0.537-0.104
				l0.141-0.125l-0.13-0.125l-0.384,0.162l-0.14,0.256l0.054,0.576l0.442,1.051l0.215,0.33l0.123,0.047l-0.338-0.631l-0.073-0.32
				l0.075-0.082l-0.046-0.176l0.2,0.029l0.312,0.463l0.077,0.031l-0.008-0.34l0.126,0.074l0.027,0.182l0.326,0.086l0.136-0.096
				l0.048,0.031l-0.006,0.248l0.143,0.176l0.175,0.037l0.381,0.639l0.231,0.063l0.073-0.297c0.402,0.656,0.878,1.264,1.417,1.811
				l-1.452,1.436c-2.084-2.1-3.395-4.951-3.468-8.102h2.059C136.493,84.558,136.645,85.44,136.903,86.274 M137.792,75.079
				l1.452,1.436c-1.693,1.758-2.744,4.125-2.778,6.729h-2.056C134.442,80.079,135.725,77.202,137.792,75.079 M152.679,74.337
				l-0.123-0.199l-0.27-0.133l-0.208,0.16l0.269,0.141l0.299,0.215L152.679,74.337z M151.437,80.073l0.006,0.158l0.357-0.105
				l0.107-0.215l-0.246-0.318l0.13-0.195l0.336,0.234l0.059-0.049l-0.065-0.047l-0.076-0.141l0.136-0.076l-0.134-0.174l-0.31,0.154
				l-0.111,0.188l-0.06,0.17l0.136,0.227l-0.051,0.107L151.437,80.073z M136.563,89.194l0.024-0.092l-0.186-0.396l-0.22-0.084
				L136.563,89.194z M144.972,81.554c0,0.344,0.21,0.58,0.592,0.791c0,0-0.002-0.059-0.005-0.154l-0.238-0.236l0.127-0.229
				l0.104-0.029c-0.008-0.398-0.017-0.844-0.017-0.906l-0.02,0.002C145.165,80.983,144.972,81.22,144.972,81.554"/>
			<path d="M147.27,90.366c0.645,0.322,1.242,0.768,1.488,1.613c0.109-1.4-0.684-2.006-1.472-2.416
				C147.287,89.565,147.269,90.366,147.27,90.366"/>
			<path d="M151.559,76.155c0-1.271-0.935-2.684-3.221-3.18c-0.169-0.039-0.427-0.064-0.697-0.082
				c-0.006,0.193-0.017,0.631-0.017,0.631c-0.003,0.139-0.013,0.648-0.016,0.758c0.211,0.018,0.367,0.045,0.438,0.061
				c1.329,0.314,1.806,1.068,1.806,1.813c0,1.207-1.044,1.662-2.327,2.008c-0.14,0.037-0.281,0.072-0.427,0.109
				c-0.389,0.094-0.791,0.188-1.185,0.293c-0.144,0.039-0.283,0.078-0.422,0.119c-1.424,0.43-2.647,1.107-2.647,2.846
				c0,1.721,1.395,2.365,2.759,2.779c-0.01-0.494-0.019-0.996-0.029-1.492c-0.603-0.279-1.027-0.645-1.027-1.264
				c0-0.605,0.388-0.967,0.979-1.232c0.13-0.057,0.271-0.113,0.421-0.162c0.34-0.113,0.719-0.209,1.121-0.307
				c0.139-0.031,0.28-0.066,0.422-0.1C149.409,79.292,151.559,78.698,151.559,76.155"/>
			<path d="M144.666,88.298c0.003,0.695,0.521,1.074,1.038,1.361c-0.002-0.115-0.022-1.193-0.023-1.211
				c0.014-0.217,0.222-0.344,0.392-0.424c0.25-0.117,0.503-0.201,0.826-0.311c0.151-0.053,0.284-0.104,0.432-0.148
				c1.04-0.309,2.242-0.705,2.242-1.957s-1.031-1.766-2.159-2.152c-0.01,0.4-0.02,0.982-0.026,1.385
				c0.475,0.188,0.792,0.412,0.792,0.768c0,0.449-0.484,0.709-0.829,0.838c-0.142,0.053-0.36,0.125-0.42,0.145
				c-0.277,0.086-0.577,0.184-0.854,0.283c-0.145,0.055-0.287,0.115-0.42,0.18C145.167,87.304,144.662,87.663,144.666,88.298"/>
			<path d="M145.37,73.093c-0.691,0.197-1.099,0.453-1.254,0.506c-0.448,0.146-1.082,0.17-1.734,0.875
				c-0.116,0.123-0.399,0.477-0.6,0.764c-0.197,0.281-0.207,0.732-0.354,0.975c-0.206,0.352-0.157,0.553-0.157,0.553l0.005,0.012
				c-0.006,0.043-0.048,0.229-0.24,0.439c-0.218,0.238-0.506,0.373-0.848,0.318c0.298,0.146,0.708-0.059,0.708-0.059
				s-0.077,0.223-0.155,0.586c0.334-0.75,0.64-1.021,0.735-1.098c0.144,0.033,0.441,0.02,0.993-0.293
				c0.624-0.355,1.563-0.934,1.827-1.297c0.288-0.396,0.681-0.656,1.107-0.826C145.392,73.997,145.381,73.507,145.37,73.093
				 M142.645,75.532l-0.321,0.066l0.477-0.727l0.451,0.016L142.645,75.532z"/>
			<path d="M146.659,88.212c-0.06,0.02-0.217,0.088-0.314,0.119c-0.104,0.039-0.238,0.09-0.238,0.127c0,0.014,0.1,5.395,0.1,5.512
				c0,1.109,0.572,1.117,0.572,0c0-0.076,0.116-5.834,0.116-5.834S146.756,88.177,146.659,88.212"/>
			<path d="M146.068,86.437c0.178-0.063,0.354-0.115,0.521-0.164c0.122-0.039,0.238-0.076,0.344-0.109
				c0.008-0.338,0.104-5.023,0.123-5.877c-0.427,0.105-0.797,0.205-1.103,0.314C145.966,81.239,146.058,85.925,146.068,86.437"/>
			<path d="M146.544,68.493c-1.605,0-0.924,2.35-0.795,3.119c0.005,0.033,0.13,5.313,0.154,6.523
				c0.244-0.064,0.486-0.123,0.721-0.178c0.168-0.041,0.328-0.082,0.484-0.121c0.023-1.166,0.143-6.203,0.146-6.234
				C147.351,70.782,148.191,68.493,146.544,68.493"/>
			<polyline points="172.761,72.948 172.737,72.948 171.377,80.28 169.513,80.28 167.771,71.333 169.253,71.333 170.463,78.231 
				170.487,78.231 171.784,71.333 173.71,71.333 174.995,78.231 175.021,78.231 176.281,71.333 177.712,71.333 175.935,80.28 
				174.047,80.28 			"/>
			<path d="M180.345,73.575c1.297,0,2.793,0.707,2.793,3.4c0,2.768-1.496,3.406-2.793,3.406s-2.802-0.639-2.802-3.406
				C177.543,74.282,179.048,73.575,180.345,73.575 M180.345,79.255c0.99,0,1.213-1.18,1.213-2.279c0-1.105-0.223-2.271-1.213-2.271
				c-0.988,0-1.223,1.166-1.223,2.271C179.122,78.075,179.356,79.255,180.345,79.255"/>
			<path d="M184.087,74.767c0-0.41-0.014-0.793-0.049-1.088h1.383c0.014,0.396,0.049,0.807,0.049,1.203h0.025
				c0.187-0.51,0.668-1.305,1.618-1.305c0.101,0,0.173,0.023,0.261,0.039v1.486c-0.136-0.039-0.273-0.064-0.433-0.064
				c-0.63,0-1.323,0.396-1.323,1.629v3.615h-1.531"/>
			<rect x="188.338" y="70.665" width="1.53" height="9.617"/>
			<path d="M196.261,70.665v8.486c0,0.477,0.016,0.887,0.051,1.131h-1.434c-0.023-0.193-0.049-0.578-0.049-1.025h-0.037
				c-0.247,0.564-0.704,1.127-1.691,1.127c-1.582,0-2.234-1.564-2.234-3.398c0-2.152,0.827-3.408,2.197-3.408
				c0.914,0,1.42,0.537,1.641,1.051h0.027v-3.963 M193.519,79.218c0.902,0,1.213-1.014,1.213-2.256c0-1.283-0.348-2.221-1.189-2.221
				c-0.852,0-1.146,0.859-1.146,2.182C192.396,78.448,192.632,79.218,193.519,79.218"/>
			<polyline points="201.308,71.331 202.89,71.331 202.89,74.974 205.446,74.974 205.446,71.331 207.026,71.331 207.026,80.282 
				205.446,80.282 205.446,76.333 202.89,76.333 202.89,80.282 201.308,80.282 			"/>
			<path d="M212.894,79.962c-0.32,0.143-0.988,0.42-1.902,0.42c-2.05,0-2.938-1.525-2.938-3.305c0-1.975,0.998-3.5,2.617-3.5
				c1.369,0,2.544,0.832,2.544,3.525v0.307h-3.681c0,1.129,0.432,1.807,1.619,1.807c0.939,0,1.383-0.293,1.666-0.512
				 M211.733,76.411c0-1.168-0.371-1.758-1.063-1.758c-0.803,0-1.137,0.883-1.137,1.758H211.733z"/>
			<path d="M214.587,74.063c0.434-0.205,1.038-0.488,2.014-0.488c1.975,0,2.434,1.002,2.434,2.656v2.883
				c0,0.475,0.05,0.91,0.086,1.168h-1.383c-0.076-0.258-0.088-0.58-0.088-0.898h-0.025c-0.381,0.537-0.865,1-1.777,1
				c-0.988,0-1.902-0.705-1.902-1.934c0-1.797,1.407-2.246,3.349-2.246h0.307V75.96c0-0.652-0.307-1.256-1.185-1.256
				c-0.768,0-1.445,0.385-1.742,0.643 M217.6,77.052h-0.136c-1.31,0-2.09,0.279-2.09,1.242c0,0.604,0.387,1.01,0.979,1.01
				c0.914,0,1.246-0.701,1.246-1.881V77.052z"/>
			<rect x="220.54" y="70.665" width="1.533" height="9.617"/>
			<path d="M223.985,72.319l1.531-0.488v1.848h1.271v1.166h-1.271v3.424c0,0.705,0.248,0.91,0.693,0.91
				c0.271,0,0.468-0.076,0.578-0.143v1.131c-0.234,0.115-0.566,0.217-1.023,0.217c-1.137,0-1.779-0.539-1.779-1.922v-3.617h-1.012
				v-1.166h1.012"/>
			<path d="M227.581,70.667h1.531v3.857h0.037c0.271-0.408,0.629-0.947,1.582-0.947c1.443,0,1.877,1.115,1.877,2.447v4.258h-1.533
				v-3.961c0-1.014-0.247-1.438-0.877-1.438c-0.803,0-1.086,0.705-1.086,1.553v3.846h-1.531"/>
			<path d="M171.144,82.663c1.791,0,3.433,1.387,3.433,4.604s-1.642,4.6-3.433,4.6c-1.793,0-3.436-1.383-3.436-4.6
				S169.351,82.663,171.144,82.663 M171.144,90.612c1.001,0,1.803-0.885,1.803-3.346s-0.802-3.346-1.803-3.346
				c-1.002,0-1.807,0.885-1.807,3.346S170.142,90.612,171.144,90.612"/>
			<path d="M175.608,86.228c0-0.414-0.014-0.795-0.05-1.09h1.384c0.011,0.398,0.05,0.807,0.05,1.203h0.024
				c0.186-0.512,0.668-1.307,1.618-1.307c0.099,0,0.173,0.025,0.259,0.039v1.486c-0.134-0.039-0.271-0.061-0.432-0.061
				c-0.631,0-1.322,0.395-1.322,1.625v3.617h-1.531"/>
			<path d="M179.844,92.767c0.359,0.205,1.073,0.563,1.878,0.563c1.445,0,1.68-1.035,1.68-2.076v-0.627h-0.023
				c-0.25,0.512-0.68,1.115-1.68,1.115c-0.891,0-2.225-0.617-2.225-3.285c0-1.818,0.629-3.422,2.297-3.422
				c0.928,0,1.357,0.553,1.681,1.127h0.048c0-0.346,0.039-0.678,0.051-1.023h1.383c-0.023,0.346-0.049,0.691-0.049,1.037v4.875
				c0,2.061-0.605,3.535-2.94,3.535c-1.011,0-1.815-0.27-2.186-0.41 M182.226,90.573c0.965,0,1.346-0.719,1.346-2.219
				c0-1.385-0.506-2.129-1.232-2.115c-0.805,0.012-1.113,0.783-1.113,2.129C181.226,89.919,181.707,90.573,182.226,90.573"/>
			<path d="M186.54,85.522c0.432-0.205,1.038-0.488,2.013-0.488c1.979,0,2.435,1.002,2.435,2.654v2.885
				c0,0.475,0.051,0.91,0.088,1.168h-1.386c-0.073-0.258-0.087-0.578-0.087-0.898h-0.025c-0.381,0.537-0.863,1-1.776,1
				c-0.989,0-1.905-0.705-1.905-1.936c0-1.797,1.41-2.246,3.351-2.246h0.308v-0.242c0-0.654-0.308-1.256-1.185-1.256
				c-0.768,0-1.445,0.385-1.741,0.643 M189.554,88.509h-0.135c-1.311,0-2.09,0.283-2.09,1.244c0,0.604,0.385,1.012,0.977,1.012
				c0.916,0,1.248-0.703,1.248-1.885V88.509z"/>
			<path d="M192.53,86.228c0-0.414-0.014-0.795-0.049-1.09h1.433c0.015,0.334,0.05,0.676,0.05,1.012h0.035h-0.012
				c0.223-0.396,0.656-1.115,1.695-1.115c1.443,0,1.876,1.115,1.876,2.447v4.26h-1.532v-3.963c0-1.014-0.248-1.438-0.877-1.438
				c-0.803,0-1.087,0.707-1.087,1.555v3.846h-1.532"/>
			<path d="M198.938,82.329h1.582v1.566h-1.582 M198.964,85.138h1.531v6.602h-1.531V85.138z"/>
			<polyline points="201.922,90.368 204.638,86.341 202.007,86.341 202.007,85.136 206.171,85.136 206.171,86.497 203.503,90.534 
				206.257,90.534 206.257,91.741 201.922,91.741 			"/>
			<path d="M207.706,85.522c0.432-0.205,1.037-0.488,2.014-0.488c1.975,0,2.434,1.002,2.434,2.654v2.885
				c0,0.475,0.049,0.91,0.086,1.168h-1.383c-0.074-0.258-0.088-0.578-0.088-0.898h-0.025c-0.379,0.537-0.863,1-1.777,1
				c-0.986,0-1.902-0.705-1.902-1.936c0-1.797,1.408-2.246,3.348-2.246h0.309v-0.242c0-0.654-0.309-1.256-1.186-1.256
				c-0.766,0-1.445,0.385-1.741,0.643 M210.72,88.509h-0.136c-1.31,0-2.087,0.283-2.087,1.244c0,0.604,0.383,1.012,0.975,1.012
				c0.916,0,1.248-0.703,1.248-1.885V88.509z"/>
			<path d="M213.913,83.778l1.533-0.488v1.848h1.27v1.164h-1.27v3.426c0,0.705,0.248,0.908,0.691,0.908
				c0.272,0,0.469-0.074,0.578-0.139v1.127c-0.232,0.117-0.566,0.219-1.021,0.219c-1.137,0-1.781-0.539-1.781-1.924v-3.617h-1.012
				v-1.164h1.012"/>
			<path d="M217.771,82.329h1.579v1.566h-1.579 M217.966,85.138h1.531v6.602h-1.531V85.138z"/>
			<path d="M223.474,85.034c1.298,0,2.791,0.707,2.791,3.398c0,2.77-1.493,3.41-2.791,3.41c-1.297,0-2.803-0.641-2.803-3.41
				C220.671,85.741,222.177,85.034,223.474,85.034 M223.474,90.714c0.989,0,1.211-1.178,1.211-2.281s-0.222-2.27-1.211-2.27
				c-0.988,0-1.221,1.166-1.221,2.27S222.485,90.714,223.474,90.714"/>
			<path d="M227.601,86.228c0-0.414-0.014-0.795-0.05-1.09h1.433c0.012,0.334,0.049,0.676,0.049,1.012h0.037h-0.013
				c0.224-0.396,0.655-1.115,1.694-1.115c1.443,0,1.875,1.115,1.875,2.447v4.26h-1.529v-3.963c0-1.014-0.249-1.438-0.879-1.438
				c-0.803,0-1.086,0.707-1.086,1.555v3.846h-1.531"/>
			<path d="M48.746,70.44h2.561c1.847,0,2.808,1.096,2.808,2.908s-0.961,2.924-2.808,2.924h-0.922v3.748h-1.639 M51.001,74.929
				c1.025,0,1.473-0.535,1.473-1.58c0-1.043-0.447-1.563-1.473-1.563h-0.616v3.143H51.001z"/>
			<path d="M54.986,73.362c0.45-0.219,1.077-0.52,2.092-0.52c2.048,0,2.521,1.07,2.521,2.84v3.088c0,0.51,0.053,0.975,0.091,1.25
				h-1.437c-0.075-0.275-0.089-0.619-0.089-0.961h-0.027c-0.396,0.578-0.895,1.07-1.844,1.07c-1.023,0-1.974-0.754-1.974-2.072
				c0-1.92,1.461-2.402,3.474-2.402h0.319v-0.262c0-0.697-0.319-1.344-1.229-1.344c-0.795,0-1.501,0.412-1.809,0.688 M58.113,76.562
				h-0.14c-1.358,0-2.164,0.301-2.164,1.332c0,0.645,0.395,1.084,1.011,1.084c0.948,0,1.293-0.756,1.293-2.018V76.562z"/>
			<path d="M61.203,74.118c0-0.438-0.014-0.854-0.051-1.168h1.485c0.014,0.357,0.053,0.73,0.053,1.086h0.037h-0.013
				c0.23-0.426,0.679-1.193,1.756-1.193c1.499,0,1.948,1.193,1.948,2.621v4.557h-1.59v-4.24c0-1.086-0.256-1.539-0.911-1.539
				c-0.831,0-1.127,0.756-1.127,1.66v4.119h-1.588"/>
			<path d="M75.455,77.714h-3.076l-0.642,2.309h-1.64l2.999-9.584h1.795l2.883,9.584h-1.691 M75.11,76.37l-1.128-4.475h-0.027
				l-1.229,4.475H75.11z"/>
			<path d="M78.659,74.104c0-0.508-0.024-0.893-0.053-1.154h1.591c0.014,0.371,0.05,0.742,0.05,1.113h0.027
				c0.244-0.549,0.756-1.221,1.666-1.221c1.114,0,1.474,0.74,1.666,1.125c0.32-0.496,0.794-1.125,1.77-1.125
				c1.434,0,1.896,1.098,1.896,2.814v4.365h-1.59V75.56c0-0.879-0.255-1.316-0.845-1.316c-0.706,0-1.076,0.713-1.076,1.496v4.283
				h-1.589V75.56c0-0.879-0.258-1.316-0.847-1.316c-0.705,0-1.078,0.713-1.078,1.496v4.283h-1.588"/>
			<path d="M93.641,79.679c-0.333,0.148-1.026,0.451-1.974,0.451c-2.127,0-3.05-1.633-3.05-3.541c0-2.113,1.038-3.746,2.718-3.746
				c1.422,0,2.64,0.891,2.64,3.775v0.328h-3.82c0,1.207,0.45,1.934,1.681,1.934c0.973,0,1.435-0.314,1.729-0.547 M92.437,75.876
				c0-1.252-0.384-1.881-1.102-1.881c-0.832,0-1.181,0.945-1.181,1.881H92.437z"/>
			<path d="M95.385,74.118c0-0.438-0.015-0.854-0.053-1.168h1.436c0.014,0.428,0.052,0.865,0.052,1.291h0.025
				c0.192-0.549,0.691-1.398,1.679-1.398c0.103,0,0.181,0.025,0.27,0.041v1.592c-0.142-0.041-0.28-0.07-0.448-0.07
				c-0.655,0-1.372,0.426-1.372,1.744v3.871h-1.588"/>
			<path d="M100.101,69.944h1.642v1.678h-1.642 M100.125,72.952h1.591v7.068h-1.591V72.952z"/>
			<path d="M107.919,79.843c-0.372,0.15-0.924,0.287-1.565,0.287c-2.179,0-3.101-1.633-3.101-3.637c0-2.018,0.974-3.65,3.191-3.65
				c0.499,0,1.089,0.164,1.383,0.285l-0.087,1.348c-0.284-0.152-0.681-0.344-1.117-0.344c-1.204,0-1.729,0.865-1.729,2.375
				c0,1.318,0.588,2.334,1.806,2.334c0.387,0,0.91-0.195,1.128-0.344"/>
			<path d="M109.34,73.362c0.448-0.219,1.075-0.52,2.09-0.52c2.051,0,2.524,1.07,2.524,2.84v3.088c0,0.51,0.05,0.975,0.089,1.25
				h-1.436c-0.076-0.275-0.089-0.619-0.089-0.961h-0.026c-0.396,0.578-0.897,1.07-1.845,1.07c-1.025,0-1.974-0.754-1.974-2.072
				c0-1.92,1.461-2.402,3.474-2.402h0.32v-0.262c0-0.697-0.32-1.344-1.23-1.344c-0.795,0-1.499,0.412-1.809,0.688 M112.468,76.562
				h-0.142c-1.358,0-2.165,0.301-2.165,1.332c0,0.645,0.397,1.084,1.014,1.084c0.947,0,1.293-0.756,1.293-2.018V76.562z"/>
			<path d="M115.557,74.118c0-0.438-0.016-0.854-0.051-1.168h1.486c0.013,0.357,0.052,0.73,0.052,1.086h0.038h-0.015
				c0.232-0.426,0.68-1.193,1.756-1.193c1.5,0,1.95,1.193,1.95,2.621v4.557h-1.59v-4.24c0-1.086-0.257-1.539-0.911-1.539
				c-0.831,0-1.127,0.756-1.127,1.66v4.119h-1.589"/>
			<polyline points="48.821,82.479 50.462,82.479 50.462,86.378 53.114,86.378 53.114,82.479 54.756,82.479 54.756,92.06 
				53.114,92.06 53.114,87.833 50.462,87.833 50.462,92.06 48.821,92.06 			"/>
			<path d="M61.395,91.718c-0.334,0.15-1.026,0.453-1.974,0.453c-2.128,0-3.051-1.635-3.051-3.541c0-2.115,1.039-3.748,2.719-3.748
				c1.421,0,2.639,0.893,2.639,3.773v0.33h-3.818c0,1.209,0.447,1.936,1.677,1.936c0.976,0,1.436-0.314,1.73-0.549 M60.189,87.915
				c0-1.25-0.385-1.881-1.101-1.881c-0.833,0-1.18,0.947-1.18,1.881H60.189z"/>
			<path d="M63.405,85.403c0.45-0.221,1.078-0.523,2.092-0.523c2.048,0,2.523,1.072,2.523,2.844v3.086
				c0,0.51,0.051,0.977,0.089,1.25h-1.436c-0.076-0.273-0.089-0.617-0.089-0.961h-0.027c-0.396,0.576-0.896,1.07-1.844,1.07
				c-1.025,0-1.974-0.752-1.974-2.072c0-1.922,1.461-2.4,3.472-2.4h0.32v-0.262c0-0.699-0.32-1.346-1.229-1.346
				c-0.796,0-1.5,0.412-1.809,0.688 M66.532,88.601h-0.14c-1.359,0-2.166,0.303-2.166,1.332c0,0.645,0.397,1.084,1.013,1.084
				c0.948,0,1.293-0.754,1.293-2.018V88.601z"/>
			<rect x="69.776" y="81.765" width="1.588" height="10.295"/>
			<path d="M73.673,83.536l1.588-0.521v1.977h1.32v1.248h-1.32v3.666c0,0.756,0.257,0.975,0.718,0.975
				c0.282,0,0.487-0.082,0.603-0.15v1.207c-0.242,0.123-0.589,0.234-1.063,0.234c-1.178,0-1.845-0.578-1.845-2.059v-3.873H72.62
				v-1.248h1.053"/>
			<path d="M77.722,81.765h1.59v4.133h0.038c0.283-0.438,0.652-1.016,1.639-1.016c1.501,0,1.951,1.193,1.951,2.621v4.557h-1.59
				v-4.24c0-1.084-0.257-1.537-0.911-1.537c-0.831,0-1.127,0.754-1.127,1.66v4.117h-1.59"/>
			<path d="M52.026,94.38c1.858,0,3.562,1.484,3.562,4.93s-1.703,4.928-3.562,4.928c-1.86,0-3.563-1.482-3.563-4.928
				S50.166,94.38,52.026,94.38 M52.026,102.894c1.035,0,1.87-0.947,1.87-3.584c0-2.635-0.835-3.582-1.87-3.582
				c-1.038,0-1.872,0.947-1.872,3.582C50.154,101.946,50.988,102.894,52.026,102.894"/>
			<path d="M57.075,98.198c0-0.438-0.015-0.854-0.051-1.168h1.435c0.014,0.428,0.052,0.867,0.052,1.291h0.026
				c0.191-0.549,0.69-1.4,1.678-1.4c0.103,0,0.18,0.027,0.269,0.041v1.594c-0.142-0.041-0.28-0.07-0.448-0.07
				c-0.654,0-1.371,0.428-1.371,1.744v3.871h-1.589"/>
			<path d="M61.743,105.198c0.372,0.219,1.114,0.605,1.948,0.605c1.499,0,1.742-1.111,1.742-2.225v-0.672h-0.027
				c-0.255,0.547-0.702,1.193-1.741,1.193c-0.921,0-2.309-0.658-2.309-3.512c0-1.951,0.655-3.668,2.386-3.668
				c0.962,0,1.409,0.592,1.742,1.209h0.053c0-0.373,0.039-0.729,0.052-1.098h1.436c-0.027,0.369-0.053,0.738-0.053,1.109v5.217
				c0,2.211-0.628,3.789-3.049,3.789c-1.053,0-1.887-0.289-2.27-0.439 M64.037,102.853c1,0,1.396-0.77,1.396-2.375
				c0-1.482-0.525-2.281-1.282-2.266c-0.832,0.014-1.152,0.838-1.152,2.279C62.999,102.151,63.498,102.853,64.037,102.853"/>
			<path d="M68.868,97.442c0.449-0.219,1.078-0.521,2.091-0.521c2.049,0,2.524,1.072,2.524,2.842v3.088
				c0,0.51,0.051,0.975,0.088,1.25h-1.435c-0.076-0.275-0.09-0.617-0.09-0.961h-0.026c-0.396,0.576-0.896,1.07-1.845,1.07
				c-1.025,0-1.973-0.756-1.973-2.072c0-1.922,1.461-2.402,3.472-2.402h0.32v-0.262c0-0.699-0.32-1.344-1.229-1.344
				c-0.795,0-1.5,0.412-1.808,0.686 M71.995,100.642h-0.14c-1.357,0-2.167,0.301-2.167,1.332c0,0.645,0.397,1.084,1.014,1.084
				c0.948,0,1.293-0.756,1.293-2.018V100.642z"/>
			<path d="M75.084,98.198c0-0.438-0.014-0.854-0.051-1.168h1.487c0.012,0.357,0.051,0.73,0.051,1.086h0.039h-0.015
				c0.232-0.426,0.681-1.195,1.755-1.195c1.501,0,1.951,1.195,1.951,2.623v4.557H78.71v-4.24c0-1.086-0.255-1.539-0.909-1.539
				c-0.832,0-1.127,0.756-1.127,1.662v4.117h-1.59"/>
			<path d="M81.993,94.026h1.641V95.7h-1.641 M82.018,97.03h1.591v7.07h-1.591V97.03z"/>
			<polyline points="84.967,102.632 87.785,98.319 85.057,98.319 85.057,97.032 89.374,97.032 89.374,98.487 86.606,102.812 
				89.463,102.812 89.463,104.101 84.967,104.101 			"/>
			<path d="M90.988,97.442c0.449-0.219,1.077-0.521,2.091-0.521c2.05,0,2.526,1.072,2.526,2.842v3.088
				c0,0.51,0.049,0.975,0.087,1.25h-1.437c-0.076-0.275-0.089-0.617-0.089-0.961h-0.025c-0.397,0.576-0.896,1.07-1.845,1.07
				c-1.024,0-1.974-0.756-1.974-2.072c0-1.922,1.461-2.402,3.473-2.402h0.321v-0.262c0-0.699-0.321-1.344-1.231-1.344
				c-0.794,0-1.498,0.412-1.808,0.686 M94.117,100.642h-0.14c-1.36,0-2.166,0.301-2.166,1.332c0,0.645,0.396,1.084,1.012,1.084
				c0.948,0,1.294-0.756,1.294-2.018V100.642z"/>
			<path d="M97.794,95.577l1.59-0.521v1.977h1.321v1.248h-1.321v3.664c0,0.756,0.256,0.977,0.716,0.977
				c0.283,0,0.489-0.082,0.605-0.15v1.207c-0.245,0.123-0.591,0.234-1.065,0.234c-1.179,0-1.846-0.578-1.846-2.061V98.28h-1.051
				v-1.248h1.051"/>
			<path d="M101.973,94.026h1.64V95.7h-1.64 M101.998,97.03h1.59v7.07h-1.59V97.03z"/>
			<path d="M108.035,96.923c1.346,0,2.896,0.754,2.896,3.637c0,2.965-1.55,3.652-2.896,3.652c-1.347,0-2.911-0.688-2.911-3.652
				C105.124,97.677,106.688,96.923,108.035,96.923 M108.035,103.003c1.024,0,1.254-1.264,1.254-2.443
				c0-1.182-0.229-2.432-1.254-2.432c-1.026,0-1.271,1.25-1.271,2.432C106.765,101.739,107.009,103.003,108.035,103.003"/>
			<path d="M112.315,98.198c0-0.438-0.015-0.854-0.052-1.168h1.486c0.013,0.357,0.053,0.73,0.053,1.086h0.039h-0.014
				c0.229-0.426,0.678-1.195,1.754-1.195c1.5,0,1.948,1.195,1.948,2.623v4.557h-1.588v-4.24c0-1.086-0.258-1.539-0.912-1.539
				c-0.831,0-1.127,0.756-1.127,1.662v4.117h-1.588"/>
			<path d="M26.077,106.726c-10.678,0-19.364-8.576-19.364-19.115c0-10.541,8.687-19.117,19.364-19.117
				c10.676,0,19.364,8.576,19.364,19.117C45.441,98.149,36.753,106.726,26.077,106.726 M26.077,69.37
				C15.889,69.37,7.6,77.552,7.6,87.61c0,10.057,8.289,18.238,18.478,18.238c10.188,0,18.477-8.182,18.477-18.238
				C44.554,77.552,36.265,69.37,26.077,69.37"/>
			<path d="M26.077,101.47c-7.949,0-14.418-6.217-14.418-13.861c0-7.643,6.469-13.861,14.418-13.861s14.417,6.219,14.417,13.861
				C40.494,95.253,34.026,101.47,26.077,101.47 M26.077,74.724c-7.403,0-13.43,5.779-13.43,12.885s6.026,12.885,13.43,12.885
				c7.406,0,13.43-5.779,13.43-12.885S33.483,74.724,26.077,74.724"/>
			<polyline points="10.782,80.958 11.036,81.894 11.961,81.894 11.288,82.419 11.54,83.239 10.742,82.593 9.965,83.298 
				10.278,82.419 9.481,81.899 10.406,81.917 			"/>
			<path d="M11.637,83.376l-0.892-0.719l-0.746,0.676l-0.08-0.051l0.3-0.842l-0.908-0.596l1.063,0.021l0.418-1.064l0.283,1.041
				h1.028l-0.757,0.594 M9.649,81.95l0.688,0.449l-0.26,0.729l0.663-0.602l0.705,0.572l-0.215-0.697l0.588-0.459h-0.82l-0.226-0.826
				l-0.334,0.85L9.649,81.95z"/>
			<polyline points="40.318,94.22 40.572,95.155 41.495,95.155 40.823,95.683 41.076,96.503 40.276,95.853 39.498,96.56 
				39.814,95.683 39.013,95.159 39.941,95.179 			"/>
			<path d="M41.172,96.642l-0.893-0.725l-0.749,0.678l-0.08-0.051l0.304-0.842l-0.909-0.596l1.061,0.023l0.421-1.066l0.282,1.043
				h1.027L40.88,95.7 M39.183,95.212l0.691,0.451l-0.263,0.729l0.664-0.604l0.705,0.574l-0.213-0.699l0.587-0.459h-0.82
				l-0.225-0.828l-0.337,0.852L39.183,95.212z"/>
			<polyline points="11.771,94.011 12.025,94.948 12.951,94.948 12.277,95.472 12.529,96.292 11.731,95.646 10.953,96.351 
				11.269,95.472 10.47,94.95 11.395,94.97 			"/>
			<path d="M12.624,96.433l-0.892-0.723l-0.746,0.674l-0.08-0.051l0.303-0.842l-0.907-0.594l1.061,0.023l0.418-1.068l0.282,1.045
				h1.029l-0.757,0.594 M10.639,95.003l0.688,0.451l-0.261,0.727l0.662-0.602l0.706,0.574l-0.214-0.697l0.588-0.459h-0.821
				l-0.225-0.828l-0.333,0.85L10.639,95.003z"/>
			<polyline points="41.466,80.284 41.804,81.222 42.644,81.222 41.972,81.747 42.224,82.567 41.466,81.872 40.647,82.626 
				40.961,81.747 40.16,81.226 41.089,81.245 			"/>
			<path d="M42.323,82.726l-0.857-0.787l-0.787,0.721l-0.08-0.049l0.303-0.844l-0.909-0.594l1.063,0.021l0.412-1.049l0.369,1.027
				h0.95l-0.759,0.59 M40.332,81.276l0.689,0.449l-0.264,0.729l0.708-0.648l0.659,0.604l-0.21-0.682l0.586-0.457h-0.733
				l-0.304-0.848l-0.343,0.871L40.332,81.276z"/>
			<path d="M27.216,87.603c0.079-0.002,0.157-0.004,0.232,0"/>
			<polyline points="16.268,98.47 16.674,98.837 14.745,100.896 14.312,100.501 14.839,98.263 14.83,98.259 13.456,99.726 
				13.051,99.358 14.98,97.3 15.438,97.716 14.918,99.897 14.927,99.903 			"/>
			<path d="M26.8,72.976l-0.63-0.063l1.302-2.662l0.688,0.068l0.725,2.859l-0.646-0.063l-0.125-0.588l-1.057-0.105 M27.262,71.962
				l0.731,0.07l-0.245-1.127h-0.005L27.262,71.962z"/>
			<polyline points="30.662,73.106 32.019,73.534 31.852,74.005 29.926,73.401 30.838,70.79 31.406,70.968 			"/>
			<path d="M35.03,74.806c-0.411,0.609-0.964,0.631-1.566,0.256c-0.217-0.139-0.511-0.396-0.567-0.76
				c-0.032-0.219,0.043-0.438,0.191-0.676l1.037-1.531l0.508,0.318l-1.014,1.498c-0.217,0.326-0.121,0.588,0.11,0.732
				c0.344,0.217,0.592,0.143,0.78-0.139l1.027-1.521l0.508,0.318"/>
			<polyline points="36.329,77.003 35.865,76.636 37.382,74.892 36.714,74.36 37.039,73.985 38.837,75.413 38.512,75.79 
				37.845,75.257 			"/>
			<path d="M23.625,72.329c0.029,0.152,0.158,0.434,0.675,0.359c0.278-0.041,0.579-0.152,0.53-0.443
				c-0.037-0.215-0.258-0.244-0.569-0.268l-0.315-0.025c-0.476-0.037-0.933-0.072-1.034-0.68c-0.052-0.307,0.027-0.873,0.946-1.008
				c0.866-0.125,1.189,0.395,1.251,0.73l-0.565,0.084c-0.038-0.121-0.135-0.406-0.65-0.33c-0.227,0.031-0.479,0.152-0.437,0.4
				c0.037,0.215,0.227,0.236,0.348,0.244l0.718,0.066c0.399,0.035,0.78,0.137,0.864,0.633c0.139,0.828-0.716,1.029-0.965,1.064
				c-1.031,0.152-1.307-0.406-1.364-0.746"/>
			<path d="M17.145,72.403c0.337-0.168,1.293-0.475,1.914,0.684c0.621,1.152-0.187,1.742-0.521,1.912
				c-0.336,0.168-1.293,0.477-1.914-0.68C16.003,73.161,16.811,72.575,17.145,72.403 M18.303,74.562
				c0.287-0.145,0.597-0.52,0.228-1.207c-0.37-0.691-0.866-0.658-1.152-0.514c-0.285,0.145-0.595,0.52-0.227,1.209
				C17.522,74.741,18.019,74.708,18.303,74.562"/>
			<path d="M13.02,75.757l0.995-1.018c0.526-0.535,1.021-0.264,1.196-0.1c0.226,0.207,0.305,0.496,0.181,0.758
				c0.235-0.094,0.386-0.129,0.768,0.223c0.296,0.277,0.369,0.346,0.492,0.289l0.054,0.047l-0.457,0.467
				c-0.124-0.063-0.245-0.143-0.454-0.334c-0.279-0.26-0.402-0.344-0.708-0.031l-0.424,0.434l0.796,0.738l-0.403,0.412
				 M14.802,75.681c0.214-0.219,0.241-0.396,0.041-0.582c-0.108-0.098-0.314-0.199-0.555,0.049l-0.516,0.523l0.546,0.504
				L14.802,75.681z"/>
			<polyline points="33.85,100.106 34.334,99.845 35.722,102.243 35.201,102.524 33.196,101.364 33.19,101.368 34.178,103.079 
				33.691,103.343 32.306,100.944 32.855,100.646 34.81,101.782 34.815,101.778 			"/>
			<path d="M34.887,99.337l0.995-0.748c0.76-0.57,1.421-0.059,1.754,0.355c0.377,0.469,0.726,1.287-0.019,1.844l-0.973,0.732
				 M36.801,100.798l0.458-0.342c0.384-0.289,0.213-0.76-0.08-1.119c-0.516-0.645-0.874-0.457-1.075-0.309l-0.452,0.342
				L36.801,100.798z"/>
			<polyline points="39.656,98.935 39.263,99.37 37.118,97.55 37.512,97.114 			"/>
			<polyline points="40.571,78.37 39.653,77.2 39.175,77.552 40.02,78.626 39.62,78.921 38.772,77.849 38.184,78.28 39.145,79.503 
				38.74,79.798 37.428,78.122 39.703,76.452 40.975,78.075 			"/>
			<path d="M18.164,99.901c0.309,0.211,1.03,0.893,0.269,1.957s-1.67,0.645-1.98,0.434s-1.03-0.893-0.269-1.959
				C16.947,99.271,17.854,99.692,18.164,99.901 M16.74,101.89c0.263,0.18,0.749,0.273,1.204-0.361
				c0.455-0.637,0.196-1.049-0.068-1.225c-0.265-0.182-0.747-0.273-1.203,0.361C16.218,101.3,16.478,101.712,16.74,101.89"/>
			<polyline points="21.193,101.401 21.767,101.616 19.828,103.872 19.304,103.675 19.452,100.753 20.042,100.972 19.824,103.146 
				19.832,103.149 			"/>
			<polyline points="22.162,104.544 21.583,104.396 22.319,101.743 22.898,101.892 			"/>
			<polyline points="28.929,104.755 28.371,104.794 28.208,102.485 28.201,102.485 27.831,104.827 27.244,104.868 26.561,102.593 
				26.552,102.593 26.715,104.905 26.158,104.942 25.964,102.179 26.835,102.12 27.506,104.265 27.515,104.265 27.871,102.052 
				28.736,101.993 			"/>
			<path d="M32.242,103.038c0.188,0.711-0.172,1.123-0.87,1.295c-0.255,0.064-0.651,0.098-0.969-0.107
				c-0.194-0.129-0.311-0.334-0.39-0.602l-0.474-1.789l0.592-0.146l0.462,1.752c0.101,0.375,0.367,0.488,0.64,0.418
				c0.396-0.098,0.511-0.324,0.424-0.65l-0.472-1.777l0.593-0.145"/>
			<path d="M13.31,79.802l-0.333,0.484l-2.362-1.564l0.733-1.057c0.311-0.447,0.792-0.525,1.253-0.219
				c0.216,0.141,0.674,0.615,0.243,1.238l-0.384,0.553 M12.362,78.519c0.248-0.361-0.014-0.531-0.12-0.604
				c-0.229-0.152-0.411-0.09-0.619,0.209l-0.266,0.383l0.692,0.461L12.362,78.519z"/>
			<path d="M28.902,98.503c0.207,0.473-0.334,0.355-0.543,0.525h-0.175C28.219,98.757,28.518,98.317,28.902,98.503"/>
			<path d="M25.826,90.058v0.188h-0.732C25.022,89.837,25.653,89.771,25.826,90.058"/>
			<polyline points="27.102,85.222 27.455,84.796 28.398,84.718 28.83,84.64 28.634,85.028 28.123,85.222 28.202,85.028 
				27.614,84.989 27.299,85.222 			"/>
			<polyline points="29.421,84.681 29.734,84.64 30.087,84.796 29.892,85.03 29.538,85.106 29.38,85.3 29.184,85.146 28.87,85.222 
				28.83,85.069 29.105,84.991 28.989,84.835 29.105,84.72 			"/>
			<polyline points="30.392,85.046 30.587,84.89 30.941,84.927 30.862,85.122 30.351,85.239 			"/>
			<polyline points="27.614,85.495 28.005,85.458 27.925,85.688 27.534,85.688 			"/>
			<polyline points="30.283,85.437 30.516,85.259 30.645,85.384 30.49,85.515 			"/>
			<polyline points="30.081,85.813 30.278,86.046 30.435,85.97 30.315,85.581 			"/>
			<polyline points="30.8,85.962 30.915,85.806 30.563,85.61 			"/>
			<line x1="30.8" y1="85.962" x2="30.915" y2="85.806"/>
			<polyline points="31.194,85.788 31.332,85.843 31.277,86.411 31.086,85.896 			"/>
			<path d="M24.917,77.063c0.142-0.156,0.036-0.814-0.189-0.881c-0.264,0.404,0.54,0.592,0,0.881 M26.177,79.177
				c-0.032-0.318-0.112-0.99,0.187-1.408l0.181-0.182c-0.07,0.053-0.131,0.113-0.181,0.182l-0.361-0.352l0.175-0.186
				c-0.263,0.086-0.351-0.219-0.542-0.338c-0.245,0.658,1.328,1.506-0.175,1.572c-0.105-0.1-0.244-0.186-0.192-0.355h-0.174v0.188
				h0.174c-0.104,0.086-0.191,0.221-0.351,0.168c-0.016,0.203,0.036,0.424-0.189,0.525h0.366c0.103,0.1,0.244,0.186,0.174,0.355
				c0.244,0.068,0.61-0.152,0.734,0.17C25.95,79.364,26.089,79.28,26.177,79.177 M28.104,87.603c0.388-0.24,0.606-0.396,1.166-0.521
				c-0.055,0.168,0.085,0.254,0.171,0.354c0.4-0.451,0.647-0.08,0.946,0.168c0.147,0.125,0.308,0.221,0.505,0.17
				c0.011-0.057,0.038-0.109,0.071-0.17h0.193c0.27,0.652,1.289,1.035,1.377,1.764c0.629,0.305,1.504,0.049,1.99,0.691
				c1.276,1.404-1.535,1.914-1.083,3.354c-0.227,0.928-0.941,1.082-1.815,1.217c-0.279,0.707-0.838,0.998-1.448,1.404
				c-0.907-0.033-1.03,0.627-1.817,0.881c-0.279,0.912-1.048,1.168-1.275,2.113c0.142,0.287,0.627,0.121,0.54,0.523
				c-0.627,0.018-1.431-0.354-1.447-1.047c0.243-1.963,1.695-3.453,1.816-5.451c-0.979-0.709-1.136-2.063-1.085-3.332
				c0.63-0.32,0.491-0.945,0.716-1.404l-0.349-0.355c-0.367,0.527-0.611-0.271-1.099,0c-0.033-0.131-0.098-0.248-0.183-0.357
				c-0.201-0.252-0.507-0.459-0.727-0.709c-0.715-0.219-1.519-0.271-2.165-0.695c-0.822-0.066-0.351-0.98-1.083-1.232
				c-0.104,0.102-0.245,0.186-0.193,0.355c-1.168-0.307-0.698-1.574-1.258-2.287c0.125-0.498,0.146-0.965,0.04-1.404
				c-0.073-0.305-0.208-0.596-0.406-0.879c-1.152-1.252-2.428,0.914-3.807,0.17c0.506-0.033,0.925-0.271,1.257-0.693
				c-0.105-0.172-0.419-0.271-0.351-0.525l0.175-0.186l-0.175-0.17l0.175-0.17c-0.104-0.1-0.243-0.186-0.175-0.355
				c0.683-0.541,1.61-1.287,2.708-1.234c0.839-0.307,1.974,0.674,2.727-0.355c-0.385-0.018-0.787-0.576-0.367-0.863
				c0.262,0.035,0.541-0.424,0.733,0c0.228-0.119,0.174-0.34,0.174-0.543c0.595-0.322,1.24,0.68,1.451-0.168h0.366
				c-0.054,0.168,0.088,0.256,0.174,0.355l0.192-0.188l0.175,0.188c0.489-0.475,0.803,0.492,1.449,0.17
				c0.49,0.305,0.788,0.98,0.909,1.59c-0.191,0-0.419-0.051-0.542,0.168l0.734,0.711c0.225-0.117,0.174-0.338,0.174-0.541
				c0.873,0.441,1.396,1.336,1.817,2.117c-0.944,0.152-1.802,0.559-2.358,1.402c0.575,1.424-1.852,1.389-0.734,2.811l-0.359,0.357
				c-0.04-0.328-0.147-0.623-0.356-0.883c-0.943,0.594-2.586-0.592-2.357,1.236c0.242,0.201,0.228,0.508,0.542,0.693
				c0.453,0.203,0.611-0.355,0.907-0.523v-0.17h0.717c0.384,0.643-0.804,1.404,0.367,1.572c0,0.203,0.051,0.424-0.176,0.525
				c0.09,0.244,0.247,0.332,0.427,0.354c0.134,0.021,0.278,0.01,0.42,0h0.232c0.142,0.014,0.273,0.053,0.371,0.17
				C27.925,87.712,28.02,87.655,28.104,87.603"/>
			<path d="M41.496,84.128c0.137-0.021,0.334-0.037,0.622-0.037c0.267,0,0.46,0.047,0.589,0.145
				c0.129,0.094,0.215,0.258,0.215,0.449c0,0.186-0.063,0.352-0.18,0.455c-0.154,0.135-0.374,0.193-0.624,0.193
				c-0.051,0-0.096-0.006-0.124-0.008v0.631h-0.498 M41.994,84.948c0.026,0.002,0.061,0.004,0.114,0.004
				c0.196,0,0.319-0.1,0.319-0.258c0-0.137-0.096-0.23-0.284-0.23c-0.076,0-0.125,0.006-0.149,0.01V84.948z"/>
			<path d="M42.31,88.099l-0.105,0.428h-0.52l0.545-1.852h0.668l0.557,1.852h-0.54l-0.122-0.428 M42.724,87.729l-0.087-0.332
				c-0.027-0.105-0.063-0.258-0.091-0.365h-0.005c-0.028,0.107-0.057,0.262-0.083,0.369l-0.081,0.328H42.724z"/>
			<polyline points="41.907,89.317 41.907,90.001 42.516,90.001 42.516,89.317 43.015,89.317 43.015,91.171 42.516,91.171 
				42.516,90.435 41.907,90.435 41.907,91.171 41.404,91.171 41.404,89.317 			"/>
			<path d="M42.569,92.847c0,0.598-0.359,0.977-0.938,0.977c-0.582,0-0.904-0.43-0.904-0.945c0-0.539,0.359-0.967,0.933-0.967
				C42.266,91.911,42.569,92.353,42.569,92.847 M41.262,92.87c0,0.346,0.152,0.561,0.395,0.561c0.24,0,0.384-0.234,0.384-0.564
				c0-0.32-0.145-0.563-0.388-0.563C41.414,92.304,41.262,92.53,41.262,92.87"/>
			<path d="M10.92,85.995c0,0.6-0.361,0.977-0.939,0.977c-0.581,0-0.899-0.432-0.899-0.945c0-0.539,0.356-0.965,0.929-0.965
				C10.616,85.062,10.92,85.501,10.92,85.995 M9.609,86.019c0,0.346,0.155,0.561,0.396,0.561c0.242,0,0.387-0.234,0.387-0.564
				c0-0.322-0.146-0.563-0.39-0.563C9.765,85.452,9.609,85.679,9.609,86.019"/>
			<path d="M9.081,88.071c0.134-0.023,0.332-0.039,0.618-0.039c0.271,0,0.461,0.047,0.593,0.145c0.127,0.094,0.214,0.26,0.214,0.449
				c0,0.186-0.064,0.35-0.181,0.455c-0.152,0.137-0.373,0.191-0.626,0.191c-0.049,0-0.093-0.002-0.121-0.004v0.631H9.081
				 M9.578,88.89c0.027,0.002,0.059,0.006,0.113,0.006c0.195,0,0.319-0.1,0.319-0.26c0-0.137-0.095-0.23-0.283-0.23
				c-0.077,0-0.126,0.006-0.149,0.012V88.89z"/>
			<path d="M9.887,92.001c0.113,0.059,0.301,0.115,0.486,0.115c0.173,0,0.258-0.057,0.258-0.15c0-0.09-0.085-0.143-0.294-0.215
				c-0.318-0.109-0.529-0.283-0.529-0.557c0-0.324,0.28-0.58,0.753-0.58c0.224,0,0.383,0.041,0.509,0.096l-0.104,0.395
				c-0.083-0.033-0.22-0.088-0.41-0.088c-0.151,0-0.237,0.057-0.237,0.139c0,0.096,0.102,0.131,0.336,0.221
				c0.338,0.121,0.49,0.299,0.49,0.559c0,0.318-0.251,0.594-0.8,0.594c-0.225,0-0.445-0.064-0.549-0.115"/>
			<path d="M171.486,105.126h-1.935l-0.425,1.59h-1.396l2.049-7.109h1.592l1.976,7.109h-1.484 M170.567,100.972h-0.02l-0.732,2.953
				h1.387L170.567,100.972z"/>
		</g>
		<g>
			<path d="M303.67,79.312V35.688h12.752c8.748,0,13.125,3.583,13.125,10.75c0,4.918-2.418,8.271-7.252,10.061v0.125
				c5.5,1.211,8.25,4.688,8.25,10.438c0,3.918-1.314,6.982-3.938,9.189c-2.418,2.041-5.627,3.061-9.627,3.061H303.67z
				 M311.422,41.563v12.372h4.123c1.875,0,3.385-0.613,4.529-1.84c1.148-1.23,1.719-2.783,1.719-4.658s-0.592-3.324-1.779-4.344
				c-1.186-1.02-2.738-1.53-4.656-1.53H311.422z M311.422,59.812v13.377h4.41c2.07,0,3.697-0.594,4.879-1.779
				c1.182-1.189,1.77-2.824,1.77-4.908c0-4.459-2.297-6.689-6.896-6.689H311.422z"/>
			<rect x="338.482" y="35.688" width="8.061" height="43.626"/>
			<path d="M355.418,79.313V35.688h13.627c8.66,0,12.998,3.834,12.998,11.5c0,2.667-0.75,4.947-2.246,6.843
				c-1.506,1.897-3.568,3.031-6.191,3.405v0.189c2.168,0.334,3.771,2.022,4.814,5.062l5.686,16.627h-8.475l-4.299-14.188
				c-0.916-3.041-2.928-4.563-6.043-4.563h-1.809v18.75H355.418z M363.48,54.688h3.23c4.719,0,7.084-2.209,7.084-6.626
				c0-2.332-0.623-3.999-1.865-4.999c-1.078-0.834-2.816-1.25-5.219-1.25h-3.23V54.688z"/>
			<polygon points="390.543,79.313 390.543,35.688 413.479,35.688 413.479,42 398.604,42 398.604,53.687 412.666,53.687 
				412.666,60.001 398.604,60.001 398.604,72.999 414.105,72.999 414.105,79.313 			"/>
			<polygon points="456.291,79.313 456.291,42.938 445.229,79.313 439.541,79.313 428.982,42.938 428.982,79.313 421.729,79.313 
				421.729,35.688 433.576,35.688 442.643,68.259 442.781,68.247 452.094,35.688 463.539,35.688 463.539,79.313 			"/>
			<polygon points="472.729,79.313 472.729,35.688 495.664,35.688 495.664,42 480.791,42 480.791,53.687 494.852,53.687 
				494.852,60.001 480.791,60.001 480.791,72.999 496.287,72.999 496.287,79.313 			"/>
		</g>
	</g>
</g>
</svg>
